<svg width="373" height="217" viewBox="0 0 373 217" fill="none" xmlns="http://www.w3.org/2000/svg">
<path d="M56.3328 37.6735L44.1755 44.6925L58.5483 52.9906L53.6743 55.8046L39.3015 47.5065L22.9902 56.9238L16.5654 53.2144L54.782 31.1501L78.2935 44.7245L72.6995 47.1228L56.3328 37.6735ZM92.8939 63.5146L68.1915 77.7765L76.1395 82.3653L71.5978 84.9874L48.6955 71.7648L53.2372 69.1427L61.9883 74.1951L82.1489 62.5553L73.6748 57.6628L78.2165 55.0406L92.8939 63.5146ZM102.891 52.7543C104.11 53.4578 104.719 54.2359 104.719 55.0886C104.737 55.952 104.193 56.7035 103.085 57.343C101.977 57.9826 100.666 58.3023 99.1525 58.3023C97.6571 58.313 96.3001 57.9666 95.0816 57.2631C93.9001 56.5809 93.3093 55.8028 93.3093 54.9287C93.3093 54.0547 93.8631 53.2979 94.9709 52.6583C96.0786 52.0188 97.3802 51.7043 98.8756 51.715C100.371 51.7257 101.71 52.0721 102.891 52.7543ZM81.158 90.507L85.5889 87.9488L89.8814 90.4271L110.291 78.6434L105.999 76.1652L110.402 73.623L119.43 78.8353L113.781 83.408C117.325 82.6193 120.538 82.3208 123.418 82.5127C126.335 82.7045 129.067 83.536 131.615 85.0069C132.483 85.5079 133.184 85.9982 133.72 86.4779C134.292 86.9575 134.809 87.4585 135.271 87.9808L128.098 89.9794C127.673 89.5424 127.239 89.1533 126.796 88.8122C126.372 88.4605 125.846 88.1034 125.218 87.741C123.095 86.5152 120.464 85.9129 117.325 85.9343C114.205 85.9662 110.744 86.5685 106.94 87.741L96.0846 94.0085L101.983 97.4141L97.5524 99.9723L81.158 90.507ZM119.015 91.0346L126.215 86.8776L130.563 85.2627L135.271 87.9808L123.446 93.5928L119.015 91.0346ZM143.612 118.283C142.468 118.944 141.803 119.53 141.618 120.042C141.452 120.543 141.628 121.092 142.144 121.688L136.55 123.319C135.277 122.392 134.437 121.449 134.03 120.489C133.624 119.53 133.79 118.528 134.529 117.483C132.11 117.643 129.738 117.446 127.412 116.892C125.085 116.338 122.99 115.522 121.125 114.446C118.171 112.74 116.658 110.907 116.584 108.945C116.547 106.984 117.885 105.22 120.599 103.653C123.682 101.873 127.255 101.196 131.316 101.623C135.378 102.049 139.643 103.552 144.111 106.131L148.292 108.546L150.203 107.443C152.086 106.355 152.871 105.241 152.557 104.101C152.262 102.971 151.08 101.809 149.012 100.615C148.052 100.061 146.76 99.4642 145.135 98.8246C143.529 98.1744 141.72 97.5668 139.707 97.0019L142.56 93.5963C145.071 94.2572 147.36 95.0033 149.428 95.8347C151.514 96.6555 153.305 97.4976 154.8 98.3609C158.714 100.621 160.764 102.806 160.948 104.916C161.151 107.037 159.72 108.983 156.656 110.752L143.612 118.283ZM127.578 112.895C128.833 113.619 130.393 114.136 132.258 114.446C134.123 114.755 136.024 114.776 137.963 114.51L144.415 110.784L140.981 108.802C138.064 107.117 135.489 106.195 133.255 106.036C131.04 105.865 129.083 106.27 127.384 107.251C125.833 108.146 125.058 109.073 125.058 110.033C125.095 110.992 125.935 111.946 127.578 112.895ZM215.017 122.767C217.602 124.259 219.439 125.714 220.528 127.132C221.654 128.549 222.356 130.063 222.633 131.672L215.294 132.04C215.11 130.825 214.593 129.706 213.743 128.682C212.894 127.659 211.731 126.721 210.254 125.868C208.353 124.771 206.119 124.035 203.552 123.662C200.986 123.289 198.134 123.444 194.995 124.126C191.875 124.819 188.515 126.204 184.915 128.283C181.389 130.319 179.007 132.227 177.77 134.007C176.533 135.787 176.228 137.423 176.856 138.915C177.484 140.407 178.795 141.729 180.789 142.88C182.838 144.064 184.869 144.852 186.881 145.247C188.912 145.63 190.869 145.876 192.752 145.982L191.894 150.059C189.383 150.038 186.696 149.724 183.835 149.116C180.992 148.498 178.167 147.379 175.361 145.758C172.13 143.893 169.979 141.777 168.908 139.411C167.874 137.045 168.087 134.577 169.545 132.008C171.022 129.45 173.921 126.924 178.241 124.429C182.524 121.957 186.9 120.315 191.367 119.505C195.854 118.684 200.137 118.578 204.217 119.185C208.316 119.782 211.916 120.976 215.017 122.767ZM236.07 145.282C238.932 146.934 240.704 148.693 241.387 150.558C242.07 152.424 241.766 154.305 240.473 156.202C239.2 158.11 237.012 159.96 233.91 161.751C230.827 163.531 227.605 164.794 224.245 165.54C220.922 166.286 217.627 166.462 214.359 166.067C211.128 165.673 208.1 164.66 205.275 163.03C202.451 161.399 200.669 159.656 199.931 157.801C199.229 155.947 199.515 154.055 200.789 152.125C202.081 150.207 204.297 148.341 207.435 146.529C210.482 144.771 213.666 143.518 216.99 142.772C220.331 142.036 223.636 141.866 226.904 142.26C230.19 142.644 233.246 143.651 236.07 145.282ZM231.252 148.064C229.018 146.774 226.479 146.3 223.636 146.641C220.811 146.972 217.58 148.187 213.943 150.287C210.325 152.376 208.211 154.236 207.602 155.867C207.011 157.508 207.832 158.974 210.066 160.264C212.3 161.553 214.83 162.022 217.654 161.671C220.497 161.329 223.747 160.104 227.402 157.993C231.002 155.915 233.098 154.065 233.689 152.445C234.298 150.814 233.486 149.354 231.252 148.064ZM286.395 160.875L291.906 164.856L250.92 188.519L245.464 185.369L248.621 183.035C246.24 183.259 243.978 183.19 241.836 182.827C239.695 182.465 237.766 181.788 236.049 180.797C233.538 179.347 232.107 177.785 231.756 176.112C231.424 174.428 232.015 172.69 233.529 170.9C235.079 169.109 237.378 167.334 240.424 165.575C243.397 163.859 246.498 162.601 249.729 161.802C252.978 160.992 256.126 160.699 259.172 160.923C262.219 161.146 264.951 161.957 267.37 163.353C268.902 164.238 270 165.192 270.665 166.215C271.348 167.227 271.644 168.304 271.551 169.445L286.395 160.875ZM264.24 167.046C262.154 165.842 259.662 165.405 256.763 165.735C253.883 166.055 250.624 167.265 246.987 169.365C244.495 170.804 242.704 172.115 241.615 173.298C240.544 174.47 240.092 175.531 240.258 176.48C240.443 177.418 241.172 178.254 242.446 178.99C243.849 179.8 245.474 180.269 247.32 180.397C249.166 180.525 251.021 180.466 252.886 180.221L266.733 172.227C267.047 171.214 267 170.271 266.594 169.397C266.206 168.512 265.422 167.728 264.24 167.046ZM278.536 189.882C276.671 191.107 275.462 192.296 274.908 193.447C274.373 194.588 274.391 195.664 274.964 196.677C275.554 197.7 276.551 198.617 277.954 199.427C279.395 200.258 280.945 200.898 282.607 201.345C284.269 201.793 286.124 202.14 288.173 202.385L287.149 206.078C284.675 205.929 282.192 205.519 279.699 204.847C277.207 204.175 274.917 203.237 272.831 202.033C269.803 200.285 267.883 198.43 267.071 196.469C266.277 194.518 266.489 192.562 267.708 190.601C268.926 188.64 271.05 186.785 274.077 185.037C277.013 183.342 280.17 182.138 283.548 181.424C286.946 180.699 290.315 180.523 293.657 180.896C297.017 181.258 300.081 182.239 302.851 183.838C305.454 185.341 307.097 186.972 307.78 188.73C308.482 190.5 308.251 192.307 307.088 194.151C305.962 195.995 303.875 197.796 300.829 199.555C300.331 199.843 299.814 200.12 299.278 200.386C298.78 200.653 298.327 200.882 297.921 201.074L278.536 189.882ZM298.309 186.524C296.37 185.405 294.072 184.877 291.413 184.941C288.773 185.016 285.884 185.842 282.745 187.419L296.287 195.238C298.983 193.618 300.506 192.056 300.857 190.553C301.226 189.061 300.377 187.718 298.309 186.524Z" fill="#822300"/>
<path d="M187.82 64.4152L170.008 74.6991L167.057 72.9954L181.812 64.4766L175.285 63.5787L176.096 61.637L185.188 62.8957L187.82 64.4152ZM175.484 75.7736L173.145 77.1243L162.045 70.716L164.385 69.3653L175.484 75.7736ZM201.687 71.9917C203.743 73.1787 204.47 74.555 203.867 76.1206C203.264 77.6862 201.448 79.3439 198.417 81.0937C195.377 82.8486 192.497 83.9026 189.777 84.2556C187.056 84.6087 184.668 84.1917 182.612 83.0047C180.547 81.8126 179.821 80.4312 180.432 78.8604C181.052 77.2948 182.882 75.6345 185.922 73.8796C188.953 72.1298 191.819 71.0784 194.522 70.7254C197.234 70.3775 199.622 70.7996 201.687 71.9917ZM199.414 73.304C198.359 72.6952 196.986 72.5519 195.293 72.8743C193.61 73.1915 191.474 74.0971 188.886 75.5911C187.504 76.3892 186.4 77.0927 185.576 77.7016C184.77 78.3104 184.216 78.8502 183.915 79.3209C183.622 79.7967 183.56 80.2265 183.729 80.6102C183.906 80.9888 184.291 81.3495 184.885 81.6923C185.594 82.1016 186.431 82.3089 187.397 82.314C188.372 82.314 189.52 82.0761 190.84 81.6002C192.169 81.1295 193.707 80.3902 195.453 79.3823C197.269 78.3334 198.594 77.4406 199.427 76.7039C200.278 75.9671 200.686 75.3327 200.65 74.8006C200.624 74.2634 200.212 73.7645 199.414 73.304ZM201.262 75.0922L199.946 76.7422L183.29 80.0346L183.994 78.492L201.262 75.0922ZM217.628 81.1952C219.684 82.3822 220.411 83.7585 219.808 85.3241C219.205 86.8897 217.389 88.5474 214.358 90.2972C211.318 92.0521 208.438 93.1061 205.718 93.4591C202.997 93.8121 200.609 93.3952 198.553 92.2082C196.488 91.0161 195.761 89.6346 196.373 88.0639C196.993 86.4983 198.823 84.838 201.863 83.0831C204.894 81.3333 207.76 80.2819 210.463 79.9289C213.175 79.581 215.563 80.0031 217.628 81.1952ZM215.355 82.5075C214.3 81.8987 212.927 81.7554 211.234 82.0777C209.55 82.395 207.415 83.3006 204.827 84.7945C203.445 85.5927 202.341 86.2962 201.517 86.905C200.711 87.5139 200.157 88.0537 199.856 88.5244C199.563 89.0002 199.501 89.43 199.669 89.8137C199.847 90.1923 200.232 90.553 200.826 90.8958C201.535 91.3051 202.372 91.5123 203.338 91.5175C204.313 91.5175 205.461 91.2795 206.781 90.8037C208.11 90.333 209.648 89.5937 211.394 88.5858C213.21 87.5369 214.535 86.6441 215.368 85.9073C216.219 85.1706 216.627 84.5362 216.591 84.0041C216.565 83.4668 216.152 82.968 215.355 82.5075ZM217.203 84.2957L215.887 85.9457L199.231 89.2381L199.935 87.6955L217.203 84.2957ZM246.439 102.802C247.68 103.519 248.367 104.268 248.5 105.051C248.641 105.829 248.327 106.635 247.556 107.469C246.794 108.297 245.668 109.142 244.179 110.001C242.753 110.825 241.277 111.441 239.753 111.851C238.229 112.26 236.744 112.416 235.3 112.319C233.864 112.227 232.553 111.838 231.365 111.152C229.894 110.303 229.225 109.318 229.358 108.198L222.765 112.004L219.455 110.477L239.221 99.0649L241.813 100.561L240.192 101.713C241.45 101.6 242.611 101.641 243.674 101.835C244.747 102.035 245.668 102.357 246.439 102.802ZM243.315 103.654C242.651 103.271 241.866 103.048 240.963 102.987C240.059 102.925 239.159 102.948 238.264 103.056L231.698 106.847C231.529 107.333 231.538 107.788 231.724 108.213C231.928 108.638 232.322 109.019 232.907 109.356C233.909 109.935 235.074 110.142 236.403 109.978C237.732 109.814 239.279 109.223 241.042 108.205C242.239 107.515 243.103 106.893 243.634 106.34C244.184 105.788 244.423 105.292 244.352 104.852C244.29 104.417 243.945 104.018 243.315 103.654ZM243.199 117.57L239.902 115.667L252.344 114.301L254.497 107.885L257.927 109.865L255.853 114.377L263.669 113.18L266.939 115.068L256.039 116.296L253.567 123.556L250.071 121.538L252.357 116.242L243.199 117.57Z" fill="#822300"/>
</svg>
