<svg width="389" height="410" viewBox="0 0 389 410" fill="none" xmlns="http://www.w3.org/2000/svg">
<path d="M91.0399 344.555L115.354 358.593L144.1 341.997L153.848 347.625L125.102 364.221L157.725 383.056L144.875 390.474L68.4422 346.346L115.465 319.197L123.773 325.656L91.0399 344.555ZM180.556 302.338L229.961 330.862L245.857 321.684L254.94 326.928L209.136 353.374L200.052 348.129L217.554 338.025L177.233 314.745L160.285 324.53L151.202 319.286L180.556 302.338ZM143.281 290.794C145.718 289.387 148.414 288.684 151.368 288.684C154.359 288.662 156.962 289.291 159.177 290.57C161.393 291.849 162.5 293.363 162.5 295.111C162.537 296.838 161.337 298.405 158.9 299.812C156.537 301.176 153.842 301.858 150.814 301.858C147.786 301.858 145.164 301.219 142.949 299.94C140.734 298.66 139.644 297.158 139.681 295.431C139.718 293.704 140.918 292.158 143.281 290.794ZM274.061 315.889L265.199 310.773L273.784 305.816L232.964 282.249L224.379 287.206L215.573 282.121L233.629 271.697L249.469 278.22C246.737 274.127 245.703 270.418 246.368 267.092C247.032 263.724 249.912 260.568 255.008 257.627C256.743 256.625 258.442 255.815 260.103 255.196C261.765 254.535 263.5 253.939 265.31 253.406L272.233 261.688C270.719 262.178 269.371 262.679 268.19 263.191C266.971 263.681 265.734 264.289 264.479 265.013C260.233 267.465 258.146 270.503 258.22 274.127C258.331 277.73 260.417 281.727 264.479 286.118L286.19 298.654L297.988 291.842L306.849 296.959L274.061 315.889ZM275.888 272.176L261.488 263.862L255.894 258.842L265.31 253.406L284.75 267.06L275.888 272.176ZM370.279 243.773C372.568 245.095 374.599 245.863 376.371 246.076C378.107 246.268 380.008 246.065 382.076 245.468L387.726 251.928C384.513 253.399 381.245 254.369 377.922 254.838C374.599 255.307 371.128 255.115 367.51 254.262C368.064 257.055 367.38 259.794 365.46 262.48C363.54 265.166 360.716 267.586 356.986 269.739C351.078 273.15 344.727 274.898 337.933 274.983C331.139 275.026 325.028 273.48 319.6 270.347C313.434 266.786 311.089 262.661 312.566 257.971C314.043 253.281 319.25 248.357 328.185 243.198L336.549 238.369L332.727 236.163C328.961 233.988 325.102 233.082 321.151 233.445C317.237 233.786 313.213 235.15 309.077 237.538C307.157 238.646 305.089 240.139 302.874 242.015C300.621 243.869 298.517 245.959 296.56 248.282L284.762 244.989C287.052 242.089 289.636 239.446 292.516 237.058C295.36 234.649 298.277 232.581 301.268 230.855C309.095 226.335 316.665 223.969 323.976 223.756C331.324 223.521 338.063 225.173 344.192 228.712L370.279 243.773ZM351.614 262.288C354.125 260.839 355.915 259.037 356.986 256.884C358.057 254.731 358.131 252.535 357.208 250.297L344.303 242.846L337.435 246.811C331.601 250.18 328.407 253.153 327.853 255.733C327.262 258.291 328.665 260.551 332.062 262.512C335.164 264.303 338.376 265.198 341.7 265.198C345.023 265.156 348.327 264.186 351.614 262.288ZM385.811 161.322C390.981 158.337 396.021 156.216 400.932 154.958C405.843 153.658 411.086 152.848 416.662 152.528L417.935 161.002C413.726 161.215 409.849 161.812 406.304 162.793C402.76 163.773 399.51 165.116 396.556 166.822C392.753 169.018 390.205 171.597 388.913 174.56C387.621 177.524 388.156 180.817 390.519 184.441C392.919 188.044 397.719 191.924 404.92 196.081C411.972 200.153 418.582 202.903 424.748 204.331C430.914 205.76 436.582 206.111 441.752 205.387C446.921 204.662 451.5 203.148 455.487 200.846C459.586 198.479 462.318 196.134 463.685 193.811C465.014 191.466 465.863 189.206 466.232 187.032L480.356 188.023C480.282 190.922 479.193 194.024 477.088 197.328C474.947 200.611 471.069 203.873 465.457 207.113C458.995 210.844 451.666 213.328 443.469 214.564C435.271 215.758 426.723 215.513 417.825 213.829C408.963 212.123 400.212 208.776 391.572 203.788C383.005 198.842 377.319 193.789 374.513 188.63C371.669 183.45 371.3 178.504 373.405 173.793C375.473 169.06 379.608 164.903 385.811 161.322ZM463.808 137.012C469.531 133.708 475.623 131.661 482.085 130.872C488.547 130.084 495.064 130.435 501.636 131.928C508.246 133.399 514.652 135.925 520.855 139.506C527.022 143.066 531.397 146.786 533.982 150.666C536.567 154.504 537.176 158.309 535.81 162.082C534.444 165.813 530.936 169.309 525.286 172.571C519.637 175.833 513.6 177.89 507.175 178.742C500.75 179.553 494.196 179.222 487.513 177.751C480.867 176.259 474.405 173.701 468.128 170.077C462.035 166.559 457.697 162.882 455.112 159.044C452.564 155.186 451.973 151.37 453.339 147.597C454.669 143.802 458.158 140.274 463.808 137.012ZM473.445 142.576C468.977 145.156 467.334 148.087 468.515 151.37C469.66 154.632 473.869 158.362 481.143 162.562C488.381 166.74 494.824 169.181 500.473 169.885C506.16 170.567 511.237 169.618 515.705 167.039C520.172 164.459 521.797 161.539 520.579 158.277C519.397 154.994 515.151 151.242 507.84 147.021C500.639 142.864 494.233 140.444 488.621 139.762C482.971 139.059 477.913 139.997 473.445 142.576ZM517.821 78.9022L531.613 72.5387L613.584 119.865L602.673 126.165L594.587 122.519C595.362 125.269 595.122 127.881 593.867 130.354C592.611 132.827 590.267 135.054 586.833 137.037C581.811 139.936 576.402 141.588 570.605 141.994C564.771 142.377 558.752 141.695 552.549 139.947C546.345 138.156 540.197 135.502 534.105 131.985C528.16 128.552 523.803 124.971 521.034 121.24C518.228 117.488 517.212 113.853 517.987 110.336C518.763 106.818 521.569 103.663 526.406 100.871C529.471 99.1013 532.776 97.8328 536.32 97.0654C539.828 96.2766 543.558 95.9355 547.508 96.0421L517.821 78.9022ZM539.2 104.484C535.028 106.893 533.514 109.771 534.659 113.118C535.767 116.444 539.957 120.206 547.232 124.406C552.216 127.284 556.758 129.352 560.857 130.61C564.918 131.846 568.592 132.368 571.878 132.176C575.128 131.963 578.026 131.121 580.574 129.65C583.38 128.03 585.005 126.154 585.448 124.022C585.891 121.89 585.688 119.748 584.839 117.595L557.146 101.606C553.638 101.244 550.37 101.297 547.342 101.766C544.278 102.214 541.564 103.12 539.2 104.484ZM618.304 87.9768C622.551 90.1299 626.668 91.5263 630.656 92.1658C634.606 92.7841 638.336 92.7627 641.844 92.1019C645.388 91.4197 648.564 90.2685 651.37 88.6483C654.25 86.9855 656.466 85.1948 658.016 83.2761C659.567 81.3575 660.767 79.215 661.617 76.8487L674.411 78.0318C673.894 80.8885 672.472 83.7558 670.146 86.6337C667.82 89.5117 664.57 92.1552 660.398 94.5641C654.342 98.0603 647.918 100.277 641.124 101.215C634.366 102.132 627.591 101.887 620.797 100.48C614.003 99.0729 607.578 96.6213 601.522 93.1251C595.651 89.7355 591.479 86.0901 589.005 82.1889C586.494 78.2663 585.885 74.3758 587.177 70.5172C588.433 66.6372 591.83 63.0984 597.368 59.9007C602.575 56.8948 608.224 54.9975 614.317 54.2087C620.446 53.3986 626.705 53.6651 633.093 55.0082C639.48 56.3086 645.721 58.7175 651.813 62.235C652.81 62.8106 653.77 63.4075 654.693 64.0258C655.616 64.6014 656.41 65.1237 657.075 65.5927L618.304 87.9768ZM606.673 65.145C602.796 67.3834 600.968 70.0375 601.19 73.1073C601.448 76.1558 604.31 79.4921 609.775 83.1162L636.859 67.4793C631.246 64.3669 625.837 62.6081 620.631 62.2031C615.461 61.7767 610.809 62.7573 606.673 65.145Z" fill="#822300"/>
<path d="M249.812 187.793C251.062 187.071 252.351 186.598 253.68 186.373C255.01 186.138 256.29 186.115 257.522 186.304C258.763 186.488 259.866 186.859 260.832 187.417C261.629 187.877 262.272 188.412 262.759 189.021C263.256 189.624 263.619 190.351 263.849 191.2C264.08 192.039 264.208 193.05 264.235 194.232C264.253 195.408 264.195 196.803 264.062 198.414L272.397 193.602L274.444 195.183L263.039 201.768L260.779 200.463C260.841 198.975 260.863 197.683 260.845 196.588C260.819 195.488 260.757 194.546 260.659 193.764C260.553 192.976 260.389 192.308 260.167 191.76C259.937 191.208 259.64 190.74 259.277 190.356C258.913 189.962 258.466 189.612 257.934 189.305C257.012 188.772 256.024 188.504 254.97 188.499C253.915 188.494 252.923 188.76 251.992 189.297C251.159 189.778 250.619 190.264 250.371 190.755C250.122 191.246 250.065 191.842 250.198 192.543L246.782 192.812C246.587 191.87 246.711 190.99 247.154 190.172C247.597 189.353 248.483 188.56 249.812 187.793ZM266.498 178.159C268.553 176.972 270.937 176.553 273.649 176.901C276.361 177.249 279.232 178.298 282.263 180.047C285.302 181.802 287.128 183.465 287.739 185.036C288.351 186.607 287.629 187.985 285.573 189.172C283.508 190.365 281.115 190.784 278.395 190.431C275.683 190.073 272.807 189.016 269.768 187.261C266.737 185.512 264.916 183.857 264.304 182.296C263.702 180.73 264.433 179.352 266.498 178.159ZM268.771 179.472C267.716 180.081 267.468 180.874 268.026 181.851C268.576 182.823 270.144 184.056 272.732 185.55C274.114 186.348 275.333 186.985 276.387 187.461C277.442 187.927 278.377 188.246 279.192 188.42C280.016 188.589 280.761 188.625 281.425 188.528C282.081 188.425 282.706 188.203 283.3 187.86C284.008 187.451 284.367 186.967 284.376 186.41C284.376 185.847 283.964 185.184 283.14 184.422C282.325 183.654 281.044 182.767 279.298 181.759C277.482 180.71 275.935 179.945 274.659 179.464C273.383 178.973 272.284 178.738 271.363 178.758C270.432 178.773 269.568 179.011 268.771 179.472ZM271.868 178.405L274.726 179.165L280.428 188.781L277.756 188.374L271.868 178.405ZM282.438 168.956C284.494 167.769 286.878 167.349 289.59 167.697C292.302 168.045 295.173 169.094 298.204 170.844C301.243 172.599 303.069 174.262 303.68 175.832C304.292 177.403 303.569 178.782 301.513 179.969C299.449 181.161 297.056 181.581 294.335 181.228C291.624 180.869 288.748 179.813 285.708 178.058C282.678 176.308 280.857 174.653 280.245 173.093C279.643 171.527 280.374 170.148 282.438 168.956ZM284.711 170.268C283.657 170.877 283.409 171.67 283.967 172.647C284.517 173.62 286.085 174.853 288.673 176.347C290.055 177.145 291.274 177.782 292.328 178.258C293.383 178.723 294.318 179.043 295.133 179.217C295.957 179.386 296.702 179.422 297.366 179.324C298.022 179.222 298.647 178.999 299.24 178.657C299.949 178.247 300.308 177.764 300.317 177.206C300.317 176.643 299.905 175.981 299.081 175.218C298.266 174.451 296.985 173.563 295.239 172.555C293.423 171.506 291.876 170.742 290.6 170.261C289.324 169.769 288.225 169.534 287.304 169.555C286.373 169.57 285.509 169.808 284.711 170.268ZM287.809 169.202L290.667 169.961L296.369 179.578L293.697 179.171L287.809 169.202ZM319.863 152.322C321.104 151.606 322.402 151.209 323.758 151.132C325.105 151.05 326.501 151.232 327.945 151.677C329.381 152.117 330.843 152.767 332.332 153.627C333.759 154.45 334.826 155.302 335.535 156.182C336.244 157.062 336.515 157.919 336.346 158.753C336.187 159.582 335.513 160.339 334.326 161.025C332.855 161.874 331.149 162.26 329.208 162.184L335.801 165.99L333.156 167.901L313.39 156.489L315.982 154.993L317.976 155.929C317.781 155.202 317.852 154.532 318.188 153.918C318.534 153.299 319.092 152.767 319.863 152.322ZM321.339 154.125C320.674 154.509 320.289 154.962 320.182 155.484C320.076 156.006 320.116 156.525 320.302 157.042L326.869 160.833C327.71 160.93 328.499 160.925 329.235 160.818C329.97 160.7 330.63 160.472 331.215 160.135C332.217 159.556 332.576 158.884 332.292 158.116C332.008 157.349 330.985 156.456 329.221 155.438C328.025 154.747 326.948 154.248 325.991 153.941C325.034 153.624 324.175 153.486 323.412 153.527C322.659 153.563 321.968 153.762 321.339 154.125ZM345.441 154.193L342.145 156.096L339.779 148.913L328.666 147.669L332.095 145.689L339.912 146.887L337.838 142.374L341.108 140.486L343.235 146.779L355.81 148.207L352.314 150.225L343.142 148.905L345.441 154.193Z" fill="#822300"/>
</svg>
