<svg width="141" height="82" viewBox="0 0 141 82" fill="none" xmlns="http://www.w3.org/2000/svg">
<path d="M53.7875 66.3696L56.3405 67.8436L59.3588 66.101L60.3824 66.6919L57.3641 68.4345L60.7895 70.4121L59.4402 71.1911L51.4148 66.5576L56.3522 63.707L57.2245 64.3852L53.7875 66.3696ZM63.1867 61.9368L68.3742 64.9318L70.0433 63.9681L70.997 64.5188L66.1876 67.2955L65.2338 66.7449L67.0715 65.6839L62.8378 63.2395L61.0582 64.267L60.1045 63.7163L63.1867 61.9368ZM59.2729 60.7247C59.5287 60.5769 59.8118 60.5031 60.1219 60.5031C60.436 60.5008 60.7093 60.5669 60.9419 60.7012C61.1746 60.8355 61.2909 60.9944 61.2909 61.178C61.2947 61.3593 61.1687 61.5238 60.9129 61.6715C60.6647 61.8148 60.3817 61.8864 60.0638 61.8864C59.7459 61.8864 59.4706 61.8193 59.238 61.685C59.0053 61.5506 58.891 61.3928 58.8948 61.2115C58.8987 61.0302 59.0247 60.8679 59.2729 60.7247ZM73.0047 63.3597L72.0742 62.8225L72.9756 62.302L68.6895 59.8275L67.7881 60.3479L66.8635 59.814L68.7593 58.7194L70.4226 59.4044C70.1357 58.9746 70.0271 58.5851 70.0969 58.2359C70.1667 57.8823 70.4691 57.551 71.0041 57.2421C71.1864 57.1369 71.3647 57.0518 71.5392 56.9869C71.7136 56.9175 71.8959 56.8548 72.0858 56.7989L72.8128 57.6685C72.6538 57.72 72.5123 57.7726 72.3882 57.8263C72.2603 57.8778 72.1304 57.9416 71.9986 58.0177C71.5527 58.2751 71.3337 58.5941 71.3414 58.9746C71.3531 59.3529 71.5721 59.7726 71.9986 60.2337L74.2783 61.5499L75.517 60.8347L76.4475 61.372L73.0047 63.3597ZM73.1966 58.7698L71.6846 57.8968L71.0972 57.3697L72.0858 56.7989L74.1271 58.2326L73.1966 58.7698ZM83.1076 55.7875C83.348 55.9263 83.5612 56.0069 83.7473 56.0293C83.9295 56.0494 84.1292 56.0281 84.3463 55.9655L84.9395 56.6437C84.6022 56.7981 84.2591 56.9 83.9102 56.9492C83.5612 56.9985 83.1968 56.9783 82.8168 56.8888C82.875 57.182 82.8033 57.4697 82.6017 57.7517C82.4 58.0338 82.1035 58.2878 81.7119 58.5139C81.0915 58.872 80.4247 59.0556 79.7113 59.0645C78.9979 59.069 78.3563 58.9067 77.7864 58.5777C77.1389 58.2039 76.8927 57.7707 77.0478 57.2783C77.2029 56.7858 77.7495 56.2688 78.6878 55.7271L79.5659 55.2201L79.1647 54.9884C78.7692 54.7601 78.364 54.6649 77.9492 54.703C77.5382 54.7388 77.1156 54.8821 76.6814 55.1328C76.4798 55.2492 76.2627 55.4059 76.0301 55.6028C75.7936 55.7976 75.5726 56.0169 75.3671 56.2609L74.1284 55.9151C74.3687 55.6107 74.6401 55.3331 74.9425 55.0824C75.2411 54.8295 75.5474 54.6123 75.8614 54.431C76.6833 53.9565 77.4781 53.708 78.2458 53.6856C79.0173 53.661 79.7249 53.8345 80.3685 54.2061L83.1076 55.7875ZM81.1478 57.7316C81.4114 57.5794 81.5994 57.3902 81.7119 57.1641C81.8243 56.938 81.8321 56.7075 81.7351 56.4725L80.3801 55.6901L79.659 56.1065C79.0464 56.4601 78.711 56.7724 78.6529 57.0433C78.5908 57.3119 78.7382 57.5491 79.0949 57.7551C79.4205 57.9431 79.7578 58.0371 80.1068 58.0371C80.4557 58.0326 80.8027 57.9308 81.1478 57.7316ZM84.7385 47.1301C85.2813 46.8167 85.8105 46.594 86.3262 46.4619C86.8418 46.3254 87.3924 46.2403 87.9778 46.2067L88.1115 47.0965C87.6696 47.1189 87.2625 47.1816 86.8903 47.2845C86.5181 47.3875 86.1769 47.5285 85.8667 47.7076C85.4674 47.9382 85.1999 48.209 85.0642 48.5201C84.9285 48.8313 84.9847 49.1771 85.2328 49.5576C85.4848 49.9359 85.9889 50.3433 86.7449 50.7798C87.4854 51.2074 88.1794 51.4961 88.8269 51.6461C89.4743 51.7961 90.0695 51.833 90.6122 51.7569C91.155 51.6808 91.6358 51.5219 92.0545 51.2801C92.4849 51.0316 92.7718 50.7854 92.9152 50.5414C93.0548 50.2952 93.1439 50.0579 93.1827 49.8296L94.6657 49.9337C94.6579 50.2381 94.5436 50.5638 94.3226 50.9108C94.0977 51.2555 93.6906 51.598 93.1013 51.9382C92.4228 52.3299 91.6532 52.5907 90.7925 52.7205C89.9318 52.8459 89.0343 52.8201 88.0999 52.6433C87.1694 52.4642 86.2506 52.1128 85.3433 51.589C84.4439 51.0697 83.8468 50.5392 83.5521 49.9975C83.2536 49.4536 83.2148 48.9342 83.4358 48.4396C83.6529 47.9426 84.0872 47.5061 84.7385 47.1301ZM92.9281 44.5776C93.529 44.2306 94.1688 44.0157 94.8472 43.9329C95.5257 43.8501 96.21 43.887 96.9001 44.0437C97.5941 44.1982 98.2668 44.4634 98.9181 44.8395C99.5656 45.2133 100.025 45.6039 100.296 46.0113C100.568 46.4142 100.632 46.8137 100.488 47.2099C100.345 47.6017 99.9766 47.9688 99.3834 48.3112C98.7902 48.6537 98.1563 48.8697 97.4817 48.9593C96.8071 49.0443 96.1189 49.0096 95.4172 48.8552C94.7193 48.6985 94.0408 48.4299 93.3817 48.0493C92.742 47.68 92.2865 47.2939 92.0151 46.891C91.7475 46.4858 91.6855 46.0851 91.829 45.6889C91.9685 45.2905 92.3349 44.92 92.9281 44.5776ZM93.94 45.1618C93.4709 45.4326 93.2984 45.7404 93.4224 46.0851C93.5426 46.4276 93.9846 46.8193 94.7484 47.2603C95.5083 47.699 96.1848 47.9553 96.778 48.0292C97.3751 48.1008 97.9082 48.0012 98.3773 47.7304C98.8464 47.4595 99.017 47.1529 98.8891 46.8104C98.765 46.4657 98.3191 46.0717 97.5515 45.6285C96.7955 45.192 96.1228 44.9379 95.5335 44.8663C94.9403 44.7925 94.4091 44.8909 93.94 45.1618ZM98.5996 38.476L100.048 37.8079L108.655 42.7771L107.509 43.4386L106.66 43.0558C106.741 43.3446 106.716 43.6188 106.584 43.8784C106.453 44.1381 106.206 44.372 105.846 44.5802C105.318 44.8846 104.75 45.0581 104.142 45.1006C103.529 45.1409 102.897 45.0693 102.246 44.8857C101.595 44.6977 100.949 44.419 100.309 44.0497C99.6851 43.6893 99.2276 43.3132 98.9369 42.9215C98.6422 42.5276 98.5356 42.1459 98.617 41.7766C98.6984 41.4072 98.9931 41.0759 99.501 40.7827C99.8228 40.5969 100.17 40.4637 100.542 40.3832C100.91 40.3003 101.302 40.2645 101.717 40.2757L98.5996 38.476ZM100.844 41.1621C100.406 41.4151 100.247 41.7173 100.367 42.0687C100.484 42.4179 100.924 42.813 101.688 43.2539C102.211 43.5561 102.688 43.7732 103.118 43.9053C103.545 44.0351 103.93 44.09 104.276 44.0698C104.617 44.0474 104.921 43.959 105.189 43.8046C105.483 43.6345 105.654 43.4375 105.7 43.2136C105.747 42.9898 105.726 42.7648 105.636 42.5388L102.729 40.8599C102.36 40.8219 102.017 40.8275 101.699 40.8767C101.377 40.9237 101.092 41.0189 100.844 41.1621ZM109.15 39.4289C109.596 39.6549 110.028 39.8016 110.447 39.8687C110.862 39.9336 111.254 39.9314 111.622 39.862C111.994 39.7904 112.328 39.6695 112.622 39.4994C112.925 39.3248 113.157 39.1367 113.32 38.9353C113.483 38.7338 113.609 38.5089 113.698 38.2604L115.041 38.3846C114.987 38.6846 114.838 38.9857 114.594 39.2878C114.349 39.59 114.008 39.8676 113.57 40.1205C112.934 40.4876 112.26 40.7204 111.546 40.8189C110.837 40.9152 110.125 40.8894 109.412 40.7417C108.699 40.594 108.024 40.3365 107.388 39.9694C106.772 39.6135 106.334 39.2308 106.074 38.8211C105.81 38.4093 105.746 38.0008 105.882 37.5956C106.014 37.1882 106.37 36.8166 106.952 36.4809C107.499 36.1653 108.092 35.966 108.732 35.8832C109.375 35.7982 110.032 35.8261 110.703 35.9672C111.374 36.1037 112.029 36.3566 112.669 36.726C112.773 36.7864 112.874 36.8491 112.971 36.914C113.068 36.9744 113.151 37.0293 113.221 37.0785L109.15 39.4289ZM107.929 37.0315C107.522 37.2666 107.33 37.5452 107.353 37.8676C107.38 38.1877 107.681 38.538 108.255 38.9185L111.098 37.2766C110.509 36.9498 109.941 36.7651 109.395 36.7226C108.852 36.6779 108.363 36.7808 107.929 37.0315Z" fill="#822300"/>
<path d="M14.8474 47.3513C16.0969 46.6299 17.3863 46.1566 18.7156 45.9315C20.0449 45.6961 21.3254 45.6731 22.5572 45.8624C23.7978 46.0466 24.9011 46.4175 25.8671 46.9752C26.6646 47.4357 27.3071 47.9704 27.7945 48.5792C28.2908 49.1829 28.6541 49.9095 28.8845 50.7588C29.1149 51.5979 29.2434 52.6084 29.27 53.7902C29.2877 54.967 29.2301 56.3612 29.0972 57.9729L37.4318 53.1609L39.4788 54.7419L28.0737 61.3267L25.8139 60.022C25.8759 58.5331 25.8981 57.2412 25.8804 56.1463C25.8538 55.0463 25.7918 54.1049 25.6943 53.3221C25.5879 52.5342 25.424 51.8665 25.2024 51.319C24.972 50.7665 24.6752 50.2983 24.3118 49.9146C23.9485 49.5206 23.501 49.1702 22.9693 48.8632C22.0476 48.3311 21.0595 48.0625 20.005 48.0573C18.9504 48.0522 17.9579 48.3183 17.0274 48.8555C16.1944 49.3364 15.6538 49.8225 15.4057 50.3137C15.1576 50.8048 15.1 51.4009 15.2329 52.1018L11.8167 52.3705C11.6217 51.429 11.7458 50.549 12.1889 49.7304C12.632 48.9118 13.5181 48.1187 14.8474 47.3513ZM34.3507 36.5208L52.163 46.8047L49.212 48.5085L34.4571 39.9897L32.9018 43.7579L29.5388 43.2898L31.7188 38.0404L34.3507 36.5208ZM54.024 43.6428L56.3635 44.9935L45.2641 51.4018L42.9246 50.0511L54.024 43.6428ZM68.9575 21.0839C70.1982 20.3676 71.4965 19.9711 72.8523 19.8943C74.1993 19.8125 75.595 19.9941 77.0395 20.4392C78.4751 20.8792 79.9373 21.529 81.4261 22.3886C82.8529 23.2123 83.9207 24.0642 84.6297 24.9442C85.3386 25.8242 85.6089 26.6812 85.4405 27.5152C85.281 28.344 84.6075 29.1013 83.42 29.7869C81.949 30.6362 80.2431 31.0225 78.3023 30.9457L84.8955 34.7523L82.2503 36.6633L62.484 25.2512L65.0761 23.7546L67.07 24.6909C66.875 23.9644 66.9459 23.2942 67.2827 22.6802C67.6283 22.0611 68.1866 21.529 68.9575 21.0839ZM70.433 22.8874C69.7684 23.2712 69.3829 23.724 69.2766 24.2458C69.1702 24.7677 69.2101 25.287 69.3962 25.8038L75.9628 29.595C76.8047 29.6922 77.5934 29.6871 78.3289 29.5796C79.0644 29.462 79.7247 29.2343 80.3095 28.8966C81.3109 28.3185 81.6698 27.6457 81.3862 26.8782C81.1027 26.1107 80.0791 25.2179 78.3156 24.1998C77.1193 23.5091 76.0426 23.0102 75.0855 22.7032C74.1284 22.386 73.2688 22.2479 72.5067 22.2888C71.7534 22.3246 71.0622 22.5242 70.433 22.8874ZM94.5357 22.9548L91.2391 24.8581L88.873 17.6747L77.7602 16.4314L81.1898 14.4514L89.0059 15.6486L86.9322 11.136L90.2022 9.24805L92.3291 15.5412L104.904 16.9687L101.408 18.9871L92.236 17.667L94.5357 22.9548Z" fill="#822300"/>
</svg>
