<svg width="167" height="97" viewBox="0 0 167 97" fill="none" xmlns="http://www.w3.org/2000/svg">
<path d="M23.9573 29.9258L19.5807 32.4527L24.7549 35.44L23.0002 36.4531L17.826 33.4657L11.954 36.856L9.64102 35.5206L23.399 27.5774L31.8632 32.4642L29.8493 33.3276L23.9573 29.9258ZM37.1193 39.2287L28.2264 44.363L31.0877 46.0149L29.4527 46.9589L21.2079 42.1987L22.8429 41.2548L25.9933 43.0736L33.2511 38.8833L30.2004 37.122L31.8354 36.178L37.1193 39.2287ZM40.7183 35.3549C41.157 35.6082 41.3763 35.8883 41.3763 36.1953C41.3829 36.5061 41.1869 36.7766 40.7881 37.0069C40.3893 37.2371 39.9174 37.3522 39.3724 37.3522C38.834 37.3561 38.3455 37.2314 37.9069 36.9781C37.4815 36.7325 37.2688 36.4524 37.2688 36.1377C37.2688 35.8231 37.4682 35.5506 37.867 35.3204C38.2658 35.0902 38.7344 34.977 39.2727 34.9808C39.8111 34.9846 40.2929 35.1093 40.7183 35.3549ZM32.8944 48.9459L34.4895 48.025L36.0348 48.9171L43.3823 44.675L41.8371 43.7829L43.4222 42.8677L46.6723 44.7441L44.6385 46.3903C45.9146 46.1063 47.0711 45.9989 48.1079 46.068C49.158 46.137 50.1417 46.4363 51.0589 46.9659C51.3713 47.1462 51.6238 47.3228 51.8166 47.4954C52.0226 47.6681 52.2087 47.8485 52.3749 48.0365L49.7928 48.756C49.6399 48.5987 49.4837 48.4586 49.3242 48.3358C49.1713 48.2092 48.9819 48.0806 48.7559 47.9502C47.9916 47.5089 47.0445 47.2921 45.9146 47.2997C44.7914 47.3112 43.5452 47.5281 42.176 47.9502L38.268 50.2065L40.3915 51.4325L38.7963 52.3534L32.8944 48.9459ZM46.5227 49.1359L49.1148 47.6393L50.68 47.058L52.3749 48.0365L48.1179 50.0568L46.5227 49.1359ZM55.3779 58.9452C54.9658 59.1831 54.7265 59.3942 54.6601 59.5784C54.6003 59.7587 54.6634 59.9563 54.8495 60.1712L52.8357 60.7583C52.3771 60.4245 52.0746 60.0849 51.9284 59.7395C51.7822 59.3942 51.842 59.0335 52.1079 58.6574C51.2372 58.715 50.3831 58.644 49.5457 58.4445C48.7083 58.2449 47.9539 57.9514 47.2826 57.5638C46.2192 56.9498 45.6742 56.2898 45.6476 55.5838C45.6343 54.8777 46.1162 54.2426 47.0932 53.6786C48.2031 53.0377 49.4892 52.7941 50.9514 52.9476C52.4136 53.101 53.9489 53.6421 55.5573 54.5707L57.0627 55.4399L57.7506 55.0427C58.4286 54.6513 58.711 54.2503 58.5981 53.8397C58.4917 53.433 58.0663 53.0147 57.322 52.5849C56.9763 52.3854 56.5111 52.1705 55.9262 51.9403C55.348 51.7062 54.6966 51.4875 53.9722 51.2841L54.999 50.0581C55.903 50.296 56.7271 50.5646 57.4715 50.8639C58.2225 51.1594 58.8672 51.4625 59.4056 51.7733C60.8146 52.5868 61.5524 53.3735 61.6188 54.1333C61.6919 54.8969 61.1768 55.5972 60.0735 56.2342L55.3779 58.9452ZM49.6055 57.0055C50.0575 57.2664 50.6191 57.4525 51.2904 57.5638C51.9617 57.6751 52.6462 57.6828 53.3441 57.5868L55.667 56.2457L54.4308 55.532C53.3807 54.9257 52.4535 54.5937 51.6493 54.5362C50.8517 54.4748 50.1472 54.6206 49.5357 54.9736C48.9774 55.296 48.6983 55.6298 48.6983 55.9752C48.7116 56.3205 49.014 56.664 49.6055 57.0055ZM81.0837 60.5594C82.0142 61.0966 82.6756 61.6204 83.0677 62.1308C83.4731 62.6411 83.7257 63.186 83.8254 63.7654L81.1834 63.8978C81.117 63.4604 80.9309 63.0575 80.6251 62.6891C80.3194 62.3207 79.9007 61.983 79.369 61.676C78.6844 61.2808 77.8802 61.016 76.9564 60.8817C76.0325 60.7474 75.0056 60.8031 73.8758 61.0487C72.7525 61.2981 71.5429 61.7969 70.2468 62.5452C68.9774 63.2781 68.12 63.965 67.6747 64.6058C67.2294 65.2466 67.1197 65.8357 67.3457 66.3729C67.5717 66.9101 68.0436 67.3859 68.7614 67.8003C69.4991 68.2263 70.2302 68.5102 70.9547 68.6522C71.6858 68.7904 72.3903 68.8786 73.0682 68.917L72.7592 70.3848C71.8553 70.3771 70.8882 70.2639 69.858 70.0452C68.8345 69.8226 67.8176 69.4197 66.8074 68.8364C65.6442 68.1649 64.8699 67.4032 64.4844 66.5513C64.1123 65.6994 64.1887 64.8111 64.7137 63.8863C65.2455 62.9654 66.2889 62.0559 67.8442 61.158C69.3861 60.2678 70.9613 59.6768 72.5698 59.3852C74.1848 59.0897 75.7268 59.0513 77.1956 59.2701C78.6711 59.485 79.9672 59.9147 81.0837 60.5594ZM88.6628 68.665C89.693 69.2598 90.331 69.8929 90.5769 70.5645C90.8229 71.236 90.7132 71.9133 90.2479 72.5963C89.7893 73.2832 89.0018 73.9489 87.8852 74.5936C86.7752 75.2344 85.6154 75.6891 84.4058 75.9578C83.2094 76.2264 82.0231 76.2897 80.8467 76.1477C79.6835 76.0057 78.5935 75.6412 77.5766 75.0541C76.5598 74.467 75.9184 73.8396 75.6525 73.1719C75.4 72.5042 75.503 71.8231 75.9616 71.1285C76.4268 70.4378 77.2244 69.7663 78.3543 69.114C79.4509 68.4808 80.5974 68.0299 81.7938 67.7613C82.9968 67.4965 84.1865 67.4351 85.3629 67.5771C86.5459 67.7153 87.6459 68.0779 88.6628 68.665ZM86.9281 69.6665C86.1239 69.2022 85.21 69.0315 84.1865 69.1543C83.1696 69.2732 82.0065 69.7107 80.6971 70.4666C79.3944 71.2187 78.6334 71.8883 78.4141 72.4754C78.2014 73.0664 78.4972 73.594 79.3014 74.0583C80.1056 74.5226 81.0161 74.6914 82.033 74.5648C83.0566 74.442 84.2263 74.0007 85.5423 73.241C86.8384 72.4927 87.5927 71.8269 87.8054 71.2437C88.0247 70.6565 87.7323 70.1308 86.9281 69.6665ZM106.78 74.2783L108.764 75.7115L94.0086 84.2303L92.0446 83.0964L93.1812 82.256C92.3238 82.3366 91.5096 82.3116 90.7386 82.1812C89.9677 82.0507 89.2731 81.807 88.655 81.4502C87.7511 80.9283 87.236 80.3661 87.1097 79.7637C86.9901 79.1574 87.2028 78.5319 87.7478 77.8872C88.3061 77.2426 89.1335 76.6037 90.2302 75.9705C91.3002 75.3527 92.4168 74.8999 93.58 74.6121C94.7497 74.3205 95.8829 74.215 96.9796 74.2955C98.0762 74.3761 99.0599 74.6678 99.9306 75.1704C100.482 75.4889 100.878 75.8324 101.117 76.2008C101.363 76.5653 101.469 76.9529 101.436 77.3635L106.78 74.2783ZM98.804 76.5001C98.053 76.0665 97.1557 75.9091 96.1122 76.0281C95.0754 76.1432 93.9023 76.5787 92.593 77.3347C91.6957 77.8527 91.051 78.3247 90.6589 78.7506C90.2734 79.1727 90.1105 79.5545 90.1704 79.8961C90.2368 80.2337 90.4994 80.535 90.958 80.7997C91.4631 81.0914 92.048 81.2602 92.7126 81.3063C93.3772 81.3523 94.0452 81.3312 94.7165 81.2429L99.7013 78.365C99.8142 78.0004 99.7976 77.6608 99.6514 77.3462C99.5118 77.0277 99.2294 76.7456 98.804 76.5001ZM103.95 84.7208C103.279 85.1621 102.844 85.5899 102.644 86.0044C102.452 86.4149 102.458 86.8025 102.664 87.167C102.877 87.5354 103.236 87.8654 103.741 88.1571C104.26 88.4564 104.818 88.6866 105.416 88.8478C106.014 89.0089 106.682 89.1337 107.42 89.2219L107.051 90.5515C106.16 90.4978 105.266 90.3501 104.369 90.1083C103.472 89.8666 102.648 89.5289 101.897 89.0953C100.807 88.466 100.116 87.7983 99.8231 87.0922C99.5373 86.39 99.6137 85.6859 100.052 84.9798C100.491 84.2737 101.255 83.6061 102.345 82.9767C103.402 82.3666 104.539 81.933 105.755 81.6759C106.978 81.415 108.191 81.3516 109.394 81.486C110.603 81.6164 111.707 81.9694 112.704 82.545C113.641 83.0861 114.232 83.6732 114.478 84.3064C114.731 84.9433 114.648 85.5938 114.229 86.2576C113.824 86.9215 113.073 87.57 111.976 88.2031C111.797 88.3067 111.61 88.4065 111.418 88.5024C111.238 88.5984 111.075 88.6809 110.929 88.7499L103.95 84.7208ZM111.069 83.512C110.371 83.1091 109.543 82.9192 108.586 82.9422C107.636 82.9691 106.596 83.2665 105.466 83.8344L110.341 86.649C111.311 86.0657 111.86 85.5036 111.986 84.9625C112.119 84.4253 111.813 83.9418 111.069 83.512Z" fill="#822300"/>
<path d="M75.1254 15.2272C76.3395 15.9281 77.1725 16.6546 77.6244 17.4067C78.0764 18.1588 78.1871 18.8726 77.9567 19.5479C77.7263 20.2233 77.1902 20.804 76.3483 21.2901C75.5951 21.7249 74.7621 22.0217 73.8493 22.1803C72.9365 22.3389 72.0105 22.3722 71.0711 22.2801C70.1318 22.188 69.2367 21.9884 68.386 21.6815C69.0772 22.1726 69.569 22.7022 69.8615 23.2701C70.1539 23.838 70.1716 24.4162 69.9146 25.0045C69.6665 25.598 69.0595 26.1736 68.0935 26.7313C67.0478 27.3351 65.8249 27.7239 64.4247 27.8979C63.0423 28.0718 61.6023 28.013 60.1046 27.7213C58.6158 27.4348 57.1979 26.9027 55.8509 26.125C54.6989 25.4599 53.8127 24.7027 53.1924 23.8534C52.5809 23.0092 52.3416 22.1291 52.4746 21.2133L55.8908 21.3438C55.8022 21.9987 55.9617 22.6126 56.3693 23.1857C56.777 23.7587 57.3486 24.2576 58.0841 24.6822C59.2184 25.3371 60.4103 25.6876 61.6599 25.7336C62.9182 25.7746 64.0703 25.4932 65.116 24.8894C65.9135 24.429 66.3921 23.9787 66.5516 23.5387C66.7288 23.0987 66.6535 22.6664 66.3256 22.2417C65.9977 21.817 65.4837 21.4026 64.7836 20.9984L63.2018 20.0852L65.7407 19.0184L66.8573 19.6631C67.4333 19.9956 68.0669 20.2438 68.7582 20.4075C69.4583 20.5661 70.1716 20.6045 70.8983 20.5226C71.6338 20.4459 72.3251 20.2207 72.972 19.8472C73.867 19.3305 74.2481 18.7575 74.1151 18.1281C73.9911 17.5039 73.4815 16.9335 72.5865 16.4167C71.8244 15.9767 71.0002 15.6646 70.114 15.4804C69.2456 15.2962 68.253 15.1939 67.1365 15.1734L67.2428 13.2855C68.8202 13.306 70.2603 13.4825 71.5629 13.815C72.8745 14.1425 74.062 14.6132 75.1254 15.2272ZM92.9538 25.5204C93.7071 25.9553 94.292 26.4107 94.7085 26.8865C95.1427 27.3623 95.444 27.8484 95.6124 28.3447L92.5418 28.7821C92.4088 28.4086 92.1829 28.0581 91.8638 27.7307C91.5537 27.3981 91.1682 27.0988 90.7074 26.8328C89.8301 26.3262 88.7844 26.0551 87.5703 26.0193C86.3651 25.9886 85.0624 26.183 83.6622 26.6025C82.2621 27.0221 80.8264 27.6565 79.3554 28.5058L78.3584 29.1121C76.1696 30.3759 74.8004 31.4529 74.251 32.3431C73.7193 33.2334 74.0604 34.029 75.2745 34.7299C76.2936 35.3183 77.4324 35.5357 78.6907 35.3822C79.9669 35.2287 81.2252 34.7938 82.4659 34.0776C83.4141 33.5301 84.0477 33.0313 84.3667 32.581C84.6858 32.1308 84.7567 31.7163 84.5794 31.3377C84.4022 30.9591 84.03 30.6061 83.4628 30.2786C82.6564 29.8131 81.6905 29.5265 80.565 29.4191C79.4396 29.3117 78.2787 29.3577 77.0823 29.5572L79.2623 28.2372C80.76 28.0581 82.0893 28.0735 83.2502 28.2833C84.4199 28.4879 85.4435 28.8435 86.3208 29.35C87.269 29.8975 87.9115 30.5242 88.2482 31.2303C88.6027 31.9364 88.5761 32.6782 88.1685 33.4559C87.7697 34.2285 86.9189 34.9908 85.6163 35.7429C84.3136 36.495 82.9045 37.0016 81.3892 37.2625C79.8827 37.5286 78.3983 37.5567 76.9361 37.3469C75.4739 37.1371 74.1624 36.6971 73.0015 36.0269C71.8494 35.3618 71.0829 34.6685 70.7018 33.9471C70.3296 33.2308 70.2897 32.4966 70.5822 31.7445C70.8746 30.9924 71.4418 30.2352 72.2837 29.4728C73.1432 28.7105 74.22 27.9558 75.5138 27.2088C77.5609 26.0269 79.6345 25.1623 81.7348 24.6148C83.8439 24.0725 85.86 23.8704 87.783 24.0085C89.7149 24.1416 91.4385 24.6455 92.9538 25.5204ZM120.675 46.4984C121.916 47.2146 122.602 47.9642 122.735 48.747C122.877 49.5247 122.563 50.3305 121.792 51.1645C121.029 51.9933 119.904 52.8375 118.415 53.6971C116.988 54.5208 115.513 55.1374 113.989 55.5467C112.465 55.956 110.98 56.112 109.536 56.0148C108.1 55.9227 106.789 55.5339 105.601 54.8483C104.13 53.999 103.461 53.0141 103.594 51.8936L97.0007 55.7002L93.6908 54.1729L113.457 42.7608L116.049 44.2574L114.427 45.4086C115.686 45.296 116.847 45.3369 117.91 45.5314C118.982 45.7309 119.904 46.0532 120.675 46.4984ZM117.551 47.3502C116.887 46.9665 116.102 46.7439 115.198 46.6825C114.294 46.6211 113.395 46.6442 112.5 46.7516L105.933 50.5428C105.765 51.0289 105.774 51.4843 105.96 51.9089C106.164 52.3336 106.558 52.7147 107.143 53.0524C108.144 53.6306 109.31 53.8378 110.639 53.6741C111.968 53.5103 113.515 52.9194 115.278 51.9012C116.475 51.2105 117.339 50.5889 117.87 50.0363C118.42 49.4838 118.659 48.9875 118.588 48.5475C118.526 48.1126 118.18 47.7135 117.551 47.3502ZM117.434 61.2659L114.138 59.3626L126.58 57.9965L128.733 51.5806L132.163 53.5606L130.089 58.0733L137.905 56.876L141.175 58.764L130.275 59.9919L127.803 67.252L124.307 65.2336L126.593 59.9382L117.434 61.2659Z" fill="#822300"/>
</svg>
