<svg width="199" height="115" viewBox="0 0 199 115" fill="none" xmlns="http://www.w3.org/2000/svg">
<path d="M50.6346 99.2741L56.4701 102.643L63.369 98.6602L65.7085 100.011L58.8096 103.994L66.639 108.514L63.5551 110.295L45.2112 99.7039L56.4967 93.1882L58.4906 94.7385L50.6346 99.2741ZM72.1186 89.142L83.9757 95.9877L87.7907 93.7851L89.9707 95.0438L78.9776 101.391L76.7976 100.132L80.9981 97.7068L71.321 92.1198L67.2534 94.4682L65.0734 93.2096L72.1186 89.142ZM63.1725 86.3715C63.7574 86.0338 64.4043 85.865 65.1133 85.865C65.8311 85.8599 66.4558 86.0108 66.9876 86.3178C67.5193 86.6248 67.7851 86.988 67.7851 87.4076C67.794 87.822 67.506 88.1981 66.9211 88.5357C66.3539 88.8632 65.707 89.0269 64.9804 89.0269C64.2537 89.0269 63.6245 88.8734 63.0928 88.5664C62.5611 88.2595 62.2997 87.8988 62.3085 87.4843C62.3174 87.0699 62.6054 86.699 63.1725 86.3715ZM94.5596 92.3944L92.4328 91.1664L94.4931 89.9769L84.6964 84.3207L82.636 85.5103L80.5225 84.29L84.8559 81.7881L88.6576 83.3537C88.0018 82.3714 87.7537 81.4811 87.9132 80.683C88.0727 79.8746 88.764 79.1174 89.9869 78.4113C90.4034 78.1708 90.811 77.9764 91.2098 77.828C91.6086 77.6694 92.0251 77.5262 92.4593 77.3983L94.1209 79.386C93.7576 79.5037 93.4341 79.6239 93.1506 79.7467C92.8581 79.8644 92.5612 80.0102 92.2599 80.1841C91.2408 80.7725 90.7401 81.5016 90.7579 82.3714C90.7845 83.2361 91.2851 84.1954 92.2599 85.2494L97.4707 88.2578L100.302 86.6231L102.429 87.851L94.5596 92.3944ZM94.9982 81.9032L91.5421 79.9079L90.1996 78.703L92.4593 77.3983L97.1251 80.6753L94.9982 81.9032ZM117.652 75.0866C118.201 75.4038 118.689 75.588 119.114 75.6391C119.531 75.6852 119.987 75.6366 120.483 75.4933L121.839 77.0436C121.068 77.3966 120.284 77.6294 119.486 77.742C118.689 77.8545 117.856 77.8085 116.987 77.6038C117.12 78.2741 116.956 78.9315 116.496 79.5762C116.035 80.2208 115.357 80.8015 114.462 81.3183C113.044 82.1369 111.52 82.5565 109.889 82.5769C108.258 82.5872 106.792 82.2162 105.489 81.4641C104.009 80.6097 103.446 79.6197 103.801 78.4941C104.155 77.3685 105.405 76.1866 107.549 74.9484L109.557 73.7896L108.639 73.26C107.736 72.7381 106.81 72.5207 105.861 72.6077C104.922 72.6895 103.956 73.017 102.964 73.59C102.503 73.8561 102.006 74.2142 101.475 74.6645C100.934 75.1096 100.429 75.611 99.9593 76.1687L97.128 75.3782C97.6774 74.6824 98.2978 74.0479 98.989 73.4749C99.6713 72.8967 100.371 72.4005 101.089 71.986C102.968 70.9014 104.785 70.3334 106.539 70.2823C108.303 70.226 109.92 70.6225 111.391 71.4718L117.652 75.0866ZM113.172 79.5301C113.775 79.1822 114.205 78.7499 114.462 78.2331C114.719 77.7164 114.736 77.1894 114.515 76.6522L111.418 74.864L109.769 75.8156C108.369 76.624 107.603 77.3378 107.47 77.9568C107.328 78.5708 107.665 79.1131 108.48 79.5838C109.224 80.0136 109.995 80.2285 110.793 80.2285C111.59 80.2183 112.384 79.9855 113.172 79.5301ZM121.38 55.2982C122.62 54.5819 123.83 54.0728 125.009 53.7709C126.187 53.4588 127.446 53.2644 128.784 53.1877L129.09 55.2214C128.079 55.2726 127.149 55.4159 126.298 55.6512C125.447 55.8866 124.667 56.2089 123.959 56.6182C123.046 57.1452 122.434 57.7643 122.124 58.4754C121.814 59.1866 121.942 59.9771 122.51 60.8469C123.086 61.7116 124.238 62.6427 125.966 63.6404C127.658 64.6177 129.245 65.2777 130.725 65.6205C132.204 65.9633 133.565 66.0477 134.805 65.8737C136.046 65.6998 137.145 65.3365 138.102 64.7839C139.086 64.216 139.741 63.6532 140.069 63.0955C140.388 62.5327 140.592 61.9904 140.681 61.4685L144.07 61.7064C144.053 62.4023 143.791 63.1467 143.286 63.9397C142.772 64.7277 141.842 65.5105 140.495 66.2881C138.944 67.1835 137.185 67.7796 135.217 68.0763C133.25 68.3628 131.199 68.304 129.063 67.8998C126.936 67.4905 124.836 66.6872 122.762 65.49C120.706 64.303 119.342 63.0904 118.668 61.8523C117.986 60.609 117.897 59.422 118.402 58.2913C118.898 57.1554 119.891 56.1577 121.38 55.2982ZM140.099 49.4638C141.472 48.6708 142.935 48.1796 144.485 47.9903C146.036 47.801 147.6 47.8854 149.178 48.2436C150.764 48.5966 152.302 49.2029 153.79 50.0624C155.27 50.9169 156.32 51.8097 156.941 52.7409C157.561 53.6618 157.707 54.5751 157.379 55.4807C157.051 56.3761 156.21 57.2151 154.854 57.9979C153.498 58.7807 152.049 59.2745 150.507 59.4791C148.965 59.6736 147.392 59.5943 145.788 59.2412C144.193 58.8831 142.642 58.2691 141.136 57.3993C139.673 56.5551 138.632 55.6726 138.012 54.7516C137.4 53.8255 137.259 52.9097 137.586 52.0041C137.906 51.0934 138.743 50.2466 140.099 49.4638ZM142.412 50.7992C141.339 51.4183 140.945 52.1218 141.229 52.9097C141.503 53.6925 142.514 54.5879 144.259 55.5958C145.996 56.5986 147.543 57.1844 148.899 57.3533C150.263 57.517 151.482 57.2893 152.554 56.6702C153.626 56.0512 154.016 55.3502 153.724 54.5674C153.44 53.7795 152.421 52.879 150.667 51.866C148.938 50.8683 147.401 50.2876 146.054 50.1238C144.698 49.955 143.484 50.1801 142.412 50.7992ZM153.062 35.5175L156.372 33.9902L176.045 45.3486L173.427 46.8605L171.486 45.9856C171.672 46.6456 171.614 47.2723 171.313 47.8658C171.012 48.4593 170.449 48.994 169.625 49.4698C168.42 50.1657 167.121 50.5622 165.73 50.6594C164.33 50.7515 162.885 50.5878 161.397 50.1682C159.908 49.7384 158.432 49.1014 156.97 48.2572C155.543 47.4335 154.498 46.574 153.833 45.6786C153.16 44.7781 152.916 43.9058 153.102 43.0616C153.288 42.2174 153.962 41.4601 155.123 40.7899C155.858 40.3652 156.651 40.0608 157.502 39.8766C158.344 39.6873 159.239 39.6055 160.187 39.631L153.062 35.5175ZM158.193 41.6571C157.192 42.2353 156.828 42.926 157.103 43.7293C157.369 44.5274 158.375 45.4305 160.121 46.4384C161.317 47.1291 162.407 47.6254 163.391 47.9272C164.365 48.224 165.247 48.3493 166.036 48.3033C166.816 48.2521 167.511 48.05 168.123 47.697C168.796 47.3082 169.186 46.8579 169.293 46.3463C169.399 45.8346 169.35 45.3204 169.146 44.8037L162.5 40.9664C161.658 40.8794 160.874 40.8922 160.147 41.0048C159.412 41.1122 158.76 41.3297 158.193 41.6571ZM177.178 37.6954C178.197 38.2121 179.185 38.5472 180.142 38.7007C181.091 38.8491 181.986 38.844 182.827 38.6854C183.678 38.5217 184.44 38.2454 185.114 37.8565C185.805 37.4575 186.337 37.0277 186.709 36.5672C187.081 36.1067 187.369 35.5925 187.573 35.0246L190.644 35.3086C190.52 35.9942 190.178 36.6823 189.62 37.373C189.062 38.0637 188.282 38.6982 187.281 39.2763C185.827 40.1154 184.285 40.6475 182.655 40.8726C181.033 41.0926 179.407 41.0338 177.776 40.6961C176.146 40.3584 174.604 39.7701 173.15 38.931C171.741 38.1175 170.74 37.2426 170.146 36.3063C169.544 35.3649 169.397 34.4311 169.708 33.5051C170.009 32.5739 170.824 31.7246 172.153 30.9571C173.403 30.2357 174.759 29.7803 176.221 29.591C177.692 29.3966 179.194 29.4606 180.727 29.7829C182.26 30.095 183.758 30.6731 185.22 31.5173C185.459 31.6555 185.69 31.7987 185.911 31.9471C186.133 32.0853 186.323 32.2106 186.483 32.3232L177.178 37.6954ZM174.387 32.2157C173.456 32.753 173.017 33.3899 173.071 34.1267C173.133 34.8583 173.819 35.6591 175.131 36.5288L181.631 32.776C180.284 32.029 178.986 31.6069 177.736 31.5097C176.496 31.4073 175.379 31.6427 174.387 32.2157Z" fill="#822300"/>
<path d="M41.8692 61.7161L45.3785 60.8412L51.8786 69.997L61.4361 64.479L63.749 65.8144L51.0811 73.1282L49.0074 71.931L41.8692 61.7161ZM54.3511 62.9057L65.7961 69.5135L62.9382 71.1635L56.7969 67.6486L51.852 64.3485L54.3511 62.9057ZM69.3482 51.3308C70.2255 51.8373 70.7306 52.4257 70.8636 53.0959C70.9876 53.7611 70.8237 54.5464 70.3717 55.452C72.1175 55.0581 73.7392 54.9148 75.2369 55.0222C76.7256 55.1246 78.015 55.4904 79.105 56.1197C80.0887 56.6876 80.7268 57.3528 81.0192 58.1151C81.3028 58.8723 81.1964 59.6705 80.7002 60.5096C80.2039 61.3384 79.2646 62.1519 77.8821 62.9501C76.5085 63.7431 75.1084 64.2803 73.6816 64.5617C72.2549 64.8431 70.9034 64.8968 69.6273 64.7229C68.3424 64.5438 67.2169 64.1754 66.251 63.6178C65.1521 62.9833 64.5406 62.2568 64.4166 61.4382C64.2837 60.6144 64.5141 59.7498 65.1078 58.8442C63.6367 59.1 62.3473 59.1793 61.2396 59.0821C60.1319 58.9746 59.0685 58.6267 58.0494 58.0383C57.2252 57.5625 56.6758 57.056 56.4011 56.5188C56.1175 55.9764 56.0466 55.429 56.1884 54.8764C56.3213 54.3187 56.627 53.7841 57.1056 53.2724C57.5841 52.7608 58.1779 52.3003 58.8868 51.891C59.6401 51.4561 60.4598 51.1005 61.346 50.8243C62.2233 50.5429 63.1272 50.3638 64.0577 50.287C64.9882 50.2001 65.9054 50.2384 66.8093 50.4022C67.7132 50.5659 68.5595 50.8754 69.3482 51.3308ZM76.0743 57.8849C75.3299 57.4551 74.5589 57.2146 73.7614 57.1634C72.9727 57.1072 72.0998 57.1814 71.1427 57.386C70.1856 57.5907 69.0912 57.8644 67.8594 58.2072C67.6467 58.596 67.5271 58.9977 67.5005 59.4121C67.465 59.8214 67.5758 60.2282 67.8328 60.6323C68.0898 61.0365 68.5462 61.4279 69.202 61.8066C70.1413 62.3489 71.1737 62.6175 72.2992 62.6124C73.4158 62.6022 74.5368 62.2721 75.6622 61.6224C76.7965 60.9675 77.3593 60.3049 77.3504 59.6347C77.3504 58.9593 76.925 58.376 76.0743 57.8849ZM60.9472 56.3806C61.5498 56.7286 62.1745 56.9307 62.8215 56.9869C63.4684 57.0432 64.1817 56.9946 64.9616 56.8411C65.7326 56.6825 66.6187 56.4625 67.6201 56.1811C67.9037 55.475 67.9835 54.8867 67.8594 54.416C67.7353 53.935 67.3188 53.4899 66.6099 53.0806C65.7857 52.6048 64.8818 52.3643 63.8982 52.3592C62.9145 52.3541 61.9663 52.615 61.0535 53.142C60.1496 53.6638 59.6844 54.2087 59.6578 54.7767C59.6401 55.3395 60.0699 55.8741 60.9472 56.3806ZM96.2984 35.2646C97.539 34.5483 98.8373 34.1518 100.193 34.075C101.54 33.9931 102.936 34.1748 104.38 34.6199C105.816 35.0599 107.278 35.7097 108.767 36.5692C110.194 37.393 111.262 38.2449 111.97 39.1249C112.679 40.0049 112.95 40.8619 112.781 41.6958C112.622 42.5247 111.948 43.2819 110.761 43.9675C109.29 44.8168 107.584 45.2031 105.643 45.1264L112.236 48.933L109.591 50.8439L89.8248 39.4319L92.4169 37.9353L94.4108 38.8716C94.2158 38.1451 94.2867 37.4748 94.6235 36.8609C94.9691 36.2418 95.5274 35.7097 96.2984 35.2646ZM97.7739 37.0681C97.1092 37.4518 96.7237 37.9046 96.6174 38.4265C96.511 38.9484 96.5509 39.4677 96.737 39.9844L103.304 43.7757C104.146 43.8729 104.934 43.8677 105.67 43.7603C106.405 43.6426 107.065 43.415 107.65 43.0773C108.652 42.4991 109.011 41.8263 108.727 41.0589C108.443 40.2914 107.42 39.3986 105.656 38.3804C104.46 37.6897 103.383 37.1909 102.426 36.8839C101.469 36.5667 100.61 36.4285 99.8475 36.4695C99.0943 36.5053 98.403 36.7048 97.7739 37.0681ZM121.876 37.1355L118.58 39.0388L116.214 31.8554L105.101 30.6121L108.531 28.6321L116.347 29.8293L114.273 25.3167L117.543 23.4287L119.67 29.7219L132.245 31.1493L128.749 33.1677L119.577 31.8477L121.876 37.1355Z" fill="#822300"/>
</svg>
