<svg width="72" height="67" viewBox="0 0 72 67" fill="none" xmlns="http://www.w3.org/2000/svg">
<path d="M11.5247 0.871506C10.9026 0.360041 9.98356 0.449786 9.47209 1.07196L1.13729 11.2108C0.625825 11.833 0.71557 12.752 1.33774 13.2635C1.95991 13.7749 2.87891 13.6852 3.39037 13.063L10.7991 4.05068L19.8114 11.4594C20.4336 11.9709 21.3526 11.8811 21.864 11.2589C22.3755 10.6368 22.2858 9.71777 21.6636 9.20631L11.5247 0.871506ZM69.6411 66.4076C70.4464 66.4187 71.1082 65.7748 71.1193 64.9695C71.1304 64.1642 70.4865 63.5023 69.6812 63.4912L69.6611 64.9494L69.6411 66.4076ZM10.5986 1.99805L9.1472 2.13979C10.1787 12.7023 14.4115 28.5505 23.8016 41.8729C33.2269 55.2453 47.8877 66.1083 69.6411 66.4076L69.6611 64.9494L69.6812 63.4912C49.0457 63.2073 35.188 52.965 26.1856 40.1926C17.1481 27.3704 13.044 12.0345 12.0501 1.85631L10.5986 1.99805Z" fill="#131313"/>
</svg>
