<svg width="111" height="149" viewBox="0 0 111 149" fill="none" xmlns="http://www.w3.org/2000/svg">
<path d="M43.4818 2.87353C44.194 2.4974 44.4664 1.61514 44.0903 0.902945C43.7141 0.19075 42.8319 -0.0816865 42.1197 0.294441L42.8007 1.58398L43.4818 2.87353ZM109.591 142.911C110.324 142.577 110.647 141.712 110.313 140.979L104.872 129.036C104.538 128.303 103.673 127.979 102.94 128.313C102.207 128.647 101.884 129.512 102.218 130.245L107.055 140.862L96.4378 145.698C95.7048 146.032 95.3814 146.897 95.7153 147.63C96.0492 148.363 96.914 148.687 97.647 148.353L109.591 142.911ZM42.8007 1.58398L42.1197 0.294441C31.3536 5.98029 20.2998 14.0267 12.2326 23.8616C4.16071 33.7024 -0.993873 45.4324 0.293836 58.4014C1.58152 71.3702 9.28054 85.268 26.2672 99.509C43.2474 113.745 69.6079 128.413 108.475 142.95L108.986 141.584L109.497 140.218C70.7912 125.742 44.7691 111.214 28.141 97.2739C11.5193 83.3389 4.38442 70.08 3.19623 58.1132C2.00807 46.1467 6.73568 35.1622 14.4877 25.7114C22.2446 16.2546 32.9566 8.43213 43.4818 2.87353L42.8007 1.58398Z" fill="#822300"/>
</svg>
