<svg width="560" height="1423" viewBox="0 0 560 1423" fill="none" xmlns="http://www.w3.org/2000/svg">
<path d="M490.673 694.178C490.673 672.015 486.903 656.91 479.362 648.863C472.051 640.684 461.883 637.848 448.859 640.354C435.835 642.597 420.983 648.533 404.303 658.164L346.038 691.803L346.038 858.022L400.19 826.757C411.386 820.293 422.354 812.905 433.093 804.594C443.832 796.283 453.543 786.851 462.226 776.297C471.137 765.348 478.106 753.146 483.133 739.69C488.159 726.234 490.673 711.063 490.673 694.178ZM472.508 467.606C472.508 442.805 465.767 428.887 452.286 425.853C439.034 422.687 419.383 428.623 393.335 443.662L346.038 470.97L346.038 615.422L397.448 585.74C423.039 570.965 441.89 554.277 454 535.676C466.338 516.68 472.508 493.99 472.508 467.606ZM588.01 640.75C588.01 671.619 582.755 700.378 572.244 727.026C561.962 753.541 547.91 777.881 530.087 800.043C512.265 822.205 492.044 842.323 469.423 860.396C447.031 878.337 423.611 894.365 399.162 908.481L252.128 993.371L252.128 446.037L390.594 366.094C413.9 352.638 436.063 342.084 457.084 334.433C478.106 326.782 496.842 323.615 513.293 324.935C529.973 325.858 543.111 332.52 552.708 344.921C562.533 357.189 567.446 376.647 567.446 403.295C567.446 425.721 563.333 447.356 555.107 468.199C547.11 488.911 536.371 508.171 522.89 525.98C509.638 543.393 495.357 558.762 480.048 572.086C497.185 565.358 513.979 561.862 530.43 561.598C547.11 560.939 560.82 566.611 571.559 578.616C582.526 590.225 588.01 610.936 588.01 640.75Z" fill="#822300"/>
<g filter="url(#filter0_f_14542_785)">
<path d="M824.788 1048.61C805.595 1037.53 786.859 1031.06 768.58 1029.22C750.529 1027.24 732.821 1028.76 715.455 1033.77C697.861 1038.65 680.725 1045.91 664.045 1055.54L605.779 1089.17L749.729 1172.28L803.881 1141.02C815.078 1134.56 825.131 1127.7 834.042 1120.44C842.953 1113.18 849.351 1105.66 853.236 1097.88C857.12 1089.83 857.006 1081.72 852.893 1073.54C848.78 1065.36 839.412 1057.05 824.788 1048.61ZM601.324 940.567C579.846 928.167 557.682 923.154 534.833 925.529C512.212 927.771 487.878 936.412 461.83 951.451L414.532 978.758L539.631 1050.98L591.042 1021.3C616.633 1006.53 630.456 992.742 632.513 979.945C634.569 966.885 624.173 953.759 601.324 940.567ZM924.525 993.797C951.258 1009.23 968.281 1025.13 975.593 1041.49C983.133 1057.71 983.133 1073.94 975.593 1090.16C968.052 1106.39 955.143 1122.29 936.863 1137.85C918.813 1153.29 897.563 1168.06 873.114 1182.18L726.08 1267.07L252.075 993.401L390.541 913.458C413.847 900.002 437.952 888.327 462.858 878.433C487.764 868.539 513.126 861.548 538.946 857.458C564.765 853.105 590.242 852.643 615.376 856.073C640.739 859.371 664.959 867.682 688.036 881.006C707.458 892.219 720.025 904.224 725.737 917.02C731.678 929.684 732.249 942.414 727.451 955.211C722.653 967.743 714.541 979.55 703.117 990.631C722.995 982.32 745.159 975.724 769.608 970.843C794.056 965.698 819.533 964.577 846.038 967.479C872.543 970.117 898.705 978.89 924.525 993.797Z" fill="#9F573D"/>
</g>
<defs>
<filter id="filter0_f_14542_785" x="227.327" y="774.731" width="859.385" height="517.086" filterUnits="userSpaceOnUse" color-interpolation-filters="sRGB">
<feFlood flood-opacity="0" result="BackgroundImageFix"/>
<feBlend mode="normal" in="SourceGraphic" in2="BackgroundImageFix" result="shape"/>
<feGaussianBlur stdDeviation="0" result="effect1_foregroundBlur_14542_785"/>
</filter>
</defs>
</svg>
