<svg width="700" height="1852" viewBox="0 0 700 1852" fill="none" xmlns="http://www.w3.org/2000/svg">
<path d="M212.839 461.939C252.98 485.115 286.813 510.773 314.338 538.915C342.15 566.891 367.955 599.005 391.753 635.258L339.713 676.725C321.936 649.246 302.87 625.491 282.512 605.461C262.155 585.431 240.508 568.794 217.57 555.551C188.038 538.501 160.799 531.383 135.855 534.197C110.91 537.011 90.8397 553.399 75.6435 583.362C60.734 613.49 53.2793 660.834 53.2793 725.393C53.2793 788.629 60.4473 843.753 74.7833 890.766C89.1193 937.779 108.76 977.26 133.704 1009.21C158.649 1041.16 186.604 1066.07 217.57 1083.95C249.396 1102.32 275.774 1111.59 296.705 1111.76C317.636 1111.59 336.129 1108.53 352.186 1102.57L400.355 1201.4C380.571 1212.16 355.483 1216.88 325.09 1215.55C294.698 1213.9 257.711 1200.49 214.13 1175.33C163.953 1146.36 118.795 1106.71 78.654 1056.39C38.7999 1005.9 7.26061 947.463 -15.9638 881.082C-38.9014 814.867 -50.3702 743.023 -50.3702 665.551C-50.3702 588.742 -38.4713 530.886 -14.6735 491.985C9.1243 452.752 40.9503 431.066 80.8045 426.928C120.659 422.458 164.67 434.129 212.839 461.939Z" fill="#822300"/>
<g filter="url(#filter0_f_14542_779)">
<path d="M222.722 1179.64C265.554 1204.37 295.996 1228.48 314.046 1251.97C332.709 1275.46 344.335 1300.55 348.924 1327.22L227.311 1333.31C224.252 1313.18 215.686 1294.63 201.612 1277.67C187.539 1260.72 168.264 1245.17 143.789 1231.04C112.277 1212.85 75.2575 1200.66 32.7314 1194.48C-9.79472 1188.29 -57.063 1190.86 -109.073 1202.16C-160.778 1213.64 -216.459 1236.6 -276.118 1271.05C-334.554 1304.79 -374.02 1336.4 -394.519 1365.9C-415.017 1395.4 -420.065 1422.51 -409.663 1447.24C-399.261 1471.97 -377.539 1493.88 -344.497 1512.95C-310.537 1532.56 -276.883 1545.63 -243.535 1552.17C-209.882 1558.52 -177.452 1562.59 -146.245 1564.35L-160.472 1631.92C-202.08 1631.56 -246.595 1626.35 -294.016 1616.29C-341.131 1606.04 -387.941 1587.49 -434.444 1560.64C-487.984 1529.73 -523.627 1494.67 -541.371 1455.46C-558.504 1416.24 -554.986 1375.35 -530.816 1332.78C-506.341 1290.39 -458.308 1248.53 -386.717 1207.19C-315.738 1166.22 -243.23 1139.01 -169.191 1125.59C-94.847 1111.99 -23.8681 1110.22 43.7454 1120.29C111.665 1130.18 171.324 1149.96 222.722 1179.64Z" fill="#9F573D"/>
</g>
<defs>
<filter id="filter0_f_14542_779" x="-742.528" y="991.636" width="1191.19" height="709.585" filterUnits="userSpaceOnUse" color-interpolation-filters="sRGB">
<feFlood flood-opacity="0" result="BackgroundImageFix"/>
<feBlend mode="normal" in="SourceGraphic" in2="BackgroundImageFix" result="shape"/>
<feGaussianBlur stdDeviation="0" result="effect1_foregroundBlur_14542_779"/>
</filter>
</defs>
</svg>
