<svg width="303" height="390" viewBox="0 0 303 390" fill="none" xmlns="http://www.w3.org/2000/svg">
<path d="M279.786 66.859C283.263 68.3925 285.833 70.6006 287.494 73.4832C289.175 76.3749 289.93 79.7619 289.757 83.6443C289.605 87.5356 288.532 91.7418 286.539 96.2628C284.59 100.681 282.257 104.283 279.539 107.067C276.85 109.84 273.868 111.616 270.592 112.395C267.325 113.154 263.882 112.735 260.261 111.138C256.783 109.605 254.203 107.392 252.522 104.5C250.87 101.597 250.116 98.2101 250.259 94.3393C250.431 90.4569 251.514 86.2553 253.508 81.7343C255.456 77.3156 257.775 73.7199 260.463 70.9471C263.182 68.1628 266.174 66.3914 269.441 65.6327C272.737 64.8626 276.185 65.2714 279.786 66.859ZM287.675 63.264L292.962 67.648L287.284 74.124L282.284 78.1498L260.577 104.02L257.597 108.534L252.426 114.61L247.169 110.24L253.356 103.109L258.292 99.3111L280.257 73.1877L282.632 69.2138L287.675 63.264ZM277.052 73.0575C274.168 71.7856 271.514 72.1792 269.091 74.2384C266.698 76.2862 264.306 80.0207 261.915 85.4417C260.247 89.2263 259.174 92.4064 258.698 94.982C258.222 97.5577 258.338 99.6492 259.047 101.257C259.785 102.853 261.105 104.07 263.007 104.909C265.933 106.199 268.582 105.815 270.955 103.759C273.358 101.69 275.749 97.9559 278.131 92.5553C279.8 88.7708 280.872 85.5907 281.348 83.015C281.845 80.4484 281.739 78.3614 281.03 76.754C280.322 75.1466 278.996 73.9144 277.052 73.0575Z" fill="#131313"/>
<path d="M248.966 112.543L275.177 186.537C274.962 184.906 274.704 182.802 274.404 180.226C274.103 177.65 273.824 174.731 273.567 171.468C273.266 168.205 273.03 164.749 272.858 161.1C272.644 157.45 272.536 153.758 272.536 150.023V112.543H287.863V201.606H265.453L239.5 127.741C239.843 129.931 240.23 132.829 240.659 136.435C241.045 140.041 241.389 144.184 241.689 148.864C241.99 153.543 242.14 158.524 242.14 163.804V201.606H226.813V112.543H248.966Z" fill="#131313"/>
<path d="M0.528275 165.294L74.5225 139.084C72.8911 139.299 70.7874 139.556 68.2114 139.857C65.6355 140.157 62.716 140.436 59.4532 140.694C56.1903 140.995 52.7342 141.231 49.085 141.402C45.4357 141.617 41.7435 141.724 38.0084 141.724H0.528275V126.397H89.5918V148.808L15.7264 174.761C17.9159 174.417 20.8139 174.031 24.4202 173.602C28.0266 173.215 32.1695 172.872 36.8492 172.571C41.5288 172.271 46.509 172.121 51.7897 172.121H89.5918V187.447H0.528275V165.294Z" fill="#131313"/>
<path d="M160.052 21.8536C162.19 23.1147 164.795 23.7453 167.865 23.7453C172.252 23.7453 176.145 22.1826 179.545 19.0571C182.999 15.8769 185.796 11.7096 187.934 6.55536L176.337 0.797961C174.911 3.21059 173.54 5.02005 172.225 6.22636C170.963 7.37784 169.455 7.95358 167.701 7.95358C165.782 7.95358 164 7.32301 162.355 6.06187C160.71 4.80072 158.818 3.53958 156.68 2.27843C154.596 1.01729 151.909 0.386719 148.619 0.386719C144.013 0.386719 140.038 2.11394 136.693 5.56837C133.348 8.96798 130.662 13.053 128.633 17.8234L140.23 23.4986C141.546 21.0859 142.834 19.2765 144.096 18.0702C145.357 16.809 146.974 16.1784 148.948 16.1784C150.812 16.1784 152.595 16.809 154.294 18.0702C156.049 19.3313 157.968 20.5924 160.052 21.8536Z" fill="#131313"/>
<path d="M140.407 252.93L134.708 296.96H125.125L121.273 264.868L117.198 296.96H107.424L102.139 252.93H110.448L113.059 289.033L117.262 258.023H125.476L129.455 289.033L132.703 252.93H140.407ZM177.313 252.93L171.614 296.96H162.031L158.179 264.868L154.104 296.96H144.33L139.045 252.93H147.354L149.965 289.033L154.168 258.023H162.381L166.361 289.033L169.608 252.93H177.313ZM214.219 252.93L208.52 296.96H198.937L195.085 264.868L191.01 296.96H181.236L175.951 252.93H184.26L186.871 289.033L191.074 258.023H199.287L203.267 289.033L206.514 252.93H214.219Z" fill="#131313"/>
<path d="M135.614 309.523C139.227 311.116 142.077 312.942 144.166 315.002C146.265 317.037 147.994 319.402 149.353 322.099L141.383 326.002C140.456 324.094 139.246 322.422 137.752 320.984C136.284 319.557 134.546 318.402 132.539 317.516C130.13 316.454 127.628 316.115 125.031 316.499C122.46 316.893 119.934 318.237 117.455 320.53C115.012 322.809 112.772 326.256 110.737 330.873C108.734 335.414 107.69 339.344 107.605 342.663C107.546 345.993 108.232 348.752 109.663 350.942C111.131 353.118 113.145 354.77 115.704 355.898C118.414 357.093 120.869 357.606 123.071 357.439C125.273 357.271 127.338 356.937 129.265 356.439L131.415 364.714C128.787 365.713 125.811 366.244 122.487 366.306C119.188 366.38 115.582 365.554 111.668 363.828C107.127 361.825 103.534 358.998 100.89 355.344C98.2453 351.691 96.7976 347.397 96.5465 342.461C96.2955 337.526 97.4754 332.097 100.086 326.176C102.653 320.356 105.862 315.897 109.715 312.801C113.604 309.691 117.788 307.881 122.269 307.369C126.775 306.869 131.223 307.587 135.614 309.523ZM108.909 374.163C109.406 373.034 109.149 372.022 108.135 371.126C107.136 370.265 105.533 369.349 103.325 368.375L108.331 359.57L114.127 362.125L111.903 367.168C114.366 368.584 115.917 370.197 116.557 372.007C117.211 373.854 117.134 375.693 116.327 377.524C115.575 379.231 114.476 380.499 113.03 381.33C111.585 382.161 109.928 382.554 108.06 382.51C106.181 382.49 104.225 382.032 102.193 381.136C100.487 380.384 98.9877 379.468 97.6955 378.389C96.4033 377.31 95.3827 376.26 94.6336 375.241L99.2791 371.536C99.8157 372.222 100.461 372.866 101.214 373.468C101.993 374.081 102.796 374.57 103.624 374.935C104.878 375.488 105.97 375.73 106.9 375.66C107.819 375.616 108.488 375.117 108.909 374.163Z" fill="#131313"/>
<path d="M182 309.523C178.387 311.116 175.537 312.942 173.448 315.002C171.349 317.037 169.62 319.402 168.262 322.099L176.231 326.002C177.158 324.094 178.368 322.422 179.862 320.984C181.331 319.557 183.069 318.402 185.076 317.516C187.484 316.454 189.987 316.115 192.583 316.499C195.154 316.893 197.68 318.237 200.159 320.53C202.603 322.809 204.842 326.256 206.878 330.873C208.88 335.414 209.924 339.344 210.009 342.663C210.069 345.993 209.383 348.752 207.951 350.942C206.483 353.118 204.469 354.77 201.91 355.898C199.201 357.093 196.745 357.606 194.543 357.439C192.342 357.271 190.277 356.937 188.349 356.439L186.199 364.714C188.827 365.713 191.803 366.244 195.127 366.306C198.426 366.38 202.032 365.554 205.946 363.828C210.487 361.825 214.08 358.998 216.725 355.344C219.369 351.691 220.817 347.397 221.068 342.461C221.319 337.526 220.139 332.097 217.528 326.176C214.961 320.356 211.752 315.897 207.899 312.801C204.011 309.691 199.826 307.881 195.345 307.369C190.839 306.869 186.391 307.587 182 309.523ZM208.706 374.163C208.208 373.034 208.466 372.022 209.479 371.126C210.478 370.265 212.082 369.349 214.289 368.375L209.283 359.57L203.487 362.125L205.711 367.168C203.249 368.584 201.697 370.197 201.057 372.007C200.403 373.854 200.48 375.693 201.287 377.524C202.04 379.231 203.139 380.499 204.584 381.33C206.029 382.161 207.686 382.554 209.554 382.51C211.433 382.49 213.389 382.032 215.421 381.136C217.127 380.384 218.627 379.468 219.919 378.389C221.211 377.31 222.232 376.26 222.981 375.241L218.335 371.536C217.799 372.222 217.154 372.866 216.4 373.468C215.622 374.081 214.818 374.57 213.99 374.935C212.736 375.488 211.644 375.73 210.714 375.66C209.796 375.616 209.126 375.117 208.706 374.163Z" fill="#131313"/>
<path d="M214.808 80.1223V185.899C214.808 196.648 212.598 206.254 208.176 214.716C203.83 223.102 197.465 229.696 189.079 234.499C180.693 239.302 170.363 241.703 158.089 241.703C145.739 241.703 135.371 239.378 126.985 234.728C118.599 230.001 112.272 223.445 108.003 215.059C103.733 206.673 101.599 196.953 101.599 185.899V80.1223H132.932V177.094C132.932 190.587 134.761 200.727 138.421 207.512C142.08 214.22 148.636 217.575 158.089 217.575C167.619 217.575 174.213 214.22 177.872 207.512C181.532 200.727 183.361 190.587 183.361 177.094V80.1223H214.808ZM132.703 63.4267C128.053 63.4267 124.126 61.902 120.925 58.8526C117.723 55.8032 116.122 51.9533 116.122 47.3029C116.122 42.7288 117.723 38.9171 120.925 35.8676C124.126 32.742 128.053 31.1792 132.703 31.1792C137.429 31.1792 141.356 32.742 144.481 35.8676C147.683 38.9171 149.284 42.7288 149.284 47.3029C149.284 51.9533 147.683 55.8032 144.481 58.8526C141.356 61.902 137.429 63.4267 132.703 63.4267ZM183.59 63.4267C179.016 63.4267 175.128 61.902 171.926 58.8526C168.724 55.8032 167.123 51.9533 167.123 47.3029C167.123 42.7288 168.724 38.9171 171.926 35.8676C175.128 32.742 179.016 31.1792 183.59 31.1792C188.317 31.1792 192.281 32.742 195.483 35.8676C198.685 38.9171 200.286 42.7288 200.286 47.3029C200.286 51.9533 198.685 55.8032 195.483 58.8526C192.281 61.902 188.317 63.4267 183.59 63.4267Z" fill="#131313"/>
</svg>
