<svg width="560" height="1405" viewBox="0 0 560 1405" fill="none" xmlns="http://www.w3.org/2000/svg">
<path d="M515.742 557.341C515.742 510.406 511.452 475.336 502.871 452.13C494.29 428.924 483 414.322 468.999 408.325C454.999 402.328 439.644 401.806 422.934 406.76C406.449 411.584 390.191 418.624 374.158 427.881L319.286 459.561L319.286 888.226L374.836 856.154C391.546 846.507 408.143 833.926 424.627 818.411C441.337 802.506 456.58 782.754 470.354 759.157C484.129 735.299 495.08 706.943 503.21 674.089C511.565 640.844 515.742 601.928 515.742 557.341ZM578.405 521.162C578.405 566.01 574.227 606.752 565.872 643.386C557.743 679.63 546.566 712.158 532.339 740.97C518.113 769.782 501.855 795.205 483.564 817.238C465.499 838.88 446.418 857.849 426.321 874.146C406.449 890.051 386.917 903.545 367.723 914.626L260.688 976.423L260.688 437.854L360.271 380.36C387.594 364.585 414.127 352.786 439.869 344.964C465.838 337.011 489.209 336.555 509.984 343.595C530.985 350.244 547.582 367.518 559.775 395.418C572.195 423.187 578.405 465.102 578.405 521.162Z" fill="#822300"/>
<g filter="url(#filter0_f_14542_782)">
<path d="M747.488 962.813C706.842 939.346 670.034 923.05 637.066 913.924C604.097 904.798 574.516 900.756 548.322 901.799C522.128 902.842 498.643 907.014 477.869 914.315C457.32 921.485 439.029 929.699 422.996 938.955L368.124 970.636L739.359 1184.97L794.908 1152.9C811.618 1143.25 825.619 1132.17 836.909 1119.65C848.2 1106.87 853.958 1092.6 854.184 1076.82C854.184 1060.92 846.055 1043.58 829.796 1024.81C813.538 1005.77 786.102 985.107 747.488 962.813ZM810.151 926.635C848.99 949.059 878.007 970.636 897.201 991.365C916.395 1011.83 927.798 1031.32 931.411 1049.84C935.024 1068.35 932.653 1085.75 924.298 1102.05C915.943 1118.09 903.749 1133.08 887.717 1147.03C871.684 1160.72 854.071 1173.1 834.877 1184.19L727.842 1245.98L261.428 976.698L361.011 919.204C388.334 903.429 417.916 889.87 449.755 878.528C481.82 867.055 516.482 860.08 553.741 857.603C591 854.865 630.856 858.711 673.309 869.141C715.987 879.44 761.601 898.605 810.151 926.635Z" fill="#9F573D"/>
</g>
<defs>
<filter id="filter0_f_14542_782" x="238.227" y="770.063" width="830.533" height="499.12" filterUnits="userSpaceOnUse" color-interpolation-filters="sRGB">
<feFlood flood-opacity="0" result="BackgroundImageFix"/>
<feBlend mode="normal" in="SourceGraphic" in2="BackgroundImageFix" result="shape"/>
<feGaussianBlur stdDeviation="0" result="effect1_foregroundBlur_14542_782"/>
</filter>
</defs>
</svg>
