<svg width="816" height="1182" viewBox="0 0 816 1182" fill="none" xmlns="http://www.w3.org/2000/svg">
<path d="M193.224 267.588C505.867 -214.509 885.447 94.745 924.419 133.72C1266.34 475.667 895.612 830.177 692.267 899.653L593.982 1181.79L103.412 1010.65C119.51 968.847 153.74 878.471 161.874 851.358C-8.93564 786.288 51.7286 606.215 103.412 524.312C72.9102 506.801 10.2128 465.511 3.43457 440.432C-23.6781 382.139 118.664 300.914 193.224 267.588ZM529.851 209.52C522.38 194.117 503.837 187.687 488.435 195.157C473.032 202.628 466.601 221.171 474.071 236.573L542.105 376.844L386.595 365.841C369.519 364.633 354.697 377.496 353.488 394.572C352.28 411.648 365.143 426.471 382.219 427.68L537.476 438.665L449.981 567.39C440.358 581.547 444.034 600.826 458.191 610.449C472.349 620.072 491.628 616.397 501.251 602.239L588.89 473.303L656.925 613.575C664.395 628.977 682.937 635.408 698.34 627.938C713.742 620.467 720.173 601.925 712.703 586.522L644.668 446.249L800.179 457.253C817.255 458.461 832.078 445.598 833.286 428.522C834.494 411.447 821.631 396.624 804.556 395.415L649.297 384.429L736.793 255.705C746.416 241.547 742.74 222.269 728.582 212.646C714.424 203.022 695.146 206.698 685.522 220.855L597.884 349.79L529.851 209.52Z" fill="#822300"/>
</svg>
