<svg width="397" height="575" viewBox="0 0 397 575" fill="none" xmlns="http://www.w3.org/2000/svg">
<path d="M94.2617 130.395C246.24 -103.956 430.756 46.3715 449.703 65.3193C615.916 231.544 435.7 403.875 336.852 437.648L289.075 574.801L50.6035 491.604C58.429 471.285 75.0685 427.352 79.0225 414.172C-4.01004 382.54 25.4796 295.005 50.6035 255.191C35.7762 246.679 5.29787 226.607 2.00293 214.416C-11.1768 186.079 58.0173 146.595 94.2617 130.395ZM257.9 102.169C254.269 94.6818 245.255 91.5551 237.768 95.1865C230.28 98.8181 227.156 107.833 230.787 115.32L263.857 183.505L188.262 178.156C179.961 177.569 172.755 183.822 172.168 192.123C171.581 200.424 177.835 207.628 186.136 208.216L261.608 213.556L219.075 276.133C214.398 283.015 216.185 292.387 223.067 297.064C229.95 301.742 239.321 299.954 243.999 293.072L286.601 230.396L319.674 298.585C323.306 306.072 332.319 309.198 339.807 305.566C347.294 301.935 350.418 292.921 346.787 285.434L313.713 217.243L389.312 222.593C397.612 223.18 404.817 216.926 405.404 208.626C405.991 200.325 399.738 193.12 391.438 192.532L315.965 187.191L358.498 124.618C363.175 117.736 361.389 108.364 354.507 103.687C347.625 99.0087 338.253 100.797 333.575 107.679L290.972 170.355L257.9 102.169Z" fill="#822300"/>
</svg>
