<svg width="638" height="322" viewBox="0 0 638 322" fill="none" xmlns="http://www.w3.org/2000/svg">
<path d="M517.781 252.481L601.255 450.231C618.401 403.822 652.448 301.518 651.462 263.569C569.844 146.385 427.851 134.857 319.722 145.096C243.086 50.3172 185.321 42.5009 166.018 50.44C112.917 4.94014 90.0725 15.0177 85.0082 31.8653C29.2842 -13.0071 12.1178 -3.30616 0.356262 19.6154L106.591 180.617C69.1329 186.43 -15.6942 214.854 6.48346 252.481H133.676H517.781Z" fill="#822300"/>
<path d="M194.973 166.234C151.439 97.8371 114.9 55.9359 85.0083 31.8653M194.973 166.234C210.179 162.923 232.573 157.83 259.657 153.181M194.973 166.234L106.591 180.617M85.0083 31.8653C29.2842 -13.0071 12.1178 -3.30616 0.356255 19.6154L106.591 180.617M85.0083 31.8653C90.0725 15.0177 112.917 4.94014 166.018 50.44M259.657 153.181C221.24 104.024 190.432 71.3586 166.018 50.44M259.657 153.181C277.821 150.063 298.094 147.144 319.722 145.096M166.018 50.44C185.321 42.5009 243.086 50.3172 319.722 145.096M319.722 145.096C427.851 134.857 569.844 146.385 651.462 263.569C652.448 301.518 618.401 403.822 601.255 450.231L517.781 252.481H133.676C99.0817 252.481 25.2113 252.481 6.48347 252.481C-15.6942 214.854 69.1329 186.43 106.591 180.617" stroke="#F5F5F5" stroke-width="0.616046" stroke-linecap="round"/>
</svg>
