<svg width="1769" height="1792" viewBox="0 0 1769 1792" fill="none" xmlns="http://www.w3.org/2000/svg">
<path d="M1433.66 423.289L1425.1 430.283L1433.43 440.489L1401.14 466.863L1392.81 456.657L1384.21 463.68L1410.43 495.796L1419.03 488.773L1410.7 478.567L1442.99 452.193L1451.33 462.399L1459.89 455.405L1433.66 423.289ZM1335.01 413.04L1376.98 364.916L1365.59 354.983L1331.46 394.114L1310.59 375.914L1303.93 385.937L1335.01 413.04ZM1275.84 325.115C1271.84 330.564 1269.14 335.892 1267.72 341.098C1266.32 346.28 1266.33 351.123 1267.74 355.63C1269.16 360.093 1272.12 363.978 1276.62 367.284C1281.11 370.571 1285.68 372.252 1290.35 372.325C1295.04 372.373 1299.64 370.951 1304.17 368.058C1308.69 365.165 1312.99 360.933 1317.08 355.36C1321.07 349.911 1323.77 344.596 1325.17 339.414C1326.57 334.233 1326.56 329.402 1325.12 324.92C1323.7 320.414 1320.75 316.517 1316.27 313.229C1311.76 309.923 1307.18 308.243 1302.54 308.188C1297.87 308.115 1293.27 309.525 1288.75 312.417C1284.23 315.31 1279.93 319.543 1275.84 325.115ZM1288.32 334.271C1292.97 327.93 1296.98 323.787 1300.35 321.84C1303.72 319.893 1306.86 319.983 1309.76 322.108C1312.65 324.233 1313.67 327.208 1312.81 331.032C1311.97 334.832 1309.23 339.889 1304.59 346.205C1299.94 352.545 1295.92 356.68 1292.53 358.608C1289.13 360.537 1286.01 360.456 1283.16 358.367C1280.19 356.188 1279.16 353.204 1280.07 349.416C1280.98 345.585 1283.73 340.537 1288.32 334.271ZM1237.63 325.077L1254.53 274.388L1241.33 266.313L1223.74 330.405L1239.7 340.162L1288.65 295.249L1274.97 286.885L1237.63 325.077ZM1210.76 262.831L1203.89 276.55L1184.12 266.652L1179.37 276.128L1199.15 286.026L1191.85 300.611L1167.99 288.671L1163.15 298.353L1200.52 317.056L1229.1 259.954L1191.77 241.271L1188.3 251.592L1210.76 262.831ZM1098.88 217.599L1093.97 233.779L1072.54 227.278L1069.4 237.639L1090.83 244.14L1083.47 268.388L1097.97 272.789L1116.51 211.684L1076.35 199.498L1074.72 210.269L1098.88 217.599ZM1020.66 187.097L1018.35 197.911L1031.24 200.661L1022.54 241.438L1009.65 238.688L1007.33 249.547L1047.88 258.2L1050.2 247.341L1037.32 244.591L1046.02 203.814L1058.9 206.564L1061.21 195.75L1020.66 187.097ZM954.755 197.625C954.381 200.643 954.618 203.349 955.466 205.745C956.314 208.14 957.601 210.235 959.329 212.027C961.056 213.82 963.05 215.336 965.31 216.576L945.395 241.264L962.358 243.369L979.08 220.838L983.332 221.366L980.326 245.598L995.323 247.458L1003.18 184.089L983.25 181.616C974.624 180.545 967.922 181.308 963.143 183.903C958.364 186.498 955.568 191.072 954.755 197.625ZM970.209 199.543C970.587 196.494 971.76 194.396 973.729 193.248C975.671 192.065 978.394 191.691 981.9 192.126L986.883 192.744L984.609 211.078L979.031 210.386C975.769 209.982 973.38 208.911 971.862 207.176C970.344 205.44 969.793 202.895 970.209 199.543ZM909.508 226.149L928.199 226.86L931.036 240.754L946.827 241.355L929.736 176.802L911.413 176.105L889.463 239.171L905.623 239.786L909.508 226.149ZM926.222 215.812L912.411 215.286L920.391 187.327L926.222 215.812ZM793.957 181.458C789.422 182.074 785.654 183.205 782.654 184.852C779.62 186.473 776.928 188.559 774.577 191.11L783.13 198.969C784.671 197.303 786.435 195.916 788.424 194.809C790.408 193.672 792.633 192.936 795.098 192.601C797.746 192.241 800.269 192.673 802.667 193.898C805.061 195.091 807.133 197.228 808.884 200.306C810.631 203.355 811.856 207.466 812.559 212.64C813.249 217.722 813.189 221.962 812.38 225.357C811.535 228.726 810.106 231.323 808.091 233.146C806.071 234.939 803.631 236.03 800.77 236.419C797.605 236.849 794.892 236.613 792.631 235.711C790.369 234.809 788.261 233.778 786.306 232.618L780.682 242.216C783.374 244.237 786.568 245.849 790.265 247.052C793.962 248.254 798.261 248.523 803.161 247.857C808.883 247.08 813.794 245.127 817.894 241.997C821.96 238.841 824.921 234.627 826.778 229.353C828.6 224.053 829.019 217.781 828.035 210.538C827.076 203.477 824.968 197.657 821.711 193.078C818.424 188.503 814.37 185.241 809.549 183.292C804.724 181.313 799.526 180.701 793.957 181.458ZM721.81 229.756C723.287 236.35 725.521 241.893 728.51 246.385C731.493 250.848 735.148 254.026 739.475 255.921C743.766 257.793 748.639 258.117 754.094 256.895C759.519 255.68 763.794 253.337 766.92 249.867C770.039 246.367 771.995 241.963 772.789 236.654C773.582 231.346 773.224 225.32 771.713 218.577C770.236 211.983 768.006 206.455 765.023 201.992C762.04 197.53 758.389 194.366 754.068 192.502C749.74 190.607 744.864 190.267 739.439 191.482C733.984 192.704 729.709 195.047 726.614 198.511C723.488 201.981 721.528 206.37 720.735 211.678C719.941 216.987 720.299 223.013 721.81 229.756ZM736.916 226.372C735.197 218.699 734.712 212.954 735.462 209.134C736.212 205.315 738.34 203.013 741.846 202.227C745.353 201.442 748.264 202.631 750.578 205.795C752.885 208.929 754.895 214.318 756.607 221.961C758.326 229.633 758.796 235.383 758.016 239.209C757.237 243.034 755.123 245.333 751.677 246.106C748.08 246.911 745.155 245.725 742.9 242.548C740.61 239.347 738.615 233.955 736.916 226.372ZM681.598 241.819C680.308 237.717 679.608 234.267 679.501 231.467C679.363 228.677 679.689 226.385 680.477 224.592C681.236 222.807 682.353 221.393 683.827 220.35C685.302 219.306 686.992 218.485 688.896 217.886L691.973 216.918L704.568 256.955L701.492 257.923C699.499 258.55 697.586 258.813 695.752 258.714C693.879 258.595 692.107 257.977 690.435 256.861C688.755 255.715 687.177 253.926 685.703 251.491C684.229 249.057 682.861 245.833 681.598 241.819ZM666.656 246.52C668.213 251.472 670.077 255.554 672.247 258.767C674.408 261.951 676.809 264.416 679.451 266.161C682.064 267.915 684.827 269.074 687.742 269.638C690.656 270.202 693.636 270.311 696.683 269.965C699.729 269.618 702.776 268.965 705.823 268.007L722.26 262.836L703.097 201.924L687.715 206.763C683.818 207.988 680.183 209.583 676.808 211.546C673.394 213.49 670.593 215.997 668.404 219.068C666.176 222.12 664.834 225.89 664.379 230.38C663.915 234.841 664.674 240.221 666.656 246.52ZM632.055 237.894L637.89 252.083L617.437 260.494L621.468 270.294L641.92 261.883L648.123 276.967L623.452 287.112L627.57 297.125L666.217 281.233L641.931 222.176L603.326 238.051L608.833 247.444L632.055 237.894ZM499.002 296.005L504.892 305.362L516.043 298.342L538.256 333.628L527.105 340.648L533.02 350.044L568.111 327.954L562.195 318.558L551.044 325.577L528.832 290.292L539.983 283.272L534.092 273.915L499.002 296.005ZM476.826 392.785L434.036 345.387L422.819 355.513L457.613 394.054L437.06 412.609L446.218 420.416L476.826 392.785ZM382.51 441.154C387.451 445.763 392.423 449.078 397.427 451.1C402.408 453.1 407.219 453.661 411.861 452.782C416.459 451.905 420.665 449.423 424.478 445.336C428.27 441.271 430.477 436.924 431.099 432.295C431.698 427.645 430.827 422.906 428.486 418.076C426.145 413.246 422.448 408.473 417.395 403.759C412.454 399.15 407.493 395.845 402.512 393.845C397.531 391.845 392.731 391.294 388.112 392.194C383.47 393.072 379.253 395.544 375.461 399.609C371.648 403.697 369.441 408.043 368.84 412.65C368.218 417.278 369.078 422.008 371.419 426.838C373.76 431.668 377.457 436.44 382.51 441.154ZM393.07 429.834C387.32 424.471 383.677 420.001 382.14 416.425C380.604 412.85 381.061 409.748 383.512 407.12C385.964 404.492 389.037 403.831 392.734 405.137C396.408 406.422 401.108 409.736 406.835 415.079C412.585 420.442 416.217 424.923 417.733 428.522C419.249 432.12 418.802 435.21 416.393 437.793C413.878 440.488 410.794 441.16 407.14 439.81C403.442 438.46 398.752 435.135 393.07 429.834ZM377.998 479.124L329.619 456.443L320.062 468.621L381.673 493.545L393.221 478.83L354.307 424.984L344.409 437.597L377.998 479.124ZM313.046 498.585L325.875 506.999L313.746 525.491L322.607 531.303L334.736 512.811L348.373 521.756L333.743 544.061L342.797 549.999L365.715 515.058L312.32 480.036L289.427 514.94L299.275 519.581L313.046 498.585ZM255.148 604.431L270.644 611.196L261.685 631.716L271.607 636.049L280.566 615.528L303.789 625.667L309.854 611.776L251.333 586.225L234.539 624.69L245.046 627.569L255.148 604.431ZM215.716 678.546L226.186 682.102L230.423 669.625L269.903 683.033L265.666 695.51L276.179 699.08L289.513 659.818L279 656.248L274.762 668.724L235.282 655.316L239.519 642.84L229.049 639.284L215.716 678.546ZM218.371 745.093C221.322 745.825 224.038 745.913 226.517 745.357C228.997 744.801 231.229 743.772 233.216 742.271C235.202 740.77 236.945 738.971 238.446 736.875L260.581 759.593L264.694 743.003L244.32 723.711L245.351 719.553L269.051 725.429L272.688 710.761L210.709 695.395L205.875 714.892C203.783 723.329 203.741 730.074 205.747 735.128C207.753 740.182 211.961 743.504 218.371 745.093ZM222.118 729.979C219.137 729.239 217.194 727.824 216.288 725.733C215.345 723.664 215.299 720.915 216.149 717.486L217.358 712.612L235.289 717.058L233.937 722.514C233.146 725.704 231.798 727.948 229.894 729.248C227.989 730.548 225.397 730.792 222.118 729.979ZM241.262 793.405L244.215 774.934L258.348 773.787L260.843 758.183L194.704 767.393L191.81 785.5L251.782 814.869L254.334 798.9L241.262 793.405ZM233.009 775.569L230.827 789.217L204.03 777.936L233.009 775.569ZM182.79 902.51C182.84 907.086 183.497 910.965 184.76 914.145C185.993 917.357 187.73 920.287 189.971 922.934L198.827 915.419C197.364 913.685 196.207 911.762 195.354 909.652C194.471 907.542 194.016 905.244 193.988 902.756C193.959 900.084 194.7 897.634 196.211 895.406C197.692 893.178 200.068 891.386 203.34 890.029C206.581 888.672 210.812 887.966 216.033 887.908C221.162 887.852 225.362 888.436 228.631 889.659C231.87 890.914 234.27 892.654 235.83 894.879C237.359 897.104 238.14 899.661 238.172 902.548C238.207 905.742 237.637 908.405 236.462 910.537C235.288 912.67 234.004 914.634 232.611 916.431L241.439 923.199C243.778 920.778 245.772 917.807 247.423 914.287C249.074 910.768 249.872 906.535 249.818 901.591C249.755 895.817 248.424 890.702 245.825 886.246C243.197 881.82 239.381 878.361 234.377 875.866C229.343 873.403 223.172 872.211 215.862 872.291C208.737 872.369 202.701 873.741 197.754 876.406C192.807 879.102 189.069 882.721 186.539 887.264C183.978 891.808 182.728 896.89 182.79 902.51ZM221.748 980.058C228.474 979.414 234.252 977.888 239.082 975.481C243.881 973.077 247.49 969.846 249.908 965.788C252.3 961.763 253.228 956.969 252.695 951.404C252.164 945.87 250.372 941.337 247.318 937.804C244.233 934.273 240.107 931.784 234.939 930.335C229.77 928.887 223.747 928.493 216.868 929.152C210.141 929.797 204.379 931.321 199.58 933.725C194.781 936.129 191.187 939.359 188.799 943.414C186.38 947.472 185.436 952.268 185.966 957.802C186.5 963.366 188.292 967.9 191.343 971.403C194.397 974.936 198.508 977.427 203.677 978.875C208.845 980.324 214.869 980.718 221.748 980.058ZM220.271 964.649C212.444 965.399 206.682 965.165 202.986 963.946C199.29 962.726 197.27 960.328 196.927 956.751C196.584 953.174 198.127 950.434 201.554 948.532C204.952 946.632 210.548 945.309 218.345 944.562C226.172 943.811 231.935 944.061 235.634 945.311C239.333 946.561 241.351 948.944 241.688 952.46C242.04 956.129 240.499 958.884 237.065 960.725C233.604 962.599 228.006 963.907 220.271 964.649ZM228.699 1021.45C224.468 1022.22 220.957 1022.49 218.166 1022.24C215.38 1022.03 213.147 1021.42 211.466 1020.42C209.79 1019.44 208.527 1018.16 207.675 1016.56C206.824 1014.97 206.22 1013.19 205.863 1011.23L205.287 1008.05L246.582 1000.55L247.159 1003.73C247.532 1005.78 247.555 1007.71 247.228 1009.52C246.876 1011.36 246.042 1013.04 244.726 1014.56C243.379 1016.09 241.407 1017.43 238.808 1018.59C236.209 1019.75 232.839 1020.7 228.699 1021.45ZM231.498 1036.87C236.606 1035.94 240.889 1034.6 244.348 1032.85C247.776 1031.1 250.521 1029.02 252.582 1026.62C254.648 1024.25 256.143 1021.65 257.067 1018.83C257.99 1016.01 258.47 1013.07 258.506 1010C258.543 1006.93 258.275 1003.83 257.704 1000.69L254.625 983.733L191.798 995.145L194.679 1011.01C195.41 1015.03 196.538 1018.84 198.065 1022.43C199.567 1026.06 201.705 1029.15 204.479 1031.71C207.229 1034.3 210.803 1036.1 215.201 1037.11C219.569 1038.13 225.001 1038.05 231.498 1036.87ZM218.566 1070.05L233.378 1066.05L239.139 1087.41L249.37 1084.65L243.609 1063.29L259.355 1059.05L266.304 1084.8L276.757 1081.98L265.872 1041.64L204.221 1058.27L215.094 1098.57L225.107 1094.29L218.566 1070.05ZM258.817 1209.21L268.872 1204.61L263.389 1192.63L301.302 1175.28L306.785 1187.26L316.882 1182.64L299.627 1144.94L289.531 1149.56L295.014 1161.54L257.1 1178.89L251.617 1166.91L241.563 1171.51L258.817 1209.21ZM351.695 1244.07L298.924 1280.02L307.432 1292.51L350.342 1263.28L365.933 1286.16L374.912 1278.14L351.695 1244.07ZM386.741 1344.09C391.983 1339.82 395.948 1335.35 398.634 1330.67C401.297 1326.01 402.511 1321.32 402.277 1316.61C402.037 1311.93 400.154 1307.42 396.627 1303.09C393.119 1298.78 389.115 1295.99 384.615 1294.75C380.091 1293.52 375.277 1293.73 370.172 1295.39C365.067 1297.05 359.834 1300.05 354.472 1304.42C349.23 1308.68 345.277 1313.14 342.615 1317.8C339.952 1322.46 338.749 1327.14 339.008 1331.84C339.243 1336.56 341.114 1341.07 344.622 1345.39C348.149 1349.72 352.153 1352.5 356.634 1353.73C361.134 1354.98 365.937 1354.77 371.042 1353.12C376.146 1351.46 381.38 1348.45 386.741 1344.09ZM376.973 1332.08C370.873 1337.04 365.947 1340.04 362.194 1341.07C358.442 1342.1 355.432 1341.23 353.164 1338.44C350.897 1335.65 350.663 1332.52 352.462 1329.03C354.238 1325.57 358.164 1321.37 364.24 1316.42C370.34 1311.46 375.276 1308.48 379.048 1307.47C382.82 1306.46 385.82 1307.33 388.049 1310.07C390.374 1312.92 390.618 1316.07 388.78 1319.51C386.937 1322.99 383.002 1327.18 376.973 1332.08ZM423.719 1353.76L394.604 1398.56L405.353 1409.7L438.509 1352.1L425.521 1338.64L366.836 1369.79L377.969 1381.32L423.719 1353.76ZM434.05 1420.77L444.152 1409.22L460.796 1423.78L467.773 1415.81L451.129 1401.24L461.867 1388.97L481.944 1406.53L489.073 1398.38L457.622 1370.87L415.578 1418.93L446.994 1446.41L452.948 1437.3L434.05 1420.77ZM530.89 1492.7L539.729 1478.29L558.817 1489.99L564.477 1480.76L545.389 1469.06L558.636 1447.46L545.714 1439.53L512.333 1493.97L548.113 1515.91L552.413 1505.9L530.89 1492.7ZM598.859 1541.98L603.825 1532.1L592.052 1526.19L610.778 1488.93L622.551 1494.85L627.538 1484.93L590.49 1466.31L585.504 1476.23L597.276 1482.15L578.55 1519.4L566.777 1513.48L561.811 1523.36L598.859 1541.98ZM665.144 1548.53C666.275 1545.71 666.736 1543.03 666.527 1540.5C666.318 1537.96 665.607 1535.61 664.394 1533.44C663.181 1531.26 661.64 1529.29 659.77 1527.51L685.323 1508.72L669.458 1502.36L647.542 1519.88L643.565 1518.29L652.652 1495.62L638.625 1490L614.863 1549.27L633.508 1556.74C641.576 1559.98 648.251 1560.95 653.534 1559.66C658.816 1558.37 662.686 1554.66 665.144 1548.53ZM650.69 1542.73C649.547 1545.59 647.877 1547.32 645.681 1547.92C643.501 1548.57 640.773 1548.24 637.494 1546.93L632.833 1545.06L639.708 1527.91L644.925 1530C647.975 1531.22 650.013 1532.87 651.038 1534.93C652.063 1537 651.947 1539.6 650.69 1542.73ZM716.157 1532.51L698.267 1527.04L699.075 1512.88L683.962 1508.27L683.989 1575.04L701.526 1580.4L738.863 1525.04L723.397 1520.31L716.157 1532.51ZM697.355 1538.23L710.574 1542.27L695.714 1567.26L697.355 1538.23ZM816.295 1605.36C820.836 1605.93 824.767 1605.81 828.09 1604.99C831.44 1604.21 834.579 1602.88 837.507 1601.02L831.266 1591.23C829.348 1592.44 827.286 1593.33 825.08 1593.88C822.87 1594.47 820.53 1594.61 818.062 1594.3C815.411 1593.96 813.084 1592.9 811.082 1591.1C809.077 1589.33 807.624 1586.73 806.725 1583.3C805.822 1579.91 805.698 1575.62 806.351 1570.44C806.993 1565.35 808.142 1561.27 809.799 1558.2C811.483 1555.16 813.533 1553.02 815.949 1551.78C818.362 1550.56 821.001 1550.14 823.866 1550.5C827.035 1550.9 829.596 1551.82 831.548 1553.28C833.501 1554.73 835.273 1556.27 836.863 1557.9L844.77 1550.07C842.689 1547.42 840.017 1545.04 836.754 1542.93C833.492 1540.82 829.408 1539.45 824.501 1538.83C818.773 1538.11 813.524 1538.73 808.756 1540.7C804.014 1542.7 800.068 1546.01 796.916 1550.63C793.79 1555.28 791.77 1561.23 790.856 1568.48C789.964 1575.55 790.502 1581.72 792.469 1586.98C794.467 1592.25 797.544 1596.45 801.701 1599.57C805.854 1602.73 810.719 1604.66 816.295 1605.36ZM898.474 1577.23C898.74 1570.48 898.005 1564.55 896.27 1559.44C894.533 1554.36 891.817 1550.35 888.121 1547.41C884.455 1544.5 879.829 1542.93 874.243 1542.71C868.688 1542.49 863.955 1543.66 860.043 1546.21C856.13 1548.79 853.108 1552.55 850.978 1557.47C848.847 1562.4 847.646 1568.32 847.374 1575.22C847.109 1581.97 847.844 1587.89 849.581 1592.97C851.317 1598.05 854.034 1602.04 857.731 1604.95C861.427 1607.9 866.052 1609.48 871.607 1609.7C877.193 1609.92 881.926 1608.75 885.808 1606.2C889.72 1603.65 892.741 1599.91 894.871 1594.98C897.002 1590.05 898.203 1584.14 898.474 1577.23ZM883.006 1576.62C882.697 1584.48 881.69 1590.16 879.984 1593.66C878.279 1597.16 875.631 1598.83 872.04 1598.69C868.449 1598.55 865.942 1596.65 864.518 1593C863.093 1589.38 862.534 1583.66 862.842 1575.83C863.152 1567.97 864.174 1562.3 865.91 1558.8C867.646 1555.3 870.279 1553.62 873.809 1553.76C877.491 1553.91 880.014 1555.8 881.377 1559.45C882.769 1563.14 883.312 1568.86 883.006 1576.62ZM940.497 1575.83C940.699 1580.12 940.496 1583.64 939.886 1586.37C939.308 1589.1 938.409 1591.24 937.189 1592.77C936.001 1594.3 934.56 1595.38 932.868 1596.02C931.176 1596.65 929.333 1597.01 927.339 1597.11L924.117 1597.26L922.145 1555.33L925.366 1555.18C927.452 1555.08 929.37 1555.32 931.118 1555.88C932.899 1556.47 934.455 1557.52 935.786 1559.03C937.119 1560.56 938.188 1562.7 938.993 1565.43C939.798 1568.16 940.299 1571.62 940.497 1575.83ZM956.144 1575.09C955.9 1569.9 955.139 1565.48 953.859 1561.82C952.582 1558.19 950.888 1555.2 948.778 1552.84C946.699 1550.47 944.322 1548.65 941.648 1547.36C938.974 1546.07 936.12 1545.21 933.086 1544.77C930.051 1544.32 926.939 1544.18 923.748 1544.33L906.536 1545.14L909.538 1608.92L925.645 1608.17C929.726 1607.97 933.648 1607.36 937.412 1606.32C941.208 1605.31 944.556 1603.6 947.456 1601.19C950.388 1598.81 952.646 1595.5 954.231 1591.28C955.817 1587.08 956.454 1581.69 956.144 1575.09ZM987.445 1592.22L985.406 1577.02L1007.32 1574.08L1005.92 1563.58L983.998 1566.52L981.831 1550.35L1008.27 1546.81L1006.83 1536.08L965.415 1541.63L973.899 1604.92L1015.27 1599.37L1012.33 1588.89L987.445 1592.22ZM1130.84 1569.9L1127.53 1559.35L1114.96 1563.29L1102.49 1523.5L1115.06 1519.56L1111.74 1508.97L1072.17 1521.37L1075.49 1531.96L1088.07 1528.02L1100.54 1567.81L1087.96 1571.75L1091.27 1582.3L1130.84 1569.9ZM1177.02 1482.08L1206.18 1538.89L1219.62 1531.99L1195.92 1485.79L1220.55 1473.15L1213.71 1463.25L1177.02 1482.08ZM1280.61 1459.58C1277.02 1453.85 1273.06 1449.37 1268.75 1446.13C1264.45 1442.92 1259.94 1441.14 1255.23 1440.8C1250.56 1440.47 1245.86 1441.78 1241.12 1444.75C1236.41 1447.71 1233.17 1451.34 1231.38 1455.66C1229.6 1460 1229.23 1464.8 1230.25 1470.07C1231.27 1475.34 1233.62 1480.9 1237.29 1486.76C1240.88 1492.48 1244.82 1496.95 1249.12 1500.16C1253.42 1503.37 1257.92 1505.14 1262.62 1505.46C1267.33 1505.8 1272.04 1504.49 1276.75 1501.54C1281.48 1498.57 1284.73 1494.93 1286.5 1490.64C1288.29 1486.32 1288.67 1481.53 1287.65 1476.26C1286.63 1470.99 1284.28 1465.43 1280.61 1459.58ZM1267.5 1467.8C1271.67 1474.47 1274.05 1479.72 1274.61 1483.57C1275.18 1487.42 1273.94 1490.3 1270.9 1492.21C1267.85 1494.12 1264.71 1493.97 1261.48 1491.76C1258.25 1489.57 1254.56 1485.16 1250.4 1478.53C1246.22 1471.87 1243.86 1466.6 1243.32 1462.74C1242.78 1458.87 1244.01 1456 1247 1454.12C1250.12 1452.16 1253.28 1452.31 1256.46 1454.55C1259.69 1456.8 1263.37 1461.22 1267.5 1467.8ZM1294.72 1424.01L1335.68 1458.32L1348.04 1448.99L1294.85 1409.13L1279.93 1420.4L1303.76 1482.41L1316.56 1472.75L1294.72 1424.01ZM1362.52 1421.75L1352.25 1410.35L1368.69 1395.55L1361.6 1387.68L1345.16 1402.47L1334.25 1390.35L1354.08 1372.5L1346.84 1364.45L1315.78 1392.41L1358.5 1439.87L1389.52 1411.95L1381.18 1404.95L1362.52 1421.75ZM1445.43 1333.96L1432.15 1323.5L1446 1305.91L1437.49 1299.21L1423.64 1316.8L1403.73 1301.13L1394.35 1313.04L1444.53 1352.54L1470.49 1319.56L1461.05 1314.12L1445.43 1333.96ZM1502.3 1272.15L1493.06 1266.07L1485.82 1277.08L1450.99 1254.16L1458.23 1243.15L1448.95 1237.05L1426.16 1271.69L1435.44 1277.79L1442.68 1266.78L1477.51 1289.7L1470.27 1300.71L1479.5 1306.79L1502.3 1272.15ZM1516.48 1207.07C1513.81 1205.62 1511.2 1204.85 1508.66 1204.76C1506.13 1204.68 1503.71 1205.11 1501.41 1206.06C1499.11 1207.02 1496.97 1208.32 1494.99 1209.97L1479.28 1182.41L1471.12 1197.43L1485.99 1221.23L1483.94 1225L1462.48 1213.34L1455.27 1226.62L1511.39 1257.1L1520.97 1239.44C1525.12 1231.8 1526.86 1225.29 1526.19 1219.89C1525.52 1214.49 1522.29 1210.22 1516.48 1207.07ZM1509.05 1220.75C1511.75 1222.22 1513.28 1224.08 1513.63 1226.33C1514.02 1228.57 1513.37 1231.24 1511.68 1234.35L1509.29 1238.76L1493.05 1229.94L1495.73 1225C1497.3 1222.12 1499.17 1220.28 1501.34 1219.5C1503.51 1218.73 1506.08 1219.14 1509.05 1220.75ZM1506.49 1154.56L1498.98 1171.69L1485.02 1169.24L1478.67 1183.71L1545 1191.46L1552.36 1174.66L1501.72 1131.14L1495.23 1145.95L1506.49 1154.56ZM1509.99 1173.9L1515.54 1161.24L1538.63 1178.91L1509.99 1173.9ZM1590.6 1063.77C1591.71 1059.33 1592.05 1055.41 1591.63 1052.01C1591.25 1048.59 1590.31 1045.32 1588.81 1042.19L1578.35 1047.22C1579.32 1049.27 1579.96 1051.42 1580.25 1053.68C1580.57 1055.94 1580.43 1058.28 1579.83 1060.7C1579.18 1063.29 1577.84 1065.47 1575.82 1067.25C1573.82 1069.03 1571.07 1070.16 1567.56 1070.65C1564.08 1071.14 1559.81 1070.76 1554.75 1069.49C1549.77 1068.25 1545.85 1066.62 1543 1064.61C1540.18 1062.58 1538.3 1060.29 1537.35 1057.75C1536.44 1055.21 1536.33 1052.53 1537.03 1049.73C1537.8 1046.63 1539.02 1044.2 1540.7 1042.44C1542.37 1040.67 1544.11 1039.09 1545.91 1037.71L1539.08 1028.93C1536.21 1030.68 1533.53 1033.05 1531.04 1036.04C1528.55 1039.03 1526.71 1042.92 1525.51 1047.72C1524.12 1053.32 1524.11 1058.6 1525.5 1063.57C1526.93 1068.52 1529.74 1072.83 1533.95 1076.51C1538.2 1080.16 1543.87 1082.88 1550.96 1084.65C1557.88 1086.37 1564.06 1086.57 1569.52 1085.24C1574.99 1083.88 1579.52 1081.33 1583.12 1077.57C1586.75 1073.82 1589.24 1069.22 1590.6 1063.77ZM1572.51 978.893C1565.84 977.817 1559.86 977.832 1554.58 978.94C1549.33 980.053 1545.02 982.266 1541.65 985.581C1538.32 988.87 1536.21 993.274 1535.32 998.793C1534.44 1004.28 1535.02 1009.12 1537.09 1013.31C1539.18 1017.51 1542.54 1020.96 1547.18 1023.67C1551.81 1026.37 1557.54 1028.28 1564.36 1029.38C1571.03 1030.46 1576.99 1030.44 1582.24 1029.33C1587.49 1028.21 1591.79 1026 1595.12 1022.68C1598.49 1019.36 1600.61 1014.96 1601.5 1009.47C1602.39 1003.95 1601.8 999.114 1599.74 994.954C1597.68 990.764 1594.33 987.314 1589.69 984.606C1585.06 981.899 1579.33 979.994 1572.51 978.893ZM1570.04 994.176C1577.8 995.428 1583.32 997.112 1586.59 999.226C1589.85 1001.34 1591.2 1004.17 1590.63 1007.72C1590.06 1011.27 1587.87 1013.53 1584.08 1014.5C1580.31 1015.48 1574.56 1015.35 1566.83 1014.1C1559.06 1012.84 1553.55 1011.15 1550.29 1009C1547.03 1006.86 1545.68 1004.04 1546.24 1000.55C1546.83 996.916 1549.01 994.64 1552.8 993.727C1556.62 992.788 1562.37 992.938 1570.04 994.176ZM1576.23 937.065C1580.52 937.389 1583.98 938.02 1586.62 938.958C1589.26 939.866 1591.27 941.018 1592.64 942.416C1594.02 943.782 1594.92 945.344 1595.34 947.101C1595.76 948.857 1595.89 950.731 1595.74 952.722L1595.5 955.938L1553.65 952.78L1553.89 949.564C1554.05 947.481 1554.51 945.607 1555.29 943.94C1556.09 942.245 1557.32 940.829 1558.98 939.691C1560.67 938.555 1562.92 937.755 1565.72 937.289C1568.53 936.823 1572.03 936.748 1576.23 937.065ZM1577.41 921.445C1572.23 921.055 1567.75 921.271 1563.96 922.094C1560.2 922.919 1557.02 924.235 1554.42 926.04C1551.82 927.816 1549.72 929.952 1548.11 932.449C1546.51 934.946 1545.3 937.673 1544.49 940.631C1543.69 943.588 1543.16 946.66 1542.92 949.845L1541.62 967.027L1605.3 971.832L1606.51 955.752C1606.82 951.679 1606.69 947.711 1606.12 943.848C1605.58 939.957 1604.29 936.426 1602.25 933.253C1600.24 930.052 1597.24 927.408 1593.24 925.319C1589.27 923.233 1583.99 921.942 1577.41 921.445ZM1598.27 892.548L1582.93 892.693L1582.72 870.579L1572.12 870.679L1572.33 892.793L1556.02 892.947L1555.77 866.273L1544.94 866.375L1545.34 908.16L1609.19 907.557L1608.8 865.818L1598.03 867.44L1598.27 892.548Z" fill="#822300"/>
</svg>
