<svg width="1703" height="1682" viewBox="0 0 1703 1682" fill="none" xmlns="http://www.w3.org/2000/svg">
<path d="M979.439 234.221L977.589 243.482L964.351 240.837L955.568 284.796L968.806 287.441L966.955 296.703L928.101 288.94L929.952 279.678L943.189 282.323L951.972 238.364L938.735 235.719L940.585 226.458L979.439 234.221ZM1036.75 317.702L1060.44 258.551L1072.16 263.244L1052.27 312.9L1078.36 323.347L1073.32 332.346L1036.75 317.702ZM1139.97 329.901C1136.96 335.814 1133.48 340.576 1129.54 344.188C1125.64 347.787 1121.42 349.996 1116.87 350.815C1112.33 351.607 1107.64 350.77 1102.79 348.304C1097.97 345.852 1094.52 342.579 1092.43 338.484C1090.39 334.376 1089.65 329.694 1090.23 324.437C1090.84 319.166 1092.69 313.506 1095.77 307.457C1098.78 301.544 1102.23 296.789 1106.13 293.19C1110.07 289.578 1114.31 287.376 1118.85 286.584C1123.43 285.779 1128.13 286.602 1132.94 289.054C1137.79 291.52 1141.24 294.793 1143.3 298.874C1145.36 302.954 1146.08 307.63 1145.47 312.9C1144.88 318.185 1143.05 323.851 1139.97 329.901ZM1128.39 324.008C1132.04 316.836 1133.92 311.108 1134.03 306.823C1134.19 302.525 1132.39 299.421 1128.64 297.513C1124.89 295.604 1121.31 295.97 1117.9 298.61C1114.51 301.265 1111 306.178 1107.35 313.35C1103.68 320.549 1101.81 326.298 1101.72 330.597C1101.65 334.868 1103.45 337.938 1107.12 339.804C1110.92 341.741 1114.5 341.375 1117.86 338.706C1121.24 336.052 1124.75 331.152 1128.39 324.008ZM1157.36 365.264L1197.23 327.858L1208.15 334.727L1157.76 378.305L1145.04 370.307L1162.6 306.071L1173.95 313.211L1157.36 365.264ZM1225.49 359.313L1214.88 373.179L1232.81 386.9L1227.23 394.181L1209.31 380.46L1198.05 395.168L1219.82 411.828L1214.19 419.182L1182.4 394.849L1221.12 344.251L1252.66 368.388L1245.98 374.994L1225.49 359.313ZM1315.39 441.241L1301.43 453.764L1316.97 471.081L1310.04 477.296L1294.5 459.98L1274.89 477.58L1266.46 468.185L1313.88 425.63L1340.84 455.668L1333.02 460.889L1315.39 441.241ZM1375.5 501.373L1367.91 506.994L1359.87 496.147L1323.85 522.828L1331.89 533.676L1324.3 539.297L1300.71 507.458L1308.3 501.836L1316.34 512.684L1352.36 486.003L1344.33 475.155L1351.92 469.534L1375.5 501.373ZM1393.67 565.978C1391.04 567.565 1388.43 568.428 1385.82 568.567C1383.23 568.732 1380.72 568.325 1378.3 567.347C1375.9 566.394 1373.66 565.036 1371.59 563.272L1357.19 592.363L1349.71 579.979L1363.66 553.962L1360.66 548.992L1338.92 562.111L1332.42 551.343L1386.97 518.414L1396.66 534.467C1401 541.646 1402.94 547.864 1402.49 553.123C1402.06 558.407 1399.12 562.692 1393.67 565.978ZM1386.91 554.776C1389.86 552.998 1391.46 550.866 1391.71 548.379C1392 545.876 1391.1 542.903 1389.02 539.458L1385.66 533.897L1368.31 544.373L1371.88 550.289C1373.8 553.471 1375.99 555.488 1378.44 556.34C1380.91 557.218 1383.73 556.697 1386.91 554.776ZM1387.07 620.716L1377.99 601.823L1363.11 604.578L1357.47 592.827L1423.54 583.205L1430.24 597.157L1381.44 642.698L1375.63 630.614L1387.07 620.716ZM1387.48 599.766L1394.57 614.507L1418.28 594.065L1387.48 599.766ZM1471.75 709.946C1472.87 714.226 1473.25 717.999 1472.89 721.266C1472.57 724.525 1471.69 727.688 1470.27 730.757L1461.3 726.477C1462.33 724.336 1462.95 722.11 1463.18 719.799C1463.41 717.517 1463.21 715.187 1462.59 712.809C1461.85 709.956 1460.41 707.523 1458.26 705.511C1456.13 703.528 1453.19 702.246 1449.45 701.665C1445.75 701.106 1441.17 701.539 1435.7 702.965C1430.32 704.367 1426.14 706.185 1423.17 708.42C1420.21 710.685 1418.26 713.207 1417.33 715.988C1416.45 718.79 1416.4 721.707 1417.19 724.739C1418.02 727.949 1419.28 730.462 1420.96 732.278C1422.64 734.094 1424.37 735.674 1426.15 737.02L1420.38 744.665C1417.68 743.053 1415.14 740.81 1412.77 737.936C1410.41 735.091 1408.63 731.35 1407.42 726.714C1406.02 721.334 1406 716.213 1407.36 711.349C1408.73 706.486 1411.49 702.227 1415.65 698.572C1419.81 694.918 1425.4 692.176 1432.41 690.348C1439.31 688.551 1445.45 688.266 1450.85 689.493C1456.29 690.743 1460.79 693.156 1464.35 696.734C1467.93 700.341 1470.39 704.745 1471.75 709.946ZM1454.03 794.708C1447.47 795.742 1441.58 795.723 1436.34 794.653C1431.14 793.608 1426.87 791.483 1423.54 788.278C1420.23 785.068 1418.15 780.778 1417.31 775.408C1416.47 770.068 1417.09 765.352 1419.18 761.26C1421.31 757.193 1424.66 753.849 1429.26 751.228C1433.89 748.632 1439.55 746.805 1446.26 745.747C1452.81 744.714 1458.69 744.719 1463.89 745.764C1469.13 746.834 1473.4 748.975 1476.7 752.185C1480.04 755.42 1482.13 759.708 1482.98 765.047C1483.82 770.417 1483.2 775.133 1481.1 779.195C1479.01 783.257 1475.65 786.586 1471.02 789.182C1466.4 791.808 1460.73 793.65 1454.03 794.708ZM1452 781.874C1459.95 780.62 1465.69 778.781 1469.23 776.358C1472.8 773.96 1474.26 770.683 1473.6 766.526C1472.95 762.37 1470.55 759.685 1466.41 758.473C1462.27 757.291 1456.23 757.327 1448.28 758.581C1440.3 759.84 1434.55 761.696 1431.02 764.15C1427.52 766.599 1426.09 769.856 1426.73 773.922C1427.39 778.139 1429.79 780.823 1433.92 781.975C1438.06 783.157 1444.08 783.124 1452 781.874ZM1457.28 839.638C1462 839.371 1465.79 838.712 1468.66 837.658C1471.52 836.635 1473.68 835.329 1475.13 833.74C1476.61 832.149 1477.57 830.388 1478.01 828.456C1478.46 826.523 1478.62 824.53 1478.51 822.475L1478.24 817.783L1433.35 820.314L1433.61 825.051C1433.73 827.198 1434.19 829.203 1434.97 831.066C1435.75 832.96 1437.01 834.596 1438.75 835.975C1440.52 837.352 1442.9 838.371 1445.89 839.033C1448.91 839.694 1452.71 839.895 1457.28 839.638ZM1458.02 852.793C1452.81 853.087 1448.31 852.771 1444.54 851.846C1440.76 850.951 1437.6 849.591 1435.03 847.767C1432.5 845.941 1430.47 843.779 1428.94 841.281C1427.42 838.813 1426.29 836.139 1425.54 833.259C1424.82 830.407 1424.38 827.494 1424.22 824.52L1423.3 808.236L1486.91 804.651L1487.77 819.83C1487.99 823.786 1487.78 827.644 1487.13 831.402C1486.51 835.16 1485.17 838.573 1483.09 841.643C1481.02 844.744 1477.97 847.285 1473.92 849.267C1469.91 851.246 1464.61 852.422 1458.02 852.793ZM1479.43 882.27L1461.99 881.48L1460.96 904.032L1451.81 903.618L1452.83 881.066L1434.32 880.228L1433.09 907.613L1423.83 907.194L1425.64 867.199L1489.3 870.08L1487.5 909.753L1478.26 908.043L1479.43 882.27ZM1465.35 1029.18L1456.21 1026.83L1459.56 1013.76L1416.14 1002.61L1412.79 1015.68L1403.64 1013.33L1413.49 974.957L1422.64 977.306L1419.28 990.381L1462.7 1001.53L1466.06 988.456L1475.21 990.806L1465.35 1029.18ZM1378.13 1081.58L1435.31 1109.71L1429.73 1121.03L1381.74 1097.42L1369.33 1122.64L1360.74 1116.92L1378.13 1081.58ZM1357.34 1183.56C1351.72 1180.04 1347.28 1176.15 1344.03 1171.91C1340.79 1167.71 1338.97 1163.3 1338.55 1158.69C1338.17 1154.1 1339.42 1149.5 1342.3 1144.9C1345.17 1140.31 1348.74 1137.17 1353 1135.45C1357.27 1133.78 1362 1133.46 1367.19 1134.5C1372.38 1135.58 1377.86 1137.92 1383.61 1141.52C1389.23 1145.04 1393.66 1148.9 1396.9 1153.11C1400.15 1157.35 1401.97 1161.77 1402.36 1166.36C1402.75 1170.99 1401.52 1175.6 1398.65 1180.18C1395.76 1184.79 1392.2 1187.94 1387.95 1189.63C1383.7 1191.32 1378.98 1191.62 1373.79 1190.54C1368.57 1189.49 1363.09 1187.16 1357.34 1183.56ZM1364.23 1172.55C1371.05 1176.82 1376.59 1179.2 1380.85 1179.69C1385.12 1180.23 1388.37 1178.71 1390.6 1175.14C1392.84 1171.58 1392.79 1167.98 1390.46 1164.35C1388.12 1160.74 1383.54 1156.8 1376.72 1152.53C1369.87 1148.24 1364.31 1145.87 1360.03 1145.4C1355.79 1144.95 1352.57 1146.47 1350.39 1149.96C1348.12 1153.58 1348.17 1157.17 1350.53 1160.76C1352.87 1164.36 1357.44 1168.29 1364.23 1172.55ZM1320.22 1197.64L1353.4 1241.08L1345.47 1251.25L1307.2 1196.72L1316.45 1184.88L1378.58 1208.83L1370.33 1219.4L1320.22 1197.64ZM1318.62 1266.3L1306.04 1254.19L1290.39 1270.46L1283.78 1264.1L1299.44 1247.84L1286.09 1234.99L1267.08 1254.74L1260.41 1248.32L1288.17 1219.48L1334.08 1263.66L1306.54 1292.27L1300.73 1284.89L1318.62 1266.3ZM1225.68 1346.18L1215.09 1330.7L1195.89 1343.84L1190.64 1336.16L1209.84 1323.02L1194.95 1301.28L1205.37 1294.15L1241.36 1346.73L1208.05 1369.52L1203.9 1361.09L1225.68 1346.18ZM1157.72 1397.84L1153.19 1389.55L1165.04 1383.08L1143.54 1343.74L1131.69 1350.22L1127.17 1341.93L1161.93 1322.93L1166.46 1331.21L1154.62 1337.69L1176.12 1377.02L1187.96 1370.55L1192.49 1378.84L1157.72 1397.84ZM1090.98 1406.87C1089.78 1404.05 1089.29 1401.33 1089.52 1398.73C1089.73 1396.14 1090.48 1393.72 1091.79 1391.46C1093.07 1389.22 1094.73 1387.19 1096.77 1385.39L1070.01 1367.03L1083.32 1361.37L1107.11 1378.85L1112.45 1376.58L1102.53 1353.22L1114.11 1348.3L1139.01 1406.95L1121.75 1414.28C1114.03 1417.56 1107.6 1418.6 1102.46 1417.42C1097.29 1416.24 1093.46 1412.73 1090.98 1406.87ZM1103.02 1401.76C1104.37 1404.93 1106.25 1406.81 1108.68 1407.42C1111.11 1408.05 1114.18 1407.58 1117.89 1406.01L1123.87 1403.47L1115.95 1384.81L1109.58 1387.51C1106.16 1388.96 1103.86 1390.84 1102.67 1393.15C1101.45 1395.47 1101.57 1398.34 1103.02 1401.76ZM1037.66 1392.55L1057.66 1386.27L1057.07 1371.15L1069.51 1367.24L1069.57 1434.01L1054.8 1438.64L1016.72 1383.82L1029.51 1379.8L1037.66 1392.55ZM1058.34 1395.95L1042.74 1400.85L1059.57 1427.25L1058.34 1395.95ZM937.362 1463.62C932.967 1464.12 929.178 1463.96 925.995 1463.15C922.814 1462.37 919.806 1461.06 916.969 1459.22L922.473 1450.94C924.447 1452.26 926.562 1453.19 928.819 1453.74C931.046 1454.29 933.38 1454.43 935.821 1454.15C938.751 1453.82 941.363 1452.73 943.658 1450.89C945.923 1449.06 947.606 1446.33 948.71 1442.72C949.786 1439.13 950.004 1434.53 949.366 1428.92C948.737 1423.39 947.527 1419 945.734 1415.74C943.911 1412.49 941.689 1410.21 939.067 1408.9C936.418 1407.62 933.537 1407.16 930.424 1407.51C927.128 1407.89 924.463 1408.78 922.428 1410.19C920.393 1411.59 918.584 1413.08 917.001 1414.65L910.247 1407.86C912.225 1405.41 914.804 1403.22 917.984 1401.28C921.133 1399.34 925.088 1398.11 929.849 1397.56C935.373 1396.94 940.445 1397.64 945.067 1399.68C949.689 1401.72 953.515 1405.06 956.546 1409.69C959.576 1414.32 961.501 1420.24 962.32 1427.44C963.126 1434.52 962.54 1440.65 960.562 1445.82C958.557 1451.02 955.532 1455.14 951.487 1458.16C947.411 1461.19 942.703 1463.01 937.362 1463.62ZM856.087 1434.32C855.962 1427.68 856.789 1421.85 858.568 1416.8C860.316 1411.8 863.007 1407.86 866.639 1404.99C870.272 1402.16 874.806 1400.69 880.242 1400.59C885.647 1400.49 890.233 1401.75 893.999 1404.39C897.736 1407.05 900.588 1410.84 902.554 1415.74C904.49 1420.68 905.523 1426.55 905.651 1433.33C905.776 1439.97 904.964 1445.79 903.215 1450.8C901.437 1455.84 898.731 1459.78 895.098 1462.61C891.435 1465.48 886.901 1466.96 881.496 1467.06C876.06 1467.16 871.475 1465.9 867.739 1463.26C864.002 1460.63 861.166 1456.85 859.23 1451.91C857.263 1446.97 856.215 1441.1 856.087 1434.32ZM869.077 1434.07C869.229 1442.12 870.263 1448.06 872.178 1451.89C874.063 1455.76 877.11 1457.65 881.317 1457.57C885.524 1457.49 888.512 1455.48 890.281 1451.55C892.019 1447.62 892.813 1441.63 892.661 1433.58C892.508 1425.5 891.459 1419.55 889.513 1415.71C887.567 1411.91 884.537 1410.05 880.422 1410.13C876.153 1410.21 873.165 1412.21 871.458 1416.15C869.719 1420.08 868.926 1426.06 869.077 1434.07ZM811.319 1431.63C810.965 1436.35 811.123 1440.2 811.792 1443.17C812.431 1446.15 813.444 1448.46 814.83 1450.1C816.213 1451.78 817.834 1452.96 819.691 1453.65C821.549 1454.35 823.503 1454.77 825.555 1454.93L830.242 1455.28L833.609 1410.44L828.877 1410.08C826.733 1409.92 824.687 1410.11 822.737 1410.64C820.757 1411.17 818.97 1412.2 817.375 1413.75C815.779 1415.32 814.456 1417.55 813.408 1420.43C812.358 1423.33 811.662 1427.07 811.319 1431.63ZM798.18 1430.65C798.571 1425.44 799.472 1421.03 800.884 1417.41C802.265 1413.78 804.027 1410.82 806.171 1408.52C808.313 1406.24 810.723 1404.52 813.399 1403.33C816.044 1402.14 818.844 1401.37 821.797 1401C824.718 1400.67 827.664 1400.61 830.635 1400.84L846.898 1402.06L842.126 1465.6L826.965 1464.46C823.014 1464.16 819.218 1463.44 815.576 1462.31C811.932 1461.2 808.724 1459.42 805.952 1456.97C803.149 1454.51 801.029 1451.14 799.594 1446.88C798.157 1442.64 797.685 1437.23 798.18 1430.65ZM766.554 1448.27L769.481 1431.05L747.225 1427.27L748.762 1418.23L771.018 1422.01L774.122 1403.76L747.097 1399.16L748.65 1390.03L788.12 1396.74L777.439 1459.56L738.287 1452.9L741.119 1443.94L766.554 1448.27ZM623.261 1418.23L626.524 1409.37L639.192 1414.03L654.68 1371.96L642.013 1367.3L645.276 1358.44L682.458 1372.13L679.194 1380.99L666.527 1376.33L651.038 1418.39L663.706 1423.06L660.442 1431.92L623.261 1418.23ZM579.525 1326.98L547.124 1381.85L536.254 1375.43L563.454 1329.37L539.256 1315.08L545.607 1306.95L579.525 1326.98ZM479.365 1299.12C483.248 1293.74 487.414 1289.57 491.863 1286.61C496.269 1283.65 500.785 1282.12 505.409 1282.01C510.016 1281.93 514.523 1283.48 518.931 1286.66C523.314 1289.82 526.221 1293.59 527.653 1297.95C529.042 1302.33 529.048 1307.07 527.673 1312.17C526.256 1317.29 523.56 1322.6 519.587 1328.1C515.705 1333.48 511.56 1337.65 507.153 1340.6C502.704 1343.57 498.176 1345.09 493.57 1345.17C488.921 1345.26 484.404 1343.73 480.021 1340.56C475.613 1337.38 472.706 1333.62 471.299 1329.27C469.892 1324.92 469.898 1320.19 471.316 1315.08C472.709 1309.94 475.392 1304.63 479.365 1299.12ZM489.899 1306.73C485.189 1313.25 482.449 1318.62 481.678 1322.84C480.865 1327.06 482.164 1330.41 485.576 1332.87C488.988 1335.33 492.582 1335.52 496.36 1333.44C500.112 1331.33 504.343 1327.02 509.053 1320.5C513.781 1313.95 516.517 1308.55 517.263 1304.32C517.991 1300.11 516.686 1296.8 513.349 1294.39C509.888 1291.89 506.293 1291.7 502.566 1293.82C498.813 1295.93 494.591 1300.23 489.899 1306.73ZM467.633 1261.46L422.444 1292.23L412.724 1283.75L469.267 1248.52L480.584 1258.4L453.269 1319.13L443.168 1310.31L467.633 1261.46ZM399.375 1256.68L412.029 1244.65L396.474 1228.29L403.118 1221.98L418.674 1238.34L432.096 1225.57L413.207 1205.71L419.919 1199.33L447.505 1228.34L401.328 1272.25L373.964 1243.46L381.597 1237.99L399.375 1256.68ZM323.45 1161.55L339.215 1151.4L326.617 1131.84L334.441 1126.8L347.039 1146.36L369.195 1132.09L376.03 1142.7L322.461 1177.2L300.608 1143.27L309.156 1139.36L323.45 1161.55ZM273.642 1092.57L282.031 1088.23L288.232 1100.22L328.05 1079.63L321.849 1067.64L330.238 1063.3L348.44 1098.49L340.05 1102.83L333.849 1090.84L294.031 1111.43L300.232 1123.42L291.843 1127.76L273.642 1092.57ZM266.044 1025.81C268.895 1024.67 271.618 1024.24 274.213 1024.52C276.797 1024.78 279.205 1025.58 281.436 1026.94C283.657 1028.26 285.646 1029.96 287.405 1032.04L306.301 1005.64L311.688 1019.07L293.739 1042.5L295.901 1047.89L319.46 1038.43L324.144 1050.11L265.01 1073.84L258.027 1056.43C254.905 1048.65 253.988 1042.2 255.277 1037.08C256.554 1031.94 260.144 1028.18 266.044 1025.81ZM270.917 1037.96C267.724 1039.24 265.801 1041.09 265.148 1043.5C264.466 1045.92 264.875 1049 266.373 1052.74L268.792 1058.77L287.606 1051.22L285.032 1044.8C283.648 1041.35 281.815 1039.01 279.532 1037.78C277.238 1036.51 274.366 1036.57 270.917 1037.96ZM281.414 972.808L287.305 992.926L302.435 992.624L306.099 1005.14L239.343 1003.9L234.993 989.041L290.55 952.035L294.317 964.901L281.414 972.808ZM277.607 993.413L273.011 977.717L246.297 994.036L277.607 993.413ZM212.596 870.679C212.21 866.273 212.465 862.49 213.36 859.328C214.224 856.169 215.614 853.196 217.528 850.408L225.659 856.125C224.287 858.064 223.298 860.154 222.693 862.396C222.085 864.608 221.888 866.937 222.102 869.385C222.359 872.323 223.376 874.962 225.153 877.304C226.928 879.615 229.61 881.369 233.198 882.566C236.754 883.735 241.346 884.073 246.976 883.581C252.515 883.096 256.936 882 260.239 880.293C263.54 878.555 265.879 876.393 267.256 873.806C268.6 871.191 269.135 868.323 268.862 865.202C268.573 861.897 267.752 859.21 266.4 857.139C265.047 855.068 263.606 853.221 262.076 851.598L269.039 845.022C271.438 847.063 273.564 849.698 275.419 852.928C277.272 856.126 278.407 860.112 278.824 864.885C279.309 870.424 278.471 875.476 276.312 880.043C274.152 884.61 270.718 888.348 266.008 891.258C261.299 894.167 255.334 895.938 248.113 896.57C241.014 897.191 234.906 896.445 229.788 894.334C224.637 892.195 220.602 889.064 217.682 884.941C214.759 880.788 213.064 876.034 212.596 870.679ZM244.354 789.987C250.988 790.078 256.795 791.095 261.775 793.038C266.725 794.949 270.572 797.767 273.315 801.491C276.029 805.214 277.348 809.794 277.273 815.23C277.198 820.635 275.784 825.177 273.03 828.856C270.246 832.504 266.368 835.23 261.398 837.035C256.397 838.809 250.503 839.65 243.716 839.556C237.082 839.464 231.291 838.463 226.341 836.551C221.361 834.609 217.514 831.776 214.801 828.052C212.057 824.298 210.723 819.718 210.797 814.312C210.872 808.877 212.287 804.335 215.04 800.686C217.794 797.038 221.671 794.327 226.672 792.553C231.673 790.749 237.567 789.893 244.354 789.987ZM244.175 802.978C236.128 802.867 230.158 803.706 226.263 805.495C222.337 807.253 220.345 810.236 220.287 814.443C220.229 818.651 222.138 821.703 226.013 823.6C229.888 825.465 235.849 826.454 243.895 826.565C251.972 826.676 257.959 825.822 261.854 824.002C265.719 822.182 267.68 819.214 267.737 815.098C267.796 810.83 265.887 807.778 262.011 805.942C258.136 804.077 252.191 803.088 244.175 802.978ZM248.861 745.097C244.163 744.548 240.313 744.547 237.312 745.094C234.314 745.609 231.965 746.526 230.265 747.843C228.534 749.156 227.284 750.726 226.514 752.553C225.744 754.381 225.24 756.316 225.001 758.36L224.456 763.028L269.119 768.243L269.669 763.529C269.919 761.394 269.818 759.341 269.368 757.371C268.921 755.371 267.959 753.542 266.483 751.886C264.976 750.225 262.806 748.812 259.974 747.647C257.111 746.478 253.407 745.628 248.861 745.097ZM250.389 732.009C255.575 732.615 259.948 733.697 263.508 735.257C267.071 736.786 269.959 738.67 272.171 740.907C274.354 743.141 275.981 745.619 277.055 748.342C278.132 751.035 278.791 753.864 279.033 756.83C279.247 759.762 279.181 762.707 278.836 765.666L276.945 781.866L213.657 774.476L215.42 759.375C215.88 755.44 216.752 751.676 218.037 748.085C219.292 744.49 221.204 741.358 223.773 738.689C226.345 735.99 229.792 734.011 234.114 732.753C238.405 731.491 243.83 731.243 250.389 732.009ZM234.419 699.208L251.46 703.012L256.378 680.979L265.326 682.976L260.409 705.009L278.485 709.043L284.456 682.289L293.494 684.306L284.773 723.381L222.586 709.502L231.236 670.742L240.038 674.028L234.419 699.208ZM273.818 556.975L282.419 560.877L276.842 573.17L317.666 591.689L323.243 579.396L331.844 583.298L315.476 619.381L306.875 615.479L312.451 603.186L271.627 584.667L266.051 596.96L257.45 593.058L273.818 556.975ZM368.751 520.482L317.305 482.889L324.753 472.697L367.941 504.255L384.522 481.564L391.992 488.677L368.751 520.482ZM406.941 423.649C411.865 428.096 415.556 432.692 418.016 437.438C420.474 442.141 421.504 446.797 421.108 451.405C420.69 455.993 418.658 460.305 415.015 464.339C411.392 468.351 407.332 470.831 402.835 471.777C398.336 472.68 393.623 472.17 388.698 470.246C383.77 468.279 378.787 465.02 373.749 460.471C368.826 456.024 365.135 451.45 362.677 446.747C360.218 442.001 359.197 437.334 359.616 432.746C360.033 428.115 362.052 423.793 365.676 419.781C369.319 415.746 373.379 413.267 377.856 412.343C382.332 411.42 387.034 411.941 391.962 413.909C396.91 415.853 401.903 419.1 406.941 423.649ZM398.233 433.292C392.261 427.898 387.221 424.588 383.114 423.362C379.004 422.093 375.539 423.019 372.719 426.142C369.899 429.265 369.319 432.817 370.978 436.8C372.659 440.759 376.485 445.435 382.457 450.829C388.452 456.243 393.514 459.552 397.642 460.755C401.747 461.938 405.178 461.002 407.937 457.947C410.798 454.779 411.379 451.227 409.678 447.29C407.997 443.331 404.182 438.665 398.233 433.292ZM445.938 416.245L420.81 367.696L430.395 359.062L458.593 419.417L447.434 429.47L390.412 395.077L400.373 386.105L445.938 416.245ZM459.358 348.927L469.663 363.022L487.888 349.699L493.299 357.1L475.074 370.424L486.005 385.375L508.135 369.196L513.6 376.672L481.28 400.301L443.675 348.864L475.735 325.425L480.186 333.7L459.358 348.927ZM564.328 286.166L572.175 303.196L593.306 293.459L597.201 301.912L576.07 311.648L587.098 335.583L575.633 340.866L548.969 282.996L585.623 266.106L588.305 275.118L564.328 286.166ZM639.813 246.569L642.91 255.491L630.157 259.918L644.856 302.267L657.608 297.841L660.705 306.763L623.274 319.755L620.177 310.833L632.93 306.406L618.231 264.057L605.478 268.483L602.382 259.561L639.813 246.569ZM707.01 248.605C707.733 251.59 707.769 254.347 707.117 256.875C706.495 259.395 705.354 261.663 703.693 263.677C702.061 265.684 700.093 267.409 697.788 268.852L721.201 291.339L707.142 294.745L686.523 273.619L680.881 274.986L686.858 299.658L674.634 302.619L659.633 240.693L677.857 236.278C686.006 234.304 692.521 234.322 697.4 236.332C702.31 238.335 705.513 242.426 707.01 248.605ZM694.293 251.685C693.483 248.342 691.931 246.174 689.637 245.181C687.335 244.159 684.229 244.121 680.318 245.068L674.004 246.598L678.777 266.299L685.493 264.672C689.105 263.797 691.686 262.319 693.236 260.237C694.816 258.148 695.168 255.297 694.293 251.685ZM757.235 271.368L736.485 274.342L734.635 289.361L721.728 291.211L732.435 225.308L747.759 223.112L776.501 283.361L763.23 285.263L757.235 271.368ZM737.379 264.673L753.569 262.352L741.209 233.592L737.379 264.673ZM867.52 217.227C871.938 217.431 875.655 218.186 878.669 219.494C881.685 220.771 884.447 222.543 886.956 224.811L880.208 232.11C878.469 230.492 876.528 229.234 874.387 228.336C872.276 227.439 869.993 226.934 867.538 226.821C864.593 226.685 861.842 227.342 859.284 228.792C856.757 230.243 854.662 232.668 852.999 236.065C851.367 239.434 850.421 243.941 850.161 249.586C849.904 255.139 850.402 259.667 851.655 263.168C852.939 266.671 854.771 269.277 857.152 270.986C859.565 272.665 862.336 273.577 865.465 273.722C868.779 273.875 871.552 273.419 873.784 272.353C876.016 271.288 878.039 270.105 879.851 268.806L885.442 276.581C883.1 278.687 880.206 280.444 876.759 281.853C873.342 283.264 869.241 283.858 864.454 283.637C858.901 283.381 854.004 281.879 849.765 279.131C845.526 276.383 842.278 272.482 840.021 267.428C837.763 262.373 836.802 256.226 837.136 248.985C837.465 241.867 839.016 235.912 841.789 231.12C844.594 226.299 848.234 222.716 852.709 220.371C857.214 218.027 862.151 216.979 867.52 217.227Z" fill="#822300"/>
</svg>
