<svg width="700" height="1454" viewBox="0 0 700 1454" fill="none" xmlns="http://www.w3.org/2000/svg">
<path d="M870.468 634.086L878.43 632.325L881.396 645.73L927.505 635.529L924.539 622.123L932.546 620.352L940.806 657.689L932.799 659.46L929.833 646.055L883.725 656.256L886.691 669.661L878.728 671.423L870.468 634.086ZM908.911 549.592L850.824 575.442L846.478 565.677L896.399 543.461L884.823 517.448L893.457 514.867L908.911 549.592ZM837.685 479.843C843.372 476.611 848.827 474.553 854.048 473.67C859.243 472.801 863.943 473.239 868.149 474.982C872.328 476.74 875.73 479.929 878.356 484.549C880.966 489.142 881.992 493.681 881.433 498.168C880.832 502.643 878.843 506.882 875.466 510.886C872.062 514.905 867.463 518.561 861.669 521.855C855.954 525.103 850.5 527.161 845.305 528.029C840.084 528.912 835.371 528.482 831.165 526.739C826.917 524.984 823.488 521.81 820.878 517.218C818.252 512.598 817.24 508.051 817.841 503.576C818.442 499.101 820.457 494.846 823.888 490.812C827.291 486.793 831.89 483.137 837.685 479.843ZM843.149 489.456C835.992 493.524 831.133 497.469 828.572 501.292C825.969 505.103 825.821 509.038 828.128 513.097C830.435 517.156 833.912 519.048 838.561 518.773C843.167 518.486 849.049 516.309 856.205 512.242C863.335 508.189 868.173 504.239 870.719 500.389C873.238 496.555 873.367 492.648 871.106 488.669C868.768 484.557 865.318 482.65 860.753 482.948C856.146 483.235 850.278 485.404 843.149 489.456ZM839.301 444.237L786.858 462.596L780.621 453.746L844.189 433.577L851.249 443.595L810.878 496.678L804.296 487.338L839.301 444.237ZM775.994 436.157L790.502 423.703L775.498 406.224L781.651 400.942L796.655 418.422L811.932 405.308L793.657 384.018L799.81 378.737L825.046 408.137L776.803 449.548L751.896 420.532L758.829 416.16L775.994 436.157ZM703.989 365.3L716.584 349.475L697.876 334.584L702.925 328.24L721.634 343.131L738.533 321.899L746.896 328.555L707.302 378.301L676.698 353.942L682.685 348.343L703.989 365.3ZM638.898 329.048L643.363 322.224L654.852 329.741L680.708 290.225L669.219 282.708L673.709 275.845L705.708 296.782L701.218 303.644L689.729 296.127L663.873 335.644L675.362 343.161L670.897 349.985L638.898 329.048ZM600.964 287.558C602.431 284.79 604.281 282.677 606.514 281.219C608.706 279.773 611.138 278.89 613.811 278.569C616.457 278.233 619.169 278.332 621.945 278.865L618.997 245.964L629.988 251.79L631.857 282.398L638.004 285.657L650.26 262.535L659.704 267.541L629.926 323.716L614.254 315.409C607.036 311.582 602.3 307.334 600.048 302.664C597.782 298.021 598.087 292.986 600.964 287.558ZM610.855 292.801C609.129 296.058 608.835 298.909 609.972 301.354C611.068 303.812 613.556 306.07 617.436 308.127L624.194 311.709L634.335 292.577L627.375 288.887C623.765 286.974 620.581 286.259 617.821 286.743C615.047 287.254 612.726 289.274 610.855 292.801ZM576.135 244.454L597.083 253.234L607.075 240.837L617.102 245.039L573.873 295.859L561.636 290.73L567.516 224.257L577.968 228.638L576.135 244.454ZM591.856 259.985L575.029 252.933L571.13 285.717L591.856 259.985ZM468.347 263.952C464.143 263.051 460.718 261.736 458.073 260.006C455.392 258.301 453.024 256.16 450.968 253.584L457.81 248.265C459.337 250.225 461.086 251.81 463.058 253.018C465.029 254.225 467.216 255.087 469.619 255.602C472.712 256.265 475.733 256.095 478.68 255.094C481.628 254.092 484.274 252.005 486.619 248.832C488.933 245.653 490.718 241.135 491.973 235.279C493.203 229.543 493.443 224.757 492.695 220.921C491.946 217.085 490.436 214.092 488.164 211.94C485.893 209.788 483.135 208.365 479.892 207.67C476.558 206.955 473.679 206.904 471.255 207.515C468.824 208.156 466.62 208.988 464.642 210.009L460.978 202.485C463.481 200.917 466.482 199.739 469.981 198.949C473.473 198.19 477.502 198.3 482.067 199.278C487.323 200.404 491.789 202.649 495.466 206.013C499.106 209.401 501.628 213.758 503.03 219.084C504.403 224.404 504.336 230.578 502.83 237.606C501.337 244.573 498.832 250.177 495.316 254.418C491.794 258.689 487.681 261.609 482.979 263.177C478.27 264.775 473.393 265.033 468.347 263.952ZM405.011 221.395C405.774 214.898 407.345 209.284 409.724 204.553C412.1 199.853 415.236 196.324 419.13 193.967C423.022 191.64 427.606 190.786 432.883 191.405C438.13 192.021 442.396 193.882 445.681 196.989C448.931 200.123 451.17 204.236 452.397 209.328C453.621 214.45 453.844 220.321 453.068 226.941C452.302 233.469 450.731 239.083 448.355 243.783C445.975 248.514 442.838 252.058 438.943 254.415C435.014 256.799 430.426 257.684 425.18 257.068C419.902 256.449 415.638 254.573 412.388 251.439C409.137 248.305 406.902 244.162 405.682 239.009C404.458 233.886 404.235 228.015 405.011 221.395ZM415.993 222.684C415.034 230.859 415.337 237.111 416.901 241.438C418.431 245.793 421.514 248.242 426.151 248.786C430.788 249.33 434.372 247.647 436.902 243.739C439.399 239.857 441.127 233.828 442.086 225.652C443.041 217.508 442.722 211.27 441.127 206.938C439.529 202.638 436.457 200.221 431.912 199.688C427.214 199.137 423.634 200.788 421.171 204.644C418.675 208.526 416.949 214.539 415.993 222.684ZM364.205 220.658C364.096 225.724 364.514 229.804 365.461 232.897C366.378 235.989 367.663 238.351 369.318 239.984C370.941 241.617 372.776 242.732 374.821 243.329C376.836 243.926 378.903 244.247 381.022 244.292L386.871 244.419L387.892 197.16L381.996 197.033C379.785 196.985 377.643 197.292 375.571 197.954C373.498 198.616 371.629 199.804 369.964 201.52C368.268 203.234 366.91 205.632 365.892 208.713C364.872 211.824 364.31 215.806 364.205 220.658ZM352.966 220.415C353.08 215.164 353.744 210.693 354.961 207.002C356.147 203.31 357.749 200.257 359.767 197.843C361.754 195.459 364.037 193.604 366.615 192.277C369.162 190.98 371.854 190.086 374.691 189.594C377.529 189.102 380.36 188.887 383.185 188.948L398.753 189.284L397.38 252.848L382.871 252.535C379.002 252.452 375.265 251.956 371.659 251.049C368.023 250.141 364.786 248.535 361.948 246.231C359.079 243.926 356.829 240.698 355.198 236.546C353.568 232.394 352.824 227.017 352.966 220.415ZM333.228 245.126L331.799 226.06L308.827 227.782L308.221 219.696L331.193 217.974L329.688 197.897L301.709 199.994L301.103 191.908L339.741 189.012L344.492 252.413L306.36 255.271L306.948 247.096L333.228 245.126ZM212.559 275.575L210.381 267.716L223.611 264.048L210.995 218.541L197.764 222.209L195.574 214.306L232.423 204.09L234.614 211.993L221.384 215.661L234 261.168L247.23 257.5L249.409 265.358L212.559 275.575ZM126.147 241.609L155.12 298.203L145.605 303.074L120.706 254.436L95.3614 267.411L92.3137 258.93L126.147 241.609ZM60.7332 316.694C57.1603 311.213 54.7742 305.894 53.5749 300.736C52.3923 295.604 52.543 290.886 54.027 286.582C55.5277 282.304 58.5037 278.714 62.9549 275.812C67.3804 272.927 71.8492 271.627 76.3615 271.912C80.8647 272.239 85.2173 273.966 89.4192 277.093C93.6378 280.246 97.5671 284.614 101.207 290.197C104.797 295.704 107.183 301.023 108.365 306.155C109.565 311.313 109.422 316.044 107.938 320.348C106.446 324.694 103.486 328.31 99.0609 331.195C94.6096 334.097 90.1324 335.384 85.6291 335.057C81.1259 334.729 76.7566 332.976 72.5211 329.798C68.3025 326.645 64.3732 322.277 60.7332 316.694ZM69.9959 310.655C74.4913 317.551 78.7248 322.16 82.6964 324.484C86.6591 326.851 90.5958 326.759 94.5067 324.209C98.4177 321.66 100.094 318.073 99.537 313.45C98.9707 308.87 96.4398 303.132 91.9444 296.236C87.4658 289.366 83.2278 284.778 79.2304 282.471C75.2499 280.189 71.3427 280.298 67.509 282.798C63.5467 285.381 61.8531 288.941 62.4284 293.479C62.9947 298.06 65.5172 303.785 69.9959 310.655ZM25.3388 317.39L47.3414 368.412L38.9521 375.256L14.3621 313.264L23.858 305.517L79.6491 342.055L70.7957 349.278L25.3388 317.39ZM22.4365 380.791L8.81851 367.37L-7.35107 383.777L-13.1264 378.085L3.04316 361.678L-11.2967 347.546L-30.9913 367.53L-36.7666 361.838L-9.5694 334.241L35.7145 378.869L8.87303 406.105L3.93851 399.561L22.4365 380.791ZM-40.0725 457.888L-57.2231 447.167L-69.8971 467.443L-76.773 463.145L-64.099 442.869L-87.1097 428.486L-81.4442 419.422L-27.5311 453.122L-48.2638 486.29L-54.5047 480.977L-40.0725 457.888ZM-67.5956 526.084L-74.9388 522.538L-68.9682 510.175L-111.492 489.638L-117.463 502.002L-124.848 498.435L-108.218 464.001L-100.833 467.567L-106.804 479.93L-64.2798 500.467L-58.3092 488.104L-50.966 491.65L-67.5956 526.084ZM-102.776 568.626C-105.728 567.578 -108.089 566.056 -109.857 564.06C-111.607 562.102 -112.835 559.825 -113.543 557.227C-114.261 554.658 -114.559 551.962 -114.436 549.137L-146.556 556.853L-142.395 545.13L-112.387 538.816L-110.06 532.26L-134.721 523.507L-131.146 513.434L-71.229 534.699L-77.1616 551.415C-79.8942 559.115 -83.4063 564.419 -87.698 567.329C-91.9607 570.248 -96.9866 570.681 -102.776 568.626ZM-99.0313 558.075C-95.5578 559.308 -92.6945 559.184 -90.4413 557.702C-88.1694 556.259 -86.2989 553.469 -84.8299 549.329L-82.2719 542.122L-102.679 534.88L-105.314 542.304C-106.68 546.154 -106.922 549.408 -106.041 552.068C-105.131 554.737 -102.794 556.74 -99.0313 558.075ZM-140.992 599.36L-135.79 577.25L-149.666 569.441L-147.176 558.857L-89.9195 593.107L-92.9586 606.023L-159.49 611.194L-156.895 600.162L-140.992 599.36ZM-128.269 581.292L-132.448 599.051L-99.4693 597.487L-128.269 581.292ZM-101.926 700.529C-101.984 704.829 -102.602 708.445 -103.778 711.378C-104.924 714.342 -106.559 717.085 -108.682 719.605L-115.24 713.941C-113.617 712.059 -112.407 710.032 -111.609 707.862C-110.812 705.692 -110.397 703.379 -110.363 700.922C-110.32 697.758 -111.079 694.83 -112.64 692.136C-114.201 689.443 -116.767 687.258 -120.338 685.581C-123.909 683.935 -128.69 683.072 -134.678 682.99C-140.544 682.911 -145.284 683.614 -148.898 685.101C-152.513 686.588 -155.152 688.656 -156.816 691.306C-158.48 693.956 -159.334 696.939 -159.379 700.256C-159.425 703.665 -158.911 706.498 -157.836 708.755C-156.73 711.012 -155.482 713.011 -154.093 714.75L-160.751 719.82C-162.78 717.673 -164.524 714.961 -165.985 711.685C-167.415 708.41 -168.098 704.438 -168.035 699.77C-167.962 694.395 -166.637 689.575 -164.06 685.31C-161.453 681.076 -157.676 677.748 -152.728 675.327C-147.781 672.937 -141.714 671.791 -134.528 671.888C-127.403 671.985 -121.416 673.341 -116.567 675.956C-111.688 678.572 -108.018 682.032 -105.558 686.335C-103.067 690.638 -101.856 695.37 -101.926 700.529ZM-130.625 770.537C-137.139 771.144 -142.957 770.777 -148.08 769.435C-153.172 768.09 -157.276 765.758 -160.393 762.439C-163.479 759.118 -165.269 754.812 -165.762 749.521C-166.253 744.261 -165.321 739.702 -162.966 735.842C-160.578 732.01 -157.022 728.964 -152.297 726.703C-147.542 724.439 -141.846 722.998 -135.21 722.379C-128.665 721.768 -122.847 722.136 -117.755 723.481C-112.633 724.823 -108.513 727.153 -105.396 730.472C-102.246 733.818 -100.426 738.121 -99.935 743.381C-99.4415 748.672 -100.389 753.233 -102.777 757.065C-105.165 760.897 -108.752 763.946 -113.538 766.213C-118.293 768.476 -123.989 769.918 -130.625 770.537ZM-131.652 759.527C-123.456 758.763 -117.405 757.165 -113.498 754.733C-109.558 752.33 -107.804 748.804 -108.238 744.156C-108.672 739.507 -111.063 736.352 -115.414 734.691C-119.731 733.058 -125.987 732.624 -134.183 733.388C-142.348 734.15 -148.383 735.762 -152.287 738.224C-156.16 740.682 -157.884 744.19 -157.459 748.747C-157.02 753.457 -154.659 756.614 -150.375 758.22C-146.058 759.853 -139.817 760.289 -131.652 759.527ZM-122.559 810.258C-117.589 809.267 -113.697 807.974 -110.883 806.379C-108.063 804.815 -106.035 803.048 -104.799 801.079C-103.557 799.14 -102.867 797.107 -102.727 794.981C-102.581 792.885 -102.715 790.798 -103.13 788.719L-104.274 782.981L-150.631 792.226L-149.478 798.009C-149.045 800.178 -148.281 802.202 -147.186 804.082C-146.091 805.962 -144.526 807.529 -142.49 808.783C-140.449 810.067 -137.814 810.873 -134.586 811.2C-131.327 811.521 -127.318 811.207 -122.559 810.258ZM-120.361 821.282C-125.511 822.31 -130.02 822.629 -133.887 822.242C-137.748 821.884 -141.076 820.982 -143.87 819.534C-146.628 818.111 -148.934 816.285 -150.788 814.055C-152.606 811.849 -154.062 809.415 -155.157 806.752C-156.252 804.089 -157.075 801.372 -157.628 798.601L-160.673 783.329L-98.3221 770.895L-95.4839 785.127C-94.7271 788.923 -94.4009 792.679 -94.5054 796.395C-94.6038 800.142 -95.4702 803.65 -97.1044 806.92C-98.7326 810.22 -101.397 813.116 -105.097 815.608C-108.796 818.099 -113.884 819.991 -120.361 821.282ZM-91.9364 834.845L-110.207 840.479L-103.419 862.492L-111.168 864.882L-117.956 842.869L-137.195 848.801L-128.927 875.613L-136.676 878.003L-148.093 840.977L-87.3374 822.242L-76.0693 858.783L-84.1709 860.028L-91.9364 834.845ZM-35.2471 945.458L-42.414 949.348L-48.9639 937.282L-90.4671 959.811L-83.9173 971.877L-91.1246 975.789L-109.367 942.182L-102.16 938.269L-95.6103 950.336L-54.107 927.807L-60.6569 915.741L-53.49 911.85L-35.2471 945.458ZM-49.1348 1037.47L-0.12162 996.971L6.68657 1005.21L-35.4363 1040.01L-17.3007 1061.96L-24.9246 1066.77L-49.1348 1037.47ZM38.1615 1085.71C33.5366 1090.34 28.8246 1093.77 24.0253 1096.01C19.2478 1098.23 14.6003 1099.05 10.0827 1098.49C5.58682 1097.9 1.45979 1095.73 -2.29841 1091.98C-6.03489 1088.24 -8.22945 1084.14 -8.88209 1079.66C-9.4913 1075.19 -8.69969 1070.57 -6.50729 1065.82C-4.29317 1061.04 -0.83023 1056.29 3.88153 1051.58C8.52814 1046.93 13.2402 1043.5 18.0177 1041.28C22.817 1039.04 27.4754 1038.21 31.9929 1038.77C36.5539 1039.33 40.7027 1041.48 44.4392 1045.22C48.1974 1048.97 50.3811 1053.09 50.9903 1057.56C51.5995 1062.04 50.7862 1066.67 48.5503 1071.47C46.3362 1076.25 42.8733 1081 38.1615 1085.71ZM30.341 1077.89C36.1601 1072.07 39.7967 1066.98 41.2508 1062.61C42.7483 1058.25 41.8461 1054.41 38.544 1051.11C35.242 1047.81 31.3868 1046.91 26.9783 1048.41C22.6133 1049.91 17.5212 1053.57 11.7021 1059.4C5.90465 1065.2 2.28977 1070.29 0.857417 1074.68C-0.553221 1079.04 0.359878 1082.84 3.59671 1086.08C6.94216 1089.42 10.7757 1090.34 15.0973 1088.84C19.4623 1087.35 24.5436 1083.7 30.341 1077.89ZM46.032 1120.55L91.8053 1089.05L100.149 1095.95L44.1177 1132.12L34.6732 1124.31L59.6726 1062.48L68.478 1069.76L46.032 1120.55ZM109.315 1111.82L98.5546 1127.62L117.596 1140.58L113.033 1147.29L93.9913 1134.32L82.6606 1150.97L105.853 1166.76L101.29 1173.46L69.2619 1151.65L105.043 1099.1L136.652 1120.62L131.098 1126.65L109.315 1111.82ZM197.474 1161.89L189.321 1180.4L211.204 1190.04L207.936 1197.46L186.053 1187.82L175.116 1212.66L165.334 1208.35L190.96 1150.16L226.757 1165.93L222.392 1172.87L197.474 1161.89ZM269.701 1180.46L267.112 1188.19L254.093 1183.83L239.098 1228.61L252.117 1232.97L249.513 1240.74L213.252 1228.6L215.856 1220.82L228.875 1225.18L243.87 1180.41L230.851 1176.05L233.441 1168.31L269.701 1180.46ZM316.874 1210.9C316.16 1213.95 314.909 1216.47 313.121 1218.45C311.37 1220.4 309.242 1221.88 306.739 1222.87C304.266 1223.87 301.619 1224.46 298.798 1224.65L310.027 1255.72L297.915 1252.88L288.313 1223.76L281.54 1222.17L275.575 1247.65L265.168 1245.22L279.659 1183.31L296.929 1187.35C304.884 1189.22 310.546 1192.12 313.913 1196.06C317.287 1199.97 318.274 1204.92 316.874 1210.9ZM305.973 1208.35C306.813 1204.76 306.372 1201.93 304.65 1199.86C302.964 1197.76 299.983 1196.21 295.707 1195.21L288.26 1193.46L283.325 1214.55L290.996 1216.34C294.973 1217.27 298.235 1217.15 300.78 1215.98C303.332 1214.78 305.063 1212.24 305.973 1208.35ZM351.823 1246.11L329.318 1243.04L322.867 1257.6L312.094 1256.13L340.733 1195.87L353.88 1197.66L365.365 1263.4L354.136 1261.87L351.823 1246.11ZM332.625 1235.17L350.701 1237.64L346.002 1204.96L332.625 1235.17ZM450.569 1199.14C454.862 1198.9 458.512 1199.26 461.519 1200.24C464.555 1201.17 467.404 1202.62 470.065 1204.56L464.866 1211.49C462.876 1210 460.771 1208.94 458.551 1208.29C456.331 1207.64 453.995 1207.39 451.541 1207.53C448.383 1207.7 445.513 1208.66 442.934 1210.4C440.354 1212.14 438.351 1214.86 436.924 1218.53C435.529 1222.21 434.997 1227.04 435.328 1233.02C435.653 1238.88 436.681 1243.56 438.414 1247.06C440.146 1250.56 442.391 1253.05 445.149 1254.53C447.907 1256.01 450.943 1256.65 454.255 1256.47C457.659 1256.28 460.45 1255.57 462.627 1254.35C464.803 1253.09 466.71 1251.7 468.35 1250.2L473.866 1256.49C471.864 1258.66 469.279 1260.59 466.112 1262.27C462.943 1263.93 459.028 1264.88 454.366 1265.14C448.999 1265.44 444.099 1264.45 439.667 1262.17C435.263 1259.86 431.683 1256.32 428.927 1251.55C426.201 1246.78 424.64 1240.81 424.242 1233.63C423.847 1226.52 424.788 1220.45 427.063 1215.43C429.336 1210.39 432.535 1206.49 436.658 1203.74C440.78 1200.95 445.416 1199.42 450.569 1199.14ZM522.774 1223.39C523.767 1229.86 523.745 1235.69 522.709 1240.88C521.668 1246.04 519.583 1250.28 516.455 1253.58C513.323 1256.86 509.13 1258.9 503.878 1259.71C498.656 1260.51 494.049 1259.85 490.057 1257.73C486.09 1255.57 482.838 1252.2 480.302 1247.62C477.76 1243.01 475.984 1237.41 474.973 1230.82C473.976 1224.32 473.998 1218.49 475.039 1213.33C476.075 1208.14 478.157 1203.89 481.285 1200.58C484.439 1197.24 488.626 1195.16 493.848 1194.36C499.1 1193.56 503.71 1194.23 507.676 1196.39C511.643 1198.54 514.899 1201.94 517.445 1206.59C519.987 1211.2 521.763 1216.8 522.774 1223.39ZM511.845 1225.07C510.596 1216.93 508.643 1210.98 505.984 1207.23C503.351 1203.44 499.728 1201.9 495.113 1202.6C490.499 1203.31 487.491 1205.89 486.091 1210.33C484.716 1214.73 484.653 1221.01 485.902 1229.14C487.146 1237.25 489.113 1243.18 491.802 1246.93C494.486 1250.65 498.09 1252.16 502.613 1251.47C507.288 1250.75 510.3 1248.21 511.649 1243.83C513.024 1239.43 513.089 1233.17 511.845 1225.07ZM562.17 1213.15C560.912 1208.24 559.411 1204.42 557.667 1201.7C555.953 1198.97 554.079 1197.04 552.046 1195.91C550.043 1194.77 547.976 1194.19 545.845 1194.17C543.744 1194.14 541.667 1194.38 539.614 1194.91L533.946 1196.36L545.678 1242.15L551.391 1240.69C553.533 1240.14 555.513 1239.27 557.332 1238.07C559.15 1236.88 560.63 1235.23 561.772 1233.13C562.945 1231.02 563.607 1228.35 563.759 1225.11C563.904 1221.84 563.374 1217.85 562.17 1213.15ZM573.06 1210.36C574.363 1215.45 574.926 1219.93 574.747 1223.81C574.599 1227.69 573.877 1231.06 572.583 1233.93C571.31 1236.76 569.611 1239.16 567.485 1241.13C565.38 1243.07 563.028 1244.65 560.428 1245.89C557.828 1247.12 555.159 1248.09 552.422 1248.8L537.337 1252.66L521.557 1191.07L535.615 1187.47C539.364 1186.51 543.097 1185.98 546.814 1185.88C550.56 1185.78 554.11 1186.46 557.464 1187.91C560.847 1189.36 563.882 1191.86 566.57 1195.42C569.257 1198.98 571.421 1203.96 573.06 1210.36ZM585.212 1181.25L591.781 1199.2L613.414 1191.29L616.2 1198.9L594.567 1206.82L601.484 1225.72L627.834 1216.08L630.619 1223.7L594.232 1237.01L572.388 1177.3L608.299 1164.16L609.96 1172.19L585.212 1181.25ZM692.091 1118.78L696.4 1125.7L684.744 1132.96L709.698 1173.05L721.354 1165.79L725.687 1172.76L693.222 1192.96L688.889 1186L700.545 1178.75L675.592 1138.65L663.935 1145.91L659.626 1138.99L692.091 1118.78ZM784.302 1126.64L739.991 1081.04L747.656 1073.59L785.738 1112.78L806.156 1092.93L811.559 1100.15L784.302 1126.64ZM824.507 1035.62C829.551 1039.78 833.414 1044.15 836.096 1048.72C838.755 1053.26 840.017 1057.81 839.883 1062.36C839.726 1066.89 837.955 1071.21 834.571 1075.3C831.206 1079.38 827.328 1081.95 822.936 1083.02C818.54 1084.05 813.87 1083.7 808.927 1081.97C803.961 1080.22 798.908 1077.22 793.77 1072.97C788.702 1068.79 784.839 1064.42 782.181 1059.87C779.499 1055.31 778.225 1050.75 778.358 1046.2C778.488 1041.61 780.235 1037.27 783.6 1033.2C786.984 1029.1 790.874 1026.54 795.27 1025.51C799.666 1024.48 804.359 1024.85 809.35 1026.62C814.316 1028.37 819.369 1031.37 824.507 1035.62ZM817.465 1044.14C811.119 1038.9 805.704 1035.76 801.22 1034.73C796.733 1033.65 793.002 1034.91 790.029 1038.51C787.055 1042.11 786.524 1046.03 788.434 1050.28C790.339 1054.48 794.465 1059.21 800.812 1064.45C807.134 1069.67 812.547 1072.79 817.05 1073.8C821.53 1074.79 825.227 1073.52 828.142 1069.99C831.154 1066.35 831.709 1062.44 829.808 1058.28C827.902 1054.08 823.788 1049.37 817.465 1044.14ZM857.992 1024.38L821.649 982.355L827.589 973.302L869.702 1025.01L862.979 1035.26L798.776 1017.22L805.044 1007.66L857.992 1024.38ZM841.637 963.084L858.671 971.768L869.134 951.246L876.358 954.929L865.894 975.452L883.831 984.597L896.576 959.601L903.8 963.284L886.2 997.802L829.558 968.923L846.928 934.856L853.608 939.606L841.637 963.084ZM878.05 870.66L897.629 875.732L903.625 852.585L911.475 854.618L905.479 877.765L931.748 884.57L929.068 894.917L867.52 878.974L877.329 841.109L884.878 844.302L878.05 870.66ZM883.719 797.438L891.79 798.601L889.832 812.19L936.573 818.923L938.531 805.334L946.648 806.503L941.196 844.352L933.079 843.183L935.036 829.594L888.295 822.861L886.338 836.45L878.266 835.287L883.719 797.438ZM904.455 746.217C907.586 746.327 910.295 747.068 912.583 748.439C914.841 749.778 916.698 751.58 918.155 753.844C919.613 756.078 920.709 758.559 921.443 761.29L949.748 744.26L949.311 756.691L922.597 771.749L922.352 778.702L948.505 779.621L948.129 790.303L884.59 788.069L885.213 770.342C885.5 762.177 887.252 756.061 890.468 751.995C893.654 747.927 898.316 746.001 904.455 746.217ZM904.062 757.406C900.378 757.276 897.685 758.257 895.983 760.348C894.251 762.408 893.308 765.633 893.153 770.022L892.885 777.665L914.525 778.426L914.802 770.553C914.945 766.47 914.196 763.294 912.555 761.023C910.883 758.752 908.052 757.546 904.062 757.406ZM931.752 705.349L933.383 728.004L948.957 731.316L949.738 742.161L884.871 726.555L883.917 713.321L945.876 688.534L946.69 699.839L931.752 705.349ZM924.999 726.39L923.688 708.193L892.679 719.526L924.999 726.39Z" fill="#822300"/>
</svg>
