<svg width="1483" height="1454" viewBox="0 0 1483 1454" fill="none" xmlns="http://www.w3.org/2000/svg">
<path d="M1220.32 634.086L1228.28 632.325L1231.25 645.73L1277.36 635.529L1274.39 622.123L1282.4 620.352L1290.66 657.689L1282.65 659.46L1279.68 646.055L1233.58 656.256L1236.54 669.661L1228.58 671.423L1220.32 634.086ZM1258.76 549.592L1200.68 575.442L1196.33 565.677L1246.25 543.461L1234.67 517.448L1243.31 514.867L1258.76 549.592ZM1187.54 479.843C1193.22 476.611 1198.68 474.553 1203.9 473.67C1209.09 472.801 1213.79 473.239 1218 474.982C1222.18 476.74 1225.58 479.929 1228.21 484.549C1230.82 489.142 1231.84 493.681 1231.28 498.168C1230.68 502.643 1228.69 506.882 1225.32 510.886C1221.91 514.905 1217.31 518.561 1211.52 521.855C1205.81 525.103 1200.35 527.161 1195.16 528.029C1189.94 528.912 1185.22 528.482 1181.02 526.739C1176.77 524.984 1173.34 521.81 1170.73 517.218C1168.1 512.598 1167.09 508.051 1167.69 503.576C1168.29 499.101 1170.31 494.846 1173.74 490.812C1177.14 486.793 1181.74 483.137 1187.54 479.843ZM1193 489.456C1185.84 493.524 1180.98 497.469 1178.42 501.292C1175.82 505.103 1175.67 509.038 1177.98 513.097C1180.29 517.156 1183.76 519.048 1188.41 518.773C1193.02 518.486 1198.9 516.309 1206.06 512.242C1213.19 508.189 1218.02 504.239 1220.57 500.389C1223.09 496.555 1223.22 492.648 1220.96 488.669C1218.62 484.557 1215.17 482.65 1210.6 482.948C1206 483.235 1200.13 485.404 1193 489.456ZM1189.15 444.237L1136.71 462.596L1130.47 453.746L1194.04 433.577L1201.1 443.595L1160.73 496.678L1154.15 487.338L1189.15 444.237ZM1125.85 436.157L1140.35 423.703L1125.35 406.224L1131.5 400.942L1146.51 418.422L1161.78 405.308L1143.51 384.018L1149.66 378.737L1174.9 408.137L1126.65 449.548L1101.75 420.532L1108.68 416.16L1125.85 436.157ZM1053.84 365.3L1066.44 349.475L1047.73 334.584L1052.78 328.24L1071.49 343.131L1088.38 321.899L1096.75 328.555L1057.15 378.301L1026.55 353.942L1032.54 348.343L1053.84 365.3ZM988.75 329.048L993.215 322.224L1004.7 329.741L1030.56 290.225L1019.07 282.708L1023.56 275.845L1055.56 296.782L1051.07 303.644L1039.58 296.127L1013.72 335.644L1025.21 343.161L1020.75 349.985L988.75 329.048ZM950.815 287.558C952.283 284.79 954.133 282.677 956.366 281.219C958.557 279.773 960.99 278.89 963.663 278.569C966.309 278.233 969.02 278.332 971.797 278.865L968.849 245.964L979.839 251.79L981.708 282.398L987.855 285.657L1000.11 262.535L1009.56 267.541L979.778 323.716L964.106 315.409C956.887 311.582 952.152 307.334 949.9 302.664C947.633 298.021 947.938 292.986 950.815 287.558ZM960.707 292.801C958.981 296.058 958.686 298.909 959.824 301.354C960.919 303.812 963.407 306.07 967.288 308.127L974.045 311.709L984.187 292.577L977.226 288.887C973.617 286.974 970.432 286.259 967.673 286.743C964.899 287.254 962.577 289.274 960.707 292.801ZM925.987 244.454L946.935 253.234L956.926 240.837L966.954 245.039L923.725 295.859L911.488 290.73L917.367 224.257L927.82 228.638L925.987 244.454ZM941.707 259.985L924.881 252.933L920.982 285.717L941.707 259.985ZM818.199 263.952C813.994 263.051 810.57 261.736 807.925 260.006C805.243 258.301 802.875 256.16 800.82 253.584L807.661 248.265C809.189 250.225 810.938 251.81 812.909 253.018C814.881 254.225 817.068 255.087 819.47 255.602C822.564 256.265 825.584 256.095 828.532 255.094C831.479 254.092 834.125 252.005 836.47 248.832C838.785 245.653 840.57 241.135 841.825 235.279C843.054 229.543 843.295 224.757 842.546 220.921C841.798 217.085 840.288 214.092 838.016 211.94C835.744 209.788 832.987 208.365 829.743 207.67C826.41 206.955 823.531 206.904 821.107 207.515C818.676 208.156 816.472 208.988 814.494 210.009L810.829 202.485C813.333 200.917 816.334 199.739 819.833 198.949C823.325 198.19 827.354 198.3 831.919 199.278C837.174 200.404 841.641 202.649 845.317 206.013C848.958 209.401 851.479 213.758 852.882 219.084C854.255 224.404 854.188 230.578 852.682 237.606C851.188 244.573 848.684 250.177 845.168 254.418C841.645 258.689 837.533 261.609 832.83 263.177C828.122 264.775 823.244 265.033 818.199 263.952ZM754.863 221.395C755.625 214.898 757.196 209.284 759.576 204.553C761.952 199.853 765.087 196.324 768.982 193.967C772.873 191.64 777.457 190.786 782.735 191.405C787.982 192.021 792.248 193.882 795.532 196.989C798.783 200.123 801.022 204.236 802.249 209.328C803.473 214.45 803.696 220.321 802.919 226.941C802.153 233.469 800.582 239.083 798.206 243.783C795.827 248.514 792.69 252.058 788.795 254.415C784.866 256.799 780.278 257.684 775.031 257.068C769.754 256.449 765.49 254.573 762.239 251.439C758.989 248.305 756.753 244.162 755.533 239.009C754.31 233.886 754.086 228.015 754.863 221.395ZM765.845 222.684C764.886 230.859 765.188 237.111 766.752 241.438C768.283 245.793 771.366 248.242 776.003 248.786C780.64 249.33 784.223 247.647 786.754 243.739C789.25 239.857 790.978 233.828 791.937 225.652C792.893 217.508 792.573 211.27 790.979 206.938C789.38 202.638 786.308 200.221 781.763 199.688C777.065 199.137 773.485 200.788 771.023 204.644C768.526 208.526 766.8 214.539 765.845 222.684ZM714.057 220.658C713.947 225.724 714.366 229.804 715.313 232.897C716.229 235.989 717.515 238.351 719.169 239.984C720.793 241.617 722.627 242.732 724.673 243.329C726.688 243.926 728.754 244.247 730.873 244.292L736.723 244.419L737.744 197.16L731.848 197.033C729.637 196.985 727.495 197.292 725.422 197.954C723.35 198.616 721.481 199.804 719.815 201.52C718.119 203.234 716.762 205.632 715.743 208.713C714.724 211.824 714.161 215.806 714.057 220.658ZM702.818 220.415C702.931 215.164 703.596 210.693 704.812 207.002C705.998 203.31 707.6 200.257 709.618 197.843C711.605 195.459 713.888 193.604 716.467 192.277C719.014 190.98 721.706 190.086 724.543 189.594C727.38 189.102 730.211 188.887 733.036 188.948L748.605 189.284L747.232 252.848L732.723 252.535C728.854 252.452 725.116 251.956 721.511 251.049C717.875 250.141 714.637 248.535 711.799 246.231C708.93 243.926 706.681 240.698 705.05 236.546C703.419 232.394 702.675 227.017 702.818 220.415ZM683.079 245.126L681.65 226.06L658.679 227.782L658.073 219.696L681.044 217.974L679.539 197.897L651.56 199.994L650.954 191.908L689.592 189.012L694.344 252.413L656.211 255.271L656.8 247.096L683.079 245.126ZM562.411 275.575L560.232 267.716L573.463 264.048L560.846 218.541L547.616 222.209L545.425 214.306L582.275 204.09L584.466 211.993L571.235 215.661L583.852 261.168L597.082 257.5L599.261 265.358L562.411 275.575ZM475.999 241.609L504.971 298.203L495.457 303.074L470.557 254.436L445.213 267.411L442.165 258.93L475.999 241.609ZM410.585 316.694C407.012 311.213 404.626 305.894 403.426 300.736C402.244 295.604 402.395 290.886 403.879 286.582C405.379 282.304 408.355 278.714 412.806 275.812C417.232 272.927 421.701 271.627 426.213 271.912C430.716 272.239 435.069 273.966 439.271 277.093C443.489 280.246 447.419 284.614 451.059 290.197C454.648 295.704 457.034 301.023 458.217 306.155C459.416 311.313 459.274 316.044 457.79 320.348C456.297 324.694 453.338 328.31 448.912 331.195C444.461 334.097 439.984 335.384 435.481 335.057C430.977 334.729 426.608 332.976 422.373 329.798C418.154 326.645 414.225 322.277 410.585 316.694ZM419.847 310.655C424.343 317.551 428.576 322.16 432.548 324.484C436.511 326.851 440.447 326.759 444.358 324.209C448.269 321.66 449.946 318.073 449.389 313.45C448.822 308.87 446.291 303.132 441.796 296.236C437.317 289.366 433.079 284.778 429.082 282.471C425.101 280.189 421.194 280.298 417.361 282.798C413.398 285.381 411.705 288.941 412.28 293.479C412.846 298.06 415.369 303.785 419.847 310.655ZM375.19 317.39L397.193 368.412L388.804 375.256L364.214 313.264L373.71 305.517L429.501 342.055L420.647 349.278L375.19 317.39ZM372.288 380.791L358.67 367.37L342.5 383.777L336.725 378.085L352.895 361.678L338.555 347.546L318.86 367.53L313.085 361.838L340.282 334.241L385.566 378.869L358.725 406.105L353.79 399.561L372.288 380.791ZM309.779 457.888L292.628 447.167L279.954 467.443L273.079 463.145L285.753 442.869L262.742 428.486L268.407 419.422L322.32 453.122L301.588 486.29L295.347 480.977L309.779 457.888ZM282.256 526.084L274.913 522.538L280.883 510.175L238.359 489.638L232.388 502.002L225.004 498.435L241.633 464.001L249.018 467.567L243.047 479.93L285.572 500.467L291.542 488.104L298.886 491.65L282.256 526.084ZM247.076 568.626C244.123 567.578 241.763 566.056 239.995 564.06C238.245 562.102 237.016 559.825 236.308 557.227C235.591 554.658 235.293 551.962 235.415 549.137L203.296 556.853L207.456 545.13L237.465 538.816L239.792 532.26L215.13 523.507L218.705 513.434L278.623 534.699L272.69 551.415C269.957 559.115 266.445 564.419 262.154 567.329C257.891 570.248 252.865 570.681 247.076 568.626ZM250.82 558.075C254.294 559.308 257.157 559.184 259.41 557.702C261.682 556.259 263.553 553.469 265.022 549.329L267.58 542.122L247.173 534.88L244.538 542.304C243.172 546.154 242.929 549.408 243.81 552.068C244.721 554.737 247.057 556.74 250.82 558.075ZM208.859 599.36L214.061 577.25L200.185 569.441L202.676 558.857L259.932 593.107L256.893 606.023L190.361 611.194L192.957 600.162L208.859 599.36ZM221.583 581.292L217.404 599.051L250.382 597.487L221.583 581.292ZM247.925 700.529C247.867 704.829 247.25 708.445 246.073 711.378C244.927 714.342 243.293 717.085 241.17 719.605L234.612 713.941C236.235 712.059 237.445 710.032 238.242 707.862C239.039 705.692 239.455 703.379 239.488 700.922C239.531 697.758 238.772 694.83 237.212 692.136C235.651 689.443 233.085 687.258 229.514 685.581C225.942 683.935 221.162 683.072 215.173 682.99C209.307 682.911 204.567 683.614 200.953 685.101C197.339 686.588 194.7 688.656 193.036 691.306C191.372 693.956 190.517 696.939 190.472 700.256C190.426 703.665 190.941 706.498 192.016 708.755C193.122 711.012 194.369 713.011 195.759 714.75L189.101 719.82C187.072 717.673 185.327 714.961 183.867 711.685C182.437 708.41 181.753 704.438 181.817 699.77C181.89 694.395 183.215 689.575 185.791 685.31C188.398 681.076 192.176 677.748 197.123 675.327C202.071 672.937 208.137 671.791 215.324 671.888C222.449 671.985 228.436 673.341 233.284 675.956C238.164 678.572 241.833 682.032 244.294 686.335C246.785 690.638 247.996 695.37 247.925 700.529ZM219.227 770.537C212.713 771.144 206.894 770.777 201.772 769.435C196.68 768.09 192.576 765.758 189.459 762.439C186.373 759.118 184.583 754.812 184.089 749.521C183.599 744.261 184.531 739.702 186.885 735.842C189.273 732.01 192.83 728.964 197.554 726.703C202.31 724.439 208.006 722.998 214.642 722.379C221.186 721.768 227.005 722.136 232.096 723.481C237.219 724.823 241.339 727.153 244.455 730.472C247.606 733.818 249.426 738.121 249.917 743.381C250.41 748.672 249.463 753.233 247.075 757.065C244.687 760.897 241.1 763.946 236.314 766.213C231.559 768.476 225.863 769.918 219.227 770.537ZM218.2 759.527C226.395 758.763 232.447 757.165 236.354 754.733C240.294 752.33 242.047 748.804 241.614 744.156C241.18 739.507 238.788 736.352 234.438 734.691C230.121 733.058 223.865 732.624 215.669 733.388C207.503 734.15 201.469 735.762 197.565 738.224C193.691 740.682 191.967 744.19 192.392 748.747C192.832 753.457 195.193 756.614 199.476 758.22C203.793 759.853 210.034 760.289 218.2 759.527ZM227.293 810.258C232.263 809.267 236.155 807.974 238.968 806.379C241.788 804.815 243.816 803.048 245.052 801.079C246.294 799.14 246.985 797.107 247.125 794.981C247.27 792.885 247.136 790.798 246.722 788.719L245.577 782.981L199.22 792.226L200.374 798.009C200.806 800.178 201.57 802.202 202.665 804.082C203.761 805.962 205.326 807.529 207.361 808.783C209.402 810.067 212.037 810.873 215.266 811.2C218.524 811.521 222.533 811.207 227.293 810.258ZM229.491 821.282C224.34 822.31 219.831 822.629 215.964 822.242C212.103 821.884 208.776 820.982 205.982 819.534C203.224 818.111 200.918 816.285 199.064 814.055C197.246 811.849 195.789 809.415 194.695 806.752C193.6 804.089 192.776 801.372 192.224 798.601L189.178 783.329L251.529 770.895L254.368 785.127C255.124 788.923 255.451 792.679 255.346 796.395C255.248 800.142 254.381 803.65 252.747 806.92C251.119 810.22 248.455 813.116 244.755 815.608C241.055 818.099 235.967 819.991 229.491 821.282ZM257.915 834.845L239.644 840.479L246.432 862.492L238.684 864.882L231.896 842.869L212.656 848.801L220.924 875.613L213.176 878.003L201.758 840.977L262.514 822.242L273.782 858.783L265.681 860.028L257.915 834.845ZM314.604 945.458L307.438 949.348L300.888 937.282L259.384 959.811L265.934 971.877L258.727 975.789L240.484 942.182L247.691 938.269L254.241 950.336L295.745 927.807L289.195 915.741L296.362 911.85L314.604 945.458ZM300.717 1037.47L349.73 996.971L356.538 1005.21L314.415 1040.01L332.551 1061.96L324.927 1066.77L300.717 1037.47ZM388.013 1085.71C383.388 1090.34 378.676 1093.77 373.877 1096.01C369.099 1098.23 364.452 1099.05 359.934 1098.49C355.438 1097.9 351.311 1095.73 347.553 1091.98C343.817 1088.24 341.622 1084.14 340.969 1079.66C340.36 1075.19 341.152 1070.57 343.344 1065.82C345.558 1061.04 349.021 1056.29 353.733 1051.58C358.38 1046.93 363.092 1043.5 367.869 1041.28C372.669 1039.04 377.327 1038.21 381.845 1038.77C386.406 1039.33 390.554 1041.48 394.291 1045.22C398.049 1048.97 400.233 1053.09 400.842 1057.56C401.451 1062.04 400.638 1066.67 398.402 1071.47C396.188 1076.25 392.725 1081 388.013 1085.71ZM380.193 1077.89C386.012 1072.07 389.648 1066.98 391.102 1062.61C392.6 1058.25 391.698 1054.41 388.396 1051.11C385.094 1047.81 381.238 1046.91 376.83 1048.41C372.465 1049.91 367.373 1053.57 361.554 1059.4C355.756 1065.2 352.141 1070.29 350.709 1074.68C349.298 1079.04 350.211 1082.84 353.448 1086.08C356.794 1089.42 360.627 1090.34 364.949 1088.84C369.314 1087.35 374.395 1083.7 380.193 1077.89ZM395.884 1120.55L441.657 1089.05L450.001 1095.95L393.969 1132.12L384.525 1124.31L409.524 1062.48L418.33 1069.76L395.884 1120.55ZM459.166 1111.82L448.406 1127.62L467.448 1140.58L462.884 1147.29L443.843 1134.32L432.512 1150.97L455.705 1166.76L451.141 1173.46L419.113 1151.65L454.895 1099.1L486.504 1120.62L480.95 1126.65L459.166 1111.82ZM547.325 1161.89L539.173 1180.4L561.056 1190.04L557.788 1197.46L535.905 1187.82L524.967 1212.66L515.185 1208.35L540.811 1150.16L576.608 1165.93L572.244 1172.87L547.325 1161.89ZM619.553 1180.46L616.963 1188.19L603.945 1183.83L588.949 1228.61L601.968 1232.97L599.364 1240.74L563.104 1228.6L565.708 1220.82L578.726 1225.18L593.722 1180.41L580.703 1176.05L583.292 1168.31L619.553 1180.46ZM666.726 1210.9C666.012 1213.95 664.76 1216.47 662.972 1218.45C661.221 1220.4 659.094 1221.88 656.591 1222.87C654.117 1223.87 651.47 1224.46 648.65 1224.65L659.879 1255.72L647.767 1252.88L638.165 1223.76L631.391 1222.17L625.427 1247.65L615.02 1245.22L629.51 1183.31L646.781 1187.35C654.736 1189.22 660.397 1192.12 663.764 1196.06C667.139 1199.97 668.126 1204.92 666.726 1210.9ZM655.825 1208.35C656.665 1204.76 656.224 1201.93 654.501 1199.86C652.816 1197.76 649.835 1196.21 645.558 1195.21L638.111 1193.46L633.176 1214.55L640.847 1216.34C644.825 1217.27 648.086 1217.15 650.631 1215.98C653.184 1214.78 654.915 1212.24 655.825 1208.35ZM701.674 1246.11L679.169 1243.04L672.718 1257.6L661.945 1256.13L690.585 1195.87L703.732 1197.66L715.217 1263.4L703.987 1261.87L701.674 1246.11ZM682.476 1235.17L700.553 1237.64L695.854 1204.96L682.476 1235.17ZM800.42 1199.14C804.714 1198.9 808.364 1199.26 811.371 1200.24C814.407 1201.17 817.255 1202.62 819.916 1204.56L814.717 1211.49C812.727 1210 810.623 1208.94 808.403 1208.29C806.183 1207.64 803.846 1207.39 801.393 1207.53C798.234 1207.7 795.365 1208.66 792.785 1210.4C790.206 1212.14 788.202 1214.86 786.776 1218.53C785.38 1222.21 784.848 1227.04 785.18 1233.02C785.504 1238.88 786.533 1243.56 788.265 1247.06C789.997 1250.56 792.243 1253.05 795.001 1254.53C797.759 1256.01 800.794 1256.65 804.106 1256.47C807.51 1256.28 810.301 1255.57 812.479 1254.35C814.654 1253.09 816.562 1251.7 818.201 1250.2L823.718 1256.49C821.716 1258.66 819.131 1260.59 815.964 1262.27C812.794 1263.93 808.879 1264.88 804.218 1265.14C798.851 1265.44 793.951 1264.45 789.518 1262.17C785.114 1259.86 781.534 1256.32 778.778 1251.55C776.053 1246.78 774.491 1240.81 774.093 1233.63C773.699 1226.52 774.639 1220.45 776.914 1215.43C779.188 1210.39 782.386 1206.49 786.509 1203.74C790.631 1200.95 795.268 1199.42 800.42 1199.14ZM872.626 1223.39C873.618 1229.86 873.596 1235.69 872.56 1240.88C871.519 1246.04 869.435 1250.28 866.307 1253.58C863.174 1256.86 858.982 1258.9 853.73 1259.71C848.508 1260.51 843.901 1259.85 839.908 1257.73C835.942 1255.57 832.69 1252.2 830.153 1247.62C827.612 1243.01 825.836 1237.41 824.824 1230.82C823.827 1224.32 823.849 1218.49 824.89 1213.33C825.926 1208.14 828.009 1203.89 831.137 1200.58C834.29 1197.24 838.478 1195.16 843.7 1194.36C848.952 1193.56 853.561 1194.23 857.528 1196.39C861.495 1198.54 864.751 1201.94 867.297 1206.59C869.838 1211.2 871.615 1216.8 872.626 1223.39ZM861.697 1225.07C860.448 1216.93 858.494 1210.98 855.836 1207.23C853.203 1203.44 849.579 1201.9 844.965 1202.6C840.35 1203.31 837.343 1205.89 835.942 1210.33C834.568 1214.73 834.505 1221.01 835.754 1229.14C836.998 1237.25 838.964 1243.18 841.653 1246.93C844.337 1250.65 847.941 1252.16 852.465 1251.47C857.14 1250.75 860.152 1248.21 861.501 1243.83C862.876 1239.43 862.941 1233.17 861.697 1225.07ZM912.021 1213.15C910.764 1208.24 909.263 1204.42 907.518 1201.7C905.804 1198.97 903.93 1197.04 901.898 1195.91C899.895 1194.77 897.828 1194.19 895.697 1194.17C893.596 1194.14 891.519 1194.38 889.466 1194.91L883.798 1196.36L895.53 1242.15L901.243 1240.69C903.385 1240.14 905.365 1239.27 907.183 1238.07C909.001 1236.88 910.482 1235.23 911.624 1233.13C912.796 1231.02 913.459 1228.35 913.611 1225.11C913.756 1221.84 913.226 1217.85 912.021 1213.15ZM922.911 1210.36C924.215 1215.45 924.777 1219.93 924.599 1223.81C924.45 1227.69 923.729 1231.06 922.434 1233.93C921.162 1236.76 919.463 1239.16 917.336 1241.13C915.232 1243.07 912.879 1244.65 910.279 1245.89C907.679 1247.12 905.011 1248.09 902.273 1248.8L887.188 1252.66L871.408 1191.07L885.467 1187.47C889.216 1186.51 892.949 1185.98 896.665 1185.88C900.412 1185.78 903.962 1186.46 907.315 1187.91C910.698 1189.36 913.734 1191.86 916.421 1195.42C919.109 1198.98 921.272 1203.96 922.911 1210.36ZM935.063 1181.25L941.632 1199.2L963.266 1191.29L966.052 1198.9L944.418 1206.82L951.335 1225.72L977.685 1216.08L980.471 1223.7L944.083 1237.01L922.239 1177.3L958.151 1164.16L959.812 1172.19L935.063 1181.25ZM1041.94 1118.78L1046.25 1125.7L1034.6 1132.96L1059.55 1173.05L1071.21 1165.79L1075.54 1172.76L1043.07 1192.96L1038.74 1186L1050.4 1178.75L1025.44 1138.65L1013.79 1145.91L1009.48 1138.99L1041.94 1118.78ZM1134.15 1126.64L1089.84 1081.04L1097.51 1073.59L1135.59 1112.78L1156.01 1092.93L1161.41 1100.15L1134.15 1126.64ZM1174.36 1035.62C1179.4 1039.78 1183.27 1044.15 1185.95 1048.72C1188.61 1053.26 1189.87 1057.81 1189.73 1062.36C1189.58 1066.89 1187.81 1071.21 1184.42 1075.3C1181.06 1079.38 1177.18 1081.95 1172.79 1083.02C1168.39 1084.05 1163.72 1083.7 1158.78 1081.97C1153.81 1080.22 1148.76 1077.22 1143.62 1072.97C1138.55 1068.79 1134.69 1064.42 1132.03 1059.87C1129.35 1055.31 1128.08 1050.75 1128.21 1046.2C1128.34 1041.61 1130.09 1037.27 1133.45 1033.2C1136.84 1029.1 1140.73 1026.54 1145.12 1025.51C1149.52 1024.48 1154.21 1024.85 1159.2 1026.62C1164.17 1028.37 1169.22 1031.37 1174.36 1035.62ZM1167.32 1044.14C1160.97 1038.9 1155.56 1035.76 1151.07 1034.73C1146.58 1033.65 1142.85 1034.91 1139.88 1038.51C1136.91 1042.11 1136.38 1046.03 1138.29 1050.28C1140.19 1054.48 1144.32 1059.21 1150.66 1064.45C1156.99 1069.67 1162.4 1072.79 1166.9 1073.8C1171.38 1074.79 1175.08 1073.52 1177.99 1069.99C1181.01 1066.35 1181.56 1062.44 1179.66 1058.28C1177.75 1054.08 1173.64 1049.37 1167.32 1044.14ZM1207.84 1024.38L1171.5 982.355L1177.44 973.302L1219.55 1025.01L1212.83 1035.26L1148.63 1017.22L1154.9 1007.66L1207.84 1024.38ZM1191.49 963.084L1208.52 971.768L1218.99 951.246L1226.21 954.929L1215.75 975.452L1233.68 984.597L1246.43 959.601L1253.65 963.284L1236.05 997.802L1179.41 968.923L1196.78 934.856L1203.46 939.606L1191.49 963.084ZM1227.9 870.66L1247.48 875.732L1253.48 852.585L1261.33 854.618L1255.33 877.765L1281.6 884.57L1278.92 894.917L1217.37 878.974L1227.18 841.109L1234.73 844.302L1227.9 870.66ZM1233.57 797.438L1241.64 798.601L1239.68 812.19L1286.43 818.923L1288.38 805.334L1296.5 806.503L1291.05 844.352L1282.93 843.183L1284.89 829.594L1238.15 822.861L1236.19 836.45L1228.12 835.287L1233.57 797.438ZM1254.31 746.217C1257.44 746.327 1260.15 747.068 1262.43 748.439C1264.69 749.778 1266.55 751.58 1268.01 753.844C1269.46 756.078 1270.56 758.559 1271.29 761.29L1299.6 744.26L1299.16 756.691L1272.45 771.749L1272.2 778.702L1298.36 779.621L1297.98 790.303L1234.44 788.069L1235.06 770.342C1235.35 762.177 1237.1 756.061 1240.32 751.995C1243.51 747.927 1248.17 746.001 1254.31 746.217ZM1253.91 757.406C1250.23 757.276 1247.54 758.257 1245.83 760.348C1244.1 762.408 1243.16 765.633 1243 770.022L1242.74 777.665L1264.38 778.426L1264.65 770.553C1264.8 766.47 1264.05 763.294 1262.41 761.023C1260.73 758.752 1257.9 757.546 1253.91 757.406ZM1281.6 705.349L1283.23 728.004L1298.81 731.316L1299.59 742.161L1234.72 726.555L1233.77 713.321L1295.73 688.534L1296.54 699.839L1281.6 705.349ZM1274.85 726.39L1273.54 708.193L1242.53 719.526L1274.85 726.39Z" fill="#822300"/>
</svg>
