<svg width="422" height="412" viewBox="0 0 422 412" fill="none" xmlns="http://www.w3.org/2000/svg">
<path d="M291.048 377.416L296.258 390.535L286.597 394.372L281.388 381.253L282.94 380.636L287.602 392.373L290.136 391.367L285.475 379.629L286.961 379.039L291.622 390.777L294.156 389.77L289.495 378.033L291.048 377.416ZM298.787 377.297C299.656 376.897 300.446 376.789 301.155 376.974C301.871 377.157 302.521 377.58 303.105 378.244C303.686 378.902 304.212 379.743 304.683 380.768C305.137 381.755 305.403 382.701 305.481 383.605C305.562 384.501 305.424 385.297 305.068 385.995C304.712 386.693 304.109 387.238 303.259 387.629C302.185 388.123 301.147 388.142 300.147 387.684L302.298 392.359L300.823 393.274L294.495 379.519L295.827 378.907L296.587 380.216C296.716 379.547 296.966 378.962 297.337 378.46C297.714 377.956 298.197 377.568 298.787 377.297ZM298.993 378.725C298.453 378.974 298.051 379.358 297.786 379.879C297.525 380.39 297.352 380.906 297.268 381.426L299.504 386.287C299.933 386.549 300.391 386.703 300.879 386.749C301.37 386.786 301.849 386.698 302.314 386.484C303.128 386.11 303.596 385.518 303.72 384.709C303.845 383.899 303.605 382.839 303.003 381.53C302.608 380.673 302.201 379.999 301.779 379.508C301.355 379.011 300.914 378.699 300.457 378.571C299.996 378.437 299.508 378.488 298.993 378.725ZM312.229 370.699L317.327 380.213L315.809 381.027L313.422 376.572C313.09 375.952 312.788 375.346 312.518 374.754C312.244 374.157 312.021 373.625 311.849 373.159L311.96 383.089L310.116 384.077L305.018 374.562L306.536 373.749L308.918 378.195C309.248 378.809 309.556 379.427 309.842 380.049C310.126 380.665 310.34 381.174 310.486 381.576L310.349 371.706L312.229 370.699ZM315.707 363.342L317.149 362.713L319.865 367.156C319.926 366.678 320.054 366.279 320.251 365.959C320.45 365.629 320.704 365.37 321.013 365.181C321.625 364.807 322.221 364.714 322.802 364.904C323.388 365.09 323.971 365.499 324.549 366.131C325.133 366.759 325.719 367.554 326.308 368.516C326.899 369.484 327.32 370.388 327.57 371.229C327.816 372.064 327.872 372.798 327.739 373.432C327.612 374.062 327.277 374.543 326.735 374.875C326.461 375.042 326.142 375.129 325.777 375.136C325.409 375.137 325.007 375.042 324.57 374.852L327.201 379.155L325.984 380.152L323.241 375.665C323.211 376.14 323.103 376.546 322.917 376.884C322.733 377.213 322.508 377.459 322.239 377.623C321.697 377.955 321.116 378.033 320.497 377.859C319.884 377.681 319.265 377.291 318.64 376.688C318.011 376.079 317.401 375.29 316.809 374.323C316.221 373.36 315.784 372.474 315.497 371.665C315.216 370.851 315.132 370.138 315.245 369.524C315.359 368.91 315.721 368.416 316.334 368.041C316.637 367.856 316.965 367.751 317.319 367.727C317.669 367.697 318.068 367.766 318.514 367.934L315.707 363.342ZM317.372 368.993C316.958 369.246 316.817 369.716 316.949 370.404C317.078 371.087 317.541 372.081 318.34 373.387C319.138 374.693 319.815 375.565 320.371 376.002C320.923 376.433 321.406 376.522 321.82 376.269C322.077 376.113 322.252 375.901 322.346 375.636C322.44 375.37 322.517 375.018 322.578 374.581L319.177 369.018C318.78 368.892 318.449 368.815 318.182 368.785C317.916 368.756 317.646 368.825 317.372 368.993ZM321.395 366.533C321.109 366.708 320.907 366.927 320.789 367.192C320.67 367.457 320.58 367.8 320.518 368.223L323.907 373.768C324.292 373.925 324.626 374.026 324.909 374.069C325.188 374.107 325.456 374.047 325.712 373.89C326.138 373.63 326.292 373.147 326.173 372.443C326.055 371.738 325.598 370.736 324.803 369.436C324.005 368.129 323.343 367.257 322.818 366.817C322.289 366.371 321.815 366.276 321.395 366.533ZM332.58 357.651L333.229 358.947L330.052 361.148L335.383 368.841L333.968 369.822L328.637 362.129L325.393 364.377L324.575 363.198L332.58 357.651ZM344.458 345.687L347.725 349.394L351.878 345.734L352.827 346.81L348.674 350.471L352.829 355.185L351.507 356.351L342.173 345.761L348.41 340.264L349.211 341.498L344.458 345.687ZM356.283 337.148L362.953 343.816L365.105 341.663L366.069 342.627L360.344 348.354L359.38 347.39L361.735 345.034L356.03 339.33L353.747 341.614L352.783 340.65L356.283 337.148ZM351.738 334.547C352.008 334.276 352.306 334.143 352.629 334.148C352.958 334.148 353.241 334.266 353.478 334.503C353.724 334.749 353.85 335.039 353.855 335.373C353.859 335.696 353.727 335.994 353.456 336.264C353.2 336.52 352.908 336.648 352.579 336.649C352.246 336.644 351.956 336.518 351.709 336.272C351.472 336.035 351.354 335.752 351.354 335.424C351.354 335.095 351.482 334.803 351.738 334.547ZM368.725 339.793L367.738 338.914L368.856 337.658L362.769 332.239L361.651 333.495L360.663 332.615L362.654 330.38L364.771 331.84C364.385 330.938 364.208 330.103 364.241 329.337C364.274 328.57 364.616 327.822 365.266 327.092C365.466 326.867 365.661 326.684 365.851 326.542C366.041 326.391 366.243 326.246 366.457 326.108L367.272 327.505C367.076 327.633 366.906 327.756 366.763 327.876C366.615 327.991 366.461 328.138 366.302 328.317C365.753 328.934 365.499 329.661 365.543 330.495C365.587 331.33 365.934 332.276 366.586 333.332L370.001 336.372L371.459 334.734L372.447 335.613L368.725 339.793ZM368.079 329.775L366.325 328.214L365.469 327.218L366.457 326.108L369.019 328.718L368.079 329.775ZM379.676 323.086C380.014 323.352 380.305 323.491 380.55 323.501C380.794 323.511 381.047 323.428 381.309 323.251L381.997 324.331C381.661 324.658 381.294 324.886 380.896 325.015C380.492 325.14 380.054 325.116 379.581 324.943C379.731 325.558 379.728 326.174 379.572 326.791C379.41 327.403 379.111 327.986 378.675 328.538C378.006 329.386 377.24 329.865 376.377 329.976C375.514 330.087 374.689 329.832 373.9 329.209C373.026 328.519 372.625 327.649 372.696 326.599C372.767 325.549 373.311 324.381 374.327 323.094L375.312 321.847L374.604 321.288C373.993 320.805 373.419 320.644 372.883 320.804C372.346 320.955 371.828 321.346 371.328 321.979C371.108 322.258 370.884 322.613 370.658 323.043C370.426 323.47 370.214 323.964 370.022 324.527L368.721 324.074C368.938 323.401 369.187 322.805 369.467 322.286C369.746 321.766 370.049 321.3 370.375 320.887C371.21 319.83 372.081 319.234 372.989 319.098C373.897 318.953 374.772 319.212 375.614 319.877L379.676 323.086ZM377.918 327.379C378.249 326.961 378.46 326.479 378.551 325.933C378.637 325.383 378.59 324.836 378.409 324.293L376.229 322.571L375.264 323.794C374.527 324.727 374.167 325.514 374.183 326.154C374.205 326.789 374.486 327.32 375.028 327.748C375.553 328.163 376.059 328.345 376.544 328.293C377.028 328.231 377.486 327.926 377.918 327.379ZM381.629 298.745C382.109 297.957 382.61 297.358 383.132 296.948C383.654 296.537 384.253 296.21 384.929 295.966L385.402 297.417C384.85 297.601 384.377 297.866 383.983 298.21C383.587 298.545 383.249 298.943 382.968 299.404C382.567 300.064 382.353 300.77 382.327 301.522C382.295 302.271 382.536 303.038 383.051 303.823C383.562 304.598 384.434 305.361 385.666 306.111C386.863 306.84 387.921 307.264 388.84 307.383C389.763 307.497 390.553 307.374 391.212 307.015C391.871 306.656 392.408 306.135 392.824 305.452C393.236 304.775 393.471 304.158 393.53 303.602C393.592 303.04 393.59 302.518 393.523 302.037L395 301.857C395.133 302.441 395.151 303.108 395.054 303.858C394.952 304.604 394.64 305.406 394.118 306.264C393.524 307.239 392.747 307.977 391.785 308.48C390.826 308.976 389.745 309.175 388.542 309.074C387.333 308.97 386.055 308.508 384.706 307.687C383.352 306.863 382.356 305.936 381.718 304.908C381.084 303.873 380.768 302.821 380.771 301.751C380.778 300.675 381.064 299.673 381.629 298.745ZM389.551 291.397C390.023 290.494 390.624 289.848 391.352 289.458C392.078 289.059 392.893 288.903 393.796 288.99C394.702 289.071 395.661 289.376 396.672 289.905C397.647 290.415 398.427 291.024 399.013 291.732C399.599 292.44 399.947 293.212 400.057 294.049C400.164 294.876 399.983 295.738 399.514 296.634C399.045 297.53 398.445 298.176 397.713 298.572C396.981 298.968 396.161 299.129 395.251 299.054C394.339 298.97 393.383 298.666 392.384 298.143C391.397 297.627 390.61 297.015 390.024 296.307C389.438 295.599 389.096 294.83 388.999 294C388.898 293.16 389.082 292.293 389.551 291.397ZM390.795 292.048C390.365 292.871 390.344 293.655 390.734 294.399C391.12 295.134 391.956 295.837 393.239 296.509C394.499 297.168 395.542 297.451 396.369 297.36C397.199 297.262 397.83 296.801 398.261 295.978C398.692 295.154 398.709 294.377 398.313 293.645C397.92 292.907 397.088 292.206 395.816 291.54C394.545 290.875 393.499 290.589 392.678 290.684C391.851 290.776 391.223 291.23 390.795 292.048ZM391.642 277.016L392.545 275.534L406.353 281.745L405.735 283.119L404.368 282.684C404.727 283.287 404.919 283.883 404.946 284.473C404.976 285.056 404.869 285.618 404.626 286.16C404.242 287.014 403.71 287.622 403.03 287.983C402.351 288.344 401.567 288.487 400.68 288.41C399.787 288.33 398.832 288.062 397.816 287.605C396.831 287.162 396.021 286.614 395.386 285.961C394.744 285.305 394.331 284.591 394.146 283.819C393.958 283.037 394.047 282.241 394.411 281.431C394.666 280.864 394.99 280.41 395.383 280.07C395.77 279.727 396.227 279.476 396.756 279.316L391.642 277.016ZM395.858 281.588C395.488 282.41 395.525 283.187 395.967 283.918C396.41 284.65 397.283 285.308 398.586 285.894C399.433 286.275 400.185 286.505 400.839 286.582C401.494 286.659 402.043 286.588 402.487 286.367C402.933 286.141 403.271 285.772 403.501 285.261C403.754 284.7 403.809 284.152 403.668 283.617C403.529 283.075 403.32 282.583 403.039 282.142L398.121 279.93C397.602 280.019 397.147 280.204 396.758 280.486C396.363 280.765 396.063 281.133 395.858 281.588ZM403.909 275C404.701 275.26 405.398 275.349 405.997 275.268C406.591 275.183 407.089 274.965 407.491 274.612C407.887 274.257 408.182 273.82 408.376 273.302C408.57 272.783 408.668 272.287 408.671 271.814C408.675 271.334 408.61 270.817 408.475 270.262L409.824 269.903C410.018 270.516 410.107 271.166 410.09 271.853C410.076 272.534 409.95 273.191 409.713 273.824C409.346 274.803 408.812 275.556 408.112 276.082C407.411 276.607 406.599 276.905 405.675 276.975C404.747 277.036 403.762 276.871 402.719 276.48C401.695 276.097 400.854 275.574 400.198 274.912C399.541 274.25 399.108 273.504 398.901 272.675C398.694 271.845 398.758 270.983 399.093 270.087C399.412 269.236 399.888 268.578 400.522 268.115C401.149 267.649 401.894 267.392 402.759 267.344C403.62 267.287 404.562 267.45 405.586 267.834C405.759 267.899 405.921 267.963 406.072 268.027C406.217 268.088 406.344 268.147 406.455 268.203L403.909 275ZM400.425 270.564C400.145 271.313 400.175 272.039 400.517 272.744C400.861 273.442 401.577 274.035 402.664 274.522L404.638 269.252C403.55 268.866 402.648 268.799 401.934 269.049C401.214 269.297 400.711 269.802 400.425 270.564ZM406.922 244.165L417.429 246.638L417.034 248.315L412.115 247.157C411.43 246.995 410.776 246.82 410.153 246.632C409.524 246.442 408.978 246.257 408.515 246.078L416.034 252.565L415.555 254.601L405.048 252.128L405.442 250.451L410.351 251.607C411.03 251.767 411.697 251.945 412.353 252.141C413.002 252.336 413.526 252.512 413.924 252.669L406.433 246.241L406.922 244.165ZM409.036 232.337L419.809 233.373L419.533 235L414.258 234.533C413.678 234.476 413.084 234.406 412.474 234.324C411.865 234.234 411.205 234.123 410.493 233.988L410.479 234.069L417.287 237.396L416.999 239.094L409.436 240.224L409.422 240.305C410.006 240.376 410.631 240.475 411.295 240.601C411.953 240.727 412.566 240.855 413.133 240.986L418.317 242.176L418.044 243.783L407.529 241.231L407.907 238.998L415.561 237.945L408.653 234.601L409.036 232.337ZM415.549 228.629C416.382 228.682 417.078 228.594 417.638 228.364C418.192 228.134 418.619 227.797 418.919 227.355C419.213 226.911 419.389 226.414 419.447 225.864C419.505 225.313 419.476 224.809 419.359 224.35C419.243 223.884 419.05 223.4 418.78 222.897L419.996 222.211C420.337 222.755 420.586 223.362 420.743 224.031C420.9 224.694 420.943 225.362 420.872 226.034C420.763 227.074 420.435 227.937 419.889 228.621C419.343 229.306 418.632 229.798 417.755 230.098C416.872 230.39 415.877 230.477 414.769 230.361C413.681 230.247 412.737 229.951 411.935 229.475C411.133 228.999 410.527 228.386 410.118 227.635C409.709 226.884 409.555 226.033 409.655 225.082C409.75 224.178 410.046 223.422 410.543 222.815C411.033 222.206 411.69 221.771 412.515 221.507C413.334 221.236 414.287 221.157 415.374 221.271C415.558 221.291 415.731 221.312 415.893 221.336C416.049 221.36 416.187 221.384 416.308 221.411L415.549 228.629ZM411.064 225.209C410.98 226.004 411.192 226.7 411.7 227.296C412.208 227.886 413.05 228.28 414.225 228.479L414.813 222.882C413.662 222.782 412.773 222.943 412.144 223.364C411.509 223.786 411.149 224.4 411.064 225.209ZM416.598 216.69C417.433 216.691 418.122 216.559 418.667 216.295C419.205 216.03 419.61 215.667 419.882 215.207C420.148 214.746 420.292 214.239 420.315 213.686C420.339 213.133 420.278 212.631 420.132 212.18C419.987 211.723 419.764 211.252 419.463 210.767L420.634 210.006C421.009 210.528 421.295 211.118 421.493 211.776C421.692 212.427 421.777 213.091 421.748 213.767C421.704 214.811 421.431 215.692 420.929 216.41C420.427 217.128 419.748 217.663 418.892 218.017C418.029 218.364 417.041 218.514 415.928 218.468C414.836 218.422 413.875 218.186 413.044 217.762C412.214 217.337 411.571 216.763 411.116 216.039C410.661 215.315 410.453 214.476 410.493 213.52C410.531 212.612 410.779 211.839 411.237 211.201C411.688 210.564 412.317 210.087 413.123 209.772C413.923 209.45 414.87 209.312 415.962 209.358C416.146 209.366 416.32 209.377 416.484 209.39C416.641 209.404 416.78 209.42 416.903 209.439L416.598 216.69ZM411.907 213.559C411.874 214.357 412.129 215.039 412.673 215.602C413.218 216.158 414.082 216.499 415.267 216.624L415.503 211.001C414.348 210.973 413.471 211.189 412.87 211.65C412.262 212.11 411.942 212.746 411.907 213.559ZM410.743 197.155L412.182 197.332L412.258 201.195L421.615 201.011L421.649 202.733L412.292 202.917L412.37 206.863L410.935 206.892L410.743 197.155ZM408.251 174.516L418.818 172.177L419.058 173.809L413.896 174.993C413.327 175.118 412.74 175.235 412.134 175.345C411.528 175.448 410.865 175.545 410.146 175.637L410.158 175.718L417.66 176.781L417.911 178.485L411.066 181.894L411.078 181.976C411.655 181.863 412.28 181.764 412.951 181.68C413.616 181.596 414.238 181.529 414.817 181.478L420.116 181.01L420.353 182.623L409.563 183.441L409.233 181.2L416.189 177.837L408.585 176.788L408.251 174.516ZM406.63 167.581C406.418 166.585 406.469 165.704 406.781 164.939C407.085 164.169 407.613 163.529 408.364 163.02C409.114 162.504 410.047 162.128 411.163 161.89C412.239 161.661 413.229 161.633 414.132 161.804C415.035 161.975 415.795 162.348 416.413 162.922C417.023 163.491 417.434 164.27 417.644 165.26C417.854 166.249 417.804 167.129 417.493 167.901C417.182 168.673 416.652 169.32 415.904 169.843C415.148 170.36 414.218 170.736 413.115 170.97C412.026 171.202 411.029 171.232 410.127 171.061C409.224 170.889 408.47 170.515 407.865 169.938C407.252 169.356 406.841 168.57 406.63 167.581ZM408.004 167.289C408.197 168.198 408.681 168.815 409.456 169.139C410.222 169.458 411.314 169.467 412.731 169.165C414.122 168.87 415.106 168.423 415.685 167.825C416.262 167.22 416.454 166.463 416.26 165.554C416.067 164.645 415.584 164.035 414.813 163.724C414.039 163.406 412.951 163.397 411.547 163.695C410.143 163.994 409.156 164.441 408.584 165.038C408.005 165.636 407.812 166.386 408.004 167.289ZM413.837 151.101L409.208 152.398L410.486 156.958L415.115 155.661L415.58 157.319L405.186 160.232L404.722 158.574L409.124 157.34L407.846 152.78L403.443 154.014L402.979 152.355L413.372 149.442L413.837 151.101ZM400.381 145.273C400.046 144.312 399.985 143.432 400.198 142.634C400.403 141.831 400.846 141.13 401.527 140.53C402.206 139.924 403.084 139.433 404.161 139.057C405.2 138.695 406.178 138.541 407.095 138.598C408.013 138.654 408.814 138.928 409.5 139.42C410.176 139.907 410.682 140.629 411.015 141.584C411.348 142.538 411.409 143.418 411.198 144.223C410.987 145.028 410.543 145.737 409.866 146.349C409.181 146.958 408.306 147.447 407.241 147.819C406.19 148.186 405.205 148.342 404.288 148.285C403.371 148.229 402.576 147.953 401.903 147.457C401.222 146.956 400.715 146.228 400.381 145.273ZM401.707 144.811C402.013 145.688 402.571 146.239 403.381 146.463C404.181 146.683 405.265 146.554 406.633 146.077C407.975 145.609 408.896 145.041 409.394 144.375C409.891 143.702 409.986 142.927 409.679 142.05C409.373 141.172 408.817 140.628 408.013 140.417C407.206 140.199 406.124 140.326 404.77 140.799C403.415 141.272 402.491 141.841 401.999 142.505C401.5 143.171 401.403 143.94 401.707 144.811ZM394.425 129.65L404.368 125.449L408.382 134.948L398.439 139.149L397.808 137.657L406.429 134.015L405.364 131.493L396.743 135.136L396.121 133.663L404.742 130.02L403.677 127.499L395.055 131.142L394.425 129.65ZM389.762 120.175L399.428 115.372L400.195 116.914L395.669 119.163C395.039 119.476 394.423 119.759 393.824 120.011C393.218 120.266 392.68 120.473 392.209 120.63L402.138 120.825L403.068 122.697L393.402 127.501L392.635 125.958L397.152 123.714C397.776 123.404 398.404 123.115 399.034 122.848C399.658 122.583 400.173 122.385 400.58 122.251L390.71 122.084L389.762 120.175ZM385.528 113.09C385.049 112.262 384.869 111.486 384.987 110.762C385.102 110.032 385.463 109.346 386.07 108.703C386.671 108.063 387.459 107.461 388.435 106.896C389.376 106.352 390.293 106 391.186 105.838C392.07 105.674 392.876 105.737 393.604 106.026C394.332 106.316 394.931 106.866 395.399 107.676C395.991 108.7 396.106 109.731 395.744 110.769L400.198 108.193L401.247 109.576L388.14 117.156L387.407 115.888L388.639 115.009C387.962 114.943 387.356 114.749 386.822 114.426C386.284 114.097 385.853 113.652 385.528 113.09ZM386.931 112.752C387.229 113.267 387.649 113.631 388.192 113.846C388.725 114.059 389.255 114.183 389.781 114.218L394.413 111.539C394.633 111.088 394.744 110.617 394.745 110.127C394.736 109.635 394.604 109.167 394.347 108.723C393.899 107.948 393.266 107.537 392.449 107.488C391.631 107.44 390.598 107.777 389.35 108.499C388.534 108.971 387.901 109.44 387.452 109.905C386.996 110.374 386.726 110.842 386.641 111.309C386.551 111.78 386.647 112.261 386.931 112.752ZM377.709 100.314L386.71 94.3562L387.661 95.7924L383.447 98.5815C382.86 98.97 382.284 99.3263 381.72 99.6504C381.15 99.9783 380.641 100.25 380.193 100.464L390.071 99.434L391.225 101.178L382.224 107.135L381.273 105.699L385.479 102.916C386.06 102.531 386.647 102.167 387.24 101.824C387.827 101.485 388.314 101.224 388.701 101.041L378.886 102.092L377.709 100.314ZM380.446 85.8483L376.609 88.7454L379.463 92.5249L383.3 89.6278L384.337 91.0022L375.723 97.5067L374.685 96.1323L378.334 93.3773L375.48 89.5978L371.831 92.3528L370.794 90.9784L379.408 84.4739L380.446 85.8483ZM372.646 76.3548L368.987 79.4737L372.06 83.0778L375.719 79.9589L376.836 81.2696L368.621 88.2721L367.504 86.9615L370.983 83.9955L367.911 80.3914L364.432 83.3573L363.314 82.0467L371.529 75.0442L372.646 76.3548ZM357.982 76.688C357.276 75.9548 356.852 75.181 356.713 74.3664C356.564 73.5517 356.673 72.7297 357.041 71.9003C357.404 71.066 357.997 70.2529 358.819 69.4609C359.611 68.6974 360.435 68.1495 361.292 67.8173C362.149 67.4851 362.991 67.3992 363.82 67.5594C364.639 67.7195 365.399 68.1637 366.101 68.8919C366.803 69.6202 367.226 70.394 367.37 71.2135C367.514 72.033 367.407 72.8623 367.049 73.7015C366.68 74.5405 366.09 75.3513 365.278 76.1338C364.476 76.9068 363.647 77.4594 362.79 77.7916C361.933 78.1238 361.096 78.205 360.277 78.0353C359.449 77.8653 358.684 77.4163 357.982 76.688ZM358.993 75.7134C359.638 76.3826 360.375 76.65 361.204 76.5154C362.024 76.3807 362.955 75.8106 363.998 74.8052C365.021 73.8188 365.62 72.9188 365.795 72.1052C365.965 71.2867 365.727 70.5428 365.082 69.8736C364.437 69.2044 363.705 68.942 362.885 69.0864C362.061 69.2259 361.132 69.7936 360.099 70.7895C359.066 71.7854 358.464 72.6878 358.295 73.4966C358.12 74.3102 358.353 75.0491 358.993 75.7134ZM355.723 60.8443C355.326 60.478 354.897 60.2025 354.435 60.0177C353.968 59.8283 353.496 59.6995 353.02 59.6314L353.167 58.2327C353.787 58.2564 354.42 58.4079 355.064 58.6869C355.709 58.966 356.265 59.3212 356.732 59.7524C357.52 60.4804 358.037 61.2699 358.284 62.1209C358.521 62.9724 358.502 63.8388 358.227 64.7202C357.948 65.6066 357.426 66.464 356.661 67.2924C355.928 68.0856 355.127 68.6615 354.256 69.0201C353.376 69.3791 352.492 69.4843 351.606 69.3357C350.715 69.1824 349.873 68.7395 349.08 68.0069C348.573 67.5386 348.17 67.0226 347.872 66.4589C347.564 65.8956 347.366 65.2893 347.278 64.64L348.674 64.3669C348.792 64.9135 348.969 65.4022 349.204 65.833C349.429 66.2641 349.717 66.642 350.068 66.9666C350.751 67.5972 351.55 67.8604 352.465 67.7564C353.379 67.6524 354.321 67.0757 355.29 66.0265C355.94 65.3237 356.37 64.6561 356.582 64.0238C356.784 63.3919 356.807 62.8083 356.65 62.2728C356.484 61.7378 356.175 61.2616 355.723 60.8443ZM337.229 57.6383L338.296 56.6569L341.288 59.1029L347.212 51.857L348.545 52.947L342.622 60.193L345.677 62.6909L344.769 63.802L337.229 57.6383ZM333.297 54.7182L335.298 51.9648L333.581 50.7176C332.674 50.0589 332.046 49.4124 331.696 48.778C331.336 48.1451 331.206 47.5224 331.304 46.9098C331.393 46.2988 331.655 45.6947 332.089 45.0976C332.595 44.4009 333.171 43.9452 333.817 43.7303C334.459 43.5209 335.11 43.4959 335.772 43.6554C336.433 43.8148 337.048 44.1013 337.618 44.5151L341.035 46.9973L334.691 55.7304L333.297 54.7182ZM334.401 49.641L336.093 50.87L338.828 47.1048L336.962 45.7492C336.376 45.3234 335.799 45.1067 335.23 45.0989C334.657 45.0967 334.11 45.455 333.587 46.1738C333.134 46.7986 332.947 47.381 333.028 47.9211C333.103 48.4571 333.561 49.0304 334.401 49.641ZM328.676 40.2895C328.496 40.5717 328.268 40.7829 327.992 40.923C327.713 41.0689 327.418 41.1364 327.109 41.1255C326.79 41.1167 326.487 41.0203 326.199 40.8365C325.905 40.649 325.687 40.4126 325.545 40.1273C325.399 39.8477 325.333 39.5504 325.348 39.2354C325.359 38.9262 325.454 38.6305 325.635 38.3482C325.815 38.0659 326.046 37.849 326.33 37.6973C326.609 37.5515 326.908 37.4829 327.227 37.4917C327.542 37.5063 327.846 37.6074 328.14 37.7949C328.428 37.9787 328.645 38.2104 328.791 38.49C328.927 38.7716 328.988 39.0699 328.974 39.3849C328.955 39.7057 328.856 40.0072 328.676 40.2895ZM310.564 27.9106L304.401 40.6097L302.815 39.8399L305.93 33.4212C306.294 32.6711 306.619 32.0239 306.906 31.4795C307.193 30.9351 307.47 30.4428 307.737 30.0026C308.001 29.5685 308.275 29.1282 308.56 28.6816L298.471 37.7318L296.414 36.7337L302.577 24.0347L304.164 24.8045L301.044 31.2324C300.573 32.2038 300.112 33.0819 299.663 33.8666C299.208 34.6483 298.806 35.3117 298.458 35.8568L308.48 26.8991L310.564 27.9106ZM287.058 29.1477L290.499 18.8869L292.022 19.5229L290.375 24.5564C290.189 25.1082 289.987 25.6718 289.769 26.2473C289.545 26.8201 289.287 27.4381 288.995 28.1013L289.071 28.1329L293.848 22.2519L295.438 22.9156L294.831 30.5387L294.907 30.5703C295.108 30.0174 295.346 29.4314 295.619 28.8124C295.89 28.1997 296.153 27.6319 296.408 27.109L298.738 22.3276L300.242 22.9557L295.382 32.624L293.292 31.751L293.994 24.057L289.177 30.0326L287.058 29.1477ZM269.131 23.3745C268.153 23.0933 267.399 22.635 266.871 21.9996C266.334 21.3689 266.017 20.6024 265.921 19.7002C265.818 18.796 265.924 17.7955 266.239 16.6986C266.543 15.6411 266.983 14.7543 267.559 14.0379C268.134 13.3216 268.821 12.8256 269.618 12.5499C270.407 12.2788 271.288 12.283 272.26 12.5623C273.232 12.8417 273.985 13.2999 274.52 13.9372C275.055 14.5745 275.378 15.3461 275.487 16.2521C275.588 17.1629 275.483 18.1601 275.171 19.2438C274.864 20.3144 274.422 21.2079 273.846 21.9242C273.271 22.6405 272.586 23.13 271.793 23.3926C270.991 23.6598 270.104 23.6538 269.131 23.3745ZM269.519 22.0247C270.413 22.2814 271.184 22.1441 271.835 21.6128C272.477 21.0862 272.998 20.1267 273.398 18.7342C273.79 17.3681 273.859 16.2891 273.603 15.4974C273.34 14.7038 272.762 14.1786 271.869 13.9219C270.976 13.6653 270.21 13.8044 269.573 14.3395C268.929 14.8727 268.409 15.8289 268.013 17.2082C267.617 18.5875 267.547 19.6698 267.805 20.4549C268.061 21.2467 268.633 21.7699 269.519 22.0247ZM254.12 19.3901L256.518 8.86561L258.197 9.24824L257.181 13.7059C257.663 13.4372 258.215 13.2582 258.839 13.1689C259.46 13.0862 260.101 13.1201 260.761 13.2704C261.78 13.5027 262.488 13.9479 262.885 14.6061C263.28 15.2709 263.366 16.0931 263.143 17.0725L262.195 21.2304L260.516 20.8477L261.418 16.8898C261.578 16.1902 261.546 15.6537 261.322 15.2804C261.091 14.9122 260.662 14.6568 260.036 14.514C259.529 14.3986 258.978 14.3853 258.383 14.474C257.782 14.5612 257.279 14.7549 256.874 15.0552L255.799 19.7727L254.12 19.3901ZM250.156 12.524C250.259 11.696 250.213 10.9955 250.017 10.4226C249.82 9.85637 249.51 9.40985 249.086 9.08301C248.662 8.76291 248.176 8.55742 247.63 8.46654C247.084 8.37566 246.579 8.37465 246.113 8.46351C245.642 8.55126 245.147 8.71484 244.629 8.95426L244.017 7.69889C244.581 7.39092 245.201 7.179 245.879 7.06313C246.55 6.94613 247.219 6.94317 247.886 7.05424C248.917 7.2259 249.758 7.60489 250.409 8.19121C251.06 8.77753 251.508 9.51725 251.754 10.4104C251.993 11.3091 252.021 12.3079 251.838 13.4067C251.658 14.4853 251.307 15.4106 250.783 16.1826C250.26 16.9545 249.611 17.5221 248.837 17.8851C248.063 18.2482 247.204 18.3512 246.261 18.1941C245.364 18.0449 244.628 17.7041 244.051 17.1717C243.473 16.646 243.078 15.9636 242.864 15.1244C242.643 14.2908 242.622 13.3347 242.801 12.2561C242.831 12.0741 242.863 11.9027 242.897 11.7421C242.93 11.5881 242.963 11.4516 242.996 11.3325L250.156 12.524ZM246.473 16.7953C247.261 16.9266 247.969 16.7568 248.594 16.2859C249.213 15.8139 249.657 14.9975 249.927 13.8369L244.375 12.913C244.206 14.0556 244.313 14.9533 244.696 15.6059C245.078 16.2653 245.67 16.6618 246.473 16.7953ZM233.717 5.41344L233.191 10.1924L237.899 10.7099L238.424 5.93095L240.136 6.11914L238.957 16.8488L237.245 16.6606L237.744 12.116L233.037 11.5985L232.537 16.1431L230.825 15.9549L232.005 5.22525L233.717 5.41344ZM225.08 15.5453L225.266 12.147L223.147 12.0316C222.028 11.9706 221.149 11.7687 220.511 11.426C219.865 11.0897 219.417 10.6375 219.168 10.0696C218.911 9.50804 218.802 8.85879 218.843 8.12181C218.889 7.262 219.126 6.56651 219.552 6.03534C219.977 5.51099 220.511 5.13627 221.153 4.91116C221.795 4.68605 222.467 4.59265 223.17 4.63094L227.387 4.86067L226.8 15.639L225.08 15.5453ZM223.251 10.6821L225.339 10.7959L225.592 6.14883L223.289 6.02336C222.566 5.98396 221.963 6.11539 221.481 6.41765C220.999 6.72675 220.734 7.32484 220.686 8.21194C220.644 8.98304 220.803 9.57348 221.164 9.98325C221.518 10.3927 222.214 10.6256 223.251 10.6821ZM195.004 15.7788L198.163 4.71164C198.373 3.96701 198.655 3.27983 199.008 2.6501C199.355 2.02076 199.828 1.49026 200.426 1.0586C201.016 0.620502 201.783 0.326235 202.726 0.175793L203.071 1.53171C202.335 1.69759 201.759 1.91919 201.344 2.19652C200.929 2.47385 200.61 2.81748 200.387 3.22741C200.157 3.63774 199.963 4.12475 199.804 4.68844L200.377 4.65525L204.767 15.2133L202.925 15.32L199.286 6.03275L196.785 15.6757L195.004 15.7788ZM184.233 16.9474L183.175 7.61729L183.893 6.12252L190.952 5.32208L192.037 6.61241C191.743 6.93457 191.515 7.3147 191.351 7.75279C191.181 8.19164 191.067 8.79603 191.01 9.56594C190.953 10.3359 190.953 11.3709 191.011 12.6711L191.16 16.162L184.233 16.9474ZM185.817 15.3544L189.453 14.9421L189.355 12.9828C189.304 11.9912 189.288 11.1539 189.307 10.4709C189.32 9.79541 189.373 9.2289 189.465 8.77135C189.552 8.32136 189.688 7.94144 189.873 7.6316C190.051 7.32932 190.284 7.04503 190.57 6.77874L184.917 7.41978L185.817 15.3544ZM192.76 6.5304L190.377 6.80068L190.157 5.41217L190.881 5.33017L190.836 2.30208L192.262 2.14037L192.76 6.5304ZM182.391 7.70623L181.893 3.3162L183.309 3.15565L183.954 6.11559L184.667 6.03474L184.775 7.43595L182.391 7.70623ZM176.701 18.365C175.698 18.5373 174.82 18.4522 174.068 18.1099C173.31 17.7754 172.691 17.2229 172.212 16.4522C171.727 15.6827 171.387 14.7356 171.194 13.6108C171.008 12.5264 171.018 11.5365 171.225 10.6412C171.432 9.74585 171.834 9.00068 172.433 8.40567C173.025 7.81854 173.82 7.43941 174.817 7.26825C175.814 7.0971 176.691 7.18213 177.45 7.52334C178.209 7.86455 178.835 8.41931 179.328 9.18763C179.814 9.96385 180.153 10.9076 180.344 12.019C180.533 13.1168 180.523 14.1134 180.317 15.0088C180.11 15.9041 179.706 16.6425 179.106 17.2241C178.5 17.8135 177.698 18.1938 176.701 18.365ZM176.464 16.9808C177.38 16.8236 178.015 16.3643 178.37 15.6031C178.719 14.8497 178.771 13.7591 178.526 12.3312C178.285 10.9302 177.877 9.92894 177.302 9.3273C176.721 8.72681 175.972 8.50521 175.056 8.66249C174.14 8.81976 173.512 9.27786 173.17 10.0368C172.822 10.7968 172.77 11.8841 173.013 13.2985C173.256 14.713 173.664 15.7176 174.237 16.3126C174.812 16.9142 175.554 17.137 176.464 16.9808ZM163.633 25.5196L162.591 24.3824C162.792 24.1886 163.023 23.9739 163.284 23.7381C163.547 23.5089 163.854 23.2623 164.207 22.9983C164.553 22.7358 164.964 22.448 165.438 22.1347C165.829 21.8829 166.167 21.6186 166.454 21.3418C166.734 21.0666 166.96 20.7373 167.13 20.3541C167.295 19.9724 167.392 19.4975 167.421 18.9294C167.445 18.3629 167.396 17.6657 167.274 16.8381L167.183 16.7644L166.64 14.4174C166.347 13.1524 165.885 12.2317 165.254 11.6554C164.624 11.0857 163.906 10.894 163.101 11.0805C162.615 11.193 162.199 11.3979 161.854 11.6952C161.504 12.0007 161.272 12.4542 161.159 13.0556C161.04 13.6653 161.099 14.4794 161.335 15.4981C161.631 16.7764 162.048 17.6267 162.588 18.0489C163.121 18.4727 163.724 18.6068 164.396 18.4511C164.849 18.3464 165.271 18.1399 165.663 17.8318C166.056 17.5304 166.383 17.1076 166.642 16.5634C166.897 16.0274 167.052 15.3497 167.108 14.5301L167.528 16.2532C167.426 17.1466 167.115 17.9236 166.595 18.5842C166.069 19.253 165.353 19.6922 164.448 19.9017C163.682 20.079 162.968 20.0408 162.306 19.7871C161.646 19.5401 161.073 19.0941 160.587 18.449C160.102 17.8106 159.744 16.9887 159.511 15.9833C159.251 14.8581 159.219 13.8588 159.417 12.9853C159.616 12.1185 160.008 11.4034 160.593 10.8401C161.172 10.2783 161.9 9.89573 162.779 9.69232C163.625 9.49661 164.432 9.52733 165.2 9.78448C165.969 10.0483 166.653 10.5775 167.251 11.3721C167.848 12.1667 168.308 13.2597 168.63 14.6512C168.969 16.116 169.149 17.3757 169.168 18.4304C169.183 19.4932 168.985 20.4123 168.575 21.1876C168.166 21.9628 167.492 22.6448 166.555 23.2334C166.084 23.5319 165.683 23.7967 165.35 24.0279C165.011 24.2607 164.707 24.4924 164.438 24.7231C164.17 24.9604 163.902 25.2259 163.633 25.5196ZM148.651 13.6916L149.994 18.3078L154.541 16.9845L153.198 12.3683L154.852 11.8871L157.868 22.2514L156.214 22.7326L154.937 18.3428L150.389 19.6661L151.667 24.0559L150.013 24.5371L146.997 14.1728L148.651 13.6916ZM142.915 27.1977C141.955 27.5396 141.076 27.6063 140.276 27.398C139.472 27.1984 138.768 26.7601 138.164 26.083C137.554 25.4082 137.057 24.5332 136.674 23.4582C136.305 22.4218 136.145 21.4448 136.195 20.5273C136.246 19.6097 136.514 18.8066 137.002 18.1178C137.485 17.4378 138.203 16.928 139.155 16.5885C140.108 16.2489 140.988 16.1822 141.794 16.3882C142.6 16.5942 143.312 17.0335 143.929 17.706C144.541 18.3873 145.037 19.259 145.415 20.3211C145.789 21.3704 145.951 22.3538 145.901 23.2714C145.851 24.1889 145.58 24.9856 145.088 25.6615C144.592 26.3461 143.867 26.8582 142.915 27.1977ZM142.443 25.8749C143.319 25.5629 143.866 25.0015 144.085 24.1907C144.3 23.3887 144.164 22.3053 143.677 20.9405C143.2 19.6016 142.627 18.685 141.957 18.1908C141.282 17.6989 140.506 17.609 139.63 17.921C138.755 18.233 138.214 18.7921 138.008 19.5983C137.796 20.4067 137.93 21.4869 138.412 22.8388C138.894 24.1906 139.468 25.1104 140.135 25.5982C140.805 26.0923 141.574 26.1846 142.443 25.8749ZM114.48 27.4043L118.617 35.822L122.868 33.7328L118.73 25.3151L120.276 24.5554L125.037 34.2427L117.696 37.8512L112.934 28.164L114.48 27.4043ZM107.502 43.5074L102.183 34.1145L103.682 33.2659L106.172 37.6635C106.519 38.276 106.834 38.8749 107.118 39.46C107.406 40.0511 107.641 40.5776 107.824 41.0394L107.482 31.1141L109.301 30.0837L114.62 39.4765L113.122 40.3251L110.636 35.9364C110.293 35.3299 109.971 34.7192 109.67 34.1043C109.372 33.4953 109.145 32.9914 108.99 32.5924L109.357 42.4567L107.502 43.5074ZM95.243 39.9356C94.7892 40.2281 94.4151 40.5748 94.1208 40.9759C93.8207 41.3807 93.5781 41.8054 93.393 42.2499L92.0756 41.7574C92.2535 41.1631 92.5581 40.5887 92.9895 40.0343C93.4208 39.4799 93.9036 39.0305 94.4378 38.6862C95.3396 38.105 96.2334 37.8013 97.1191 37.7752C98.0027 37.7586 98.8369 37.9934 99.6218 38.4794C100.41 38.9713 101.11 39.6911 101.721 40.6389C102.306 41.5465 102.663 42.4667 102.793 43.3995C102.92 44.3417 102.801 45.2232 102.436 46.044C102.065 46.8686 101.426 47.5733 100.518 48.1582C99.9378 48.5321 99.3376 48.793 98.7173 48.9407C98.095 49.0978 97.4584 49.1382 96.8075 49.0617L96.8921 47.6413C97.4509 47.6633 97.9683 47.6144 98.444 47.4948C98.9178 47.3846 99.3557 47.2 99.7578 46.9408C100.539 46.4373 100.994 45.7297 101.121 44.818C101.249 43.9063 100.926 42.8502 100.153 41.6496C99.6343 40.8454 99.0956 40.2617 98.5363 39.8985C97.975 39.5448 97.4155 39.3769 96.8579 39.3948C96.2983 39.4221 95.76 39.6024 95.243 39.9356ZM87.5061 57.0394L86.8235 55.7605L89.9412 53.4769L84.4109 45.9264L85.8003 44.9088L91.3306 52.4592L94.5145 50.1272L95.3625 51.285L87.5061 57.0394ZM74.0968 57.0919C73.8229 56.7597 73.5676 56.5628 73.3308 56.5011C73.094 56.4394 72.8292 56.4673 72.5363 56.5847L72.0913 55.384C72.489 55.1359 72.8962 54.9907 73.313 54.9483C73.7341 54.9112 74.1574 55.0272 74.5829 55.2964C74.5662 54.6637 74.6994 54.0624 74.9825 53.4925C75.2699 52.928 75.6852 52.4218 76.2284 51.9741C77.0617 51.2874 77.9116 50.9809 78.7784 51.0547C79.6451 51.1285 80.398 51.5531 81.0369 52.3283C81.7454 53.1879 81.9538 54.1231 81.6622 55.1339C81.3706 56.1447 80.592 57.1717 79.3263 58.2149L78.1002 59.2254L78.674 59.9216C79.1695 60.5227 79.696 60.8017 80.2537 60.7583C80.8104 60.7246 81.3998 60.4512 82.0221 59.9384C82.2964 59.7123 82.5898 59.4129 82.9024 59.0401C83.2194 58.6726 83.5311 58.2341 83.8375 57.7248L85.0136 58.4425C84.6585 59.054 84.2895 59.584 83.9064 60.0325C83.5233 60.4811 83.1288 60.8727 82.7227 61.2074C81.6838 62.0637 80.706 62.4622 79.7893 62.403C78.8717 62.3534 78.0717 61.9146 77.3893 61.0867L74.0968 57.0919ZM76.7228 53.267C76.3115 53.6061 76.0034 54.0327 75.7984 54.547C75.5979 55.0665 75.5284 55.6108 75.5901 56.1799L77.357 58.3237L78.5594 57.3326C79.477 56.5763 79.9952 55.8835 80.1141 55.2541C80.2278 54.6291 80.0651 54.0503 79.6261 53.5177C79.2001 53.0009 78.7445 52.7166 78.2591 52.665C77.7728 52.623 77.2607 52.8237 76.7228 53.267ZM74.8754 67.696L72.5554 65.206L71.0029 66.6525C70.1829 67.4165 69.4281 67.9097 68.7384 68.1319C68.0484 68.3638 67.4123 68.3728 66.8299 68.1588C66.2472 67.9545 65.7043 67.5823 65.2012 67.0423C64.6142 66.4123 64.277 65.7597 64.1896 65.0845C64.1069 64.4143 64.2071 63.7699 64.49 63.1513C64.773 62.5327 65.172 61.9835 65.687 61.5036L68.7769 58.6245L76.1354 66.522L74.8754 67.696ZM70.1029 65.6416L71.6329 64.216L68.4603 60.811L66.7728 62.3833C66.2428 62.8772 65.9197 63.4025 65.8033 63.9593C65.6916 64.5211 65.9385 65.127 66.5442 65.7769C67.0706 66.3419 67.6066 66.6365 68.1521 66.6606C68.6927 66.6894 69.3429 66.3497 70.1029 65.6416ZM49.6569 80.234C49.3086 80.6465 49.0523 81.0875 48.8882 81.5572C48.7197 82.0321 48.612 82.5092 48.5651 82.9884L47.1613 82.903C47.1575 82.2826 47.2807 81.6442 47.5309 80.9879C47.7811 80.3315 48.1112 79.7605 48.5213 79.2749C49.2136 78.4552 49.9793 77.9033 50.8186 77.6192C51.6587 77.3447 52.5251 77.325 53.4178 77.5601C54.3157 77.7997 55.1955 78.2832 56.057 79.0108C56.8819 79.7074 57.4928 80.4828 57.8897 81.3368C58.2874 82.2004 58.4317 83.0781 58.3226 83.9699C58.2091 84.867 57.804 85.728 57.1073 86.5529C56.662 87.0802 56.1643 87.5053 55.6145 87.8281C55.0654 88.1605 54.4685 88.3854 53.8237 88.5027L53.4889 87.1198C54.0297 86.9772 54.5101 86.7791 54.93 86.5255C55.3507 86.2815 55.7154 85.9767 56.0241 85.6113C56.6238 84.9012 56.8513 84.0915 56.7068 83.1823C56.5623 82.2731 55.9444 81.3577 54.8532 80.4361C54.1222 79.8188 53.4362 79.4184 52.7952 79.2348C52.1549 79.0608 51.5708 79.064 51.0429 79.2443C50.5157 79.4342 50.0537 79.7641 49.6569 80.234ZM47.2455 98.8557L46.2197 97.8312L48.5364 94.738L41.0454 89.1275L42.0778 87.7491L49.5688 93.3596L51.9347 90.2008L53.0834 91.0611L47.2455 98.8557ZM34.4883 102.834C34.1281 102.598 33.8258 102.486 33.5814 102.497C33.337 102.509 33.0924 102.614 32.8476 102.813L32.066 101.799C32.3721 101.444 32.7179 101.184 33.1032 101.02C33.4943 100.86 33.9329 100.845 34.4192 100.975C34.2154 100.376 34.164 99.7623 34.2651 99.1341C34.3719 98.5096 34.6181 97.903 35.0039 97.3142C35.5955 96.411 36.3162 95.8659 37.1657 95.679C38.0153 95.492 38.8602 95.6738 39.7006 96.2243C40.6324 96.8347 41.1091 97.6658 41.1309 98.7176C41.1526 99.7695 40.7141 100.981 39.8154 102.353L38.9447 103.682L39.6993 104.177C40.351 104.604 40.9366 104.714 41.4562 104.507C41.9778 104.309 42.4595 103.873 42.9014 103.198C43.0961 102.901 43.2874 102.528 43.4752 102.079C43.6687 101.634 43.8362 101.123 43.9775 100.546L45.3136 100.882C45.1562 101.571 44.9612 102.187 44.7286 102.729C44.496 103.271 44.2356 103.762 43.9472 104.202C43.2095 105.328 42.3942 105.999 41.5013 106.215C40.6103 106.44 39.7161 106.259 38.8186 105.671L34.4883 102.834ZM35.8599 98.4019C35.5678 98.8478 35.4003 99.3467 35.3573 99.8986C35.3201 100.454 35.4155 100.995 35.6434 101.52L37.9672 103.042L38.821 101.739C39.4726 100.744 39.7617 99.9285 39.6883 99.2922C39.6112 98.6617 39.284 98.1573 38.7066 97.779C38.1464 97.412 37.6269 97.276 37.1481 97.3708C36.6713 97.4751 36.2419 97.8188 35.8599 98.4019ZM40.077 118.974L38.5347 118.964C38.5291 118.685 38.5287 118.37 38.5333 118.018C38.544 117.67 38.5724 117.276 38.6188 116.838C38.6617 116.406 38.7297 115.909 38.8229 115.348C38.904 114.891 38.9405 114.463 38.9326 114.064C38.9212 113.672 38.8331 113.282 38.6683 112.897C38.5001 112.517 38.218 112.123 37.8218 111.714C37.4222 111.312 36.8777 110.874 36.1883 110.4L36.0726 110.416L33.9826 109.219C32.856 108.573 31.8668 108.286 31.0148 108.356C30.1687 108.431 29.5401 108.827 29.1289 109.544C28.8809 109.977 28.7485 110.421 28.7318 110.876C28.7176 111.341 28.8925 111.819 29.2563 112.311C29.6227 112.813 30.2595 113.323 31.1667 113.843C32.3051 114.496 33.2126 114.768 33.8891 114.659C34.5623 114.557 35.0705 114.206 35.4137 113.607C35.6448 113.204 35.7806 112.754 35.821 112.257C35.8675 111.764 35.7796 111.237 35.5573 110.676C35.3377 110.125 34.9464 109.55 34.3834 108.952L35.9323 109.816C36.518 110.498 36.876 111.255 37.0063 112.086C37.1391 112.926 36.9745 113.749 36.5123 114.556C36.1215 115.238 35.6081 115.735 34.9719 116.048C34.3417 116.364 33.6249 116.481 32.8214 116.398C32.0239 116.319 31.1774 116.023 30.2821 115.51C29.2801 114.936 28.5261 114.279 28.0202 113.54C27.5201 112.805 27.2626 112.031 27.2475 111.219C27.2291 110.413 27.4441 109.618 27.8927 108.836C28.3243 108.083 28.8955 107.512 29.6063 107.124C30.3231 106.739 31.176 106.598 32.1651 106.7C33.1541 106.802 34.2683 107.208 35.5075 107.919C36.8119 108.666 37.8574 109.391 38.644 110.094C39.4331 110.806 39.9724 111.576 40.2621 112.404C40.5518 113.232 40.5938 114.189 40.3881 115.276C40.2866 115.825 40.2075 116.299 40.1511 116.7C40.0912 117.107 40.0543 117.488 40.0403 117.842C40.0322 118.2 40.0444 118.577 40.077 118.974ZM30.2107 128.248L20.521 123.491L21.2799 121.945L25.8164 124.172C26.4483 124.482 27.0466 124.799 27.6113 125.122C28.1822 125.448 28.6734 125.75 29.085 126.028L23.2042 118.025L24.1258 116.148L33.8155 120.904L33.0565 122.45L28.5292 120.228C27.9034 119.921 27.2929 119.598 26.6975 119.26C26.1082 118.925 25.637 118.637 25.2837 118.395L31.1503 126.334L30.2107 128.248ZM25.5437 139.142L15.5846 134.978L16.2489 133.389L24.8839 136.999L26.4416 133.273L23.9072 131.947C22.8318 131.401 21.9705 130.919 21.3233 130.5C20.6798 130.09 20.1846 129.698 19.8375 129.323C19.4905 128.949 19.2447 128.553 19.1 128.137C18.9591 127.73 18.8579 127.255 18.7966 126.71L20.0987 126.466C20.1462 126.76 20.22 127.035 20.3201 127.292C20.4265 127.551 20.6197 127.824 20.8995 128.112C21.1767 128.405 21.5987 128.734 22.1655 129.096C22.7297 129.466 23.4972 129.898 24.4681 130.392L28.3667 132.389L25.5437 139.142ZM23.6886 144.248L20.4696 143.143L19.7807 145.15C19.4168 146.21 18.983 147.001 18.4791 147.521C17.9795 148.051 17.4224 148.358 16.8078 148.443C16.1975 148.537 15.5434 148.464 14.8453 148.225C14.0308 147.945 13.4262 147.528 13.0313 146.973C12.6429 146.421 12.4279 145.805 12.3864 145.126C12.3449 144.447 12.4385 143.775 12.667 143.109L14.0382 139.115L24.2477 142.619L23.6886 144.248ZM18.5109 144.682L19.1898 142.704L14.788 141.193L14.0391 143.374C13.804 144.06 13.7661 144.675 13.9254 145.221C14.0913 145.769 14.5944 146.188 15.4346 146.476C16.1651 146.727 16.7766 146.735 17.2693 146.499C17.7598 146.27 18.1736 145.664 18.5109 144.682ZM8.61729 156.507L13.2513 157.788L14.5128 153.223L9.87884 151.942L10.3376 150.282L20.7418 153.158L20.2831 154.818L15.8764 153.6L14.6148 158.165L19.0216 159.383L18.5628 161.042L8.15855 158.167L8.61729 156.507ZM15.9457 173.142L6.07361 167.226C5.40878 166.83 4.81803 166.38 4.30136 165.875C3.7833 165.377 3.39321 164.783 3.13107 164.094C2.86086 163.41 2.77516 162.593 2.87395 161.644L4.27309 161.661C4.24261 162.415 4.30755 163.029 4.46792 163.502C4.62829 163.975 4.87763 164.372 5.21592 164.693C5.55283 165.021 5.97294 165.335 6.47623 165.634L6.59255 165.072L17.9273 163.565L17.5534 165.372L7.64066 166.482L16.3071 171.395L15.9457 173.142ZM14.9134 181.544C14.7924 182.39 14.4694 183.055 13.9445 183.539C13.4253 184.03 12.7308 184.349 11.861 184.493C10.9901 184.645 9.9763 184.638 8.81949 184.472C7.71002 184.313 6.75474 184.042 5.95365 183.658C5.15159 183.281 4.55638 182.785 4.16804 182.17C3.77969 181.555 3.6475 180.815 3.77146 179.949C3.88767 179.137 4.19953 178.502 4.70706 178.043C5.22136 177.585 5.87285 177.278 6.66153 177.122C7.45022 176.965 8.32102 176.935 9.27393 177.03L9.46858 175.67L4.71954 174.99L4.96067 173.305L15.646 174.835L15.4049 176.52L10.8892 175.873L10.6946 177.233C11.662 177.42 12.481 177.703 13.1516 178.082C13.8222 178.461 14.3097 178.938 14.6139 179.513C14.925 180.089 15.0248 180.766 14.9134 181.544ZM13.5131 181.344C13.6177 180.613 13.3467 180.07 12.7003 179.715C12.0538 179.36 11.0202 179.081 9.59958 178.878C8.74042 178.755 7.99239 178.7 7.35548 178.712C6.71858 178.724 6.21163 178.842 5.83464 179.064C5.46442 179.287 5.24348 179.649 5.17181 180.15C5.09822 180.664 5.20731 181.083 5.49909 181.408C5.79667 181.741 6.24938 182.002 6.85724 182.193C7.47186 182.384 8.21213 182.542 9.07805 182.666C10.4852 182.867 11.5507 182.875 12.2746 182.689C12.9976 182.509 13.4104 182.061 13.5131 181.344ZM13.0508 207.005L2.25778 206.838L2.28451 205.116L7.33763 205.194C8.04144 205.205 8.71761 205.236 9.36612 205.287C10.0215 205.338 10.5946 205.402 11.0855 205.478L2.35227 200.75L2.38472 198.659L13.1777 198.826L13.151 200.548L8.1081 200.47C7.41112 200.459 6.72129 200.428 6.03861 200.376C5.36276 200.325 4.81349 200.265 4.39079 200.197L13.0838 204.873L13.0508 207.005ZM14.4354 228.322L14.625 230.034L3.8963 231.222L2.99576 223.092L13.7244 221.903L13.914 223.615L4.61176 224.645L5.13312 229.353L14.4354 228.322ZM5.47496 232.718L1.08364 233.205L0.926784 231.788L3.88952 231.161L3.8094 230.438L5.21089 230.334L5.47496 232.718ZM16.5252 241.621L5.89068 243.471L5.59552 241.775L10.5745 240.909C11.268 240.788 11.938 240.692 12.5847 240.621C13.2381 240.549 13.813 240.505 14.3095 240.488L4.84707 237.472L4.48866 235.412L15.1232 233.562L15.4184 235.259L10.4495 236.123C9.76277 236.243 9.07924 236.341 8.39893 236.417C7.72535 236.493 7.17457 236.537 6.74659 236.549L16.1598 239.521L16.5252 241.621ZM22.4285 247.121L22.5837 248.687L17.5207 249.905C17.9564 250.109 18.2966 250.354 18.541 250.64C18.7937 250.93 18.9624 251.252 19.0471 251.604C19.215 252.302 19.1194 252.898 18.7603 253.392C18.4028 253.892 17.8346 254.321 17.0557 254.677C16.2784 255.04 15.3416 255.353 14.2453 255.617C13.1423 255.882 12.1525 256.004 11.2759 255.983C10.4059 255.961 9.68966 255.788 9.12728 255.467C8.56651 255.152 8.21178 254.686 8.0631 254.068C7.98797 253.755 8.00333 253.425 8.10919 253.076C8.22169 252.726 8.43533 252.372 8.75011 252.015L3.84658 253.195L3.27278 251.73L8.38562 250.5C7.94294 250.325 7.58941 250.098 7.32504 249.817C7.0689 249.541 6.90407 249.25 6.83053 248.945C6.68185 248.327 6.78559 247.75 7.14173 247.215C7.49948 246.686 8.0614 246.217 8.8275 245.807C9.60024 245.396 10.5381 245.058 11.6411 244.793C12.7374 244.529 13.7149 244.385 14.5738 244.361C15.4342 244.344 16.1391 244.484 16.6884 244.781C17.2377 245.077 17.5963 245.574 17.7642 246.272C17.8473 246.617 17.8459 246.962 17.76 247.306C17.6807 247.649 17.4927 248.007 17.196 248.38L22.4285 247.121ZM16.5397 246.967C16.4262 246.495 16.0218 246.217 15.3264 246.131C14.6376 246.044 13.549 246.179 12.0607 246.537C10.5724 246.895 9.53473 247.271 8.94778 247.666C8.36747 248.058 8.13407 248.491 8.24758 248.962C8.31792 249.255 8.46504 249.486 8.68895 249.657C8.91287 249.828 9.2237 250.01 9.62147 250.203L15.9602 248.678C16.2019 248.338 16.3777 248.046 16.4876 247.802C16.5975 247.558 16.6149 247.279 16.5397 246.967ZM17.6428 251.552C17.5645 251.226 17.4176 250.966 17.2022 250.772C16.9868 250.578 16.6876 250.386 16.3048 250.197L9.98596 251.718C9.71794 252.035 9.51981 252.322 9.39157 252.578C9.26998 252.832 9.24435 253.105 9.31469 253.397C9.43139 253.882 9.84317 254.177 10.55 254.281C11.2569 254.385 12.3511 254.259 13.8328 253.902C15.3212 253.544 16.3554 253.183 16.9354 252.819C17.5221 252.452 17.7579 252.03 17.6428 251.552ZM21.679 260.771C21.9613 261.685 21.9642 262.481 21.6875 263.16C21.4129 263.846 20.9081 264.435 20.173 264.926C19.4445 265.416 18.5415 265.827 17.4641 266.16C16.4259 266.481 15.4533 266.62 14.5463 266.578C13.6479 266.541 12.8762 266.3 12.2311 265.856C11.586 265.411 11.1253 264.742 10.849 263.847C10.5001 262.717 10.6181 261.687 11.203 260.755L6.28616 262.274L5.57229 260.692L20.0388 256.224L20.4713 257.624L19.0739 258.206C19.7197 258.422 20.267 258.746 20.7156 259.18C21.1663 259.62 21.4874 260.15 21.679 260.771ZM20.2357 260.787C20.0603 260.219 19.732 259.77 19.2508 259.439C18.7781 259.113 18.2895 258.874 17.7849 258.722L12.6722 260.301C12.3565 260.692 12.1437 261.126 12.0337 261.604C11.9322 262.086 11.9571 262.571 12.1083 263.061C12.3725 263.917 12.8976 264.459 13.6837 264.688C14.4697 264.917 15.5517 264.819 16.9294 264.394C17.8305 264.116 18.5519 263.8 19.0937 263.447C19.642 263.091 20.0096 262.695 20.1966 262.258C20.3901 261.819 20.4031 261.329 20.2357 260.787ZM25.2357 271.049C25.5966 272.001 25.6808 272.879 25.4885 273.683C25.305 274.49 24.8808 275.203 24.2159 275.82C23.5534 276.444 22.6885 276.958 21.6213 277.363C20.5925 277.753 19.6189 277.932 18.7005 277.9C17.7822 277.868 16.9738 277.615 16.2755 277.142C15.586 276.672 15.0619 275.965 14.7035 275.019C14.345 274.073 14.2607 273.195 14.4506 272.385C14.6405 271.575 15.0655 270.855 15.7256 270.225C16.3945 269.598 17.2561 269.085 18.3105 268.686C19.3522 268.291 20.3321 268.109 21.2505 268.141C22.1689 268.173 22.9708 268.429 23.6564 268.907C24.3508 269.389 24.8772 270.103 25.2357 271.049ZM23.9224 271.547C23.593 270.678 23.0208 270.142 22.2059 269.939C21.3997 269.74 20.3193 269.898 18.9645 270.411C17.6353 270.915 16.7303 271.506 16.2496 272.186C15.7713 272.871 15.6969 273.648 16.0263 274.518C16.3557 275.387 16.9255 275.916 17.7356 276.106C18.5481 276.302 19.6254 276.146 20.9674 275.638C22.3093 275.129 23.2175 274.536 23.6918 273.859C24.1726 273.18 24.2494 272.409 23.9224 271.547ZM29.5959 281.55C29.9656 282.366 30.1864 283.117 30.2581 283.805C30.3299 284.493 30.2493 285.085 30.0164 285.581C29.7925 286.08 29.4036 286.455 28.8497 286.706C28.3393 286.938 27.837 286.996 27.3428 286.883C26.8548 286.766 26.3422 286.372 25.8049 285.701C26.1078 286.584 26.1533 287.321 25.9412 287.912C25.7353 288.501 25.259 288.965 24.5121 289.303C23.8274 289.614 23.1843 289.676 22.5827 289.492C21.9873 289.304 21.4475 288.941 20.9633 288.402C20.4819 287.87 20.0705 287.228 19.729 286.475L18.0441 282.759L27.7443 278.36C28.0719 278.835 28.3924 279.335 28.7058 279.86C29.0283 280.39 29.325 280.953 29.5959 281.55ZM28.3533 282.136C28.184 281.763 28.0307 281.45 27.8935 281.197C27.7563 280.944 27.6013 280.676 27.4285 280.395L20.025 283.752L20.9818 285.862C21.3599 286.696 21.7743 287.262 22.2248 287.56C22.6753 287.859 23.1806 287.881 23.7408 287.627C24.22 287.41 24.5214 287.123 24.6451 286.767C24.7749 286.408 24.7942 286.02 24.703 285.604C24.618 285.184 24.4851 284.776 24.3045 284.377L23.2039 281.95L24.4362 281.391L25.4903 283.716C25.7838 284.363 26.1239 284.832 26.5105 285.122C26.9033 285.409 27.3891 285.421 27.9679 285.159C28.5032 284.916 28.7909 284.549 28.8309 284.058C28.871 283.567 28.7118 282.927 28.3533 282.136ZM36.883 296.571L25.5058 298.308C24.7413 298.427 23.9991 298.457 23.2793 298.397C22.5627 298.344 21.8836 298.135 21.2422 297.771C20.598 297.417 20.0112 296.842 19.4818 296.048L20.5708 295.169C21.0283 295.769 21.4695 296.201 21.8945 296.463C22.3196 296.725 22.7648 296.872 23.2302 296.904C23.6988 296.941 24.2225 296.915 24.8012 296.825L24.5324 296.318L32.3039 287.93L33.1679 289.561L26.239 296.736L36.0478 294.995L36.883 296.571ZM41.4457 303.693C41.8921 304.422 42.0676 305.14 41.9723 305.847C41.8865 306.557 41.5548 307.245 40.9774 307.912C40.4036 308.584 39.6185 309.226 38.6222 309.836C37.6666 310.422 36.7579 310.823 35.8961 311.038C35.0379 311.26 34.2632 311.258 33.5719 311.032C32.8806 310.807 32.3063 310.321 31.8492 309.575C31.4207 308.876 31.2554 308.188 31.3533 307.51C31.457 306.83 31.7626 306.177 32.2701 305.554C32.7776 304.93 33.4285 304.351 34.2228 303.816L33.5049 302.645L29.4147 305.152L28.5254 303.701L37.7286 298.06L38.6178 299.511L34.7285 301.895L35.4464 303.066C36.3104 302.593 37.1215 302.288 37.8797 302.152C38.6379 302.016 39.3177 302.072 39.919 302.321C40.5261 302.566 41.035 303.023 41.4457 303.693ZM40.2396 304.432C39.8539 303.803 39.2989 303.558 38.5747 303.698C37.8505 303.837 36.8766 304.281 35.653 305.031C34.9131 305.485 34.3018 305.92 33.8193 306.336C33.3369 306.752 33.0214 307.165 32.8729 307.577C32.7303 307.985 32.7911 308.405 33.0553 308.836C33.3267 309.279 33.6784 309.532 34.1103 309.596C34.5517 309.662 35.0671 309.575 35.6568 309.333C36.2522 309.089 36.9228 308.738 37.6686 308.281C38.8806 307.538 39.7058 306.864 40.1443 306.258C40.5863 305.659 40.6181 305.05 40.2396 304.432ZM56.2202 324.58L47.7713 331.298L46.6995 329.95L50.6552 326.804C51.2061 326.366 51.7484 325.961 52.2821 325.589C52.8212 325.213 53.3045 324.899 53.7322 324.646L43.9817 326.532L42.6802 324.895L51.1291 318.177L52.2009 319.525L48.2533 322.664C47.7077 323.097 47.1546 323.511 46.5942 323.904C46.0391 324.293 45.5766 324.595 45.2067 324.811L54.8932 322.911L56.2202 324.58ZM54.7353 339.244L58.3143 336.034L55.1521 332.508L51.5731 335.718L50.4232 334.436L58.4587 327.229L59.6086 328.511L56.2052 331.564L59.3674 335.089L62.7709 332.037L63.9207 333.319L55.8852 340.526L54.7353 339.244ZM71.8664 334.901L72.8237 336.149L69.1644 339.854C69.6424 339.798 70.0606 339.827 70.4189 339.941C70.7869 340.054 71.0997 340.239 71.3574 340.493C71.868 340.997 72.101 341.554 72.0564 342.163C72.0167 342.777 71.7599 343.441 71.2859 344.154C70.8168 344.872 70.186 345.632 69.3936 346.435C68.5965 347.242 67.8199 347.868 67.064 348.312C66.3128 348.752 65.6136 348.983 64.9662 349.006C64.3236 349.035 63.7763 348.825 63.3241 348.379C63.0955 348.153 62.9343 347.864 62.8403 347.512C62.7511 347.155 62.7461 346.742 62.8253 346.272L59.2813 349.861L58.0214 348.919L61.7168 345.177C61.2485 345.263 60.8281 345.255 60.4554 345.156C60.0923 345.057 59.799 344.897 59.5753 344.676C59.1231 344.229 58.9071 343.685 58.9273 343.042C58.9523 342.404 59.1824 341.709 59.6175 340.957C60.0574 340.201 60.6759 339.419 61.4731 338.612C62.2655 337.809 63.0202 337.172 63.7373 336.698C64.4593 336.23 65.1318 335.977 65.755 335.939C66.3781 335.902 66.945 336.135 67.4555 336.639C67.7083 336.889 67.889 337.183 67.9974 337.52C68.1106 337.853 68.1397 338.256 68.0846 338.73L71.8664 334.901ZM66.7818 337.876C66.4366 337.535 65.9459 337.511 65.3099 337.805C64.6786 338.094 63.8251 338.783 62.7494 339.872C61.6737 340.961 60.9905 341.828 60.6997 342.473C60.4137 343.112 60.4433 343.603 60.7885 343.944C61.0025 344.155 61.2497 344.274 61.5301 344.302C61.8106 344.329 62.1705 344.319 62.61 344.273L67.1914 339.635C67.2178 339.219 67.2133 338.878 67.1778 338.613C67.1423 338.347 67.0103 338.101 66.7818 337.876ZM70.1367 341.189C69.8985 340.954 69.6366 340.811 69.3512 340.759C69.0658 340.708 68.7106 340.703 68.2856 340.744L63.7186 345.368C63.6583 345.779 63.6411 346.127 63.6671 346.412C63.6978 346.692 63.8201 346.938 64.0341 347.149C64.389 347.5 64.8942 347.533 65.5497 347.249C66.2051 346.964 67.0683 346.28 68.1392 345.196C69.2149 344.106 69.9031 343.254 70.2037 342.639C70.5091 342.018 70.4868 341.535 70.1367 341.189ZM77.9082 346.484C78.6732 347.156 79.159 347.892 79.3656 348.692C79.5819 349.492 79.541 350.32 79.2429 351.177C78.9499 352.039 78.4267 352.898 77.6734 353.755C76.9472 354.582 76.1709 355.196 75.3446 355.598C74.5183 356 73.6858 356.156 72.847 356.065C72.0179 355.973 71.2234 355.593 70.4636 354.926C69.7038 354.258 69.218 353.522 69.0062 352.717C68.7944 351.913 68.8325 351.077 69.1203 350.211C69.4178 349.345 69.9387 348.488 70.683 347.641C71.4183 346.804 72.199 346.184 73.0253 345.782C73.8516 345.38 74.6796 345.23 75.5094 345.331C76.3488 345.432 77.1484 345.816 77.9082 346.484ZM76.9813 347.539C76.2831 346.925 75.5265 346.72 74.7115 346.923C73.9062 347.125 73.0254 347.77 72.0691 348.859C71.1309 349.926 70.6085 350.873 70.5021 351.698C70.4007 352.528 70.6991 353.25 71.3973 353.863C72.0955 354.477 72.847 354.677 73.6517 354.466C74.4615 354.258 75.34 353.616 76.2873 352.538C77.2345 351.459 77.7592 350.51 77.8611 349.69C77.9676 348.865 77.6743 348.148 76.9813 347.539ZM87.435 354.332C88.1902 354.919 88.6491 355.57 88.8116 356.285C88.9794 357.005 88.903 357.776 88.5824 358.601C88.266 359.419 87.7617 360.274 87.0694 361.164C86.4024 362.022 85.6852 362.693 84.9181 363.179C84.1605 363.663 83.39 363.908 82.6066 363.913C81.8232 363.919 81.062 363.634 80.3229 363.059C79.3896 362.334 78.8957 361.421 78.8411 360.323L75.682 364.385L74.1904 363.498L83.4852 351.546L84.6424 352.446L83.8306 353.723C84.4833 353.53 85.1177 353.482 85.7339 353.58C86.3555 353.683 86.9225 353.933 87.435 354.332ZM86.2617 355.172C85.7924 354.807 85.2658 354.627 84.682 354.632C84.1078 354.636 83.5705 354.72 83.07 354.885L79.785 359.109C79.7503 359.61 79.8247 360.088 80.0081 360.542C80.2011 360.995 80.4999 361.379 80.9045 361.694C81.6112 362.243 82.3524 362.387 83.1279 362.124C83.9035 361.862 84.7339 361.161 85.6192 360.023C86.1981 359.279 86.6084 358.606 86.8499 358.006C87.0956 357.401 87.1699 356.866 87.0728 356.401C86.9798 355.93 86.7095 355.521 86.2617 355.172ZM99.8305 363.508L94.3437 372.836L92.985 371.899L95.6362 367.315C95.9322 366.813 96.2464 366.303 96.5787 365.785C96.9166 365.271 97.2969 364.72 97.7194 364.131L97.6519 364.085L91.762 368.852L90.3442 367.874L92.5126 360.541L92.4451 360.494C92.134 360.993 91.7807 361.518 91.3854 362.067C90.9939 362.61 90.6192 363.112 90.2613 363.57L86.9935 367.767L85.6517 366.842L92.4044 358.386L94.2693 359.673L91.9921 367.055L97.9402 362.204L99.8305 363.508ZM104.65 376.374C104.427 376.742 104.326 377.048 104.346 377.292C104.366 377.536 104.481 377.777 104.688 378.014L103.703 378.832C103.337 378.539 103.065 378.202 102.887 377.823C102.713 377.438 102.682 377 102.795 376.51C102.203 376.735 101.592 376.808 100.96 376.73C100.333 376.646 99.7174 376.422 99.1151 376.057C98.1912 375.499 97.6205 374.798 97.4031 373.956C97.1857 373.114 97.3369 372.263 97.8567 371.403C98.4332 370.45 99.2466 369.943 100.297 369.884C101.347 369.824 102.574 370.219 103.978 371.067L105.337 371.89L105.804 371.118C106.207 370.451 106.296 369.862 106.07 369.35C105.854 368.836 105.401 368.37 104.711 367.953C104.407 367.769 104.027 367.591 103.572 367.42C103.12 367.242 102.603 367.094 102.021 366.973L102.309 365.626C103.003 365.758 103.626 365.931 104.176 366.144C104.726 366.357 105.226 366.599 105.676 366.872C106.828 367.568 107.528 368.359 107.776 369.244C108.033 370.126 107.884 371.026 107.329 371.944L104.65 376.374ZM100.171 375.163C100.627 375.439 101.132 375.588 101.685 375.611C102.242 375.628 102.778 375.513 103.295 375.267L104.733 372.89L103.399 372.083C102.382 371.468 101.556 371.208 100.923 371.305C100.296 371.404 99.8034 371.75 99.4463 372.34C99.0997 372.913 98.9824 373.437 99.0945 373.913C99.2159 374.385 99.5748 374.802 100.171 375.163ZM118.046 374.085L119.567 374.892L114.508 384.428L107.282 380.594L112.341 371.058L113.862 371.865L109.476 380.133L113.659 382.353L118.046 374.085ZM116.633 383.965L114.562 387.868L113.304 387.2L114.453 384.399L113.811 384.058L114.514 382.841L116.633 383.965ZM130.223 379.871L125.746 389.693L124.179 388.979L126.275 384.38C126.567 383.74 126.866 383.133 127.173 382.559C127.482 381.979 127.77 381.479 128.036 381.06L120.206 387.168L118.303 386.301L122.779 376.478L124.346 377.193L122.255 381.782C121.966 382.416 121.661 383.036 121.34 383.641C121.022 384.239 120.747 384.719 120.516 385.079L128.283 378.987L130.223 379.871ZM138.959 383.138C139.755 383.448 140.329 383.914 140.681 384.535C141.042 385.153 141.194 385.901 141.137 386.781C141.086 387.664 140.849 388.65 140.424 389.738C140.017 390.783 139.536 391.651 138.98 392.344C138.43 393.039 137.812 393.506 137.125 393.745C136.438 393.983 135.687 393.943 134.872 393.626C134.108 393.328 133.56 392.88 133.229 392.281C132.9 391.676 132.749 390.972 132.776 390.168C132.803 389.365 132.971 388.51 133.28 387.603L132 387.105L130.258 391.575L128.673 390.957L132.592 380.899L134.178 381.517L132.521 385.767L133.801 386.266C134.203 385.367 134.665 384.633 135.186 384.067C135.708 383.5 136.284 383.134 136.913 382.968C137.545 382.796 138.227 382.853 138.959 383.138ZM138.445 384.456C137.757 384.188 137.167 384.329 136.675 384.878C136.182 385.426 135.675 386.369 135.154 387.707C134.839 388.515 134.615 389.231 134.482 389.854C134.35 390.477 134.348 390.998 134.479 391.415C134.612 391.826 134.914 392.124 135.386 392.308C135.87 392.496 136.303 392.485 136.685 392.275C137.077 392.061 137.435 391.679 137.758 391.131C138.085 390.576 138.407 389.891 138.724 389.076C139.24 387.751 139.49 386.716 139.473 385.968C139.463 385.223 139.12 384.719 138.445 384.456ZM143.676 394.841C143.779 394.523 143.947 394.261 144.179 394.056C144.412 393.844 144.68 393.704 144.982 393.637C145.293 393.565 145.611 393.582 145.936 393.687C146.267 393.795 146.538 393.969 146.747 394.209C146.959 394.443 147.097 394.714 147.163 395.022C147.23 395.324 147.212 395.635 147.109 395.953C147.006 396.272 146.836 396.54 146.6 396.758C146.366 396.97 146.094 397.112 145.784 397.183C145.475 397.249 145.155 397.228 144.824 397.12C144.498 397.015 144.23 396.845 144.019 396.611C143.816 396.373 143.681 396.1 143.616 395.791C143.553 395.476 143.573 395.16 143.676 394.841ZM175.17 397.261C174.887 398.654 174.446 399.851 173.845 400.852C173.253 401.847 172.516 402.573 171.636 403.029C170.756 403.478 169.754 403.589 168.629 403.36C167.511 403.133 166.629 402.648 165.986 401.903C165.35 401.154 164.949 400.208 164.783 399.065C164.624 397.924 164.69 396.641 164.979 395.214C165.263 393.814 165.702 392.613 166.296 391.611C166.897 390.61 167.637 389.882 168.518 389.426C169.406 388.965 170.41 388.848 171.528 389.075C172.653 389.303 173.534 389.792 174.17 390.542C174.806 391.291 175.202 392.24 175.36 393.388C175.524 394.537 175.461 395.828 175.17 397.261ZM173.342 396.89C173.715 395.048 173.747 393.587 173.436 392.506C173.133 391.426 172.398 390.768 171.233 390.531C170.067 390.295 169.13 390.617 168.421 391.498C167.719 392.381 167.181 393.743 166.808 395.585C166.434 397.427 166.41 398.883 166.737 399.953C167.065 401.017 167.795 401.664 168.927 401.894C170.092 402.13 171.024 401.817 171.722 400.955C172.428 400.087 172.968 398.732 173.342 396.89ZM183.128 405.551L183.805 400.792L179.117 400.124L178.439 404.884L176.734 404.641L178.256 393.955L179.961 394.197L179.316 398.724L184.005 399.391L184.649 394.865L186.354 395.108L184.833 405.794L183.128 405.551ZM210.479 396.692L206.35 407.435C206.075 408.158 205.733 408.818 205.325 409.414C204.923 410.01 204.405 410.496 203.772 410.873C203.144 411.257 202.354 411.482 201.402 411.548L201.178 410.167C201.927 410.067 202.52 409.897 202.958 409.658C203.396 409.419 203.744 409.105 204.003 408.716C204.268 408.328 204.504 407.86 204.713 407.313L204.139 407.295L200.704 396.389L202.548 396.446L205.348 406.02L208.696 396.637L210.479 396.692ZM221.294 396.469L221.534 405.856L220.688 407.283L213.587 407.464L212.618 406.084C212.939 405.789 213.2 405.43 213.401 405.008C213.609 404.586 213.775 403.993 213.899 403.231C214.023 402.469 214.113 401.438 214.169 400.138L214.326 396.648L221.294 396.469ZM219.578 397.918L215.919 398.012L215.846 399.972C215.81 400.964 215.753 401.8 215.674 402.479C215.603 403.15 215.501 403.71 215.369 404.158C215.243 404.599 215.075 404.965 214.863 405.258C214.659 405.543 214.402 405.806 214.094 406.046L219.781 405.901L219.578 397.918ZM211.891 406.103L214.289 406.041L214.386 407.444L213.659 407.462L213.438 410.483L212.004 410.519L211.891 406.103ZM222.323 405.836L222.436 410.253L221.011 410.289L220.627 407.284L219.91 407.303L219.925 405.897L222.323 405.836ZM228.955 395.73C229.97 395.649 230.836 395.813 231.555 396.222C232.279 396.623 232.845 397.229 233.253 398.04C233.667 398.85 233.92 399.824 234.011 400.961C234.098 402.058 233.999 403.043 233.712 403.916C233.425 404.789 232.957 405.495 232.308 406.034C231.665 406.565 230.839 406.871 229.831 406.951C228.823 407.032 227.956 406.868 227.231 406.46C226.506 406.052 225.933 405.443 225.512 404.633C225.097 403.816 224.844 402.846 224.754 401.722C224.666 400.611 224.765 399.62 225.052 398.746C225.338 397.873 225.807 397.174 226.457 396.649C227.114 396.117 227.947 395.811 228.955 395.73ZM229.067 397.13C228.14 397.204 227.466 397.604 227.044 398.33C226.629 399.049 226.478 400.13 226.594 401.575C226.707 402.992 227.023 404.026 227.541 404.677C228.066 405.327 228.792 405.615 229.718 405.541C230.645 405.467 231.312 405.068 231.72 404.343C232.135 403.617 232.286 402.539 232.171 401.108C232.057 399.678 231.741 398.64 231.223 397.996C230.705 397.345 229.986 397.056 229.067 397.13ZM242.601 389.777L243.537 391.003C243.32 391.178 243.071 391.371 242.79 391.583C242.508 391.788 242.179 392.006 241.804 392.237C241.436 392.468 241.002 392.718 240.501 392.987C240.089 393.203 239.728 393.436 239.418 393.686C239.115 393.936 238.861 394.243 238.656 394.61C238.459 394.975 238.32 395.44 238.239 396.003C238.165 396.565 238.152 397.264 238.199 398.099L238.283 398.18L238.614 400.566C238.793 401.853 239.171 402.811 239.748 403.441C240.325 404.065 241.022 404.32 241.841 404.206C242.336 404.138 242.768 403.971 243.138 403.705C243.514 403.432 243.785 403.001 243.952 402.413C244.124 401.816 244.139 401 243.995 399.964C243.814 398.664 243.474 397.78 242.975 397.312C242.482 396.842 241.893 396.654 241.21 396.749C240.749 396.813 240.31 396.981 239.893 397.253C239.474 397.518 239.111 397.91 238.804 398.429C238.502 398.94 238.287 399.601 238.158 400.412L237.894 398.659C238.075 397.778 238.454 397.032 239.032 396.42C239.615 395.801 240.367 395.428 241.288 395.3C242.066 395.192 242.774 395.294 243.41 395.605C244.046 395.91 244.577 396.406 245.004 397.092C245.429 397.771 245.713 398.622 245.855 399.644C246.014 400.788 245.956 401.786 245.681 402.638C245.405 403.484 244.95 404.161 244.317 404.67C243.691 405.178 242.931 405.494 242.037 405.618C241.178 405.737 240.377 405.634 239.635 405.31C238.892 404.978 238.259 404.39 237.734 403.545C237.21 402.7 236.849 401.571 236.653 400.156C236.446 398.667 236.38 397.396 236.455 396.344C236.535 395.284 236.814 394.386 237.291 393.651C237.769 392.915 238.5 392.296 239.486 391.793C239.982 391.538 240.406 391.31 240.757 391.11C241.116 390.908 241.439 390.704 241.728 390.499C242.016 390.286 242.307 390.046 242.601 389.777ZM250.538 399.182C250.732 399.994 251.021 400.634 251.405 401.102C251.788 401.563 252.235 401.872 252.746 402.03C253.256 402.181 253.783 402.203 254.326 402.096C254.869 401.99 255.343 401.814 255.747 401.567C256.158 401.32 256.565 400.993 256.966 400.587L257.979 401.548C257.559 402.034 257.052 402.45 256.458 402.796C255.871 403.141 255.246 403.379 254.582 403.509C253.556 403.71 252.635 403.65 251.82 403.329C251.005 403.008 250.326 402.473 249.782 401.723C249.243 400.965 248.867 400.039 248.653 398.946C248.443 397.873 248.447 396.883 248.667 395.976C248.886 395.07 249.295 394.311 249.892 393.7C250.49 393.088 251.258 392.69 252.197 392.506C253.089 392.332 253.898 392.393 254.625 392.689C255.35 392.979 255.96 393.479 256.454 394.19C256.954 394.893 257.309 395.781 257.519 396.854C257.555 397.035 257.585 397.207 257.61 397.369C257.633 397.524 257.65 397.664 257.66 397.787L250.538 399.182ZM252.489 393.891C251.704 394.044 251.101 394.452 250.681 395.112C250.267 395.771 250.137 396.691 250.292 397.873L255.815 396.791C255.572 395.661 255.157 394.858 254.57 394.381C253.98 393.898 253.287 393.734 252.489 393.891ZM268.423 400.062L267.231 395.405L262.643 396.579L263.834 401.236L262.166 401.663L259.491 391.206L261.159 390.779L262.292 395.208L266.88 394.034L265.747 389.605L267.416 389.178L270.091 399.636L268.423 400.062ZM275.73 396.306C275.628 395.987 275.611 395.677 275.68 395.375C275.747 395.067 275.883 394.798 276.09 394.567C276.3 394.328 276.568 394.156 276.894 394.052C277.226 393.946 277.547 393.93 277.857 394.003C278.166 394.07 278.436 394.21 278.669 394.422C278.9 394.629 279.066 394.891 279.167 395.21C279.269 395.529 279.288 395.846 279.223 396.161C279.156 396.469 279.018 396.743 278.807 396.982C278.594 397.215 278.322 397.384 277.99 397.49C277.664 397.594 277.347 397.612 277.039 397.546C276.736 397.47 276.467 397.326 276.234 397.114C276 396.894 275.831 396.625 275.73 396.306Z" fill="#822300"/>
</svg>
