<svg width="1243" height="1213" viewBox="0 0 1243 1213" fill="none" xmlns="http://www.w3.org/2000/svg">
<path d="M234.285 332.5L235.508 333.393L233.542 336.087L243.217 343.149L245.183 340.455L246.407 341.348L241.343 348.285L240.12 347.392L242.086 344.698L232.411 337.636L230.445 340.33L229.221 339.437L234.285 332.5ZM257.64 326.956L246.091 317.371L247.302 315.911L257.551 324.417L261.922 319.151L263.083 320.397L257.64 326.956ZM266.556 305.186C267.683 306.193 268.545 307.24 269.141 308.329C269.737 309.407 270.008 310.472 269.954 311.525C269.894 312.573 269.458 313.552 268.644 314.462C267.836 315.367 266.917 315.915 265.889 316.107C264.859 316.288 263.776 316.149 262.638 315.688C261.506 315.221 260.362 314.472 259.208 313.441C258.076 312.429 257.209 311.382 256.608 310.299C256.012 309.211 255.74 308.14 255.794 307.087C255.848 306.024 256.279 305.04 257.087 304.135C257.901 303.225 258.822 302.679 259.851 302.498C260.881 302.317 261.964 302.462 263.102 302.933C264.245 303.399 265.397 304.15 266.556 305.186ZM265.234 306.665C263.744 305.333 262.42 304.52 261.261 304.225C260.107 303.925 259.108 304.246 258.266 305.188C257.423 306.131 257.217 307.164 257.645 308.288C258.078 309.406 259.04 310.631 260.53 311.962C262.02 313.294 263.344 314.096 264.502 314.371C265.654 314.641 266.64 314.318 267.458 313.402C268.3 312.459 268.513 311.436 268.096 310.333C267.678 309.219 266.724 307.996 265.234 306.665ZM275.787 303.174L269.256 291.376L270.57 289.993L277.989 303.974L276.638 305.396L262.297 298.701L263.701 297.223L275.787 303.174ZM275.653 287.116L279.206 290.716L283.162 286.811L284.257 287.92L280.301 291.825L284.044 295.618L288.901 290.826L289.965 291.904L283.759 298.029L273.216 287.347L279.283 281.36L280.215 282.614L275.653 287.116ZM295.617 268.541L299.057 272.512L303.506 268.659L304.505 269.812L300.056 273.665L304.43 278.715L303.013 279.943L293.187 268.598L299.868 262.811L300.709 264.131L295.617 268.541ZM309.584 254.881L310.538 256.058L307.946 258.157L315.484 267.466L318.076 265.367L319.029 266.545L312.355 271.95L311.401 270.772L313.993 268.673L306.455 259.365L303.863 261.464L302.91 260.286L309.584 254.881ZM323.59 249.454C324.042 250.051 324.306 250.671 324.383 251.314C324.466 251.953 324.397 252.584 324.176 253.207C323.955 253.83 323.62 254.417 323.17 254.967L330.735 257.593L328.927 258.961L321.772 256.298L320.156 257.522L324.043 262.658L322.531 263.802L313.473 251.835L316.55 249.507C318.027 248.389 319.36 247.826 320.549 247.82C321.739 247.803 322.753 248.348 323.59 249.454ZM321.974 250.678C321.391 249.907 320.754 249.523 320.064 249.526C319.369 249.524 318.558 249.873 317.631 250.575L315.893 251.89L319.261 256.34L320.999 255.024C321.857 254.375 322.391 253.697 322.603 252.99C322.811 252.277 322.601 251.506 321.974 250.678ZM336.67 248.655L331.83 252.098L333.071 255.91L331.552 256.991L326.83 241.931L328.801 240.529L341.481 249.927L339.864 251.077L336.67 248.655ZM331.319 250.535L335.36 247.66L328.703 242.552L331.319 250.535ZM351.356 225.39C352.19 224.874 352.954 224.547 353.646 224.409C354.338 224.272 355.064 224.25 355.823 224.344L355.572 225.948C354.96 225.857 354.384 225.879 353.845 226.016C353.308 226.143 352.796 226.357 352.308 226.659C351.609 227.091 351.067 227.657 350.68 228.358C350.289 229.052 350.149 229.895 350.258 230.887C350.369 231.869 350.828 233.012 351.635 234.316C352.418 235.583 353.217 236.494 354.031 237.05C354.851 237.603 355.659 237.867 356.457 237.844C357.254 237.821 358.014 237.586 358.737 237.139C359.454 236.695 359.974 236.224 360.298 235.725C360.627 235.222 360.876 234.726 361.044 234.238L362.532 234.779C362.376 235.397 362.072 236.038 361.619 236.702C361.163 237.36 360.481 237.969 359.573 238.531C358.541 239.17 357.448 239.495 356.294 239.508C355.146 239.517 354.026 239.185 352.934 238.51C351.838 237.829 350.849 236.775 349.966 235.348C349.08 233.914 348.582 232.556 348.472 231.274C348.369 229.988 348.577 228.839 349.095 227.826C349.62 226.809 350.373 225.997 351.356 225.39ZM370.544 223.063C371.301 224.371 371.794 225.635 372.022 226.855C372.252 228.065 372.178 229.162 371.798 230.146C371.415 231.123 370.696 231.917 369.639 232.529C368.589 233.137 367.545 233.372 366.508 233.234C365.474 233.085 364.488 232.615 363.55 231.823C362.619 231.027 361.766 229.959 360.991 228.62C360.23 227.305 359.732 226.04 359.498 224.824C359.27 223.604 359.346 222.502 359.725 221.519C360.107 220.525 360.823 219.724 361.873 219.116C362.93 218.505 363.975 218.273 365.01 218.421C366.045 218.569 367.029 219.045 367.964 219.847C368.905 220.645 369.765 221.718 370.544 223.063ZM368.827 224.057C367.826 222.328 366.821 221.143 365.811 220.501C364.808 219.856 363.76 219.85 362.665 220.484C361.571 221.117 361.053 222.035 361.11 223.236C361.174 224.433 361.706 225.897 362.707 227.626C363.708 229.355 364.716 230.53 365.731 231.152C366.742 231.767 367.779 231.767 368.842 231.152C369.936 230.518 370.457 229.612 370.404 228.434C370.354 227.245 369.829 225.786 368.827 224.057ZM380.445 217.636C379.829 216.482 379.214 215.624 378.601 215.061C377.988 214.499 377.39 214.151 376.808 214.017C376.226 213.883 375.667 213.885 375.131 214.023C374.601 214.157 374.109 214.346 373.654 214.589L372.096 215.42L377.721 225.958L379.298 225.117C379.772 224.863 380.204 224.538 380.594 224.141C380.986 223.734 381.275 223.234 381.46 222.641C381.643 222.041 381.665 221.333 381.526 220.518C381.39 219.692 381.03 218.732 380.445 217.636ZM382.223 216.686C382.812 217.789 383.196 218.794 383.376 219.703C383.56 220.602 383.585 221.412 383.451 222.134C383.317 222.856 383.066 223.497 382.698 224.056C382.332 224.605 381.895 225.09 381.386 225.51C380.88 225.92 380.354 226.27 379.81 226.561L376.771 228.183L369.704 214.942L372.531 213.434C373.307 213.02 374.106 212.704 374.929 212.487C375.759 212.267 376.593 212.233 377.433 212.386C378.275 212.53 379.099 212.938 379.903 213.613C380.714 214.283 381.488 215.308 382.223 216.686ZM384.844 208.771L387.098 213.298L392.074 210.821L392.769 212.217L387.793 214.694L390.168 219.465L396.276 216.425L396.951 217.781L389.145 221.666L382.457 208.23L390.087 204.432L390.582 205.915L384.844 208.771ZM414.404 193.547L414.994 194.942L411.921 196.24L416.583 207.274L419.655 205.976L420.245 207.372L412.333 210.714L411.743 209.319L414.816 208.021L410.154 196.987L407.082 198.285L406.492 196.889L414.404 193.547ZM437.263 200.763L432.235 186.623L434.022 185.987L438.484 198.536L444.933 196.243L445.294 197.908L437.263 200.763ZM455.99 186.553C456.452 187.992 456.666 189.332 456.629 190.572C456.598 191.803 456.292 192.859 455.713 193.74C455.131 194.614 454.26 195.238 453.097 195.611C451.942 195.983 450.872 195.991 449.888 195.635C448.908 195.271 448.045 194.602 447.297 193.629C446.556 192.654 445.949 191.429 445.475 189.956C445.01 188.51 444.793 187.168 444.822 185.93C444.858 184.689 445.166 183.629 445.745 182.748C446.329 181.858 447.199 181.228 448.354 180.856C449.516 180.483 450.587 180.478 451.567 180.842C452.546 181.207 453.408 181.88 454.151 182.862C454.901 183.842 455.514 185.073 455.99 186.553ZM454.101 187.16C453.49 185.258 452.759 183.886 451.909 183.045C451.065 182.202 450.042 181.974 448.838 182.361C447.634 182.748 446.933 183.534 446.734 184.72C446.542 185.904 446.752 187.447 447.363 189.349C447.975 191.251 448.711 192.614 449.57 193.436C450.428 194.252 451.441 194.472 452.61 194.096C453.814 193.709 454.515 192.935 454.714 191.772C454.917 190.6 454.713 189.062 454.101 187.16ZM464.957 189.47L465.249 175.988L467.08 175.454L466.457 191.269L464.574 191.818L455.549 178.816L457.506 178.246L464.957 189.47ZM472.895 175.524L474.163 180.419L479.544 179.026L479.935 180.535L474.554 181.928L475.89 187.088L482.495 185.377L482.875 186.844L474.434 189.03L470.671 174.501L478.922 172.364L479.099 173.917L472.895 175.524ZM499.344 169.378L500.373 174.529L506.144 173.376L506.443 174.873L500.671 176.026L501.98 182.577L500.142 182.945L497.202 168.227L505.87 166.496L505.949 168.058L499.344 169.378ZM518.185 164.375L518.437 165.869L515.148 166.424L517.14 178.235L520.429 177.68L520.681 179.174L512.212 180.603L511.96 179.109L515.249 178.554L513.257 166.743L509.968 167.297L509.716 165.803L518.185 164.375ZM533 166.488C533.103 167.229 533.031 167.899 532.785 168.499C532.545 169.097 532.177 169.614 531.68 170.05C531.183 170.486 530.605 170.835 529.944 171.095L535.267 177.078L533.022 177.39L528.074 171.576L526.066 171.856L526.955 178.236L525.077 178.497L523.006 163.632L526.827 163.1C528.663 162.844 530.101 163.004 531.142 163.578C532.189 164.143 532.808 165.113 533 166.488ZM530.992 166.768C530.859 165.811 530.49 165.165 529.886 164.831C529.281 164.49 528.402 164.399 527.251 164.56L525.092 164.861L525.862 170.388L528.021 170.087C529.086 169.938 529.884 169.607 530.413 169.093C530.942 168.572 531.135 167.797 530.992 166.768ZM544.794 172.142L538.891 172.806L538.127 176.741L536.275 176.949L539.451 161.49L541.855 161.219L548.384 175.589L546.412 175.81L544.794 172.142ZM539.203 171.191L544.131 170.637L540.788 162.941L539.203 171.191ZM568.814 158.815C569.794 158.762 570.62 158.841 571.294 159.052C571.967 159.263 572.615 159.592 573.235 160.039L572.246 161.325C571.753 160.952 571.237 160.696 570.698 160.558C570.167 160.412 569.614 160.354 569.041 160.385C568.221 160.43 567.473 160.666 566.798 161.096C566.122 161.518 565.595 162.191 565.215 163.113C564.843 164.029 564.698 165.252 564.78 166.783C564.861 168.27 565.125 169.453 565.572 170.331C566.027 171.209 566.61 171.828 567.321 172.19C568.032 172.552 568.812 172.71 569.661 172.664C570.502 172.619 571.185 172.454 571.708 172.171C572.238 171.888 572.694 171.572 573.076 171.224L574.122 172.412C573.689 172.879 573.115 173.296 572.4 173.662C571.684 174.021 570.793 174.229 569.727 174.287C568.515 174.352 567.4 174.114 566.381 173.573C565.369 173.031 564.546 172.202 563.911 171.087C563.275 169.964 562.912 168.565 562.821 166.888C562.73 165.205 562.944 163.775 563.463 162.597C563.988 161.419 564.722 160.51 565.662 159.869C566.61 159.229 567.66 158.877 568.814 158.815ZM586.748 165.937C586.79 167.448 586.62 168.794 586.238 169.975C585.864 171.148 585.276 172.077 584.473 172.76C583.67 173.437 582.659 173.792 581.439 173.826C580.226 173.859 579.196 173.568 578.351 172.952C577.512 172.328 576.87 171.445 576.424 170.301C575.985 169.158 575.744 167.812 575.701 166.265C575.659 164.747 575.825 163.398 576.199 162.217C576.581 161.036 577.173 160.104 577.975 159.42C578.785 158.729 579.796 158.367 581.009 158.333C582.229 158.299 583.259 158.594 584.097 159.218C584.936 159.841 585.575 160.729 586.014 161.879C586.46 163.03 586.705 164.383 586.748 165.937ZM584.765 165.992C584.71 163.995 584.391 162.473 583.81 161.428C583.236 160.383 582.317 159.878 581.053 159.913C579.789 159.948 578.896 160.507 578.373 161.59C577.858 162.673 577.628 164.213 577.684 166.21C577.739 168.208 578.065 169.722 578.66 170.752C579.256 171.775 580.167 172.269 581.395 172.235C582.658 172.2 583.548 171.652 584.064 170.591C584.587 169.522 584.82 167.989 584.765 165.992ZM597.99 165.822C597.99 164.515 597.853 163.468 597.577 162.683C597.301 161.898 596.938 161.31 596.488 160.917C596.037 160.525 595.543 160.263 595.006 160.132C594.475 160.001 593.952 159.935 593.436 159.935L591.67 159.935L591.666 171.88L593.454 171.881C593.992 171.881 594.526 171.798 595.056 171.631C595.594 171.457 596.084 171.152 596.528 170.716C596.971 170.273 597.324 169.659 597.586 168.874C597.855 168.082 597.99 167.065 597.99 165.822ZM600.006 165.823C600.006 167.073 599.871 168.141 599.602 169.027C599.34 169.907 598.98 170.633 598.522 171.207C598.064 171.781 597.541 172.227 596.952 172.547C596.371 172.859 595.757 173.081 595.11 173.211C594.471 173.334 593.842 173.396 593.224 173.396L589.78 173.395L589.785 158.386L592.99 158.387C593.869 158.388 594.723 158.486 595.551 158.683C596.387 158.879 597.138 159.243 597.807 159.773C598.482 160.297 599.016 161.045 599.408 162.019C599.808 162.993 600.007 164.261 600.006 165.823ZM606.057 160.08L605.908 165.135L611.464 165.299L611.418 166.857L605.862 166.693L605.705 172.021L612.525 172.222L612.48 173.736L603.764 173.479L604.207 158.477L612.727 158.729L612.463 160.269L606.057 160.08ZM639.166 160.436L639.043 161.945L635.719 161.673L634.741 173.612L638.065 173.884L637.941 175.394L629.381 174.693L629.505 173.183L632.829 173.455L633.807 161.517L630.483 161.244L630.606 159.735L639.166 160.436ZM656.084 177.446L658.149 162.581L660.028 162.842L658.195 176.034L664.974 176.976L664.526 178.619L656.084 177.446ZM679.229 173.419C678.982 174.911 678.559 176.199 677.96 177.286C677.369 178.367 676.614 179.166 675.696 179.685C674.779 180.196 673.719 180.352 672.514 180.153C671.317 179.955 670.362 179.473 669.649 178.707C668.945 177.935 668.482 176.945 668.262 175.738C668.049 174.531 668.069 173.165 668.321 171.638C668.569 170.14 668.989 168.847 669.582 167.759C670.181 166.672 670.94 165.87 671.858 165.351C672.784 164.827 673.846 164.664 675.043 164.862C676.247 165.061 677.202 165.546 677.906 166.318C678.611 167.09 679.069 168.083 679.281 169.296C679.5 170.511 679.482 171.885 679.229 173.419ZM677.272 173.096C677.598 171.124 677.575 169.57 677.203 168.434C676.838 167.298 676.033 166.627 674.785 166.421C673.538 166.215 672.555 166.593 671.835 167.557C671.124 168.522 670.605 169.99 670.279 171.961C669.953 173.933 669.984 175.481 670.372 176.606C670.762 177.723 671.562 178.382 672.774 178.583C674.021 178.789 674.999 178.42 675.708 177.477C676.424 176.528 676.946 175.067 677.272 173.096ZM685.87 180.118L692.303 168.266L694.175 168.63L686.381 182.405L684.455 182.031L682.385 166.34L684.385 166.728L685.87 180.118ZM699.286 171.337L698.183 176.272L703.607 177.485L703.267 179.006L697.843 177.794L696.68 182.995L703.339 184.483L703.008 185.962L694.499 184.06L697.772 169.413L706.09 171.272L705.54 172.735L699.286 171.337ZM725.582 177.833L724.175 182.894L729.846 184.471L729.437 185.941L723.767 184.365L721.977 190.802L720.171 190.3L724.191 175.84L732.707 178.207L732.072 179.637L725.582 177.833ZM744.633 181.847L744.186 183.294L740.999 182.31L737.466 193.756L740.653 194.74L740.206 196.187L732 193.654L732.447 192.206L735.633 193.19L739.166 181.745L735.98 180.761L736.426 179.313L744.633 181.847ZM756.904 190.373C756.664 191.082 756.3 191.649 755.811 192.074C755.328 192.501 754.767 192.798 754.128 192.966C753.488 193.133 752.815 193.185 752.107 193.122L754.184 200.855L752.037 200.128L750.221 192.713L748.3 192.063L746.235 198.164L744.439 197.556L749.251 183.34L752.906 184.577C754.661 185.172 755.875 185.959 756.548 186.938C757.231 187.913 757.349 189.058 756.904 190.373ZM754.984 189.723C755.294 188.807 755.254 188.065 754.863 187.496C754.476 186.919 753.731 186.445 752.63 186.072L750.565 185.373L748.776 190.659L750.84 191.358C751.859 191.703 752.72 191.764 753.425 191.542C754.131 191.313 754.651 190.707 754.984 189.723ZM764.912 200.703L759.336 198.656L756.892 201.834L755.142 201.192L764.898 188.785L767.169 189.619L766.581 205.391L764.719 204.707L764.912 200.703ZM760.337 197.351L764.992 199.06L765.444 190.681L760.337 197.351ZM792.31 199.399C793.213 199.785 793.919 200.221 794.43 200.708C794.941 201.195 795.376 201.776 795.736 202.451L794.28 203.168C794.002 202.615 793.653 202.157 793.231 201.795C792.818 201.429 792.348 201.134 791.82 200.908C791.065 200.586 790.289 200.468 789.494 200.554C788.701 200.634 787.931 201.005 787.182 201.665C786.444 202.321 785.773 203.354 785.171 204.764C784.586 206.134 784.3 207.311 784.313 208.297C784.333 209.285 784.582 210.099 785.06 210.738C785.538 211.376 786.168 211.863 786.949 212.197C787.725 212.528 788.409 212.682 789.004 212.66C789.605 212.64 790.153 212.558 790.649 212.414L791.063 213.942C790.468 214.17 789.769 214.29 788.965 214.303C788.165 214.308 787.274 214.101 786.291 213.682C785.176 213.205 784.28 212.498 783.606 211.562C782.938 210.629 782.565 209.522 782.488 208.24C782.414 206.952 782.707 205.537 783.367 203.993C784.029 202.443 784.853 201.254 785.839 200.427C786.831 199.602 787.89 199.111 789.017 198.952C790.15 198.796 791.248 198.945 792.31 199.399ZM805.253 213.734C804.621 215.106 803.873 216.238 803.007 217.127C802.151 218.013 801.212 218.585 800.19 218.842C799.171 219.093 798.107 218.963 796.998 218.452C795.895 217.945 795.102 217.228 794.617 216.3C794.141 215.37 793.957 214.293 794.064 213.07C794.177 211.851 794.558 210.538 795.205 209.132C795.84 207.752 796.587 206.616 797.446 205.724C798.311 204.834 799.255 204.261 800.277 204.004C801.309 203.743 802.376 203.866 803.479 204.374C804.587 204.884 805.38 205.605 805.855 206.535C806.33 207.466 806.51 208.545 806.393 209.771C806.283 211 805.903 212.321 805.253 213.734ZM803.451 212.904C804.287 211.089 804.676 209.584 804.618 208.39C804.566 207.198 803.966 206.338 802.818 205.809C801.669 205.281 800.621 205.386 799.673 206.125C798.731 206.868 797.842 208.146 797.007 209.961C796.171 211.777 795.792 213.278 795.869 214.465C795.95 215.646 796.548 216.493 797.663 217.007C798.812 217.535 799.852 217.439 800.785 216.716C801.727 215.99 802.616 214.719 803.451 212.904ZM815.376 218.581C815.953 217.407 816.29 216.407 816.389 215.581C816.487 214.755 816.421 214.067 816.189 213.516C815.958 212.965 815.63 212.512 815.205 212.158C814.787 211.806 814.346 211.517 813.883 211.289L812.299 210.51L807.029 221.231L808.633 222.019C809.116 222.256 809.632 222.417 810.182 222.501C810.741 222.582 811.316 222.524 811.906 222.329C812.499 222.126 813.086 221.731 813.667 221.142C814.258 220.55 814.827 219.696 815.376 218.581ZM817.185 219.47C816.634 220.592 816.042 221.491 815.41 222.168C814.787 222.842 814.144 223.335 813.48 223.649C812.816 223.962 812.149 224.132 811.48 224.159C810.82 224.183 810.171 224.111 809.533 223.943C808.905 223.772 808.314 223.55 807.759 223.278L804.668 221.758L811.289 208.289L814.165 209.703C814.954 210.091 815.677 210.556 816.334 211.097C816.997 211.642 817.512 212.3 817.878 213.071C818.253 213.838 818.403 214.745 818.325 215.792C818.254 216.842 817.874 218.068 817.185 219.47ZM825.107 216.94L822.763 221.421L827.689 223.997L826.967 225.378L822.041 222.802L819.571 227.525L825.617 230.687L824.915 232.03L817.189 227.989L824.144 214.69L831.697 218.639L830.786 219.91L825.107 216.94ZM854.728 231.715L853.957 233.019L851.085 231.323L844.995 241.638L847.867 243.334L847.097 244.638L839.701 240.272L840.472 238.967L843.344 240.663L849.434 230.348L846.562 228.652L847.332 227.348L854.728 231.715ZM862.562 254.343L870.861 241.838L872.442 242.886L865.077 253.984L870.78 257.769L869.664 259.056L862.562 254.343ZM885.167 260.769C884.296 262.004 883.354 262.98 882.341 263.698C881.339 264.414 880.312 264.805 879.26 264.872C878.212 264.934 877.189 264.613 876.191 263.909C875.199 263.21 874.549 262.361 874.241 261.361C873.942 260.359 873.957 259.267 874.284 258.084C874.617 256.905 875.23 255.683 876.121 254.418C876.996 253.177 877.937 252.196 878.944 251.474C879.956 250.757 880.989 250.364 882.041 250.297C883.103 250.228 884.13 250.543 885.122 251.242C886.119 251.946 886.768 252.798 887.066 253.8C887.364 254.802 887.345 255.895 887.008 257.079C886.676 258.268 886.063 259.498 885.167 260.769ZM883.545 259.626C884.697 257.993 885.352 256.584 885.512 255.398C885.678 254.217 885.244 253.262 884.211 252.534C883.178 251.805 882.128 251.719 881.061 252.273C880 252.832 878.894 253.928 877.743 255.561C876.591 257.195 875.946 258.602 875.806 259.784C875.67 260.96 876.105 261.901 877.108 262.609C878.141 263.337 879.182 263.431 880.231 262.89C881.289 262.347 882.394 261.259 883.545 259.626ZM888.236 269.679L899.171 261.788L900.7 262.928L887.705 271.961L886.131 270.789L891.069 255.752L892.703 256.97L888.236 269.679ZM904.118 267.562L900.991 271.536L905.36 274.973L904.396 276.198L900.027 272.761L896.732 276.95L902.094 281.169L901.158 282.359L894.305 276.968L903.585 265.173L910.283 270.443L909.155 271.524L904.118 267.562ZM925.032 284.806L921.571 288.758L925.998 292.636L924.993 293.783L920.565 289.905L916.163 294.931L914.753 293.696L924.642 282.406L931.291 288.23L930.099 289.244L925.032 284.806ZM940.456 296.646L939.428 297.759L936.978 295.496L928.85 304.294L931.299 306.557L930.271 307.67L923.963 301.842L924.991 300.729L927.441 302.992L935.569 294.194L933.119 291.931L934.147 290.818L940.456 296.646ZM947.843 309.659C947.319 310.194 946.745 310.547 946.12 310.719C945.5 310.895 944.866 310.92 944.217 310.794C943.568 310.667 942.939 310.422 942.328 310.059L940.851 317.929L939.23 316.344L940.805 308.874L939.356 307.456L934.851 312.061L933.496 310.735L943.99 300.006L946.748 302.704C948.073 303.999 948.827 305.235 949.009 306.409C949.202 307.584 948.813 308.667 947.843 309.659ZM946.393 308.242C947.069 307.551 947.354 306.864 947.249 306.182C947.149 305.495 946.684 304.744 945.853 303.931L944.294 302.407L940.392 306.396L941.95 307.921C942.719 308.673 943.469 309.101 944.2 309.206C944.936 309.306 945.667 308.984 946.393 308.242ZM950.576 322.462L946.447 318.191L942.863 319.988L941.568 318.648L955.752 311.728L957.434 313.467L950.037 327.409L948.659 325.983L950.576 322.462ZM947.916 317.453L951.363 321.019L955.419 313.672L947.916 317.453ZM975.802 333.255C976.445 333.995 976.89 334.696 977.137 335.358C977.384 336.019 977.522 336.732 977.55 337.496L975.927 337.505C975.919 336.887 975.804 336.322 975.583 335.812C975.371 335.303 975.078 334.831 974.701 334.398C974.163 333.778 973.517 333.333 972.763 333.064C972.015 332.79 971.16 332.786 970.199 333.053C969.248 333.321 968.193 333.957 967.036 334.963C965.911 335.939 965.14 336.874 964.721 337.766C964.308 338.664 964.176 339.505 964.327 340.288C964.478 341.071 964.832 341.784 965.39 342.426C965.942 343.062 966.491 343.5 967.035 343.739C967.585 343.984 968.114 344.15 968.623 344.237L968.328 345.793C967.693 345.738 967.011 345.54 966.283 345.201C965.561 344.856 964.849 344.281 964.149 343.474C963.353 342.558 962.857 341.531 962.659 340.395C962.465 339.263 962.614 338.105 963.104 336.918C963.6 335.727 964.482 334.582 965.749 333.481C967.022 332.376 968.283 331.666 969.531 331.353C970.783 331.044 971.951 331.065 973.034 331.414C974.122 331.769 975.044 332.382 975.802 333.255ZM981.188 351.791C980.021 352.751 978.854 353.443 977.687 353.866C976.531 354.29 975.436 354.395 974.404 354.181C973.377 353.962 972.476 353.381 971.701 352.438C970.93 351.501 970.529 350.51 970.496 349.464C970.474 348.419 970.778 347.369 971.407 346.316C972.041 345.267 972.956 344.252 974.151 343.269C975.324 342.304 976.492 341.608 977.654 341.179C978.82 340.756 979.92 340.651 980.952 340.865C981.994 341.08 982.901 341.657 983.672 342.594C984.447 343.537 984.846 344.531 984.868 345.576C984.89 346.62 984.581 347.669 983.942 348.722C983.307 349.78 982.389 350.803 981.188 351.791ZM979.928 350.259C981.471 348.99 982.477 347.805 982.946 346.705C983.419 345.61 983.254 344.574 982.451 343.598C981.648 342.621 980.659 342.259 979.483 342.511C978.312 342.768 976.955 343.532 975.411 344.801C973.868 346.07 972.872 347.256 972.424 348.358C971.981 349.456 972.15 350.479 972.93 351.428C973.733 352.404 974.712 352.771 975.866 352.527C977.031 352.284 978.385 351.528 979.928 350.259ZM988.178 360.588C989.211 359.785 989.952 359.034 990.402 358.334C990.852 357.634 991.093 356.986 991.126 356.39C991.16 355.793 991.063 355.243 990.836 354.738C990.614 354.239 990.344 353.786 990.027 353.379L988.943 351.985L979.514 359.318L980.611 360.729C980.941 361.154 981.335 361.524 981.793 361.84C982.26 362.158 982.802 362.357 983.419 362.44C984.041 362.517 984.742 362.419 985.522 362.143C986.312 361.869 987.197 361.351 988.178 360.588ZM989.416 362.18C988.43 362.947 987.504 363.497 986.639 363.829C985.785 364.162 984.99 364.324 984.256 364.315C983.522 364.306 982.848 364.168 982.234 363.899C981.631 363.632 981.079 363.284 980.579 362.853C980.089 362.424 979.654 361.966 979.275 361.479L977.16 358.76L989.007 349.546L990.975 352.076C991.514 352.77 991.961 353.504 992.315 354.278C992.673 355.058 992.848 355.875 992.839 356.728C992.841 357.583 992.578 358.464 992.051 359.371C991.528 360.285 990.649 361.221 989.416 362.18ZM997.67 363.444L993.585 366.426L996.863 370.916L995.604 371.835L992.326 367.345L988.022 370.488L992.045 375.999L990.821 376.892L985.68 369.85L997.801 361L1002.83 367.884L1001.45 368.62L997.67 363.444ZM1017.68 389.86L1016.41 390.686L1014.59 387.89L1004.55 394.418L1006.37 397.214L1005.1 398.04L1000.42 390.839L1001.69 390.013L1003.5 392.81L1013.55 386.281L1011.73 383.485L1013 382.659L1017.68 389.86ZM1014.61 413.624L1027.62 406.153L1028.57 407.798L1017.02 414.428L1020.42 420.364L1018.85 421.016L1014.61 413.624ZM1031.93 429.517C1030.6 430.229 1029.32 430.678 1028.09 430.863C1026.87 431.051 1025.78 430.939 1024.81 430.526C1023.85 430.109 1023.08 429.363 1022.5 428.286C1021.93 427.215 1021.73 426.164 1021.91 425.132C1022.09 424.103 1022.59 423.134 1023.42 422.225C1024.25 421.322 1025.34 420.506 1026.71 419.777C1028.05 419.062 1029.33 418.609 1030.55 418.417C1031.78 418.232 1032.88 418.346 1033.85 418.759C1034.83 419.175 1035.6 419.918 1036.17 420.989C1036.75 422.066 1036.94 423.118 1036.76 424.147C1036.58 425.176 1036.07 426.144 1035.23 427.05C1034.4 427.963 1033.3 428.785 1031.93 429.517ZM1031 427.767C1032.76 426.827 1033.98 425.863 1034.65 424.876C1035.33 423.896 1035.38 422.848 1034.78 421.733C1034.19 420.617 1033.29 420.067 1032.08 420.083C1030.88 420.105 1029.4 420.587 1027.64 421.528C1025.88 422.468 1024.67 423.435 1024.01 424.428C1023.36 425.417 1023.33 426.453 1023.91 427.537C1024.5 428.652 1025.39 429.204 1026.57 429.192C1027.76 429.183 1029.23 428.708 1031 427.767ZM1030.66 438.862L1043.98 436.751L1044.83 438.458L1029.15 440.659L1028.28 438.903L1039.47 427.709L1040.38 429.533L1030.66 438.862ZM1045.79 444.156L1041.2 446.286L1043.54 451.327L1042.13 451.984L1039.79 446.943L1034.96 449.188L1037.83 455.376L1036.46 456.014L1032.78 448.106L1046.39 441.784L1049.98 449.514L1048.49 449.968L1045.79 444.156ZM1056.63 469.088L1051.74 471.018L1053.9 476.492L1052.48 477.053L1050.32 471.578L1044.11 474.033L1043.42 472.289L1057.38 466.776L1060.62 474.997L1059.1 475.353L1056.63 469.088ZM1064.9 486.733L1063.48 487.248L1062.35 484.11L1051.08 488.176L1052.21 491.313L1050.79 491.828L1047.87 483.749L1049.3 483.235L1050.43 486.372L1061.7 482.306L1060.56 479.169L1061.99 478.655L1064.9 486.733ZM1065.47 501.684C1064.76 501.918 1064.09 501.967 1063.45 501.831C1062.82 501.702 1062.25 501.432 1061.73 501.021C1061.21 500.61 1060.76 500.103 1060.39 499.5L1055.45 505.805L1054.75 503.652L1059.58 497.746L1058.95 495.82L1052.83 497.833L1052.24 496.032L1066.49 491.341L1067.7 495.006C1068.28 496.766 1068.38 498.209 1068 499.336C1067.63 500.467 1066.79 501.25 1065.47 501.684ZM1064.84 499.758C1065.75 499.456 1066.32 498.978 1066.54 498.324C1066.77 497.668 1066.7 496.787 1066.34 495.683L1065.66 493.612L1060.36 495.357L1061.04 497.427C1061.38 498.449 1061.84 499.174 1062.44 499.604C1063.05 500.032 1063.85 500.083 1064.84 499.758ZM1061.99 514.311L1060.3 508.617L1056.29 508.56L1055.76 506.773L1071.54 507.171L1072.23 509.49L1059.24 518.452L1058.67 516.551L1061.99 514.311ZM1061.94 508.64L1063.36 513.393L1070.34 508.743L1061.94 508.64ZM1079.32 535.679C1079.54 536.635 1079.61 537.463 1079.51 538.163C1079.42 538.863 1079.21 539.557 1078.88 540.245L1077.44 539.492C1077.72 538.942 1077.88 538.39 1077.93 537.835C1077.98 537.286 1077.94 536.732 1077.81 536.173C1077.63 535.373 1077.27 534.677 1076.73 534.086C1076.19 533.493 1075.44 533.089 1074.47 532.874C1073.5 532.664 1072.27 532.732 1070.78 533.077C1069.33 533.412 1068.21 533.876 1067.42 534.468C1066.63 535.067 1066.12 535.748 1065.89 536.51C1065.65 537.273 1065.63 538.068 1065.82 538.897C1066.01 539.718 1066.29 540.362 1066.66 540.828C1067.03 541.302 1067.42 541.697 1067.83 542.013L1066.84 543.248C1066.31 542.902 1065.8 542.408 1065.31 541.766C1064.84 541.123 1064.48 540.281 1064.24 539.241C1063.96 538.058 1064.01 536.919 1064.36 535.822C1064.72 534.732 1065.4 533.778 1066.39 532.961C1067.39 532.141 1068.7 531.543 1070.34 531.165C1071.98 530.786 1073.43 530.75 1074.67 531.059C1075.93 531.374 1076.95 531.939 1077.74 532.756C1078.53 533.579 1079.06 534.554 1079.32 535.679ZM1075.36 554.6C1073.88 554.897 1072.52 554.958 1071.3 554.781C1070.08 554.611 1069.06 554.188 1068.25 553.513C1067.45 552.836 1066.93 551.899 1066.69 550.702C1066.45 549.512 1066.56 548.449 1067.03 547.511C1067.5 546.579 1068.26 545.796 1069.31 545.163C1070.37 544.537 1071.65 544.072 1073.17 543.768C1074.66 543.47 1076.02 543.405 1077.24 543.574C1078.47 543.751 1079.49 544.176 1080.3 544.852C1081.12 545.532 1081.65 546.468 1081.88 547.658C1082.12 548.855 1082.01 549.919 1081.53 550.851C1081.06 551.783 1080.3 552.563 1079.24 553.19C1078.18 553.825 1076.89 554.295 1075.36 554.6ZM1074.97 552.655C1076.93 552.263 1078.38 551.692 1079.31 550.942C1080.24 550.199 1080.58 549.208 1080.33 547.968C1080.09 546.728 1079.38 545.943 1078.23 545.611C1077.07 545.287 1075.52 545.321 1073.56 545.713C1071.6 546.106 1070.16 546.683 1069.25 547.444C1068.34 548.204 1068.01 549.186 1068.25 550.39C1068.5 551.629 1069.19 552.414 1070.32 552.742C1071.46 553.077 1073.01 553.048 1074.97 552.655ZM1077.36 565.673C1078.65 565.454 1079.66 565.142 1080.39 564.739C1081.12 564.335 1081.64 563.878 1081.95 563.368C1082.26 562.858 1082.43 562.327 1082.47 561.775C1082.51 561.231 1082.49 560.704 1082.4 560.195L1082.11 558.455L1070.33 560.456L1070.63 562.218C1070.72 562.748 1070.89 563.261 1071.15 563.756C1071.41 564.257 1071.79 564.689 1072.29 565.053C1072.81 565.416 1073.47 565.66 1074.29 565.787C1075.11 565.919 1076.14 565.881 1077.36 565.673ZM1077.7 567.661C1076.47 567.87 1075.39 567.916 1074.48 567.8C1073.56 567.689 1072.79 567.457 1072.15 567.101C1071.5 566.746 1070.97 566.305 1070.56 565.779C1070.16 565.258 1069.83 564.69 1069.6 564.074C1069.37 563.464 1069.2 562.855 1069.1 562.246L1068.52 558.851L1083.32 556.336L1083.85 559.495C1084 560.362 1084.05 561.22 1083.99 562.07C1083.94 562.927 1083.71 563.729 1083.3 564.477C1082.89 565.231 1082.25 565.882 1081.35 566.432C1080.46 566.99 1079.24 567.399 1077.7 567.661ZM1084.37 572.68L1079.37 573.375L1080.13 578.881L1078.59 579.095L1077.82 573.589L1072.54 574.321L1073.48 581.079L1071.98 581.287L1070.78 572.65L1085.65 570.589L1086.82 579.032L1085.26 579.028L1084.37 572.68ZM1089.32 605.582L1087.81 605.694L1087.57 602.368L1075.62 603.252L1075.87 606.579L1074.36 606.69L1073.72 598.125L1075.23 598.013L1075.48 601.339L1087.43 600.455L1087.18 597.129L1088.69 597.017L1089.32 605.582ZM1075.13 624.93L1090.14 624.741L1090.16 626.638L1076.84 626.805L1076.93 633.649L1075.24 633.452L1075.13 624.93ZM1082.47 647.278C1080.96 647.244 1079.62 647.006 1078.46 646.566C1077.31 646.133 1076.41 645.498 1075.77 644.662C1075.13 643.827 1074.83 642.799 1074.86 641.578C1074.89 640.365 1075.23 639.352 1075.89 638.538C1076.55 637.732 1077.47 637.135 1078.63 636.747C1079.79 636.366 1081.15 636.193 1082.7 636.228C1084.22 636.263 1085.56 636.497 1086.72 636.93C1087.88 637.37 1088.78 638.009 1089.42 638.844C1090.07 639.688 1090.38 640.716 1090.35 641.929C1090.33 643.149 1089.98 644.163 1089.31 644.969C1088.65 645.775 1087.73 646.369 1086.56 646.749C1085.39 647.137 1084.02 647.313 1082.47 647.278ZM1082.51 645.295C1084.51 645.34 1086.05 645.098 1087.12 644.57C1088.19 644.05 1088.74 643.157 1088.77 641.893C1088.8 640.629 1088.29 639.709 1087.23 639.133C1086.18 638.564 1084.65 638.257 1082.65 638.211C1080.66 638.166 1079.13 638.415 1078.07 638.958C1077.02 639.501 1076.48 640.386 1076.45 641.614C1076.42 642.878 1076.92 643.794 1077.96 644.363C1079 644.939 1080.52 645.249 1082.51 645.295ZM1076.75 654.801L1089.38 659.538L1089.28 661.443L1074.56 655.622L1074.66 653.663L1089.92 649.449L1089.81 651.485L1076.75 654.801ZM1087.28 666.917L1082.24 666.489L1081.77 672.028L1080.22 671.896L1080.69 666.357L1075.38 665.906L1074.8 672.705L1073.29 672.577L1074.03 663.889L1088.98 665.158L1088.26 673.651L1086.74 673.303L1087.28 666.917ZM1084.2 694.049L1079.01 693.251L1078.12 699.069L1076.61 698.837L1077.5 693.02L1070.9 692.005L1071.18 690.152L1086.02 692.432L1084.68 701.168L1083.18 700.707L1084.2 694.049ZM1082.43 713.485L1080.94 713.208L1081.55 709.929L1069.77 707.735L1069.16 711.014L1067.67 710.737L1069.25 702.293L1070.74 702.571L1070.12 705.849L1081.9 708.043L1082.51 704.764L1084 705.042L1082.43 713.485ZM1075.3 726.693C1074.57 726.533 1073.97 726.233 1073.49 725.794C1073.02 725.362 1072.66 724.837 1072.42 724.22C1072.18 723.602 1072.06 722.939 1072.04 722.229L1064.59 725.146L1065.07 722.931L1072.24 720.308L1072.68 718.328L1066.38 716.948L1066.79 715.096L1081.45 718.311L1080.62 722.08C1080.23 723.89 1079.58 725.183 1078.68 725.96C1077.78 726.746 1076.66 726.99 1075.3 726.693ZM1075.74 724.713C1076.68 724.92 1077.42 724.798 1077.94 724.347C1078.47 723.898 1078.86 723.106 1079.11 721.97L1079.57 719.841L1074.12 718.646L1073.66 720.775C1073.43 721.825 1073.46 722.688 1073.76 723.364C1074.06 724.041 1074.72 724.49 1075.74 724.713ZM1065.86 735.8L1067.31 730.041L1063.9 727.941L1064.35 726.134L1077.71 734.548L1077.11 736.894L1061.37 737.947L1061.85 736.024L1065.86 735.8ZM1068.71 730.902L1067.5 735.709L1075.88 735.288L1068.71 730.902ZM1069.67 763.083C1069.37 764.016 1068.99 764.758 1068.55 765.309C1068.11 765.861 1067.57 766.345 1066.93 766.762L1066.09 765.374C1066.62 765.049 1067.04 764.661 1067.37 764.209C1067.69 763.766 1067.95 763.272 1068.13 762.726C1068.38 761.946 1068.43 761.163 1068.28 760.378C1068.13 759.596 1067.69 758.86 1066.97 758.172C1066.25 757.494 1065.16 756.916 1063.71 756.439C1062.29 755.975 1061.09 755.793 1060.11 755.892C1059.13 755.998 1058.34 756.317 1057.75 756.849C1057.15 757.381 1056.72 758.05 1056.46 758.858C1056.19 759.659 1056.1 760.355 1056.17 760.945C1056.25 761.542 1056.38 762.081 1056.56 762.563L1055.08 763.108C1054.8 762.535 1054.62 761.849 1054.53 761.05C1054.46 760.253 1054.59 759.347 1054.92 758.332C1055.3 757.179 1055.92 756.225 1056.8 755.472C1057.67 754.725 1058.74 754.258 1060.01 754.069C1061.29 753.883 1062.72 754.052 1064.32 754.574C1065.92 755.099 1067.17 755.816 1068.08 756.726C1068.99 757.642 1069.57 758.655 1069.83 759.763C1070.08 760.879 1070.03 761.986 1069.67 763.083ZM1056.46 777.239C1055.04 776.723 1053.85 776.07 1052.89 775.282C1051.94 774.502 1051.29 773.614 1050.95 772.616C1050.62 771.621 1050.66 770.55 1051.07 769.403C1051.49 768.262 1052.14 767.412 1053.02 766.852C1053.91 766.301 1054.97 766.028 1056.19 766.033C1057.42 766.045 1058.76 766.315 1060.21 766.844C1061.64 767.362 1062.84 768.012 1063.8 768.794C1064.75 769.583 1065.4 770.476 1065.75 771.473C1066.09 772.48 1066.06 773.554 1065.64 774.695C1065.23 775.842 1064.57 776.691 1063.68 777.242C1062.8 777.793 1061.74 778.061 1060.5 778.047C1059.27 778.039 1057.92 777.77 1056.46 777.239ZM1057.14 775.374C1059.02 776.057 1060.55 776.319 1061.73 776.162C1062.92 776.012 1063.72 775.343 1064.16 774.155C1064.59 772.967 1064.4 771.931 1063.58 771.047C1062.76 770.17 1061.42 769.39 1059.54 768.708C1057.66 768.026 1056.13 767.772 1054.95 767.948C1053.78 768.126 1052.99 768.792 1052.57 769.946C1052.14 771.134 1052.32 772.163 1053.12 773.033C1053.92 773.911 1055.26 774.692 1057.14 775.374ZM1052.39 787.749C1053.61 788.234 1054.63 788.495 1055.46 788.53C1056.29 788.565 1056.97 788.446 1057.5 788.173C1058.04 787.901 1058.46 787.539 1058.78 787.088C1059.1 786.644 1059.36 786.183 1059.55 785.704L1060.2 784.064L1049.11 779.629L1048.45 781.289C1048.25 781.788 1048.13 782.315 1048.09 782.87C1048.05 783.434 1048.15 784.002 1048.39 784.576C1048.64 785.152 1049.08 785.707 1049.71 786.241C1050.34 786.785 1051.24 787.288 1052.39 787.749ZM1051.64 789.621C1050.48 789.157 1049.54 788.636 1048.82 788.057C1048.1 787.488 1047.56 786.884 1047.19 786.246C1046.83 785.608 1046.61 784.956 1046.53 784.291C1046.46 783.635 1046.48 782.983 1046.6 782.334C1046.72 781.694 1046.9 781.087 1047.13 780.514L1048.4 777.316L1062.34 782.888L1061.15 785.863C1060.82 786.68 1060.42 787.436 1059.93 788.132C1059.43 788.836 1058.82 789.399 1058.08 789.823C1057.34 790.256 1056.45 790.474 1055.4 790.477C1054.34 790.486 1053.09 790.201 1051.64 789.621ZM1054.7 797.399L1050.07 795.372L1047.84 800.465L1046.42 799.841L1048.64 794.748L1043.76 792.612L1041.03 798.864L1039.64 798.257L1043.13 790.268L1056.88 796.281L1053.47 804.091L1052.14 803.271L1054.7 797.399ZM1041.64 828.071L1040.29 827.37L1041.84 824.414L1031.22 818.872L1029.67 821.828L1028.33 821.127L1032.3 813.513L1033.65 814.214L1032.1 817.171L1042.72 822.713L1044.27 819.756L1045.61 820.457L1041.64 828.071ZM1019.37 837.031L1032.21 844.795L1031.23 846.418L1019.83 839.527L1016.29 845.385L1014.96 844.324L1019.37 837.031ZM1013.85 859.885C1012.58 859.062 1011.57 858.159 1010.81 857.174C1010.06 856.2 1009.63 855.189 1009.52 854.14C1009.42 853.095 1009.7 852.061 1010.36 851.037C1011.02 850.019 1011.85 849.337 1012.83 848.99C1013.82 848.653 1014.92 848.626 1016.11 848.907C1017.3 849.195 1018.55 849.76 1019.84 850.603C1021.12 851.429 1022.13 852.332 1022.89 853.31C1023.65 854.294 1024.08 855.311 1024.19 856.36C1024.3 857.418 1024.02 858.457 1023.36 859.475C1022.7 860.499 1021.87 861.179 1020.88 861.516C1019.89 861.852 1018.8 861.875 1017.6 861.583C1016.4 861.298 1015.15 860.732 1013.85 859.885ZM1014.93 858.221C1016.6 859.309 1018.03 859.91 1019.23 860.024C1020.41 860.145 1021.35 859.675 1022.04 858.614C1022.73 857.554 1022.77 856.501 1022.18 855.456C1021.58 854.418 1020.44 853.354 1018.76 852.267C1017.09 851.179 1015.66 850.588 1014.47 850.493C1013.29 850.403 1012.37 850.873 1011.7 851.903C1011.01 852.964 1010.96 854.007 1011.54 855.034C1012.12 856.071 1013.25 857.133 1014.93 858.221ZM1005 863.273L1013.2 873.978L1012.1 875.539L1002.7 862.808L1003.83 861.202L1019 865.706L1017.83 867.374L1005 863.273ZM1007.49 879.14L1003.45 876.102L1000.11 880.546L998.863 879.61L1002.2 875.166L997.942 871.964L993.843 877.419L992.632 876.509L997.87 869.538L1009.87 878.554L1004.75 885.368L1003.64 884.264L1007.49 879.14ZM990.523 900.464L986.532 897.048L982.704 901.518L981.545 900.526L985.373 896.055L980.298 891.71L981.518 890.286L992.918 900.047L987.169 906.761L986.142 905.581L990.523 900.464ZM978.724 916.047L977.608 915.024L979.861 912.565L971.031 904.471L968.777 906.93L967.661 905.906L973.464 899.575L974.581 900.599L972.327 903.057L981.157 911.151L983.411 908.692L984.528 909.716L978.724 916.047ZM965.645 923.482C965.111 922.958 964.759 922.383 964.589 921.757C964.414 921.137 964.39 920.503 964.518 919.854C964.646 919.206 964.892 918.577 965.257 917.967L957.39 916.473L958.978 914.856L966.445 916.446L967.866 915L963.271 910.486L964.6 909.133L975.306 919.65L972.603 922.402C971.304 923.724 970.068 924.475 968.893 924.655C967.718 924.846 966.635 924.454 965.645 923.482ZM967.066 922.036C967.755 922.713 968.441 923 969.123 922.896C969.811 922.797 970.562 922.333 971.377 921.504L972.904 919.949L968.923 916.038L967.396 917.593C966.642 918.361 966.212 919.109 966.106 919.84C966.004 920.576 966.324 921.308 967.066 922.036ZM952.804 926.174L957.098 922.069L955.321 918.475L956.668 917.187L963.51 931.41L961.761 933.082L947.86 925.608L949.294 924.237L952.804 926.174ZM957.828 923.543L954.243 926.969L961.567 931.066L957.828 923.543ZM941.662 951.334C940.911 951.965 940.204 952.399 939.539 952.636C938.874 952.872 938.159 952.999 937.394 953.016L937.41 951.392C938.029 951.394 938.595 951.288 939.109 951.075C939.621 950.872 940.097 950.585 940.536 950.216C941.165 949.687 941.62 949.048 941.901 948.299C942.187 947.555 942.204 946.701 941.952 945.735C941.699 944.78 941.079 943.716 940.093 942.542C939.134 941.402 938.211 940.616 937.326 940.184C936.434 939.756 935.596 939.612 934.81 939.75C934.025 939.889 933.307 940.232 932.656 940.779C932.011 941.321 931.565 941.863 931.317 942.404C931.064 942.949 930.889 943.476 930.794 943.983L929.243 943.664C929.308 943.03 929.516 942.351 929.868 941.629C930.223 940.912 930.81 940.21 931.628 939.522C932.556 938.741 933.59 938.26 934.73 938.08C935.864 937.905 937.021 938.072 938.199 938.581C939.382 939.095 940.514 939.995 941.594 941.28C942.679 942.57 943.369 943.841 943.663 945.094C943.951 946.351 943.913 947.519 943.546 948.596C943.174 949.678 942.546 950.59 941.662 951.334ZM922.938 956.39C922.006 955.201 921.342 954.018 920.946 952.841C920.549 951.675 920.47 950.579 920.709 949.552C920.952 948.531 921.554 947.644 922.515 946.891C923.47 946.142 924.471 945.764 925.517 945.757C926.562 945.759 927.604 946.088 928.643 946.742C929.675 947.4 930.669 948.338 931.624 949.557C932.56 950.752 933.229 951.936 933.631 953.108C934.026 954.284 934.105 955.385 933.866 956.412C933.626 957.449 933.029 958.342 932.074 959.091C931.113 959.843 930.11 960.219 929.065 960.216C928.019 960.213 926.978 959.88 925.941 959.216C924.898 958.556 923.897 957.614 922.938 956.39ZM924.499 955.167C925.732 956.74 926.892 957.773 927.981 958.268C929.065 958.767 930.104 958.626 931.099 957.847C932.094 957.067 932.48 956.086 932.256 954.905C932.026 953.728 931.295 952.353 930.062 950.78C928.83 949.207 927.668 948.184 926.576 947.71C925.489 947.242 924.463 947.386 923.496 948.143C922.501 948.923 922.111 949.893 922.328 951.053C922.543 952.223 923.267 953.594 924.499 955.167ZM913.937 963.158C914.712 964.212 915.443 964.973 916.131 965.442C916.818 965.911 917.459 966.17 918.055 966.219C918.65 966.268 919.203 966.186 919.714 965.973C920.219 965.764 920.679 965.507 921.094 965.202L922.517 964.156L915.441 954.531L914.001 955.59C913.568 955.909 913.187 956.292 912.858 956.741C912.529 957.2 912.314 957.737 912.215 958.35C912.121 958.97 912.201 959.673 912.455 960.461C912.707 961.258 913.201 962.157 913.937 963.158ZM912.313 964.353C911.573 963.346 911.048 962.406 910.74 961.532C910.43 960.669 910.289 959.87 910.318 959.137C910.347 958.403 910.503 957.733 910.788 957.127C911.071 956.531 911.435 955.989 911.878 955.5C912.32 955.022 912.79 954.6 913.288 954.234L916.063 952.194L924.953 964.286L922.371 966.184C921.663 966.705 920.917 967.131 920.133 967.464C919.344 967.801 918.523 967.954 917.67 967.922C916.816 967.901 915.942 967.614 915.049 967.062C914.15 966.515 913.238 965.611 912.313 964.353ZM910.825 972.569L907.955 968.405L903.378 971.56L902.494 970.277L907.07 967.122L904.046 962.734L898.428 966.606L897.568 965.359L904.747 960.41L913.265 972.767L906.248 977.604L905.549 976.206L910.825 972.569ZM883.646 991.795L882.869 990.494L885.732 988.784L879.591 978.5L876.727 980.21L875.951 978.91L883.325 974.506L884.101 975.807L881.238 977.517L887.379 987.801L890.243 986.091L891.02 987.392L883.646 991.795ZM859.995 987.781L866.912 1001.1L865.229 1001.97L859.09 990.154L853.016 993.309L852.431 991.709L859.995 987.781ZM843.402 1004.43C842.746 1003.07 842.35 1001.77 842.215 1000.54C842.076 999.313 842.233 998.225 842.685 997.273C843.141 996.327 843.918 995.589 845.018 995.059C846.111 994.532 847.169 994.376 848.193 994.592C849.213 994.818 850.161 995.361 851.036 996.222C851.904 997.086 852.675 998.215 853.347 999.609C854.007 1000.98 854.408 1002.28 854.549 1003.51C854.685 1004.74 854.526 1005.83 854.074 1006.79C853.618 1007.75 852.844 1008.49 851.751 1009.02C850.651 1009.55 849.591 1009.7 848.571 1009.48C847.55 1009.25 846.604 1008.7 845.733 1007.83C844.855 1006.96 844.078 1005.83 843.402 1004.43ZM845.189 1003.57C846.057 1005.37 846.97 1006.63 847.928 1007.34C848.88 1008.06 849.925 1008.14 851.064 1007.6C852.203 1007.05 852.789 1006.17 852.822 1004.97C852.849 1003.77 852.429 1002.27 851.561 1000.47C850.692 998.671 849.776 997.423 848.811 996.727C847.849 996.037 846.815 995.959 845.709 996.492C844.57 997.042 843.983 997.906 843.946 999.085C843.907 1000.27 844.321 1001.77 845.189 1003.57ZM834.09 1002.75L835.576 1016.15L833.831 1016.92L832.365 1001.16L834.16 1000.37L844.818 1012.07L842.954 1012.89L834.09 1002.75ZM828.078 1017.61L826.17 1012.93L821.022 1015.03L820.434 1013.58L825.582 1011.49L823.571 1006.55L817.252 1009.13L816.68 1007.72L824.755 1004.43L830.418 1018.33L822.525 1021.55L822.143 1020.03L828.078 1017.61ZM802.671 1027.23L800.971 1022.26L795.402 1024.17L794.908 1022.72L800.477 1020.82L798.314 1014.5L800.088 1013.89L804.946 1028.09L796.582 1030.95L796.298 1029.41L802.671 1027.23ZM784.623 1034.67L784.179 1033.22L787.367 1032.24L783.854 1020.79L780.665 1021.77L780.221 1020.32L788.432 1017.8L788.876 1019.25L785.688 1020.23L789.201 1031.68L792.39 1030.7L792.834 1032.15L784.623 1034.67ZM769.654 1034.5C769.455 1033.78 769.439 1033.11 769.606 1032.48C769.765 1031.86 770.063 1031.3 770.499 1030.8C770.935 1030.3 771.464 1029.88 772.085 1029.54L766.03 1024.3L768.216 1023.69L773.877 1028.82L775.831 1028.28L774.121 1022.07L775.95 1021.57L779.933 1036.04L776.214 1037.06C774.427 1037.55 772.981 1037.58 771.874 1037.15C770.762 1036.72 770.022 1035.84 769.654 1034.5ZM771.608 1033.96C771.865 1034.9 772.314 1035.49 772.956 1035.74C773.601 1036 774.483 1035.98 775.604 1035.67L777.706 1035.09L776.225 1029.71L774.123 1030.29C773.086 1030.57 772.338 1031 771.88 1031.58C771.423 1032.17 771.332 1032.96 771.608 1033.96ZM757.216 1030.41L762.985 1029L763.238 1025L765.048 1024.55L763.883 1040.29L761.533 1040.87L753.214 1027.46L755.14 1026.99L757.216 1030.41ZM762.883 1030.64L758.067 1031.82L762.371 1039.03L762.883 1030.64ZM735.126 1046.74C734.162 1046.92 733.332 1046.95 732.637 1046.82C731.941 1046.7 731.257 1046.46 730.584 1046.1L731.398 1044.69C731.936 1045 732.48 1045.19 733.032 1045.25C733.579 1045.33 734.134 1045.32 734.698 1045.21C735.505 1045.06 736.216 1044.73 736.83 1044.22C737.446 1043.71 737.882 1042.98 738.139 1042.01C738.39 1041.06 738.376 1039.82 738.096 1038.32C737.824 1036.85 737.409 1035.71 736.852 1034.9C736.287 1034.09 735.629 1033.55 734.877 1033.28C734.125 1033.02 733.332 1032.96 732.496 1033.12C731.667 1033.27 731.012 1033.52 730.53 1033.87C730.04 1034.22 729.629 1034.59 729.296 1034.98L728.104 1033.94C728.473 1033.42 728.989 1032.94 729.651 1032.48C730.314 1032.03 731.171 1031.71 732.221 1031.51C733.414 1031.29 734.55 1031.38 735.631 1031.79C736.704 1032.2 737.628 1032.91 738.402 1033.94C739.177 1034.97 739.718 1036.31 740.025 1037.96C740.333 1039.62 740.305 1041.06 739.944 1042.3C739.575 1043.53 738.965 1044.53 738.115 1045.29C737.258 1046.04 736.262 1046.53 735.126 1046.74ZM716.383 1041.95C716.152 1040.46 716.152 1039.1 716.383 1037.88C716.607 1036.67 717.075 1035.68 717.785 1034.9C718.497 1034.13 719.456 1033.65 720.662 1033.46C721.862 1033.27 722.919 1033.43 723.836 1033.94C724.746 1034.45 725.494 1035.25 726.08 1036.33C726.658 1037.41 727.066 1038.71 727.302 1040.24C727.534 1041.74 727.538 1043.1 727.315 1044.32C727.084 1045.54 726.613 1046.54 725.903 1047.32C725.186 1048.11 724.228 1048.59 723.029 1048.78C721.823 1048.96 720.765 1048.8 719.854 1048.29C718.944 1047.77 718.199 1046.97 717.62 1045.89C717.033 1044.8 716.621 1043.49 716.383 1041.95ZM718.343 1041.65C718.649 1043.62 719.155 1045.09 719.863 1046.06C720.563 1047.02 721.538 1047.41 722.788 1047.22C724.037 1047.02 724.853 1046.36 725.236 1045.22C725.612 1044.08 725.647 1042.52 725.342 1040.55C725.036 1038.57 724.524 1037.11 723.804 1036.16C723.085 1035.22 722.119 1034.85 720.905 1035.03C719.656 1035.23 718.842 1035.88 718.463 1037C718.078 1038.12 718.038 1039.67 718.343 1041.65ZM705.25 1043.48C705.414 1044.78 705.683 1045.8 706.055 1046.54C706.428 1047.28 706.862 1047.82 707.358 1048.16C707.854 1048.49 708.377 1048.69 708.927 1048.75C709.47 1048.81 709.997 1048.81 710.509 1048.75L712.261 1048.52L710.761 1036.67L708.988 1036.9C708.454 1036.97 707.935 1037.12 707.43 1037.35C706.918 1037.59 706.47 1037.95 706.085 1038.44C705.701 1038.94 705.428 1039.59 705.267 1040.4C705.1 1041.22 705.094 1042.25 705.25 1043.48ZM703.25 1043.73C703.093 1042.49 703.092 1041.42 703.248 1040.5C703.397 1039.6 703.662 1038.83 704.044 1038.2C704.427 1037.58 704.889 1037.07 705.433 1036.68C705.971 1036.29 706.552 1036 707.177 1035.79C707.796 1035.58 708.412 1035.44 709.025 1035.37L712.441 1034.93L714.326 1049.82L711.147 1050.23C710.274 1050.34 709.415 1050.35 708.569 1050.25C707.715 1050.17 706.923 1049.9 706.194 1049.46C705.457 1049.02 704.834 1048.35 704.322 1047.43C703.803 1046.51 703.446 1045.28 703.25 1043.73ZM697.996 1050.2L697.498 1045.16L691.967 1045.71L691.813 1044.16L697.345 1043.61L696.82 1038.31L690.031 1038.98L689.882 1037.47L698.559 1036.62L700.035 1051.55L691.554 1052.39L691.618 1050.83L697.996 1050.2ZM665.045 1054.01L664.981 1052.5L668.314 1052.36L667.809 1040.39L664.477 1040.53L664.413 1039.02L672.994 1038.66L673.058 1040.17L669.726 1040.31L670.23 1052.28L673.562 1052.14L673.626 1053.65L665.045 1054.01ZM646.157 1039.25L645.952 1054.25L644.056 1054.23L644.238 1040.91L637.394 1040.82L637.635 1039.13L646.157 1039.25ZM623.683 1046.1C623.744 1044.59 624.005 1043.26 624.466 1042.11C624.92 1040.96 625.57 1040.08 626.418 1039.45C627.265 1038.83 628.298 1038.54 629.518 1038.59C630.73 1038.64 631.737 1039 632.539 1039.68C633.333 1040.36 633.914 1041.28 634.281 1042.45C634.641 1043.62 634.789 1044.98 634.726 1046.53C634.665 1048.04 634.407 1049.38 633.953 1050.53C633.492 1051.68 632.838 1052.57 631.991 1053.2C631.136 1053.84 630.102 1054.13 628.89 1054.08C627.67 1054.03 626.663 1053.67 625.869 1052.99C625.075 1052.31 624.498 1051.38 624.139 1050.2C623.772 1049.02 623.62 1047.66 623.683 1046.1ZM625.665 1046.18C625.584 1048.18 625.798 1049.72 626.307 1050.8C626.808 1051.88 627.691 1052.45 628.954 1052.5C630.217 1052.55 631.146 1052.05 631.741 1051.01C632.329 1049.96 632.664 1048.44 632.744 1046.45C632.825 1044.45 632.604 1042.92 632.08 1041.85C631.556 1040.79 630.68 1040.23 629.453 1040.18C628.19 1040.13 627.265 1040.62 626.678 1041.64C626.083 1042.67 625.746 1044.19 625.665 1046.18ZM616.27 1040.28L611.36 1052.84L609.457 1052.71L615.48 1038.07L617.437 1038.21L621.441 1053.52L619.407 1053.38L616.27 1040.28ZM604.057 1050.66L604.536 1045.63L599.002 1045.1L599.15 1043.55L604.684 1044.08L605.188 1038.77L598.396 1038.12L598.539 1036.62L607.219 1037.44L605.799 1052.38L597.314 1051.58L597.677 1050.06L604.057 1050.66ZM577.102 1047.42L577.891 1042.22L572.072 1041.34L572.301 1039.83L578.12 1040.71L579.123 1034.11L580.977 1034.39L578.723 1049.23L569.984 1047.9L570.443 1046.41L577.102 1047.42ZM557.73 1045.74L557.997 1044.25L561.28 1044.84L563.392 1033.05L560.109 1032.46L560.376 1030.97L568.83 1032.49L568.563 1033.98L565.28 1033.39L563.168 1045.18L566.451 1045.77L566.184 1047.26L557.73 1045.74ZM544.515 1038.78C544.667 1038.05 544.959 1037.44 545.392 1036.96C545.819 1036.48 546.339 1036.11 546.953 1035.87C547.568 1035.63 548.23 1035.49 548.94 1035.47L545.932 1028.05L548.152 1028.51L550.862 1035.64L552.848 1036.05L554.151 1029.75L556.008 1030.13L552.972 1044.83L549.193 1044.05C547.378 1043.67 546.077 1043.04 545.289 1042.15C544.492 1041.26 544.234 1040.14 544.515 1038.78ZM546.5 1039.19C546.305 1040.14 546.436 1040.87 546.893 1041.39C547.348 1041.91 548.145 1042.29 549.284 1042.53L551.419 1042.97L552.548 1037.51L550.413 1037.06C549.36 1036.85 548.497 1036.89 547.826 1037.2C547.152 1037.51 546.711 1038.18 546.5 1039.19ZM535.303 1029.5L541.086 1030.86L543.126 1027.41L544.941 1027.83L536.763 1041.33L534.407 1040.78L533.077 1025.05L535.008 1025.5L535.303 1029.5ZM540.251 1032.27L535.422 1031.14L535.991 1039.51L540.251 1032.27ZM508.225 1034.07C507.283 1033.79 506.53 1033.44 505.965 1033.02C505.401 1032.59 504.9 1032.07 504.463 1031.44L505.825 1030.56C506.165 1031.07 506.566 1031.49 507.028 1031.8C507.481 1032.11 507.983 1032.35 508.534 1032.51C509.322 1032.74 510.105 1032.77 510.885 1032.59C511.663 1032.42 512.385 1031.96 513.05 1031.21C513.706 1030.47 514.25 1029.37 514.682 1027.9C515.101 1026.47 515.246 1025.27 515.117 1024.29C514.98 1023.31 514.637 1022.53 514.087 1021.95C513.537 1021.38 512.855 1020.97 512.039 1020.73C511.23 1020.49 510.532 1020.42 509.945 1020.51C509.35 1020.6 508.815 1020.75 508.339 1020.95L507.748 1019.48C508.312 1019.18 508.993 1018.98 509.789 1018.87C510.583 1018.77 511.493 1018.87 512.517 1019.17C513.682 1019.52 514.654 1020.11 515.434 1020.96C516.208 1021.81 516.708 1022.87 516.935 1024.13C517.161 1025.4 517.037 1026.84 516.564 1028.45C516.089 1030.07 515.411 1031.35 514.53 1032.28C513.642 1033.22 512.648 1033.83 511.548 1034.12C510.441 1034.41 509.333 1034.39 508.225 1034.07ZM493.686 1021.38C494.15 1019.94 494.758 1018.73 495.511 1017.74C496.255 1016.76 497.119 1016.08 498.104 1015.7C499.086 1015.33 500.158 1015.33 501.32 1015.71C502.474 1016.08 503.348 1016.7 503.94 1017.56C504.523 1018.43 504.835 1019.48 504.875 1020.7C504.907 1021.93 504.686 1023.28 504.212 1024.75C503.746 1026.19 503.14 1027.41 502.394 1028.4C501.64 1029.39 500.772 1030.07 499.787 1030.45C498.794 1030.83 497.72 1030.83 496.565 1030.46C495.403 1030.09 494.53 1029.46 493.947 1028.6C493.364 1027.73 493.057 1026.68 493.027 1025.45C492.989 1024.22 493.209 1022.86 493.686 1021.38ZM495.574 1021.99C494.961 1023.89 494.755 1025.43 494.955 1026.61C495.148 1027.79 495.846 1028.57 497.05 1028.96C498.253 1029.34 499.281 1029.11 500.135 1028.27C500.981 1027.42 501.711 1026.04 502.324 1024.14C502.937 1022.24 503.134 1020.7 502.915 1019.53C502.695 1018.37 502 1017.6 500.831 1017.22C499.628 1016.84 498.606 1017.06 497.767 1017.88C496.918 1018.72 496.187 1020.09 495.574 1021.99ZM483.056 1017.77C482.622 1019 482.406 1020.03 482.406 1020.87C482.407 1021.7 482.554 1022.37 482.849 1022.89C483.144 1023.41 483.524 1023.82 483.988 1024.12C484.445 1024.42 484.917 1024.66 485.403 1024.83L487.069 1025.41L491.029 1014.14L489.343 1013.55C488.835 1013.37 488.304 1013.28 487.748 1013.26C487.183 1013.24 486.619 1013.37 486.056 1013.63C485.491 1013.9 484.955 1014.37 484.448 1015.02C483.932 1015.68 483.468 1016.59 483.056 1017.77ZM481.154 1017.1C481.568 1015.92 482.049 1014.96 482.596 1014.21C483.135 1013.47 483.715 1012.9 484.337 1012.51C484.959 1012.12 485.601 1011.87 486.262 1011.77C486.914 1011.66 487.567 1011.66 488.22 1011.75C488.865 1011.84 489.478 1011.99 490.061 1012.2L493.31 1013.34L488.335 1027.5L485.312 1026.44C484.482 1026.15 483.709 1025.77 482.993 1025.31C482.27 1024.85 481.681 1024.26 481.226 1023.54C480.762 1022.82 480.506 1021.93 480.458 1020.89C480.404 1019.83 480.636 1018.57 481.154 1017.1ZM473.577 1020.54L475.377 1015.82L470.182 1013.84L470.737 1012.38L475.932 1014.36L477.829 1009.38L471.452 1006.95L471.992 1005.53L480.14 1008.64L474.799 1022.66L466.834 1019.63L467.588 1018.26L473.577 1020.54ZM442.422 1009.35L443.034 1007.96L446.085 1009.31L450.921 998.352L447.87 997.006L448.481 995.62L456.339 999.087L455.727 1000.47L452.676 999.127L447.84 1010.09L450.891 1011.43L450.28 1012.82L442.422 1009.35ZM431.98 987.805L425.225 1001.21L423.531 1000.35L429.526 988.46L423.414 985.379L424.369 983.969L431.98 987.805ZM408.773 984.13C409.489 982.799 410.307 981.716 411.226 980.882C412.135 980.051 413.108 979.539 414.144 979.346C415.177 979.159 416.231 979.355 417.306 979.933C418.375 980.508 419.122 981.273 419.549 982.229C419.965 983.187 420.082 984.273 419.9 985.487C419.711 986.697 419.25 987.984 418.516 989.347C417.797 990.684 416.981 991.771 416.068 992.609C415.149 993.443 414.172 993.957 413.135 994.15C412.089 994.346 411.032 994.157 409.963 993.582C408.888 993.004 408.142 992.235 407.725 991.277C407.309 990.318 407.197 989.231 407.389 988.014C407.575 986.794 408.037 985.499 408.773 984.13ZM410.52 985.07C409.573 986.829 409.092 988.307 409.076 989.503C409.053 990.695 409.598 991.591 410.712 992.19C411.825 992.789 412.878 992.749 413.87 992.07C414.856 991.388 415.823 990.167 416.769 988.407C417.716 986.647 418.188 985.172 418.184 983.982C418.178 982.799 417.633 981.916 416.552 981.334C415.439 980.735 414.394 980.767 413.418 981.431C412.433 982.097 411.467 983.31 410.52 985.07ZM404.657 975.649L394.743 984.79L393.089 983.841L404.912 973.32L406.614 974.295L403.509 989.815L401.741 988.801L404.657 975.649ZM389.145 979.653L391.772 975.332L387.023 972.444L387.833 971.112L392.582 974.001L395.352 969.447L389.523 965.901L390.31 964.607L397.76 969.138L389.961 981.961L382.678 977.532L383.669 976.323L389.145 979.653ZM366.317 965.052L369.277 960.712L364.414 957.396L365.274 956.135L370.137 959.451L373.901 953.931L375.45 954.987L366.994 967.387L359.691 962.407L360.752 961.257L366.317 965.052ZM349.581 955.164L350.467 953.935L353.173 955.885L360.178 946.169L357.472 944.218L358.358 942.989L365.325 948.012L364.439 949.241L361.734 947.29L354.729 957.007L357.434 958.957L356.548 960.186L349.581 955.164ZM340.678 943.175C341.132 942.58 341.658 942.159 342.257 941.912C342.85 941.66 343.477 941.557 344.136 941.603C344.796 941.648 345.451 941.814 346.101 942.099L346.598 934.107L348.402 935.48L347.759 943.088L349.372 944.316L353.275 939.192L354.784 940.341L345.69 952.281L342.621 949.943C341.147 948.82 340.247 947.687 339.921 946.544C339.585 945.402 339.837 944.279 340.678 943.175ZM342.291 944.404C341.706 945.172 341.507 945.889 341.695 946.553C341.879 947.223 342.434 947.91 343.359 948.614L345.093 949.935L348.474 945.496L346.74 944.175C345.884 943.523 345.087 943.19 344.349 943.176C343.607 943.168 342.921 943.577 342.291 944.404ZM336.384 930.823L341.014 934.545L344.345 932.315L345.798 933.483L332.589 942.12L330.703 940.604L336.301 925.848L337.847 927.091L336.384 930.823ZM339.648 935.461L335.783 932.354L332.677 940.149L339.648 935.461ZM310.013 923.201C309.284 922.544 308.757 921.903 308.431 921.277C308.104 920.651 307.881 919.96 307.759 919.205L309.368 918.998C309.452 919.611 309.635 920.157 309.917 920.636C310.189 921.116 310.539 921.547 310.965 921.932C311.575 922.481 312.271 922.843 313.052 923.018C313.828 923.199 314.677 923.098 315.598 922.715C316.509 922.333 317.478 921.572 318.504 920.433C319.501 919.326 320.152 918.304 320.458 917.367C320.759 916.425 320.786 915.575 320.541 914.816C320.295 914.057 319.856 913.393 319.225 912.825C318.598 912.261 318 911.893 317.43 911.722C316.855 911.547 316.31 911.447 315.794 911.422L315.897 909.842C316.533 909.819 317.234 909.932 317.998 910.18C318.757 910.433 319.534 910.918 320.327 911.632C321.229 912.444 321.848 913.402 322.184 914.506C322.514 915.606 322.508 916.774 322.166 918.011C321.82 919.254 321.085 920.499 319.962 921.746C318.834 922.999 317.67 923.857 316.47 924.321C315.264 924.781 314.102 924.903 312.985 924.689C311.862 924.47 310.872 923.974 310.013 923.201ZM302.398 905.467C303.439 904.371 304.512 903.541 305.618 902.978C306.714 902.415 307.787 902.177 308.837 902.263C309.883 902.354 310.849 902.82 311.734 903.661C312.614 904.496 313.134 905.431 313.294 906.465C313.444 907.5 313.272 908.578 312.776 909.701C312.276 910.819 311.493 911.939 310.427 913.061C309.381 914.163 308.308 914.997 307.207 915.565C306.101 916.128 305.023 916.367 303.972 916.281C302.911 916.195 301.941 915.735 301.061 914.899C300.176 914.058 299.658 913.121 299.508 912.087C299.358 911.052 299.536 909.973 300.041 908.85C300.542 907.722 301.327 906.594 302.398 905.467ZM303.836 906.833C302.46 908.282 301.607 909.581 301.277 910.73C300.942 911.875 301.232 912.882 302.149 913.753C303.066 914.624 304.092 914.862 305.228 914.468C306.359 914.068 307.612 913.144 308.988 911.695C310.364 910.247 311.207 908.948 311.517 907.799C311.821 906.655 311.528 905.66 310.638 904.815C309.721 903.944 308.705 903.7 307.589 904.084C306.463 904.467 305.212 905.384 303.836 906.833ZM294.381 897.602C293.455 898.526 292.812 899.363 292.452 900.113C292.092 900.863 291.932 901.536 291.973 902.132C292.013 902.728 292.177 903.262 292.465 903.735C292.747 904.203 293.07 904.619 293.435 904.984L294.682 906.234L303.136 897.794L301.873 896.529C301.493 896.148 301.056 895.829 300.563 895.572C300.06 895.315 299.498 895.183 298.876 895.178C298.249 895.177 297.566 895.362 296.825 895.731C296.075 896.1 295.26 896.724 294.381 897.602ZM292.956 896.175C293.841 895.292 294.691 894.632 295.509 894.196C296.316 893.76 297.084 893.501 297.814 893.42C298.543 893.338 299.229 893.393 299.871 893.583C300.503 893.774 301.094 894.052 301.643 894.417C302.182 894.782 302.67 895.183 303.107 895.62L305.54 898.058L294.919 908.662L292.655 906.394C292.034 905.772 291.5 905.098 291.054 904.374C290.602 903.644 290.328 902.855 290.231 902.007C290.124 901.159 290.276 900.252 290.688 899.287C291.095 898.316 291.851 897.279 292.956 896.175ZM284.632 895.986L288.304 892.51L284.483 888.473L285.615 887.401L289.436 891.438L293.307 887.774L288.616 882.819L289.717 881.778L295.711 888.11L284.812 898.428L278.952 892.238L280.226 891.332L284.632 895.986ZM261.421 872.28L262.579 871.303L264.73 873.851L273.883 866.124L271.731 863.576L272.889 862.599L278.429 869.161L277.272 870.139L275.12 867.59L265.968 875.317L268.119 877.866L266.961 878.843L261.421 872.28ZM261.507 848.322L249.534 857.37L248.39 855.857L259.016 847.827L254.89 842.367L256.369 841.522L261.507 848.322ZM242.303 834.784C243.533 833.906 244.745 833.295 245.937 832.953C247.12 832.608 248.219 832.578 249.234 832.862C250.243 833.15 251.103 833.791 251.812 834.784C252.517 835.772 252.851 836.788 252.812 837.834C252.763 838.878 252.388 839.904 251.689 840.913C250.985 841.915 250.003 842.866 248.744 843.766C247.508 844.648 246.296 845.264 245.107 845.612C243.915 845.955 242.811 845.985 241.795 845.701C240.77 845.415 239.905 844.779 239.199 843.791C238.49 842.798 238.16 841.779 238.209 840.735C238.258 839.691 238.637 838.665 239.347 837.659C240.053 836.646 241.038 835.688 242.303 834.784ZM243.456 836.398C241.83 837.56 240.746 838.673 240.203 839.739C239.657 840.799 239.751 841.844 240.486 842.873C241.22 843.902 242.183 844.33 243.373 844.159C244.559 843.982 245.965 843.312 247.591 842.151C249.217 840.99 250.291 839.875 250.813 838.805C251.33 837.74 251.231 836.708 250.517 835.709C249.783 834.68 248.831 834.248 247.663 834.412C246.485 834.575 245.082 835.237 243.456 836.398ZM242.354 825.357L229.423 829.183L228.357 827.601L243.61 823.379L244.707 825.006L235.07 837.561L233.93 835.871L242.354 825.357ZM226.652 822.04L230.93 819.342L227.964 814.641L229.283 813.809L232.248 818.511L236.756 815.667L233.116 809.896L234.397 809.088L239.049 816.463L226.355 824.47L221.808 817.261L223.233 816.62L226.652 822.04ZM212.734 798.736L217.326 796.185L214.467 791.04L215.801 790.299L218.66 795.444L224.5 792.199L225.411 793.837L212.292 801.127L207.998 793.4L209.462 792.849L212.734 798.736ZM202.215 782.366L203.559 781.667L205.098 784.626L215.725 779.098L214.185 776.139L215.53 775.44L219.493 783.06L218.149 783.759L216.61 780.8L205.983 786.328L207.522 789.286L206.178 789.985L202.215 782.366ZM199.666 767.627C200.34 767.3 201 767.162 201.646 767.212C202.289 767.256 202.894 767.447 203.462 767.785C204.03 768.123 204.539 768.567 204.991 769.115L209.043 762.208L210.032 764.248L206.024 770.746L206.909 772.57L212.705 769.759L213.532 771.465L200.028 778.014L198.344 774.543C197.536 772.875 197.244 771.458 197.47 770.291C197.685 769.121 198.418 768.232 199.666 767.627ZM200.551 769.451C199.681 769.873 199.181 770.422 199.049 771.1C198.911 771.781 199.095 772.644 199.603 773.69L200.554 775.652L205.575 773.217L204.624 771.255C204.155 770.288 203.594 769.631 202.942 769.285C202.283 768.942 201.486 768.998 200.551 769.451ZM201.449 754.627L203.871 760.051L207.853 759.587L208.613 761.288L192.917 762.948L191.931 760.739L203.645 750.162L204.454 751.973L201.449 754.627ZM202.238 760.243L200.216 755.715L193.895 761.235L202.238 760.243ZM181.447 735.815C181.098 734.899 180.921 734.087 180.917 733.381C180.912 732.676 181.028 731.959 181.265 731.232L182.792 731.781C182.586 732.365 182.5 732.934 182.532 733.489C182.556 734.04 182.669 734.584 182.874 735.121C183.166 735.888 183.619 736.528 184.234 737.04C184.842 737.555 185.644 737.852 186.638 737.932C187.623 738.008 188.832 737.773 190.265 737.228C191.657 736.698 192.703 736.086 193.403 735.392C194.1 734.691 194.513 733.947 194.641 733.159C194.769 732.372 194.681 731.581 194.379 730.787C194.079 729.999 193.714 729.399 193.285 728.987C192.854 728.568 192.414 728.23 191.966 727.973L192.779 726.614C193.356 726.884 193.928 727.304 194.494 727.874C195.054 728.446 195.524 729.231 195.904 730.229C196.336 731.363 196.449 732.498 196.244 733.634C196.036 734.762 195.498 735.799 194.63 736.744C193.754 737.692 192.532 738.464 190.963 739.061C189.388 739.661 187.96 739.894 186.681 739.759C185.398 739.617 184.309 739.196 183.412 738.496C182.513 737.789 181.858 736.895 181.447 735.815ZM182.781 716.541C184.208 716.044 185.542 715.798 186.783 715.804C188.014 715.805 189.078 716.085 189.972 716.642C190.86 717.202 191.505 718.059 191.907 719.211C192.307 720.357 192.341 721.426 192.01 722.419C191.67 723.407 191.022 724.287 190.068 725.059C189.111 725.823 187.902 726.46 186.44 726.97C185.006 727.47 183.67 727.72 182.431 727.721C181.19 727.715 180.122 727.434 179.228 726.876C178.324 726.314 177.672 725.46 177.273 724.314C176.871 723.162 176.84 722.091 177.18 721.103C177.52 720.115 178.172 719.237 179.136 718.47C180.098 717.696 181.312 717.053 182.781 716.541ZM183.434 718.415C181.547 719.072 180.194 719.837 179.374 720.708C178.551 721.571 178.348 722.6 178.765 723.794C179.181 724.988 179.984 725.67 181.175 725.839C182.363 726.002 183.9 725.755 185.787 725.097C187.674 724.439 189.018 723.67 189.819 722.79C190.614 721.913 190.809 720.895 190.404 719.735C189.988 718.541 189.196 717.86 188.029 717.689C186.852 717.515 185.321 717.757 183.434 718.415ZM179.292 705.826C178.044 706.217 177.087 706.662 176.421 707.16C175.755 707.659 175.302 708.181 175.062 708.729C174.823 709.276 174.721 709.826 174.757 710.378C174.791 710.923 174.885 711.442 175.039 711.934L175.568 713.619L186.966 710.045L186.431 708.339C186.27 707.826 186.031 707.342 185.713 706.886C185.385 706.425 184.948 706.048 184.399 705.756C183.843 705.465 183.152 705.313 182.325 705.298C181.489 705.278 180.478 705.454 179.292 705.826ZM178.689 703.902C179.882 703.528 180.941 703.337 181.867 703.328C182.785 703.315 183.586 703.441 184.27 703.706C184.955 703.971 185.538 704.336 186.019 704.802C186.491 705.263 186.886 705.783 187.204 706.361C187.514 706.934 187.761 707.515 187.945 708.105L188.976 711.391L174.655 715.881L173.696 712.823C173.433 711.985 173.271 711.14 173.211 710.291C173.148 709.435 173.27 708.609 173.576 707.812C173.873 707.011 174.427 706.278 175.239 705.612C176.048 704.939 177.198 704.369 178.689 703.902ZM171.398 699.837L176.267 698.469L174.764 693.118L176.265 692.696L177.768 698.048L182.899 696.606L181.054 690.038L182.512 689.628L184.87 698.023L170.421 702.081L168.116 693.875L169.665 693.667L171.398 699.837ZM161.926 668.027L163.406 667.702L164.12 670.96L175.82 668.394L175.106 665.136L176.586 664.812L178.425 673.201L176.946 673.526L176.231 670.268L164.531 672.834L165.245 676.092L163.766 676.416L161.926 668.027ZM173.265 646.859L158.43 649.137L158.143 647.262L171.307 645.241L170.269 638.476L171.972 638.435L173.265 646.859ZM162.823 625.801C164.323 625.616 165.679 625.658 166.891 625.926C168.094 626.188 169.074 626.686 169.831 627.42C170.58 628.155 171.03 629.128 171.179 630.339C171.327 631.544 171.135 632.596 170.602 633.496C170.06 634.39 169.241 635.114 168.145 635.666C167.049 636.211 165.732 636.578 164.196 636.767C162.689 636.953 161.33 636.916 160.119 636.655C158.907 636.387 157.923 635.886 157.166 635.152C156.402 634.411 155.945 633.439 155.797 632.235C155.647 631.023 155.843 629.97 156.385 629.076C156.926 628.182 157.749 627.462 158.853 626.916C159.956 626.363 161.28 625.991 162.823 625.801ZM163.065 627.77C161.082 628.014 159.598 628.475 158.613 629.153C157.626 629.824 157.211 630.786 157.365 632.041C157.52 633.296 158.161 634.132 159.288 634.55C160.415 634.96 161.97 635.043 163.953 634.799C165.937 634.554 167.413 634.087 168.382 633.396C169.344 632.707 169.75 631.753 169.6 630.534C169.445 629.279 168.815 628.445 167.71 628.032C166.597 627.613 165.049 627.526 163.065 627.77ZM167.385 617.533L154.204 614.686L154.027 612.787L169.436 616.401L169.617 618.355L155.138 624.746L154.95 622.717L167.385 617.533ZM155.207 607.064L160.255 606.759L159.919 601.21L161.475 601.116L161.81 606.665L167.13 606.343L166.718 599.532L168.23 599.441L168.757 608.144L153.776 609.051L153.261 600.543L154.819 600.667L155.207 607.064ZM154.335 579.824L159.589 579.842L159.609 573.957L161.135 573.962L161.115 579.847L167.796 579.871L167.789 581.746L152.781 581.693L152.812 572.854L154.359 573.088L154.335 579.824ZM153.197 560.353L154.711 560.405L154.596 563.738L166.568 564.149L166.682 560.816L168.196 560.867L167.901 569.451L166.387 569.399L166.502 566.066L154.53 565.655L154.416 568.988L152.902 568.936L153.197 560.353ZM158.28 546.22C159.026 546.27 159.668 546.477 160.204 546.841C160.741 547.197 161.172 547.663 161.498 548.238C161.823 548.813 162.046 549.451 162.167 550.151L169.109 546.16L168.957 548.421L162.256 552.08L162.121 554.102L168.548 554.533L168.421 556.425L153.446 555.421L153.704 551.572C153.828 549.723 154.277 548.348 155.051 547.446C155.819 546.536 156.895 546.127 158.28 546.22ZM158.144 548.243C157.18 548.178 156.473 548.407 156.022 548.931C155.565 549.453 155.297 550.295 155.22 551.455L155.074 553.63L160.642 554.003L160.787 551.828C160.859 550.755 160.698 549.907 160.303 549.283C159.9 548.659 159.181 548.312 158.144 548.243ZM166.3 535.804L165.697 541.713L169.381 543.294L169.192 545.148L154.757 538.768L155.002 536.361L170.428 533.026L170.227 534.999L166.3 535.804ZM164.186 541.066L164.689 536.132L156.458 537.769L164.186 541.066ZM158.442 509.44C158.603 508.472 158.859 507.682 159.211 507.071C159.563 506.459 160.025 505.898 160.595 505.389L161.637 506.634C161.166 507.034 160.804 507.482 160.552 507.978C160.294 508.466 160.119 508.993 160.025 509.559C159.89 510.369 159.959 511.15 160.232 511.903C160.498 512.654 161.04 513.315 161.858 513.885C162.671 514.447 163.834 514.854 165.346 515.105C166.816 515.349 168.027 515.348 168.982 515.101C169.937 514.847 170.669 514.413 171.176 513.797C171.683 513.182 172.006 512.454 172.146 511.616C172.284 510.784 172.271 510.083 172.109 509.51C171.947 508.931 171.738 508.418 171.481 507.97L172.867 507.206C173.229 507.73 173.512 508.381 173.714 509.158C173.909 509.935 173.919 510.85 173.744 511.903C173.545 513.1 173.071 514.138 172.322 515.015C171.573 515.885 170.586 516.509 169.359 516.887C168.125 517.264 166.681 517.315 165.025 517.04C163.362 516.764 162.012 516.245 160.974 515.484C159.938 514.715 159.209 513.802 158.788 512.746C158.368 511.681 158.253 510.58 158.442 509.44ZM169.362 493.447C170.844 493.742 172.119 494.207 173.185 494.842C174.246 495.469 175.02 496.249 175.508 497.183C175.989 498.117 176.11 499.182 175.871 500.379C175.634 501.569 175.121 502.508 174.332 503.195C173.537 503.874 172.533 504.303 171.319 504.484C170.106 504.657 168.741 504.592 167.223 504.29C165.734 503.993 164.455 503.53 163.388 502.903C162.321 502.268 161.544 501.483 161.056 500.549C160.562 499.606 160.434 498.539 160.671 497.349C160.91 496.152 161.427 495.214 162.222 494.535C163.016 493.856 164.023 493.431 165.243 493.259C166.464 493.08 167.837 493.143 169.362 493.447ZM168.974 495.392C167.015 495.001 165.461 494.973 164.312 495.307C163.166 495.634 162.469 496.418 162.221 497.658C161.974 498.898 162.32 499.893 163.26 500.643C164.201 501.387 165.651 501.954 167.611 502.344C169.571 502.735 171.119 502.754 172.256 502.403C173.386 502.051 174.071 501.272 174.311 500.068C174.558 498.828 174.222 497.838 173.302 497.099C172.377 496.352 170.934 495.783 168.974 495.392ZM171.847 482.42C170.575 482.118 169.525 482.011 168.697 482.099C167.87 482.186 167.213 482.404 166.728 482.751C166.242 483.099 165.873 483.519 165.622 484.012C165.372 484.498 165.188 484.992 165.069 485.494L164.661 487.212L176.284 489.971L176.696 488.231C176.82 487.708 176.862 487.169 176.822 486.615C176.777 486.051 176.593 485.504 176.271 484.972C175.942 484.438 175.426 483.953 174.723 483.518C174.015 483.073 173.056 482.707 171.847 482.42ZM172.313 480.459C173.529 480.747 174.537 481.125 175.337 481.591C176.132 482.048 176.756 482.566 177.209 483.144C177.662 483.722 177.976 484.334 178.151 484.981C178.321 485.619 178.395 486.267 178.373 486.927C178.345 487.577 178.26 488.203 178.117 488.804L177.322 492.155L162.719 488.689L163.459 485.572C163.662 484.716 163.955 483.908 164.337 483.147C164.721 482.38 165.248 481.732 165.919 481.204C166.584 480.667 167.435 480.32 168.473 480.163C169.513 479.999 170.793 480.098 172.313 480.459ZM168.142 473.215L173.022 474.539L174.478 469.174L175.982 469.582L174.527 474.947L179.671 476.342L181.457 469.757L182.919 470.154L180.636 478.569L166.151 474.64L168.383 466.414L169.819 467.029L168.142 473.215ZM176.458 440.998L177.892 441.487L176.815 444.644L188.152 448.512L189.228 445.355L190.662 445.844L187.889 453.973L186.455 453.484L187.532 450.327L176.195 446.459L175.119 449.616L173.685 449.127L176.458 440.998ZM197.173 428.788L183.334 422.981L184.067 421.232L196.349 426.386L198.997 420.074L200.471 420.929L197.173 428.788ZM199.258 405.379C200.634 406.003 201.769 406.746 202.663 407.607C203.553 408.458 204.13 409.394 204.392 410.415C204.648 411.433 204.524 412.498 204.019 413.61C203.517 414.715 202.804 415.512 201.879 416.002C200.951 416.482 199.875 416.672 198.652 416.571C197.432 416.464 196.117 416.09 194.708 415.45C193.325 414.822 192.186 414.081 191.289 413.227C190.395 412.366 189.816 411.425 189.554 410.404C189.288 409.374 189.405 408.306 189.907 407.201C190.412 406.09 191.129 405.294 192.057 404.814C192.985 404.333 194.063 404.148 195.289 404.259C196.519 404.362 197.842 404.736 199.258 405.379ZM198.438 407.185C196.618 406.358 195.112 405.977 193.917 406.042C192.726 406.099 191.869 406.704 191.346 407.855C190.823 409.006 190.934 410.054 191.678 410.998C192.426 411.936 193.709 412.818 195.528 413.644C197.348 414.47 198.851 414.842 200.038 414.758C201.218 414.672 202.062 414.07 202.57 412.952C203.093 411.8 202.991 410.76 202.263 409.832C201.532 408.893 200.257 408.011 198.438 407.185ZM207.498 400.708L197.786 391.354L198.635 389.646L209.838 400.825L208.965 402.582L193.289 400.402L194.196 398.576L207.498 400.708ZM202.663 385.385L207.113 387.788L209.754 382.896L211.125 383.636L208.485 388.528L213.175 391.059L216.416 385.055L217.749 385.775L213.607 393.448L200.4 386.319L204.449 378.819L205.707 379.746L202.663 385.385ZM216.264 361.771L220.719 364.556L223.838 359.565L225.132 360.373L222.013 365.364L227.678 368.905L226.685 370.495L213.958 362.541L218.642 355.045L219.833 356.059L216.264 361.771ZM225.612 344.603L226.869 345.449L225.006 348.216L234.943 354.905L236.805 352.138L238.062 352.985L233.266 360.109L232.009 359.263L233.871 356.496L223.935 349.807L222.073 352.573L220.816 351.727L225.612 344.603Z" fill="#822300"/>
</svg>
