<svg width="700" height="807" viewBox="0 0 700 807" fill="none" xmlns="http://www.w3.org/2000/svg">
<rect width="179.713" height="179.713" transform="matrix(0.866025 -0.5 2.20305e-08 1 233.452 540.152)" fill="#E4D6D0"/>
<rect width="179.713" height="179.713" transform="matrix(0.866025 0.5 -2.20305e-08 1 -76.7305 537.273)" fill="#9F573D"/>
<rect width="179.713" height="179.713" transform="matrix(0.866025 0.5 -2.20305e-08 1 234.091 537.273)" fill="#9F573D"/>
<rect width="179.713" height="179.713" transform="matrix(0.866025 0.5 -2.20305e-08 1 389.499 449.02)" fill="#9F573D"/>
<rect width="179.713" height="179.713" transform="matrix(0.866025 -0.5 2.20305e-08 1 79.3213 448.698)" fill="#E4D6D0"/>
<rect width="179.713" height="179.713" transform="matrix(0.866025 0.5 -0.866025 0.5 78.9062 447.1)" fill="#C19687"/>
<rect width="179.713" height="179.713" transform="matrix(0.866025 0.5 -0.866025 0.5 700.574 447.1)" fill="#C19687"/>
<rect width="179.713" height="179.713" transform="matrix(0.866025 0.5 -0.866025 0.5 544.526 358.84)" fill="#822300"/>
<rect width="179.713" height="179.713" transform="matrix(0.866025 0.5 -0.866025 0.5 -77.7812 0.697266)" fill="#822300"/>
<rect width="179.713" height="179.713" transform="matrix(0.866025 0.5 -0.866025 0.5 -77.1436 358.84)" fill="#822300"/>
<rect width="179.713" height="179.713" transform="matrix(0.866025 0.5 -0.866025 0.5 78.2686 270.584)" fill="#C19687"/>
<rect width="179.713" height="179.713" transform="matrix(0.866025 0.5 -0.866025 0.5 699.935 268.666)" fill="#E4D6D0"/>
<rect width="179.713" height="179.713" transform="matrix(0.866025 0.5 -2.20305e-08 1 544.939 537.273)" fill="#9F573D"/>
<rect width="179.713" height="179.713" transform="matrix(0.866025 -0.5 2.20305e-08 1 78.6807 627.13)" fill="#822300"/>
<rect width="179.713" height="179.713" transform="matrix(0.866025 -0.5 2.20305e-08 1 389.5 627.13)" fill="#822300"/>
<rect width="179.713" height="179.713" transform="matrix(0.866025 -0.5 2.20305e-08 1 -78.0068 180.728)" fill="#9F573D"/>
</svg>
