<svg width="331" height="416" viewBox="0 0 331 416" fill="none" xmlns="http://www.w3.org/2000/svg">
<path d="M150.288 152.287L149.065 260.36M196.092 233.997L103.26 178.648M194.381 183.144L100.103 235.993" stroke="#822300" stroke-width="15.9906" stroke-linecap="round"/>
<path d="M44.9952 167.185C40.3521 171.908 38.6953 178.758 39.2767 186.678C39.8587 194.602 42.69 203.869 47.3699 213.855C56.7374 233.843 73.7177 257.142 96.0464 279.094C118.375 301.046 141.96 317.627 162.104 326.653C172.168 331.163 181.482 333.837 189.415 334.284C197.343 334.731 204.165 332.957 208.808 328.235C213.451 323.512 215.108 316.661 214.526 308.742C213.945 300.817 211.113 291.549 206.433 281.563C197.066 261.576 180.085 238.277 157.757 216.325C135.428 194.373 111.843 177.791 91.6994 168.765C81.6355 164.255 72.321 161.583 64.3878 161.136C56.4596 160.689 49.6384 162.462 44.9952 167.185Z" stroke="#822300" stroke-width="4.29385"/>
<path d="M138.746 28.3471C134.103 33.07 132.446 39.9205 133.028 47.8398C133.61 55.7642 136.441 65.0313 141.121 75.017C150.488 95.0046 167.469 118.304 189.797 140.256C212.126 162.208 235.711 178.789 255.855 187.816C265.919 192.325 275.233 194.999 283.166 195.446C291.094 195.893 297.916 194.12 302.559 189.397C307.202 184.674 308.859 177.823 308.277 169.904C307.696 161.98 304.864 152.711 300.184 142.726C290.817 122.738 273.836 99.4392 251.508 77.4874C229.179 55.5355 205.594 38.9532 185.45 29.9269C175.386 25.4175 166.072 22.7449 158.139 22.2979C150.211 21.8513 143.389 23.6242 138.746 28.3471Z" stroke="#822300" stroke-width="4.29385"/>
<path d="M37.8389 187.226C33.1958 191.949 31.539 198.799 32.1205 206.719C32.7024 214.643 35.5337 223.91 40.2136 233.896C49.5812 253.884 66.5615 277.183 88.8901 299.135C111.219 321.087 134.803 337.668 154.947 346.694C165.011 351.204 174.326 353.878 182.259 354.325C190.187 354.772 197.008 352.998 201.652 348.276C206.295 343.553 207.952 336.702 207.37 328.783C206.788 320.858 203.957 311.59 199.277 301.604C189.909 281.617 172.929 258.318 150.6 236.366C128.272 214.414 104.687 197.832 84.5431 188.806C74.4792 184.296 65.1647 181.624 57.2316 181.177C49.3034 180.73 42.4822 182.503 37.8389 187.226Z" stroke="#822300" stroke-width="4.29385"/>
<path d="M131.589 48.3881C126.946 53.111 125.289 59.9615 125.87 67.8808C126.452 75.8052 129.284 85.0724 133.964 95.058C143.331 115.046 160.311 138.345 182.64 160.298C204.969 182.249 228.553 198.83 248.697 207.857C258.761 212.366 268.076 215.04 276.009 215.487C283.937 215.934 290.758 214.161 295.402 209.438C300.045 204.715 301.702 197.864 301.12 189.945C300.538 182.021 297.707 172.752 293.027 162.767C283.659 142.779 266.679 119.48 244.35 97.5284C222.022 75.5765 198.437 58.9942 178.293 49.968C168.229 45.4585 158.915 42.7859 150.982 42.3389C143.053 41.8923 136.232 43.6653 131.589 48.3881Z" stroke="#822300" stroke-width="4.29385"/>
<path d="M31.3985 205.83C26.7554 210.552 25.0986 217.403 25.6801 225.322C26.262 233.247 29.0933 242.514 33.7732 252.499C43.1408 272.487 60.1211 295.787 82.4497 317.739C104.778 339.691 128.363 356.272 148.507 365.298C158.571 369.807 167.885 372.481 175.819 372.928C183.747 373.375 190.568 371.602 195.211 366.879C199.854 362.156 201.511 355.306 200.93 347.386C200.348 339.462 197.517 330.194 192.837 320.208C183.469 300.22 166.488 276.922 144.16 254.97C121.831 233.018 98.2468 216.436 78.1027 207.409C68.0388 202.9 58.7243 200.227 50.7911 199.78C42.863 199.334 36.0417 201.107 31.3985 205.83Z" stroke="#822300" stroke-width="4.29385"/>
<path d="M125.148 66.9995C120.504 71.7223 118.848 78.5728 119.429 86.4922C120.011 94.4165 122.842 103.684 127.522 113.669C136.89 133.657 153.87 156.957 176.199 178.909C198.527 200.861 222.112 217.442 242.256 226.468C252.32 230.977 261.634 233.651 269.568 234.098C277.496 234.545 284.317 232.772 288.96 228.049C293.603 223.326 295.26 216.476 294.679 208.556C294.097 200.632 291.266 191.364 286.586 181.378C277.218 161.39 260.237 138.092 237.909 116.14C215.581 94.1878 191.996 77.6055 171.852 68.5793C161.788 64.0698 152.473 61.3973 144.54 60.9503C136.612 60.5036 129.791 62.2766 125.148 66.9995Z" stroke="#822300" stroke-width="4.29385"/>
<path d="M27.8194 226.578C23.1763 231.3 21.5195 238.151 22.101 246.07C22.6829 253.995 25.5142 263.262 30.1941 273.247C39.5617 293.235 56.542 316.535 78.8706 338.487C101.199 360.439 124.784 377.02 144.928 386.046C154.992 390.556 164.306 393.229 172.24 393.676C180.168 394.123 186.989 392.35 191.632 387.627C196.275 382.904 197.932 376.054 197.351 368.135C196.769 360.21 193.937 350.942 189.257 340.956C179.89 320.969 162.909 297.67 140.581 275.718C118.252 253.766 94.6677 237.184 74.5236 228.157C64.4597 223.648 55.1452 220.975 47.212 220.528C39.2839 220.082 32.4626 221.855 27.8194 226.578Z" stroke="#822300" stroke-width="4.29385"/>
<path d="M121.569 87.7436C116.926 92.4665 115.27 99.3169 115.851 107.236C116.433 115.161 119.264 124.428 123.944 134.413C133.312 154.401 150.292 177.701 172.621 199.653C194.949 221.605 218.534 238.186 238.678 247.212C248.742 251.722 258.056 254.395 265.99 254.842C273.918 255.289 280.739 253.516 285.382 248.793C290.025 244.07 291.682 237.22 291.101 229.301C290.519 221.376 287.687 212.108 283.007 202.122C273.64 182.135 256.659 158.836 234.331 136.884C212.002 114.932 188.418 98.3497 168.274 89.3234C158.21 84.814 148.895 82.1414 140.962 81.6944C133.034 81.2477 126.213 83.0207 121.569 87.7436Z" stroke="#822300" stroke-width="4.29385"/>
</svg>
