<svg width="288" height="144" viewBox="0 0 288 144" fill="none" xmlns="http://www.w3.org/2000/svg">
<g filter="url(#filter0_f_14542_653)">
<path d="M70.1431 -30.9873V-17.2508C66.369 -17.2508 62.9835 -16.8901 59.9864 -16.1686C57.0449 -15.4471 54.7694 -14.1983 53.1598 -12.4223C51.6058 -10.6463 50.9953 -8.17648 51.3283 -5.01294L54.4086 25.5402C54.9636 30.7573 54.5196 35.0586 53.0766 38.4441C51.6891 41.7742 49.4413 44.3549 46.3333 46.1865C43.2252 48.018 39.4234 49.3222 34.9279 50.0993C39.5899 50.8763 43.475 52.1528 46.583 53.9288C49.691 55.6493 51.9111 58.1746 53.2431 61.5047C54.5751 64.8347 54.9636 69.2193 54.4086 74.6583L51.3283 105.211C50.9953 108.375 51.6058 110.845 53.1598 112.621C54.7694 114.452 57.0449 115.701 59.9864 116.367C62.9835 117.089 66.369 117.449 70.1431 117.449V131.186C64.371 131.186 59.1262 130.714 54.4086 129.771C49.7465 128.883 45.7782 127.384 42.5037 125.275C39.2847 123.166 36.9259 120.308 35.4274 116.7C33.9843 113.148 33.5403 108.736 34.0953 103.463L37.1756 74.7416C37.5641 70.801 37.0369 67.582 35.5939 65.0844C34.2064 62.5314 31.6811 60.6444 28.018 59.4234C24.355 58.2024 19.3044 57.5919 12.8663 57.5919V42.6067C19.2489 42.6067 24.2717 42.0239 27.9348 40.8584C31.6533 39.6374 34.2064 37.7781 35.5939 35.2806C37.0369 32.7275 37.5641 29.4807 37.1756 25.5402L34.0953 -3.18141C33.5403 -8.50949 33.9843 -12.9773 35.4274 -16.5848C36.9259 -20.1924 39.2847 -23.0229 42.5037 -25.0764C45.7782 -27.1855 49.7465 -28.684 54.4086 -29.572C59.1262 -30.5155 64.371 -30.9873 70.1431 -30.9873ZM141.341 -8.84249C149.666 -8.84249 156.77 -7.62148 162.653 -5.17944C168.536 -2.79291 173.393 0.56488 177.222 4.89394C181.107 9.16749 184.132 14.2181 186.296 20.0456C188.461 25.8732 189.987 32.2003 190.875 39.0269C191.763 45.8535 192.207 52.9298 192.207 60.2559C192.207 74.2421 191.541 85.9527 190.209 95.3878C188.877 104.767 186.38 111.816 182.717 116.534C179.109 121.307 173.892 123.693 167.065 123.693C163.735 123.693 160.822 122.944 158.324 121.445C155.882 119.947 153.856 118.004 152.247 115.618C150.693 113.287 149.5 110.762 148.667 108.042C147.89 105.267 147.446 102.658 147.335 100.216H146.669C145.559 102.88 144.033 105.433 142.09 107.875C140.148 110.318 137.678 112.316 134.681 113.87C131.684 115.424 128.021 116.201 123.692 116.201C117.476 116.201 112.481 114.536 108.706 111.206C104.932 107.931 102.185 103.408 100.465 97.6356C98.7441 91.8635 97.8839 85.3422 97.8839 78.0716C97.8839 63.9189 100.77 53.124 106.542 45.687C112.314 38.1944 120.667 34.4481 131.601 34.4481C135.708 34.4481 139.759 34.9476 143.755 35.9466C147.807 36.8901 152.164 38.6106 156.826 41.1081V90.5593C156.826 95.8318 157.242 99.9111 158.074 102.797C158.907 105.683 160.045 107.681 161.488 108.791C162.986 109.901 164.679 110.456 166.566 110.456C168.786 110.456 170.507 109.319 171.728 107.043C173.004 104.767 173.92 101.493 174.475 97.2194C175.03 92.8903 175.363 87.6732 175.474 81.5682C175.585 75.4631 175.64 68.581 175.64 60.9219C175.64 52.7078 175.169 45.1874 174.225 38.3609C173.337 31.4788 171.644 25.5402 169.147 20.5451C166.705 15.5501 163.208 11.6928 158.657 8.97324C154.106 6.25371 148.195 4.89394 140.925 4.89394C135.319 4.89394 129.408 5.94845 123.192 8.05748C117.032 10.1665 110.538 14.2181 103.711 20.2121L94.7203 9.80575C102.268 3.25667 109.9 -1.48864 117.614 -4.43018C125.384 -7.37172 133.293 -8.84249 141.341 -8.84249ZM131.85 47.1022C125.468 47.1022 121.111 49.5998 118.78 54.5948C116.449 59.5344 115.283 67.36 115.283 78.0716C115.283 83.3997 115.616 87.9507 116.282 91.7248C116.948 95.4988 118.114 98.3849 119.779 100.383C121.444 102.381 123.692 103.38 126.522 103.38C129.908 103.38 132.544 102.603 134.431 101.049C136.318 99.4949 137.733 97.6634 138.677 95.5543C139.62 93.3898 140.342 91.5028 140.841 89.8933V49.2667C139.343 48.4897 137.9 47.9347 136.512 47.6017C135.125 47.2687 133.571 47.1022 131.85 47.1022ZM217.534 -30.9873C223.306 -30.9873 228.523 -30.5155 233.185 -29.572C237.903 -28.684 241.871 -27.1855 245.09 -25.0764C248.364 -22.9674 250.751 -20.1091 252.25 -16.5016C253.748 -12.9495 254.192 -8.53724 253.582 -3.26467L250.501 25.5402C250.113 29.4807 250.696 32.7275 252.25 35.2806C253.859 37.7781 256.523 39.6374 260.242 40.8584C263.96 42.0239 268.816 42.6067 274.811 42.6067V57.5919C268.816 57.5919 263.96 58.2024 260.242 59.4234C256.523 60.6444 253.859 62.5314 252.25 65.0844C250.696 67.582 250.113 70.801 250.501 74.7416L253.582 103.38C254.137 108.708 253.665 113.176 252.166 116.783C250.723 120.391 248.364 123.221 245.09 125.275C241.871 127.384 237.903 128.883 233.185 129.771C228.523 130.714 223.306 131.186 217.534 131.186V117.449C221.308 117.449 224.666 117.089 227.607 116.367C230.604 115.701 232.88 114.452 234.434 112.621C236.043 110.845 236.682 108.375 236.349 105.211L233.268 74.6583C232.713 69.2193 233.13 64.8347 234.517 61.5047C235.96 58.1746 238.319 55.6493 241.593 53.9288C244.868 52.1528 248.975 50.904 253.915 50.1825C248.975 49.4055 244.868 48.1012 241.593 46.2697C238.319 44.3827 235.96 41.7742 234.517 38.4441C233.13 35.1141 232.713 30.8128 233.268 25.5402L236.349 -5.01294C236.682 -8.17648 236.043 -10.6463 234.434 -12.4223C232.88 -14.1983 230.632 -15.4471 227.69 -16.1686C224.749 -16.8901 221.363 -17.2508 217.534 -17.2508V-30.9873Z" fill="#822300"/>
</g>
<defs>
<filter id="filter0_f_14542_653" x="0.1011" y="-43.7524" width="287.475" height="187.703" filterUnits="userSpaceOnUse" color-interpolation-filters="sRGB">
<feFlood flood-opacity="0" result="BackgroundImageFix"/>
<feBlend mode="normal" in="SourceGraphic" in2="BackgroundImageFix" result="shape"/>
<feGaussianBlur stdDeviation="6.38256" result="effect1_foregroundBlur_14542_653"/>
</filter>
</defs>
</svg>
