<svg width="144" height="176" viewBox="0 0 144 176" fill="none" xmlns="http://www.w3.org/2000/svg">
<g style="mix-blend-mode:difference">
<path d="M95.852 33.3042C104.482 37.1095 110.857 42.5887 114.979 49.7419C119.152 56.9175 121.024 65.3222 120.596 74.956C120.218 84.6122 117.556 95.0495 112.609 106.268C107.774 117.233 101.984 126.17 95.2393 133.079C88.5673 139.959 81.1671 144.366 73.0386 146.3C64.9325 148.182 56.387 147.142 47.4019 143.18C38.7722 139.375 32.3711 133.885 28.1986 126.709C24.0993 119.505 22.2271 111.1 22.5821 101.495C23.0102 91.8613 25.6977 81.4351 30.6446 70.2165C35.4795 59.2518 41.233 50.3291 47.9049 43.4486C54.6501 36.5396 62.0757 32.1439 70.1818 30.2613C78.361 28.3503 86.9178 29.3646 95.852 33.3042ZM115.429 24.3834L128.549 35.262L114.46 51.332L102.051 61.3218L48.1869 125.519L40.7924 136.719L27.9593 151.797L14.9152 140.952L30.2671 123.256L42.5169 113.832L97.0217 49.0086L102.916 39.1476L115.429 24.3834ZM89.0697 48.6854C81.9121 45.5292 75.3271 46.5061 69.3147 51.6159C63.3754 56.6974 57.4399 65.9642 51.5081 79.4163C47.3671 88.8075 44.706 96.6987 43.5248 103.09C42.3436 109.481 42.632 114.671 44.3899 118.66C46.2209 122.62 49.4969 125.641 54.2178 127.723C61.4769 130.924 68.0508 129.973 73.9393 124.869C79.901 119.737 85.8365 110.47 91.7459 97.0683C95.8869 87.6772 98.548 79.7859 99.7292 73.3946C100.961 67.0257 100.698 61.8468 98.9402 57.8581C97.1824 53.8694 93.8922 50.8118 89.0697 48.6854Z" fill="#131313"/>
</g>
</svg>
