<svg width="144" height="176" viewBox="0 0 144 176" fill="none" xmlns="http://www.w3.org/2000/svg">
<path d="M95.7612 32.7593C104.391 36.5646 110.767 42.0438 114.888 49.197C119.061 56.3726 120.933 64.7773 120.505 74.4111C120.128 84.0672 117.465 94.5046 112.519 105.723C107.684 116.688 101.894 125.625 95.1485 132.534C88.4765 139.414 81.0763 143.821 72.9478 145.755C64.8417 147.637 56.2961 146.597 47.3111 142.636C38.6814 138.83 32.2803 133.34 28.1078 126.164C24.0084 118.96 22.1362 110.556 22.4912 100.95C22.9194 91.3164 25.6069 80.8902 30.5537 69.6716C35.3887 58.7068 41.1421 49.7842 47.8141 42.9036C54.5592 35.9947 61.9848 31.5989 70.0909 29.7164C78.2702 27.8054 86.827 28.8197 95.7612 32.7593ZM115.338 23.8385L128.458 34.7171L114.369 50.7871L101.961 60.7769L48.096 124.974L40.7016 136.174L27.8684 151.252L14.8244 140.407L30.1763 122.711L42.426 113.287L96.9309 48.4637L102.825 38.6027L115.338 23.8385ZM88.9789 48.1404C81.8213 44.9843 75.2363 45.9612 69.2239 51.071C63.2846 56.1525 57.349 65.4193 51.4173 78.8714C47.2762 88.2626 44.6151 96.1538 43.434 102.545C42.2528 108.936 42.5411 114.126 44.299 118.115C46.1301 122.076 49.4061 125.097 54.127 127.178C61.3861 130.379 67.9599 129.428 73.8485 124.324C79.8102 119.192 85.7457 109.925 91.655 96.5234C95.7961 87.1323 98.4572 79.241 99.6384 72.8497C100.87 66.4807 100.607 61.3019 98.8494 57.3132C97.0915 53.3245 93.8013 50.2669 88.9789 48.1404Z" fill="#FFF9FC"/>
</svg>
