<svg width="127" height="249" viewBox="0 0 127 249" fill="none" xmlns="http://www.w3.org/2000/svg">
<g style="mix-blend-mode:difference">
<path d="M96.4524 53.2327L116.369 167.202C118.393 178.784 117.819 189.55 114.648 199.5C111.545 209.354 105.928 217.657 97.7971 224.411C89.666 231.165 78.9882 235.697 65.7636 238.008C52.4569 240.334 40.848 239.781 30.937 236.349C21.0116 232.835 12.9595 226.963 6.78072 218.731C0.601922 210.499 -3.52815 200.428 -5.60949 188.518L-25.5258 74.5485L8.23383 68.649L26.4922 173.131C29.0329 187.67 32.9134 198.25 38.1336 204.872C43.3395 211.411 51.0351 213.791 61.2205 212.011C71.488 210.217 77.9616 205.361 80.6412 197.444C83.3064 189.444 83.3687 178.175 80.828 163.636L62.5696 59.1538L96.4524 53.2327ZM4.84386 50.7034C-0.166693 51.579 -4.68399 50.6754 -8.70805 47.9927C-12.7321 45.3099 -15.1819 41.4633 -16.0575 36.4527C-16.9188 31.5243 -15.9115 27.1159 -13.0358 23.2274C-10.1744 19.2568 -6.23847 16.8337 -1.22792 15.9581C3.86477 15.0681 8.38925 16.0127 12.3455 18.792C16.3696 21.4747 18.8122 25.2803 19.6735 30.2087C20.5491 35.2193 19.549 39.6688 16.6733 43.5572C13.8797 47.4314 9.93655 49.8134 4.84386 50.7034ZM59.6724 41.122C54.744 41.9833 50.2678 41.0725 46.2437 38.3898C42.2197 35.707 39.7699 31.8604 38.8943 26.8498C38.033 21.9214 39.0403 17.513 41.916 13.6245C44.7774 9.65388 48.6723 7.23795 53.6007 6.3767C58.6934 5.48675 63.2589 6.42421 67.2973 9.18909C71.3214 11.8718 73.764 15.6774 74.6253 20.6058C75.5009 25.6164 74.5008 30.0659 71.6251 33.9544C68.7493 37.8428 64.7651 40.2321 59.6724 41.122Z" fill="#131313"/>
</g>
</svg>
