<svg width="162" height="249" viewBox="0 0 162 249" fill="none" xmlns="http://www.w3.org/2000/svg">
<path d="M131.194 52.7337L151.11 166.703C153.134 178.285 152.56 189.051 149.39 199.001C146.287 208.855 140.669 217.158 132.538 223.912C124.407 230.666 113.729 235.198 100.505 237.509C87.1981 239.835 75.5892 239.282 65.6782 235.85C55.7528 232.336 47.7007 226.464 41.5219 218.232C35.3431 210 31.2131 199.929 29.1317 188.019L9.21541 74.0495L42.975 68.15L61.2334 172.632C63.7741 187.171 67.6546 197.751 72.8748 204.373C78.0807 210.912 85.7763 213.292 95.9617 211.512C106.229 209.718 112.703 204.862 115.382 196.945C118.048 188.945 118.11 177.676 115.569 163.137L97.3108 58.6548L131.194 52.7337ZM39.5851 50.2043C34.5745 51.0799 30.0572 50.1764 26.0332 47.4936C22.0091 44.8109 19.5593 40.9643 18.6837 35.9537C17.8224 31.0253 18.8297 26.6168 21.7054 22.7284C24.5668 18.7577 28.5027 16.3346 33.5133 15.459C38.606 14.5691 43.1305 15.5137 47.0867 18.293C51.1108 20.9757 53.5534 24.7813 54.4147 29.7097C55.2903 34.7202 54.2902 39.1697 51.4145 43.0582C48.6209 46.9324 44.6778 49.3144 39.5851 50.2043ZM94.4137 40.623C89.4852 41.4842 85.009 40.5735 80.985 37.8907C76.9609 35.208 74.5111 31.3614 73.6355 26.3508C72.7742 21.4224 73.7815 17.014 76.6572 13.1255C79.5186 9.15486 83.4135 6.73893 88.3419 5.87768C93.4346 4.98773 98.0001 5.92519 102.039 8.69007C106.063 11.3728 108.505 15.1784 109.366 20.1068C110.242 25.1173 109.242 29.5669 106.366 33.4553C103.491 37.3438 99.5064 39.733 94.4137 40.623Z" fill="#FFF9FC"/>
</svg>
