<svg width="236" height="112" viewBox="0 0 236 112" fill="none" xmlns="http://www.w3.org/2000/svg">
<path d="M187.133 6.9158C182.256 7.80208 177.871 9.54349 173.979 12.14C170.036 14.701 166.746 17.8854 164.109 21.6935C161.429 25.5095 159.562 29.7174 158.508 34.3174C157.447 38.8738 157.359 43.5907 158.246 48.4679C159.132 53.3452 160.877 57.7515 163.482 61.6867C166.086 65.622 169.318 68.9259 173.178 71.5985C176.986 74.2354 181.19 76.0806 185.79 77.1341C190.338 78.1519 195.051 78.2177 199.928 77.3314C204.806 76.4452 209.216 74.7216 213.159 72.1606C217.094 69.5562 220.402 66.346 223.083 62.53C225.712 58.6784 227.553 54.4526 228.606 49.8526C229.616 45.2606 229.678 40.5259 228.792 35.6486C227.906 30.7714 226.186 26.3829 223.633 22.4833C221.028 18.548 217.822 15.2619 214.014 12.625C210.163 9.99604 205.941 8.17657 201.349 7.16663C196.749 6.11314 192.01 6.02953 187.133 6.9158ZM175.549 49.3723C176.519 52.48 178.072 55.2117 180.21 57.5674C182.347 59.923 184.891 61.6651 187.84 62.7937C190.781 63.8787 193.972 64.1086 197.412 63.4835C200.852 62.8583 203.758 61.5205 206.13 59.4702C208.493 57.3762 210.261 54.8507 211.433 51.8936C212.605 48.9366 213.098 45.8329 212.913 42.5828L207.164 43.6273C206.911 47.1823 205.98 50.2304 204.373 52.7718C202.721 55.321 200.045 56.932 196.344 57.6046C192.599 58.2851 189.527 57.7187 187.128 55.9054C184.686 54.0999 182.742 51.5741 181.297 48.3277L175.549 49.3723ZM201.359 24.3041C199.53 24.6364 198.13 25.4755 197.16 26.8214C196.19 28.1673 195.856 29.6676 196.156 31.3224C196.473 33.0643 197.326 34.4163 198.715 35.3784C200.105 36.3405 201.714 36.6554 203.543 36.3231C205.372 35.9907 206.767 35.1298 207.73 33.7404C208.692 32.351 209.014 30.7853 208.698 29.0434C208.397 27.3886 207.556 26.102 206.175 25.1834C204.793 24.2648 203.188 23.9717 201.359 24.3041ZM188.367 13.7091C193.593 12.7596 198.533 13.2114 203.189 15.0645C207.793 16.8821 211.705 19.7248 214.928 23.5929C218.098 27.4252 220.15 31.9107 221.084 37.0493C222.034 42.2749 221.703 47.2609 220.091 52.0073C218.436 56.7616 215.773 60.7993 212.103 64.1203C208.389 67.4492 203.92 69.5885 198.694 70.5381C193.555 71.4718 188.684 71.0299 184.08 69.2124C179.433 67.4028 175.498 64.564 172.276 60.696C169.011 56.8358 166.903 52.293 165.953 47.0673C165.02 41.9288 165.406 37.0002 167.113 32.2815C168.768 27.5272 171.453 23.4856 175.166 20.1566C178.828 16.7921 183.229 14.6429 188.367 13.7091ZM180.456 28.1024C178.627 28.4347 177.228 29.2738 176.258 30.6197C175.288 31.9656 174.953 33.4659 175.254 35.1207C175.57 36.8626 176.423 38.2146 177.813 39.1767C179.202 40.1388 180.811 40.4537 182.64 40.1214C184.469 39.789 185.865 38.9281 186.827 37.5387C187.789 36.1493 188.112 34.5836 187.795 32.8417C187.495 31.187 186.653 29.9003 185.272 28.9817C183.89 28.0631 182.285 27.77 180.456 28.1024ZM111.412 20.6754C106.535 21.5617 102.15 23.3031 98.2585 25.8996C94.3153 28.4606 91.0252 31.6451 88.3883 35.4531C85.7079 39.2691 83.8409 43.477 82.7874 48.077C81.726 52.6334 81.6384 57.3503 82.5247 62.2276C83.411 67.1048 85.1564 71.5111 87.7608 75.4464C90.3653 79.3816 93.5973 82.6855 97.4568 85.3581C101.265 87.995 105.469 89.8402 110.069 90.8937C114.617 91.9115 119.33 91.9773 124.207 91.091C129.085 90.2048 133.495 88.4812 137.438 85.9202C141.373 83.3158 144.681 80.1056 147.362 76.2896C149.991 72.438 151.832 68.2122 152.885 63.6122C153.895 59.0202 153.957 54.2855 153.071 49.4082C152.185 44.531 150.465 40.1425 147.912 36.2429C145.308 32.3076 142.101 29.0216 138.293 26.3846C134.442 23.7556 130.22 21.9362 125.628 20.9262C121.028 19.8727 116.289 19.7891 111.412 20.6754ZM99.8283 63.1319C100.798 66.2396 102.351 68.9713 104.489 71.327C106.626 73.6826 109.17 75.4247 112.119 76.5533C115.06 77.6383 118.251 77.8682 121.691 77.2431C125.131 76.6179 128.037 75.2802 130.409 73.2298C132.772 71.1358 134.54 68.6103 135.712 65.6532C136.884 62.6962 137.377 59.5926 137.192 56.3424L131.444 57.3869C131.19 60.9419 130.259 63.99 128.652 66.5314C127.001 69.0806 124.324 70.6916 120.623 71.3642C116.878 72.0447 113.806 71.4783 111.407 69.665C108.965 67.8595 107.021 65.3337 105.577 62.0873L99.8283 63.1319ZM125.638 38.0637C123.809 38.396 122.409 39.2351 121.439 40.581C120.469 41.9269 120.135 43.4272 120.435 45.082C120.752 46.8239 121.605 48.1759 122.994 49.138C124.384 50.1001 125.993 50.415 127.822 50.0827C129.651 49.7503 131.047 48.8894 132.009 47.5C132.971 46.1106 133.294 44.5449 132.977 42.803C132.676 41.1482 131.835 39.8616 130.454 38.943C129.072 38.0244 127.467 37.7313 125.638 38.0637ZM112.646 27.4688C117.872 26.5192 122.813 26.971 127.468 28.8241C132.072 30.6417 135.985 33.4844 139.207 37.3525C142.377 41.1848 144.429 45.6703 145.363 50.8089C146.313 56.0345 145.982 61.0205 144.37 65.7669C142.715 70.5212 140.052 74.5589 136.382 77.8799C132.668 81.2089 128.199 83.3481 122.973 84.2977C117.834 85.2314 112.963 84.7896 108.359 82.972C103.712 81.1624 99.7773 78.3236 96.5553 74.4556C93.2897 70.5955 91.1821 66.0526 90.2325 60.8269C89.2988 55.6884 89.6853 50.7598 91.392 46.0411C93.0472 41.2868 95.7316 37.2452 99.4453 33.9162C103.107 30.5517 107.508 28.4025 112.646 27.4688ZM104.735 41.862C102.906 42.1943 101.507 43.0335 100.537 44.3793C99.5668 45.7252 99.2322 47.2255 99.5329 48.8803C99.8494 50.6222 100.702 51.9742 102.092 52.9363C103.481 53.8985 105.09 54.2133 106.919 53.881C108.748 53.5486 110.144 52.6877 111.106 51.2983C112.068 49.9089 112.391 48.3432 112.074 46.6013C111.774 44.9466 110.933 43.6599 109.551 42.7413C108.17 41.8227 106.564 41.5296 104.735 41.862ZM35.6911 34.435C30.8138 35.3213 26.4293 37.0627 22.5376 39.6593C18.5944 42.2202 15.3044 45.4047 12.6674 49.2127C9.98699 53.0287 8.12002 57.2367 7.06653 61.8366C6.00512 66.393 5.91756 71.1099 6.80383 75.9872C7.6901 80.8644 9.43547 85.2707 12.0399 89.206C14.6444 93.1412 17.8764 96.4451 21.7359 99.1177C25.544 101.755 29.748 103.6 34.3479 104.653C38.8965 105.671 43.6093 105.737 48.4866 104.851C53.3639 103.964 57.7741 102.241 61.7173 99.6798C65.6525 97.0754 68.9604 93.8652 71.6409 90.0492C74.2699 86.1976 76.1111 81.9718 77.1646 77.3718C78.1745 72.7798 78.2364 68.0451 77.3501 63.1679C76.4638 58.2906 74.7442 53.9021 72.1912 50.0025C69.5867 46.0672 66.3805 42.7812 62.5724 40.1442C58.7208 37.5152 54.499 35.6958 49.9069 34.6858C45.3069 33.6324 40.5683 33.5487 35.6911 34.435ZM24.1075 76.8915C25.077 79.9992 26.6306 82.7309 28.7681 85.0866C30.9056 87.4422 33.4489 89.1843 36.398 90.3129C39.3393 91.3979 42.53 91.6278 45.9702 91.0027C49.4105 90.3775 52.3163 89.0398 54.6878 86.9894C57.0514 84.8954 58.8192 82.3699 59.9913 79.4128C61.1634 76.4558 61.6566 73.3522 61.4708 70.102L55.7226 71.1465C55.4689 74.7015 54.5383 77.7496 52.9308 80.291C51.2797 82.8402 48.6035 84.4512 44.902 85.1238C41.1569 85.8043 38.085 85.2379 35.6861 83.4246C33.2438 81.6191 31.3003 79.0933 29.8557 75.8469L24.1075 76.8915ZM49.9171 51.8233C48.0881 52.1556 46.6886 52.9947 45.7186 54.3406C44.7485 55.6865 44.4139 57.1868 44.7146 58.8416C45.0311 60.5835 45.8841 61.9355 47.2735 62.8976C48.6629 63.8597 50.2721 64.1746 52.1011 63.8423C53.9301 63.5099 55.3256 62.649 56.2877 61.2596C57.2499 59.8702 57.5727 58.3045 57.2561 56.5626C56.9554 54.9079 56.1143 53.6212 54.7328 52.7026C53.3513 51.784 51.746 51.4909 49.9171 51.8233ZM36.9255 41.2284C42.1512 40.2788 47.0916 40.7306 51.7469 42.5837C56.3508 44.4013 60.2637 47.244 63.4858 51.1121C66.6563 54.9445 68.7085 59.4299 69.6423 64.5685C70.5918 69.7941 70.2608 74.7801 68.6491 79.5265C66.9939 84.2808 64.3312 88.3185 60.6611 91.6395C56.9475 94.9685 52.4778 97.1077 47.2522 98.0573C42.1136 98.991 37.2424 98.5492 32.6386 96.7316C27.9912 94.922 24.0564 92.0832 20.8344 88.2152C17.5688 84.3551 15.4612 79.8122 14.5117 74.5865C13.5779 69.448 13.9644 64.5194 15.6711 59.8007C17.3263 55.0464 20.0108 51.0048 23.7244 47.6758C27.3866 44.3113 31.7869 42.1621 36.9255 41.2284ZM29.0145 55.6216C27.1855 55.9539 25.786 56.7931 24.816 58.1389C23.8459 59.4848 23.5113 60.9852 23.812 62.6399C24.1285 64.3818 24.9815 65.7338 26.3709 66.6959C27.7603 67.6581 29.3695 67.9729 31.1985 67.6406C33.0275 67.3082 34.423 66.4473 35.3851 65.0579C36.3473 63.6685 36.6701 62.1028 36.3535 60.361C36.0528 58.7062 35.2117 57.4195 33.8302 56.5009C32.4487 55.5823 30.8435 55.2892 29.0145 55.6216Z" fill="#822300"/>
</svg>
